ISO-10303-21;
HEADER;
/* Generated by software containing ST-Developer
 * from STEP Tools, Inc. (www.steptools.com) 
 */
/* OPTION: using custom renumber hook */

FILE_DESCRIPTION(
/* description */ ('STEP AP242 Edition 2',
'CAx-IF Rec.Pracs.---Representation and Presentation of Product Manufa
cturing Information (PMI)---4.0---2014-10-13',
'CAx-IF Rec.Pracs.---3D Tessellated Geometry---0.4---2014-09-14','2;1',
'CAx-IF Rec.Pracs.---User Defined Attributes---1.5---2016-08-15'),
/* implementation_level */ '2;1');

FILE_NAME(
/* name */ 'BackCase - Part 4',
/* time_stamp */ '2026-05-25T15:55:04Z',
/* author */ (''),
/* organization */ (''),
/* preprocessor_version */ 'ST-DEVELOPER v20',
/* originating_system */ 'ONSHAPE BY PTC INC, 1.215',
/* authorisation */ '  ');

FILE_SCHEMA (('AP242_MANAGED_MODEL_BASED_3D_ENGINEERING_MIM_LF { 1 0 10303 442 3 1 4 }'));
ENDSEC;

DATA;
#10=SHAPE_REPRESENTATION_RELATIONSHIP('','',#455,#11);
#11=ADVANCED_BREP_SHAPE_REPRESENTATION('',(#453),#719);
#12=B_SPLINE_CURVE_WITH_KNOTS('',2,(#710,#711,#712),.UNSPECIFIED.,.F.,.F.,
(3,3),(0.,1.),.PIECEWISE_BEZIER_KNOTS.);
#13=B_SPLINE_CURVE_WITH_KNOTS('',2,(#713,#714,#715),.UNSPECIFIED.,.F.,.F.,
(3,3),(0.,1.),.PIECEWISE_BEZIER_KNOTS.);
#14=B_SPLINE_SURFACE_WITH_KNOTS('',3,1,((#702,#703),(#704,#705),(#706,#707),
(#708,#709)),.SURF_OF_LINEAR_EXTRUSION.,.F.,.F.,.F.,(4,4),(2,2),(0.263211602387334,
0.830969149053921),(0.,1.),.PIECEWISE_BEZIER_KNOTS.);
#15=ORIENTED_EDGE('',*,*,#135,.F.);
#16=ORIENTED_EDGE('',*,*,#136,.T.);
#17=ORIENTED_EDGE('',*,*,#137,.F.);
#18=ORIENTED_EDGE('',*,*,#138,.F.);
#19=ORIENTED_EDGE('',*,*,#139,.F.);
#20=ORIENTED_EDGE('',*,*,#140,.F.);
#21=ORIENTED_EDGE('',*,*,#141,.T.);
#22=ORIENTED_EDGE('',*,*,#142,.T.);
#23=ORIENTED_EDGE('',*,*,#143,.T.);
#24=ORIENTED_EDGE('',*,*,#144,.F.);
#25=ORIENTED_EDGE('',*,*,#145,.F.);
#26=ORIENTED_EDGE('',*,*,#146,.F.);
#27=ORIENTED_EDGE('',*,*,#147,.T.);
#28=ORIENTED_EDGE('',*,*,#148,.T.);
#29=ORIENTED_EDGE('',*,*,#149,.F.);
#30=ORIENTED_EDGE('',*,*,#150,.F.);
#31=ORIENTED_EDGE('',*,*,#151,.F.);
#32=ORIENTED_EDGE('',*,*,#152,.T.);
#33=ORIENTED_EDGE('',*,*,#153,.T.);
#34=ORIENTED_EDGE('',*,*,#154,.T.);
#35=ORIENTED_EDGE('',*,*,#155,.F.);
#36=ORIENTED_EDGE('',*,*,#156,.F.);
#37=ORIENTED_EDGE('',*,*,#157,.T.);
#38=ORIENTED_EDGE('',*,*,#158,.T.);
#39=ORIENTED_EDGE('',*,*,#159,.F.);
#40=ORIENTED_EDGE('',*,*,#160,.F.);
#41=ORIENTED_EDGE('',*,*,#161,.F.);
#42=ORIENTED_EDGE('',*,*,#162,.T.);
#43=ORIENTED_EDGE('',*,*,#163,.T.);
#44=ORIENTED_EDGE('',*,*,#164,.T.);
#45=ORIENTED_EDGE('',*,*,#165,.F.);
#46=ORIENTED_EDGE('',*,*,#166,.F.);
#47=ORIENTED_EDGE('',*,*,#167,.F.);
#48=ORIENTED_EDGE('',*,*,#165,.T.);
#49=ORIENTED_EDGE('',*,*,#168,.T.);
#50=ORIENTED_EDGE('',*,*,#140,.T.);
#51=ORIENTED_EDGE('',*,*,#169,.F.);
#52=ORIENTED_EDGE('',*,*,#166,.T.);
#53=ORIENTED_EDGE('',*,*,#167,.T.);
#54=ORIENTED_EDGE('',*,*,#139,.T.);
#55=ORIENTED_EDGE('',*,*,#164,.F.);
#56=ORIENTED_EDGE('',*,*,#170,.T.);
#57=ORIENTED_EDGE('',*,*,#141,.F.);
#58=ORIENTED_EDGE('',*,*,#168,.F.);
#59=ORIENTED_EDGE('',*,*,#163,.F.);
#60=ORIENTED_EDGE('',*,*,#171,.T.);
#61=ORIENTED_EDGE('',*,*,#142,.F.);
#62=ORIENTED_EDGE('',*,*,#170,.F.);
#63=ORIENTED_EDGE('',*,*,#162,.F.);
#64=ORIENTED_EDGE('',*,*,#172,.T.);
#65=ORIENTED_EDGE('',*,*,#143,.F.);
#66=ORIENTED_EDGE('',*,*,#171,.F.);
#67=ORIENTED_EDGE('',*,*,#172,.F.);
#68=ORIENTED_EDGE('',*,*,#161,.T.);
#69=ORIENTED_EDGE('',*,*,#173,.T.);
#70=ORIENTED_EDGE('',*,*,#144,.T.);
#71=ORIENTED_EDGE('',*,*,#173,.F.);
#72=ORIENTED_EDGE('',*,*,#160,.T.);
#73=ORIENTED_EDGE('',*,*,#174,.T.);
#74=ORIENTED_EDGE('',*,*,#145,.T.);
#75=ORIENTED_EDGE('',*,*,#174,.F.);
#76=ORIENTED_EDGE('',*,*,#159,.T.);
#77=ORIENTED_EDGE('',*,*,#175,.T.);
#78=ORIENTED_EDGE('',*,*,#146,.T.);
#79=ORIENTED_EDGE('',*,*,#158,.F.);
#80=ORIENTED_EDGE('',*,*,#176,.T.);
#81=ORIENTED_EDGE('',*,*,#147,.F.);
#82=ORIENTED_EDGE('',*,*,#175,.F.);
#83=ORIENTED_EDGE('',*,*,#157,.F.);
#84=ORIENTED_EDGE('',*,*,#177,.T.);
#85=ORIENTED_EDGE('',*,*,#148,.F.);
#86=ORIENTED_EDGE('',*,*,#176,.F.);
#87=ORIENTED_EDGE('',*,*,#177,.F.);
#88=ORIENTED_EDGE('',*,*,#156,.T.);
#89=ORIENTED_EDGE('',*,*,#178,.T.);
#90=ORIENTED_EDGE('',*,*,#149,.T.);
#91=ORIENTED_EDGE('',*,*,#178,.F.);
#92=ORIENTED_EDGE('',*,*,#155,.T.);
#93=ORIENTED_EDGE('',*,*,#169,.T.);
#94=ORIENTED_EDGE('',*,*,#150,.T.);
#95=ORIENTED_EDGE('',*,*,#179,.F.);
#96=ORIENTED_EDGE('',*,*,#180,.F.);
#97=ORIENTED_EDGE('',*,*,#181,.T.);
#98=ORIENTED_EDGE('',*,*,#138,.T.);
#99=ORIENTED_EDGE('',*,*,#182,.T.);
#100=ORIENTED_EDGE('',*,*,#152,.F.);
#101=ORIENTED_EDGE('',*,*,#183,.F.);
#102=ORIENTED_EDGE('',*,*,#184,.T.);
#103=ORIENTED_EDGE('',*,*,#185,.F.);
#104=ORIENTED_EDGE('',*,*,#183,.T.);
#105=ORIENTED_EDGE('',*,*,#151,.T.);
#106=ORIENTED_EDGE('',*,*,#186,.F.);
#107=ORIENTED_EDGE('',*,*,#182,.F.);
#108=ORIENTED_EDGE('',*,*,#137,.T.);
#109=ORIENTED_EDGE('',*,*,#187,.T.);
#110=ORIENTED_EDGE('',*,*,#153,.F.);
#111=ORIENTED_EDGE('',*,*,#188,.T.);
#112=ORIENTED_EDGE('',*,*,#189,.T.);
#113=ORIENTED_EDGE('',*,*,#190,.F.);
#114=ORIENTED_EDGE('',*,*,#186,.T.);
#115=ORIENTED_EDGE('',*,*,#154,.F.);
#116=ORIENTED_EDGE('',*,*,#187,.F.);
#117=ORIENTED_EDGE('',*,*,#136,.F.);
#118=ORIENTED_EDGE('',*,*,#191,.F.);
#119=ORIENTED_EDGE('',*,*,#190,.T.);
#120=ORIENTED_EDGE('',*,*,#192,.T.);
#121=ORIENTED_EDGE('',*,*,#184,.F.);
#122=ORIENTED_EDGE('',*,*,#185,.T.);
#123=ORIENTED_EDGE('',*,*,#180,.T.);
#124=ORIENTED_EDGE('',*,*,#193,.F.);
#125=ORIENTED_EDGE('',*,*,#188,.F.);
#126=ORIENTED_EDGE('',*,*,#194,.T.);
#127=ORIENTED_EDGE('',*,*,#194,.F.);
#128=ORIENTED_EDGE('',*,*,#191,.T.);
#129=ORIENTED_EDGE('',*,*,#135,.T.);
#130=ORIENTED_EDGE('',*,*,#181,.F.);
#131=ORIENTED_EDGE('',*,*,#179,.T.);
#132=ORIENTED_EDGE('',*,*,#192,.F.);
#133=ORIENTED_EDGE('',*,*,#189,.F.);
#134=ORIENTED_EDGE('',*,*,#193,.T.);
#135=EDGE_CURVE('',#195,#196,#235,.T.);
#136=EDGE_CURVE('',#195,#197,#236,.T.);
#137=EDGE_CURVE('',#198,#197,#237,.T.);
#138=EDGE_CURVE('',#196,#198,#238,.T.);
#139=EDGE_CURVE('',#199,#200,#239,.T.);
#140=EDGE_CURVE('',#201,#199,#240,.T.);
#141=EDGE_CURVE('',#201,#202,#241,.T.);
#142=EDGE_CURVE('',#202,#203,#242,.T.);
#143=EDGE_CURVE('',#203,#204,#243,.T.);
#144=EDGE_CURVE('',#205,#204,#244,.T.);
#145=EDGE_CURVE('',#206,#205,#245,.T.);
#146=EDGE_CURVE('',#207,#206,#246,.T.);
#147=EDGE_CURVE('',#207,#208,#247,.T.);
#148=EDGE_CURVE('',#208,#209,#248,.T.);
#149=EDGE_CURVE('',#210,#209,#249,.T.);
#150=EDGE_CURVE('',#200,#210,#250,.T.);
#151=EDGE_CURVE('',#211,#212,#251,.T.);
#152=EDGE_CURVE('',#211,#213,#252,.T.);
#153=EDGE_CURVE('',#213,#214,#253,.T.);
#154=EDGE_CURVE('',#214,#212,#254,.T.);
#155=EDGE_CURVE('',#215,#216,#255,.T.);
#156=EDGE_CURVE('',#217,#215,#256,.T.);
#157=EDGE_CURVE('',#217,#218,#257,.T.);
#158=EDGE_CURVE('',#218,#219,#258,.T.);
#159=EDGE_CURVE('',#220,#219,#259,.T.);
#160=EDGE_CURVE('',#221,#220,#260,.T.);
#161=EDGE_CURVE('',#222,#221,#261,.T.);
#162=EDGE_CURVE('',#222,#223,#262,.T.);
#163=EDGE_CURVE('',#223,#224,#263,.T.);
#164=EDGE_CURVE('',#224,#225,#264,.T.);
#165=EDGE_CURVE('',#226,#225,#265,.T.);
#166=EDGE_CURVE('',#216,#226,#266,.T.);
#167=EDGE_CURVE('',#226,#199,#267,.T.);
#168=EDGE_CURVE('',#225,#201,#268,.T.);
#169=EDGE_CURVE('',#216,#200,#269,.T.);
#170=EDGE_CURVE('',#224,#202,#270,.T.);
#171=EDGE_CURVE('',#223,#203,#271,.T.);
#172=EDGE_CURVE('',#222,#204,#272,.T.);
#173=EDGE_CURVE('',#221,#205,#273,.T.);
#174=EDGE_CURVE('',#220,#206,#274,.T.);
#175=EDGE_CURVE('',#219,#207,#275,.T.);
#176=EDGE_CURVE('',#218,#208,#276,.T.);
#177=EDGE_CURVE('',#217,#209,#277,.T.);
#178=EDGE_CURVE('',#215,#210,#278,.T.);
#179=EDGE_CURVE('',#227,#228,#279,.T.);
#180=EDGE_CURVE('',#229,#227,#280,.F.);
#181=EDGE_CURVE('',#229,#196,#281,.T.);
#182=EDGE_CURVE('',#198,#213,#282,.T.);
#183=EDGE_CURVE('',#230,#211,#283,.T.);
#184=EDGE_CURVE('',#230,#228,#284,.T.);
#185=EDGE_CURVE('',#230,#231,#285,.T.);
#186=EDGE_CURVE('',#231,#212,#286,.T.);
#187=EDGE_CURVE('',#197,#214,#287,.T.);
#188=EDGE_CURVE('',#232,#233,#288,.F.);
#189=EDGE_CURVE('',#233,#234,#289,.T.);
#190=EDGE_CURVE('',#231,#234,#290,.T.);
#191=EDGE_CURVE('',#232,#195,#291,.T.);
#192=EDGE_CURVE('',#234,#228,#292,.T.);
#193=EDGE_CURVE('',#233,#227,#12,.T.);
#194=EDGE_CURVE('',#232,#229,#13,.T.);
#195=VERTEX_POINT('',#586);
#196=VERTEX_POINT('',#587);
#197=VERTEX_POINT('',#589);
#198=VERTEX_POINT('',#591);
#199=VERTEX_POINT('',#595);
#200=VERTEX_POINT('',#596);
#201=VERTEX_POINT('',#598);
#202=VERTEX_POINT('',#600);
#203=VERTEX_POINT('',#602);
#204=VERTEX_POINT('',#604);
#205=VERTEX_POINT('',#606);
#206=VERTEX_POINT('',#608);
#207=VERTEX_POINT('',#610);
#208=VERTEX_POINT('',#612);
#209=VERTEX_POINT('',#614);
#210=VERTEX_POINT('',#616);
#211=VERTEX_POINT('',#619);
#212=VERTEX_POINT('',#620);
#213=VERTEX_POINT('',#622);
#214=VERTEX_POINT('',#624);
#215=VERTEX_POINT('',#628);
#216=VERTEX_POINT('',#629);
#217=VERTEX_POINT('',#631);
#218=VERTEX_POINT('',#633);
#219=VERTEX_POINT('',#635);
#220=VERTEX_POINT('',#637);
#221=VERTEX_POINT('',#639);
#222=VERTEX_POINT('',#641);
#223=VERTEX_POINT('',#643);
#224=VERTEX_POINT('',#645);
#225=VERTEX_POINT('',#647);
#226=VERTEX_POINT('',#649);
#227=VERTEX_POINT('',#677);
#228=VERTEX_POINT('',#678);
#229=VERTEX_POINT('',#680);
#230=VERTEX_POINT('',#684);
#231=VERTEX_POINT('',#688);
#232=VERTEX_POINT('',#694);
#233=VERTEX_POINT('',#695);
#234=VERTEX_POINT('',#697);
#235=LINE('',#585,#293);
#236=LINE('',#588,#294);
#237=LINE('',#590,#295);
#238=LINE('',#592,#296);
#239=LINE('',#594,#297);
#240=LINE('',#597,#298);
#241=LINE('',#599,#299);
#242=LINE('',#601,#300);
#243=LINE('',#603,#301);
#244=LINE('',#605,#302);
#245=LINE('',#607,#303);
#246=LINE('',#609,#304);
#247=LINE('',#611,#305);
#248=LINE('',#613,#306);
#249=LINE('',#615,#307);
#250=LINE('',#617,#308);
#251=LINE('',#618,#309);
#252=LINE('',#621,#310);
#253=LINE('',#623,#311);
#254=LINE('',#625,#312);
#255=LINE('',#627,#313);
#256=LINE('',#630,#314);
#257=LINE('',#632,#315);
#258=LINE('',#634,#316);
#259=LINE('',#636,#317);
#260=LINE('',#638,#318);
#261=LINE('',#640,#319);
#262=LINE('',#642,#320);
#263=LINE('',#644,#321);
#264=LINE('',#646,#322);
#265=LINE('',#648,#323);
#266=LINE('',#650,#324);
#267=LINE('',#652,#325);
#268=LINE('',#653,#326);
#269=LINE('',#655,#327);
#270=LINE('',#657,#328);
#271=LINE('',#659,#329);
#272=LINE('',#661,#330);
#273=LINE('',#663,#331);
#274=LINE('',#665,#332);
#275=LINE('',#667,#333);
#276=LINE('',#669,#334);
#277=LINE('',#671,#335);
#278=LINE('',#673,#336);
#279=LINE('',#676,#337);
#280=LINE('',#679,#338);
#281=LINE('',#681,#339);
#282=LINE('',#682,#340);
#283=LINE('',#683,#341);
#284=LINE('',#685,#342);
#285=LINE('',#687,#343);
#286=LINE('',#689,#344);
#287=LINE('',#691,#345);
#288=LINE('',#693,#346);
#289=LINE('',#696,#347);
#290=LINE('',#698,#348);
#291=LINE('',#699,#349);
#292=LINE('',#701,#350);
#293=VECTOR('',#483,1.);
#294=VECTOR('',#484,1.);
#295=VECTOR('',#485,1.);
#296=VECTOR('',#486,1.);
#297=VECTOR('',#489,1.);
#298=VECTOR('',#490,1.);
#299=VECTOR('',#491,1.);
#300=VECTOR('',#492,1.);
#301=VECTOR('',#493,1.);
#302=VECTOR('',#494,1.);
#303=VECTOR('',#495,1.);
#304=VECTOR('',#496,1.);
#305=VECTOR('',#497,1.);
#306=VECTOR('',#498,1.);
#307=VECTOR('',#499,1.);
#308=VECTOR('',#500,1.);
#309=VECTOR('',#501,1.);
#310=VECTOR('',#502,1.);
#311=VECTOR('',#503,1.);
#312=VECTOR('',#504,1.);
#313=VECTOR('',#507,1.);
#314=VECTOR('',#508,1.);
#315=VECTOR('',#509,1.);
#316=VECTOR('',#510,1.);
#317=VECTOR('',#511,1.);
#318=VECTOR('',#512,1.);
#319=VECTOR('',#513,1.);
#320=VECTOR('',#514,1.);
#321=VECTOR('',#515,1.);
#322=VECTOR('',#516,1.);
#323=VECTOR('',#517,1.);
#324=VECTOR('',#518,1.);
#325=VECTOR('',#521,1.);
#326=VECTOR('',#522,1.);
#327=VECTOR('',#525,1.);
#328=VECTOR('',#528,1.);
#329=VECTOR('',#531,1.);
#330=VECTOR('',#534,1.);
#331=VECTOR('',#537,1.);
#332=VECTOR('',#540,1.);
#333=VECTOR('',#543,1.);
#334=VECTOR('',#546,1.);
#335=VECTOR('',#549,1.);
#336=VECTOR('',#552,1.);
#337=VECTOR('',#557,1.);
#338=VECTOR('',#558,1.);
#339=VECTOR('',#559,1.);
#340=VECTOR('',#560,1.);
#341=VECTOR('',#561,1.);
#342=VECTOR('',#562,1.);
#343=VECTOR('',#565,1.);
#344=VECTOR('',#566,1.);
#345=VECTOR('',#569,1.);
#346=VECTOR('',#572,1.);
#347=VECTOR('',#573,1.);
#348=VECTOR('',#574,1.);
#349=VECTOR('',#575,1.);
#350=VECTOR('',#578,1.);
#351=EDGE_LOOP('',(#15,#16,#17,#18));
#352=EDGE_LOOP('',(#19,#20,#21,#22,#23,#24,#25,#26,#27,#28,#29,#30));
#353=EDGE_LOOP('',(#31,#32,#33,#34));
#354=EDGE_LOOP('',(#35,#36,#37,#38,#39,#40,#41,#42,#43,#44,#45,#46));
#355=EDGE_LOOP('',(#47,#48,#49,#50));
#356=EDGE_LOOP('',(#51,#52,#53,#54));
#357=EDGE_LOOP('',(#55,#56,#57,#58));
#358=EDGE_LOOP('',(#59,#60,#61,#62));
#359=EDGE_LOOP('',(#63,#64,#65,#66));
#360=EDGE_LOOP('',(#67,#68,#69,#70));
#361=EDGE_LOOP('',(#71,#72,#73,#74));
#362=EDGE_LOOP('',(#75,#76,#77,#78));
#363=EDGE_LOOP('',(#79,#80,#81,#82));
#364=EDGE_LOOP('',(#83,#84,#85,#86));
#365=EDGE_LOOP('',(#87,#88,#89,#90));
#366=EDGE_LOOP('',(#91,#92,#93,#94));
#367=EDGE_LOOP('',(#95,#96,#97,#98,#99,#100,#101,#102));
#368=EDGE_LOOP('',(#103,#104,#105,#106));
#369=EDGE_LOOP('',(#107,#108,#109,#110));
#370=EDGE_LOOP('',(#111,#112,#113,#114,#115,#116,#117,#118));
#371=EDGE_LOOP('',(#119,#120,#121,#122));
#372=EDGE_LOOP('',(#123,#124,#125,#126));
#373=EDGE_LOOP('',(#127,#128,#129,#130));
#374=EDGE_LOOP('',(#131,#132,#133,#134));
#375=FACE_BOUND('',#351,.T.);
#376=FACE_BOUND('',#352,.T.);
#377=FACE_BOUND('',#353,.T.);
#378=FACE_BOUND('',#354,.T.);
#379=FACE_BOUND('',#355,.T.);
#380=FACE_BOUND('',#356,.T.);
#381=FACE_BOUND('',#357,.T.);
#382=FACE_BOUND('',#358,.T.);
#383=FACE_BOUND('',#359,.T.);
#384=FACE_BOUND('',#360,.T.);
#385=FACE_BOUND('',#361,.T.);
#386=FACE_BOUND('',#362,.T.);
#387=FACE_BOUND('',#363,.T.);
#388=FACE_BOUND('',#364,.T.);
#389=FACE_BOUND('',#365,.T.);
#390=FACE_BOUND('',#366,.T.);
#391=FACE_BOUND('',#367,.T.);
#392=FACE_BOUND('',#368,.T.);
#393=FACE_BOUND('',#369,.T.);
#394=FACE_BOUND('',#370,.T.);
#395=FACE_BOUND('',#371,.T.);
#396=FACE_BOUND('',#372,.T.);
#397=FACE_BOUND('',#373,.T.);
#398=FACE_BOUND('',#374,.T.);
#399=PLANE('',#457);
#400=PLANE('',#458);
#401=PLANE('',#459);
#402=PLANE('',#460);
#403=PLANE('',#461);
#404=PLANE('',#462);
#405=PLANE('',#463);
#406=PLANE('',#464);
#407=PLANE('',#465);
#408=PLANE('',#466);
#409=PLANE('',#467);
#410=PLANE('',#468);
#411=PLANE('',#469);
#412=PLANE('',#470);
#413=PLANE('',#471);
#414=PLANE('',#472);
#415=PLANE('',#473);
#416=PLANE('',#474);
#417=PLANE('',#475);
#418=PLANE('',#476);
#419=PLANE('',#477);
#420=PLANE('',#478);
#421=ADVANCED_FACE('',(#375),#399,.F.);
#422=ADVANCED_FACE('',(#376,#377),#400,.F.);
#423=ADVANCED_FACE('',(#378),#401,.F.);
#424=ADVANCED_FACE('',(#379),#402,.F.);
#425=ADVANCED_FACE('',(#380),#403,.F.);
#426=ADVANCED_FACE('',(#381),#404,.T.);
#427=ADVANCED_FACE('',(#382),#405,.T.);
#428=ADVANCED_FACE('',(#383),#406,.T.);
#429=ADVANCED_FACE('',(#384),#407,.F.);
#430=ADVANCED_FACE('',(#385),#408,.F.);
#431=ADVANCED_FACE('',(#386),#409,.F.);
#432=ADVANCED_FACE('',(#387),#410,.T.);
#433=ADVANCED_FACE('',(#388),#411,.T.);
#434=ADVANCED_FACE('',(#389),#412,.F.);
#435=ADVANCED_FACE('',(#390),#413,.F.);
#436=ADVANCED_FACE('',(#391),#414,.T.);
#437=ADVANCED_FACE('',(#392),#415,.T.);
#438=ADVANCED_FACE('',(#393),#416,.F.);
#439=ADVANCED_FACE('',(#394),#417,.F.);
#440=ADVANCED_FACE('',(#395),#418,.F.);
#441=ADVANCED_FACE('',(#396),#14,.F.);
#442=ADVANCED_FACE('',(#397),#419,.T.);
#443=ADVANCED_FACE('',(#398),#420,.F.);
#444=CLOSED_SHELL('',(#421,#422,#423,#424,#425,#426,#427,#428,#429,#430,
#431,#432,#433,#434,#435,#436,#437,#438,#439,#440,#441,#442,#443));
#445=STYLED_ITEM('',(#446),#453);
#446=PRESENTATION_STYLE_ASSIGNMENT((#447));
#447=SURFACE_STYLE_USAGE(.BOTH.,#448);
#448=SURFACE_SIDE_STYLE('',(#449));
#449=SURFACE_STYLE_FILL_AREA(#450);
#450=FILL_AREA_STYLE('',(#451));
#451=FILL_AREA_STYLE_COLOUR('',#452);
#452=COLOUR_RGB('',0.647058823529412,0.647058823529412,0.647058823529412);
#453=MANIFOLD_SOLID_BREP('Part 4',#444);
#454=SHAPE_DEFINITION_REPRESENTATION(#724,#455);
#455=SHAPE_REPRESENTATION('Part 4',(#456),#719);
#456=AXIS2_PLACEMENT_3D('',#583,#479,#480);
#457=AXIS2_PLACEMENT_3D('',#584,#481,#482);
#458=AXIS2_PLACEMENT_3D('',#593,#487,#488);
#459=AXIS2_PLACEMENT_3D('',#626,#505,#506);
#460=AXIS2_PLACEMENT_3D('',#651,#519,#520);
#461=AXIS2_PLACEMENT_3D('',#654,#523,#524);
#462=AXIS2_PLACEMENT_3D('',#656,#526,#527);
#463=AXIS2_PLACEMENT_3D('',#658,#529,#530);
#464=AXIS2_PLACEMENT_3D('',#660,#532,#533);
#465=AXIS2_PLACEMENT_3D('',#662,#535,#536);
#466=AXIS2_PLACEMENT_3D('',#664,#538,#539);
#467=AXIS2_PLACEMENT_3D('',#666,#541,#542);
#468=AXIS2_PLACEMENT_3D('',#668,#544,#545);
#469=AXIS2_PLACEMENT_3D('',#670,#547,#548);
#470=AXIS2_PLACEMENT_3D('',#672,#550,#551);
#471=AXIS2_PLACEMENT_3D('',#674,#553,#554);
#472=AXIS2_PLACEMENT_3D('',#675,#555,#556);
#473=AXIS2_PLACEMENT_3D('',#686,#563,#564);
#474=AXIS2_PLACEMENT_3D('',#690,#567,#568);
#475=AXIS2_PLACEMENT_3D('',#692,#570,#571);
#476=AXIS2_PLACEMENT_3D('',#700,#576,#577);
#477=AXIS2_PLACEMENT_3D('',#716,#579,#580);
#478=AXIS2_PLACEMENT_3D('',#717,#581,#582);
#479=DIRECTION('',(0.,0.,1.));
#480=DIRECTION('',(1.,0.,0.));
#481=DIRECTION('',(0.,-1.,0.));
#482=DIRECTION('',(0.,0.,-1.));
#483=DIRECTION('',(3.28081325416165E-15,0.,1.));
#484=DIRECTION('',(-1.,0.,3.28081325416165E-15));
#485=DIRECTION('',(-3.28081325416165E-15,0.,-1.));
#486=DIRECTION('',(-1.,0.,3.28081325416165E-15));
#487=DIRECTION('',(4.31775426138044E-16,-1.,1.77635683940027E-15));
#488=DIRECTION('',(1.,4.31775426138044E-16,-7.66987231305278E-31));
#489=DIRECTION('',(-3.01691039300314E-15,-1.77635683940027E-15,-1.));
#490=DIRECTION('',(1.,4.31775426138038E-16,-3.26095938473298E-15));
#491=DIRECTION('',(-3.01691039300322E-15,-1.77635683940027E-15,-1.));
#492=DIRECTION('',(-1.,-4.31775426138044E-16,-2.73000368483453E-16));
#493=DIRECTION('',(0.819152044288992,1.37256614862574E-15,0.573576436351046));
#494=DIRECTION('',(-1.05858974778125E-14,-1.77635683940027E-15,-1.));
#495=DIRECTION('',(0.819152044288992,-6.65186702636281E-16,-0.573576436351046));
#496=DIRECTION('',(-1.,-4.31775426138044E-16,-1.53656158892499E-16));
#497=DIRECTION('',(-0.819152044288995,-1.37256614862573E-15,-0.573576436351042));
#498=DIRECTION('',(7.66987231305278E-31,-1.77635683940027E-15,-1.));
#499=DIRECTION('',(-0.819152044288988,6.65186702636293E-16,0.573576436351052));
#500=DIRECTION('',(1.,4.31775426138044E-16,-7.66987231305278E-31));
#501=DIRECTION('',(-3.28081325416165E-15,0.,-1.));
#502=DIRECTION('',(-1.,-4.31775426138038E-16,3.28081325416165E-15));
#503=DIRECTION('',(-3.28081325416165E-15,0.,-1.));
#504=DIRECTION('',(1.,4.31775426138038E-16,-3.28081325416165E-15));
#505=DIRECTION('',(-4.31775426138038E-16,1.,0.));
#506=DIRECTION('',(-1.,-4.31775426138038E-16,0.));
#507=DIRECTION('',(-1.,-4.31775426138038E-16,7.66987231305268E-31));
#508=DIRECTION('',(0.819152044288988,3.53689722994723E-16,-0.573576436351051));
#509=DIRECTION('',(1.13961986306397E-46,4.92059852009819E-62,1.));
#510=DIRECTION('',(0.819152044288995,3.53689722994726E-16,0.573576436351042));
#511=DIRECTION('',(1.,4.31775426138038E-16,1.53656158892499E-16));
#512=DIRECTION('',(-0.819152044288992,-3.53689722994725E-16,0.573576436351046));
#513=DIRECTION('',(1.05858974778125E-14,4.57073039453609E-30,1.));
#514=DIRECTION('',(-0.819152044288992,-3.53689722994725E-16,-0.573576436351046));
#515=DIRECTION('',(1.,4.31775426138038E-16,2.73000368483453E-16));
#516=DIRECTION('',(3.01691039300322E-15,1.30262777055924E-30,1.));
#517=DIRECTION('',(-1.,-4.31775426138038E-16,3.26095938473298E-15));
#518=DIRECTION('',(3.01691039300314E-15,1.30262777055921E-30,1.));
#519=DIRECTION('',(3.26095938473298E-15,1.77635683940027E-15,1.));
#520=DIRECTION('',(1.,0.,-3.26095938473298E-15));
#521=DIRECTION('',(-4.31775426138044E-16,1.,-1.77635683940027E-15));
#522=DIRECTION('',(-4.31775426138044E-16,1.,-1.77635683940027E-15));
#523=DIRECTION('',(1.,4.31775426138039E-16,-3.01691039300314E-15));
#524=DIRECTION('',(-3.01691039300314E-15,0.,-1.));
#525=DIRECTION('',(-4.31775426138044E-16,1.,-1.77635683940027E-15));
#526=DIRECTION('',(1.,4.31775426138039E-16,-3.01691039300322E-15));
#527=DIRECTION('',(-3.01691039300322E-15,0.,-1.));
#528=DIRECTION('',(-4.31775426138044E-16,1.,-1.77635683940027E-15));
#529=DIRECTION('',(2.73000368483454E-16,-1.77635683940027E-15,-1.));
#530=DIRECTION('',(0.,1.,-1.77635683940027E-15));
#531=DIRECTION('',(-4.31775426138044E-16,1.,-1.77635683940027E-15));
#532=DIRECTION('',(-0.573576436351046,1.20745012615324E-15,0.819152044288992));
#533=DIRECTION('',(0.819152044288992,0.,0.573576436351046));
#534=DIRECTION('',(-4.31775426138044E-16,1.,-1.77635683940027E-15));
#535=DIRECTION('',(1.,4.31775426138026E-16,-1.05858974778125E-14));
#536=DIRECTION('',(-1.05858974778125E-14,0.,-1.));
#537=DIRECTION('',(-4.31775426138044E-16,1.,-1.77635683940027E-15));
#538=DIRECTION('',(0.573576436351046,1.70276254660968E-15,0.819152044288992));
#539=DIRECTION('',(0.819152044288992,0.,-0.573576436351046));
#540=DIRECTION('',(-4.31775426138044E-16,1.,-1.77635683940027E-15));
#541=DIRECTION('',(1.536561588925E-16,-1.77635683940027E-15,-1.));
#542=DIRECTION('',(0.,1.,-1.77635683940027E-15));
#543=DIRECTION('',(-4.31775426138044E-16,1.,-1.77635683940027E-15));
#544=DIRECTION('',(0.573576436351042,-1.20745012615325E-15,-0.819152044288995));
#545=DIRECTION('',(-0.819152044288995,0.,-0.573576436351042));
#546=DIRECTION('',(-4.31775426138044E-16,1.,-1.77635683940027E-15));
#547=DIRECTION('',(1.,4.31775426138044E-16,-1.13961986306397E-46));
#548=DIRECTION('',(-4.31775426138044E-16,1.,0.));
#549=DIRECTION('',(-4.31775426138044E-16,1.,-1.77635683940027E-15));
#550=DIRECTION('',(-0.573576436351052,-1.70276254660967E-15,-0.819152044288988));
#551=DIRECTION('',(-0.819152044288988,0.,0.573576436351051));
#552=DIRECTION('',(-4.31775426138044E-16,1.,-1.77635683940027E-15));
#553=DIRECTION('',(1.13961986306397E-46,1.77635683940027E-15,1.));
#554=DIRECTION('',(0.,-1.,1.77635683940027E-15));
#555=DIRECTION('',(3.28081325416165E-15,2.14462324048975E-15,1.));
#556=DIRECTION('',(1.,0.,-3.28081325416165E-15));
#557=DIRECTION('',(-1.20821328975679E-30,1.,-2.14462324048975E-15));
#558=DIRECTION('',(-1.,5.7851666382042E-30,3.28081325416165E-15));
#559=DIRECTION('',(-1.25094171437768E-30,1.,-2.14462324048975E-15));
#560=DIRECTION('',(7.03610835258188E-30,-1.,2.14462324048975E-15));
#561=DIRECTION('',(7.03610835258188E-30,-1.,2.14462324048975E-15));
#562=DIRECTION('',(-1.,0.,3.28081325416165E-15));
#563=DIRECTION('',(1.,0.,-3.28081325416165E-15));
#564=DIRECTION('',(-3.28081325416165E-15,0.,-1.));
#565=DIRECTION('',(-3.28081325416165E-15,0.,-1.));
#566=DIRECTION('',(0.,-1.,0.));
#567=DIRECTION('',(1.,0.,-3.28081325416165E-15));
#568=DIRECTION('',(-3.28081325416165E-15,0.,-1.));
#569=DIRECTION('',(0.,-1.,0.));
#570=DIRECTION('',(3.28081325416165E-15,0.,1.));
#571=DIRECTION('',(1.,0.,-3.28081325416165E-15));
#572=DIRECTION('',(-1.,5.7851666382042E-30,3.28081325416165E-15));
#573=DIRECTION('',(5.82789506282509E-30,1.,-1.91202353659798E-44));
#574=DIRECTION('',(-1.,0.,3.28081325416165E-15));
#575=DIRECTION('',(5.7851666382042E-30,1.,-1.89800513841541E-44));
#576=DIRECTION('',(0.,-1.,0.));
#577=DIRECTION('',(0.,0.,-1.));
#578=DIRECTION('',(3.28081325416165E-15,0.,1.));
#579=DIRECTION('',(1.,-5.7851666382042E-30,-3.28081325416165E-15));
#580=DIRECTION('',(5.7851666382042E-30,1.,-1.89800513841541E-44));
#581=DIRECTION('',(1.,-5.82789506282509E-30,-3.28081325416165E-15));
#582=DIRECTION('',(-3.28081325416165E-15,0.,-1.));
#583=CARTESIAN_POINT('',(0.,0.,0.));
#584=CARTESIAN_POINT('',(0.00527511551900456,-0.0574423581828349,0.42356090491866));
#585=CARTESIAN_POINT('',(-0.0612751181242111,-0.0574423581828349,0.42356090491866));
#586=CARTESIAN_POINT('',(-0.0612751181242124,-0.0574423581828349,0.03145));
#587=CARTESIAN_POINT('',(-0.0612751181242124,-0.0574423581828349,0.03505));
#588=CARTESIAN_POINT('',(0.00527511551900327,-0.0574423581828349,0.0314499999999996));
#589=CARTESIAN_POINT('',(-0.0683748844809982,-0.0574423581828349,0.03145));
#590=CARTESIAN_POINT('',(-0.0683748844809969,-0.0574423581828349,0.42356090491866));
#591=CARTESIAN_POINT('',(-0.0683748844809982,-0.0574423581828349,0.03505));
#592=CARTESIAN_POINT('',(0.00527511551900328,-0.0574423581828349,0.0350499999999996));
#593=CARTESIAN_POINT('',(1.81748379134002E-8,-0.0664979618027714,0.0284999999999997));
#594=CARTESIAN_POINT('',(0.0649000181748375,-0.0664979618027714,0.0229499999999996));
#595=CARTESIAN_POINT('',(0.0649000181748376,-0.0664979618027714,0.0281499999999993));
#596=CARTESIAN_POINT('',(0.0649000181748375,-0.0664979618027714,0.0206499999999996));
#597=CARTESIAN_POINT('',(1.81748375516211E-8,-0.0664979618027714,0.0281499999999996));
#598=CARTESIAN_POINT('',(-0.0648999818251625,-0.0664979618027714,0.02815));
#599=CARTESIAN_POINT('',(-0.0648999818251625,-0.0664979618027714,0.0229499999999997));
#600=CARTESIAN_POINT('',(-0.0648999818251625,-0.0664979618027714,0.0206499999999997));
#601=CARTESIAN_POINT('',(-0.0776085615652807,-0.0664979618027714,0.0206499999999997));
#602=CARTESIAN_POINT('',(-0.0903171413053988,-0.0664979618027714,0.0206499999999997));
#603=CARTESIAN_POINT('',(-0.0873415294102692,-0.0664979618027714,0.0227335458797559));
#604=CARTESIAN_POINT('',(-0.0843659175151395,-0.0664979618027714,0.0248170917595122));
#605=CARTESIAN_POINT('',(-0.0843659175151395,-0.0664979618027714,0.0302164541202436));
#606=CARTESIAN_POINT('',(-0.0843659175151395,-0.0664979618027714,0.0321829082404872));
#607=CARTESIAN_POINT('',(-0.0873415294102691,-0.0664979618027714,0.0342664541202435));
#608=CARTESIAN_POINT('',(-0.0903171413053987,-0.0664979618027714,0.03635));
#609=CARTESIAN_POINT('',(1.81748379679547E-8,-0.0664979618027714,0.03635));
#610=CARTESIAN_POINT('',(0.0903171776550746,-0.0664979618027713,0.03635));
#611=CARTESIAN_POINT('',(0.0873415657599446,-0.0664979618027713,0.0342664541202432));
#612=CARTESIAN_POINT('',(0.0843659538648146,-0.0664979618027713,0.0321829082404867));
#613=CARTESIAN_POINT('',(0.0843659538648146,-0.0664979618027714,0.0250335458797555));
#614=CARTESIAN_POINT('',(0.0843659538648146,-0.0664979618027714,0.0248170917595117));
#615=CARTESIAN_POINT('',(0.0873415657599439,-0.0664979618027714,0.0227335458797557));
#616=CARTESIAN_POINT('',(0.0903171776550732,-0.0664979618027714,0.0206499999999996));
#617=CARTESIAN_POINT('',(0.0776085979149554,-0.0664979618027714,0.0206499999999996));
#618=CARTESIAN_POINT('',(0.078925115519006,-0.0664979618027713,0.42356090491866));
#619=CARTESIAN_POINT('',(0.0789251155190047,-0.0664979618027713,0.03505));
#620=CARTESIAN_POINT('',(0.0789251155190047,-0.0664979618027713,0.0314499999999995));
#621=CARTESIAN_POINT('',(-0.0763748844809982,-0.0664979618027714,0.03505));
#622=CARTESIAN_POINT('',(-0.0683748844809981,-0.0664979618027714,0.0350499999999996));
#623=CARTESIAN_POINT('',(-0.0683748844809969,-0.0664979618027714,0.42356090491866));
#624=CARTESIAN_POINT('',(-0.0683748844809982,-0.0664979618027714,0.03145));
#625=CARTESIAN_POINT('',(0.0789251155190047,-0.0664979618027713,0.0314499999999995));
#626=CARTESIAN_POINT('',(-0.106701981825162,-0.0694979618027714,0.0186568542494921));
#627=CARTESIAN_POINT('',(0.0776085979149554,-0.0694979618027714,0.0206499999999996));
#628=CARTESIAN_POINT('',(0.0903171776550732,-0.0694979618027714,0.0206499999999996));
#629=CARTESIAN_POINT('',(0.0649000181748375,-0.0694979618027714,0.0206499999999996));
#630=CARTESIAN_POINT('',(0.0873415657599439,-0.0694979618027714,0.0227335458797557));
#631=CARTESIAN_POINT('',(0.0843659538648146,-0.0694979618027714,0.0248170917595117));
#632=CARTESIAN_POINT('',(0.0843659538648146,-0.0694979618027714,0.0250335458797555));
#633=CARTESIAN_POINT('',(0.0843659538648146,-0.0694979618027714,0.0321829082404867));
#634=CARTESIAN_POINT('',(0.0873415657599446,-0.0694979618027714,0.0342664541202432));
#635=CARTESIAN_POINT('',(0.0903171776550746,-0.0694979618027714,0.03635));
#636=CARTESIAN_POINT('',(1.81748379692501E-8,-0.0694979618027714,0.03635));
#637=CARTESIAN_POINT('',(-0.0903171413053987,-0.0694979618027714,0.03635));
#638=CARTESIAN_POINT('',(-0.0873415294102691,-0.0694979618027714,0.0342664541202435));
#639=CARTESIAN_POINT('',(-0.0843659175151395,-0.0694979618027714,0.0321829082404873));
#640=CARTESIAN_POINT('',(-0.0843659175151395,-0.0694979618027714,0.0302164541202436));
#641=CARTESIAN_POINT('',(-0.0843659175151395,-0.0694979618027714,0.0248170917595122));
#642=CARTESIAN_POINT('',(-0.0873415294102692,-0.0694979618027714,0.0227335458797559));
#643=CARTESIAN_POINT('',(-0.0903171413053988,-0.0694979618027714,0.0206499999999997));
#644=CARTESIAN_POINT('',(-0.0776085615652807,-0.0694979618027714,0.0206499999999997));
#645=CARTESIAN_POINT('',(-0.0648999818251625,-0.0694979618027714,0.0206499999999997));
#646=CARTESIAN_POINT('',(-0.0648999818251625,-0.0694979618027714,0.0229499999999997));
#647=CARTESIAN_POINT('',(-0.0648999818251625,-0.0694979618027714,0.02815));
#648=CARTESIAN_POINT('',(1.81748375529164E-8,-0.0694979618027714,0.0281499999999996));
#649=CARTESIAN_POINT('',(0.0649000181748376,-0.0694979618027714,0.0281499999999993));
#650=CARTESIAN_POINT('',(0.0649000181748375,-0.0694979618027714,0.0229499999999996));
#651=CARTESIAN_POINT('',(1.81748375529173E-8,-0.0694999618027714,0.0281499999999996));
#652=CARTESIAN_POINT('',(0.0649000181748376,-0.0694999618027713,0.0281499999999993));
#653=CARTESIAN_POINT('',(-0.0648999818251625,-0.0694999618027714,0.02815));
#654=CARTESIAN_POINT('',(0.0649000181748375,-0.0694999618027714,0.0229499999999996));
#655=CARTESIAN_POINT('',(0.0649000181748375,-0.0694999618027714,0.0206499999999996));
#656=CARTESIAN_POINT('',(-0.0648999818251625,-0.0694999618027714,0.0229499999999997));
#657=CARTESIAN_POINT('',(-0.0648999818251625,-0.0694999618027714,0.0206499999999997));
#658=CARTESIAN_POINT('',(-0.0776085615652807,-0.0694999618027714,0.0206499999999997));
#659=CARTESIAN_POINT('',(-0.0903171413053988,-0.0694999618027714,0.0206499999999997));
#660=CARTESIAN_POINT('',(-0.0873415294102692,-0.0694999618027714,0.0227335458797559));
#661=CARTESIAN_POINT('',(-0.0843659175151395,-0.0694999618027714,0.0248170917595122));
#662=CARTESIAN_POINT('',(-0.0843659175151395,-0.0694999618027714,0.0302164541202436));
#663=CARTESIAN_POINT('',(-0.0843659175151395,-0.0694999618027714,0.0321829082404873));
#664=CARTESIAN_POINT('',(-0.0873415294102691,-0.0694999618027714,0.0342664541202435));
#665=CARTESIAN_POINT('',(-0.0903171413053987,-0.0694999618027714,0.03635));
#666=CARTESIAN_POINT('',(1.81748379692509E-8,-0.0694999618027714,0.03635));
#667=CARTESIAN_POINT('',(0.0903171776550746,-0.0694999618027713,0.03635));
#668=CARTESIAN_POINT('',(0.0873415657599446,-0.0694999618027713,0.0342664541202432));
#669=CARTESIAN_POINT('',(0.0843659538648146,-0.0694999618027713,0.0321829082404867));
#670=CARTESIAN_POINT('',(0.0843659538648146,-0.0694999618027713,0.0250335458797555));
#671=CARTESIAN_POINT('',(0.0843659538648146,-0.0694999618027713,0.0248170917595117));
#672=CARTESIAN_POINT('',(0.0873415657599439,-0.0694999618027713,0.0227335458797557));
#673=CARTESIAN_POINT('',(0.0903171776550732,-0.0694999618027713,0.0206499999999996));
#674=CARTESIAN_POINT('',(0.0776085979149554,-0.0694999618027714,0.0206499999999996));
#675=CARTESIAN_POINT('',(0.0789251155190047,-0.00329235818283436,0.0350499999999992));
#676=CARTESIAN_POINT('',(0.061795939253951,-0.00329235818283436,0.0350499999999993));
#677=CARTESIAN_POINT('',(0.061795939253951,-0.0616643937160111,0.0350499999999994));
#678=CARTESIAN_POINT('',(0.061795939253951,-0.0574423581828349,0.03505));
#679=CARTESIAN_POINT('',(0.000260410564869326,-0.0616643937160111,0.03505));
#680=CARTESIAN_POINT('',(-0.0612751181242124,-0.0616643937160111,0.03505));
#681=CARTESIAN_POINT('',(-0.0612751181242123,-0.00329235818283436,0.03505));
#682=CARTESIAN_POINT('',(-0.0683748844809982,-0.061970159992804,0.03505));
#683=CARTESIAN_POINT('',(0.0789251155190047,-0.0619701599928039,0.0350499999999994));
#684=CARTESIAN_POINT('',(0.0789251155190047,-0.0574423581828349,0.0350499999999996));
#685=CARTESIAN_POINT('',(0.00527511551900328,-0.0574423581828349,0.0350499999999996));
#686=CARTESIAN_POINT('',(0.078925115519006,-0.0619701599928031,0.42356090491866));
#687=CARTESIAN_POINT('',(0.078925115519006,-0.0574423581828349,0.42356090491866));
#688=CARTESIAN_POINT('',(0.0789251155190047,-0.0574423581828349,0.0314499999999994));
#689=CARTESIAN_POINT('',(0.0789251155190047,-0.0619701599928031,0.0314499999999994));
#690=CARTESIAN_POINT('',(-0.0683748844809969,-0.0619701599928031,0.42356090491866));
#691=CARTESIAN_POINT('',(-0.0683748844809982,-0.0619701599928031,0.03145));
#692=CARTESIAN_POINT('',(0.00127511551900326,-0.00982015999280255,0.0314499999999996));
#693=CARTESIAN_POINT('',(0.000260410564869312,-0.0660129993693535,0.0314499999999996));
#694=CARTESIAN_POINT('',(-0.0612751181242124,-0.0660129993693536,0.0314499999999996));
#695=CARTESIAN_POINT('',(0.061795939253951,-0.0660129993693535,0.0314499999999995));
#696=CARTESIAN_POINT('',(0.061795939253951,-0.00982015999280255,0.0314499999999995));
#697=CARTESIAN_POINT('',(0.061795939253951,-0.0574423581828349,0.0314499999999995));
#698=CARTESIAN_POINT('',(0.00527511551900327,-0.0574423581828349,0.0314499999999996));
#699=CARTESIAN_POINT('',(-0.0612751181242124,-0.00982015999280255,0.03145));
#700=CARTESIAN_POINT('',(0.00527511551900456,-0.0574423581828349,0.42356090491866));
#701=CARTESIAN_POINT('',(0.0617959392539523,-0.0574423581828349,0.42356090491866));
#702=CARTESIAN_POINT('',(0.061795939253951,-0.0660129993693522,0.0314500000000029));
#703=CARTESIAN_POINT('',(-0.0612751181242124,-0.0660129993693522,0.0314500000000033));
#704=CARTESIAN_POINT('',(0.061795939253951,-0.0653156109590994,0.0334021468075274));
#705=CARTESIAN_POINT('',(-0.0612751181242124,-0.0653156109590994,0.0334021468075278));
#706=CARTESIAN_POINT('',(0.061795939253951,-0.0638660757413205,0.0346021468075259));
#707=CARTESIAN_POINT('',(-0.0612751181242124,-0.0638660757413205,0.0346021468075264));
#708=CARTESIAN_POINT('',(0.061795939253951,-0.0616643937160156,0.0350499999999985));
#709=CARTESIAN_POINT('',(-0.0612751181242124,-0.0616643937160156,0.0350499999999989));
#710=CARTESIAN_POINT('',(0.061795939253951,-0.0664979618027714,0.0282499999999994));
#711=CARTESIAN_POINT('',(0.061795939253951,-0.0664979618027714,0.0352499999999994));
#712=CARTESIAN_POINT('',(0.061795939253951,-0.0594979618027714,0.0352499999999994));
#713=CARTESIAN_POINT('',(-0.0612751181242124,-0.0664979618027714,0.02825));
#714=CARTESIAN_POINT('',(-0.0612751181242124,-0.0664979618027714,0.03525));
#715=CARTESIAN_POINT('',(-0.0612751181242124,-0.0594979618027714,0.03525));
#716=CARTESIAN_POINT('',(-0.0612751181242124,-0.0118201599928025,0.03025));
#717=CARTESIAN_POINT('',(0.061795939253951,-0.0626504068775596,0.0282499999999993));
#718=MECHANICAL_DESIGN_GEOMETRIC_PRESENTATION_REPRESENTATION('',(#445),
#719);
#719=(
GEOMETRIC_REPRESENTATION_CONTEXT(3)
GLOBAL_UNCERTAINTY_ASSIGNED_CONTEXT((#720))
GLOBAL_UNIT_ASSIGNED_CONTEXT((#723,#722,#721))
REPRESENTATION_CONTEXT('Part 4','TOP_LEVEL_ASSEMBLY_PART')
);
#720=UNCERTAINTY_MEASURE_WITH_UNIT(LENGTH_MEASURE(2.E-5),#723,
'DISTANCE_ACCURACY_VALUE','Maximum Tolerance applied to model');
#721=(
NAMED_UNIT(*)
SI_UNIT($,.STERADIAN.)
SOLID_ANGLE_UNIT()
);
#722=(
NAMED_UNIT(*)
PLANE_ANGLE_UNIT()
SI_UNIT($,.RADIAN.)
);
#723=(
LENGTH_UNIT()
NAMED_UNIT(*)
SI_UNIT($,.METRE.)
);
#724=PRODUCT_DEFINITION_SHAPE('','',#725);
#725=PRODUCT_DEFINITION('','',#727,#726);
#726=PRODUCT_DEFINITION_CONTEXT('',#733,'design');
#727=PRODUCT_DEFINITION_FORMATION_WITH_SPECIFIED_SOURCE('','',#729,
 .NOT_KNOWN.);
#728=PRODUCT_RELATED_PRODUCT_CATEGORY('','',(#729));
#729=PRODUCT('Part 4','Part 4','Part 4',(#731));
#730=PRODUCT_CATEGORY('','');
#731=PRODUCT_CONTEXT('',#733,'mechanical');
#732=APPLICATION_PROTOCOL_DEFINITION('international standard',
'ap242_managed_model_based_3d_engineering',2020,#733);
#733=APPLICATION_CONTEXT('managed model based 3d engineering');
ENDSEC;
END-ISO-10303-21;
