ISO-10303-21;
HEADER;
/* Generated by software containing ST-Developer
 * from STEP Tools, Inc. (www.steptools.com) 
 */
/* OPTION: using custom renumber hook */

FILE_DESCRIPTION(
/* description */ ('STEP AP242 Edition 2',
'CAx-IF Rec.Pracs.---Representation and Presentation of Product Manufa
cturing Information (PMI)---4.0---2014-10-13',
'CAx-IF Rec.Pracs.---3D Tessellated Geometry---0.4---2014-09-14','2;1',
'CAx-IF Rec.Pracs.---User Defined Attributes---1.5---2016-08-15'),
/* implementation_level */ '2;1');

FILE_NAME(
/* name */ 'BackCase - Part 5',
/* time_stamp */ '2026-05-25T15:55:26Z',
/* author */ (''),
/* organization */ (''),
/* preprocessor_version */ 'ST-DEVELOPER v20',
/* originating_system */ 'ONSHAPE BY PTC INC, 1.215',
/* authorisation */ '  ');

FILE_SCHEMA (('AP242_MANAGED_MODEL_BASED_3D_ENGINEERING_MIM_LF { 1 0 10303 442 3 1 4 }'));
ENDSEC;

DATA;
#10=SHAPE_REPRESENTATION_RELATIONSHIP('','',#157,#11);
#11=ADVANCED_BREP_SHAPE_REPRESENTATION('',(#155),#243);
#12=ORIENTED_EDGE('',*,*,#48,.T.);
#13=ORIENTED_EDGE('',*,*,#49,.F.);
#14=ORIENTED_EDGE('',*,*,#50,.F.);
#15=ORIENTED_EDGE('',*,*,#51,.F.);
#16=ORIENTED_EDGE('',*,*,#52,.F.);
#17=ORIENTED_EDGE('',*,*,#53,.T.);
#18=ORIENTED_EDGE('',*,*,#54,.T.);
#19=ORIENTED_EDGE('',*,*,#55,.T.);
#20=ORIENTED_EDGE('',*,*,#56,.F.);
#21=ORIENTED_EDGE('',*,*,#57,.F.);
#22=ORIENTED_EDGE('',*,*,#58,.F.);
#23=ORIENTED_EDGE('',*,*,#59,.F.);
#24=ORIENTED_EDGE('',*,*,#53,.F.);
#25=ORIENTED_EDGE('',*,*,#60,.T.);
#26=ORIENTED_EDGE('',*,*,#55,.F.);
#27=ORIENTED_EDGE('',*,*,#61,.F.);
#28=ORIENTED_EDGE('',*,*,#60,.F.);
#29=ORIENTED_EDGE('',*,*,#52,.T.);
#30=ORIENTED_EDGE('',*,*,#62,.T.);
#31=ORIENTED_EDGE('',*,*,#56,.T.);
#32=ORIENTED_EDGE('',*,*,#62,.F.);
#33=ORIENTED_EDGE('',*,*,#51,.T.);
#34=ORIENTED_EDGE('',*,*,#63,.T.);
#35=ORIENTED_EDGE('',*,*,#57,.T.);
#36=ORIENTED_EDGE('',*,*,#63,.F.);
#37=ORIENTED_EDGE('',*,*,#50,.T.);
#38=ORIENTED_EDGE('',*,*,#64,.T.);
#39=ORIENTED_EDGE('',*,*,#58,.T.);
#40=ORIENTED_EDGE('',*,*,#64,.F.);
#41=ORIENTED_EDGE('',*,*,#49,.T.);
#42=ORIENTED_EDGE('',*,*,#65,.T.);
#43=ORIENTED_EDGE('',*,*,#59,.T.);
#44=ORIENTED_EDGE('',*,*,#48,.F.);
#45=ORIENTED_EDGE('',*,*,#61,.T.);
#46=ORIENTED_EDGE('',*,*,#54,.F.);
#47=ORIENTED_EDGE('',*,*,#65,.F.);
#48=EDGE_CURVE('',#66,#67,#78,.T.);
#49=EDGE_CURVE('',#68,#67,#79,.T.);
#50=EDGE_CURVE('',#69,#68,#80,.T.);
#51=EDGE_CURVE('',#70,#69,#81,.T.);
#52=EDGE_CURVE('',#71,#70,#82,.T.);
#53=EDGE_CURVE('',#71,#66,#83,.T.);
#54=EDGE_CURVE('',#72,#73,#84,.T.);
#55=EDGE_CURVE('',#73,#74,#85,.T.);
#56=EDGE_CURVE('',#75,#74,#86,.T.);
#57=EDGE_CURVE('',#76,#75,#87,.T.);
#58=EDGE_CURVE('',#77,#76,#88,.T.);
#59=EDGE_CURVE('',#72,#77,#89,.T.);
#60=EDGE_CURVE('',#71,#74,#90,.T.);
#61=EDGE_CURVE('',#66,#73,#91,.T.);
#62=EDGE_CURVE('',#70,#75,#92,.T.);
#63=EDGE_CURVE('',#69,#76,#93,.T.);
#64=EDGE_CURVE('',#68,#77,#94,.T.);
#65=EDGE_CURVE('',#67,#72,#95,.T.);
#66=VERTEX_POINT('',#206);
#67=VERTEX_POINT('',#207);
#68=VERTEX_POINT('',#209);
#69=VERTEX_POINT('',#211);
#70=VERTEX_POINT('',#213);
#71=VERTEX_POINT('',#215);
#72=VERTEX_POINT('',#219);
#73=VERTEX_POINT('',#220);
#74=VERTEX_POINT('',#222);
#75=VERTEX_POINT('',#224);
#76=VERTEX_POINT('',#226);
#77=VERTEX_POINT('',#228);
#78=LINE('',#205,#96);
#79=LINE('',#208,#97);
#80=LINE('',#210,#98);
#81=LINE('',#212,#99);
#82=LINE('',#214,#100);
#83=LINE('',#216,#101);
#84=LINE('',#218,#102);
#85=LINE('',#221,#103);
#86=LINE('',#223,#104);
#87=LINE('',#225,#105);
#88=LINE('',#227,#106);
#89=LINE('',#229,#107);
#90=LINE('',#231,#108);
#91=LINE('',#232,#109);
#92=LINE('',#234,#110);
#93=LINE('',#236,#111);
#94=LINE('',#238,#112);
#95=LINE('',#240,#113);
#96=VECTOR('',#171,1.);
#97=VECTOR('',#172,1.);
#98=VECTOR('',#173,1.);
#99=VECTOR('',#174,1.);
#100=VECTOR('',#175,1.);
#101=VECTOR('',#176,1.);
#102=VECTOR('',#179,1.);
#103=VECTOR('',#180,1.);
#104=VECTOR('',#181,1.);
#105=VECTOR('',#182,1.);
#106=VECTOR('',#183,1.);
#107=VECTOR('',#184,1.);
#108=VECTOR('',#187,1.);
#109=VECTOR('',#188,1.);
#110=VECTOR('',#191,1.);
#111=VECTOR('',#194,1.);
#112=VECTOR('',#197,1.);
#113=VECTOR('',#200,1.);
#114=EDGE_LOOP('',(#12,#13,#14,#15,#16,#17));
#115=EDGE_LOOP('',(#18,#19,#20,#21,#22,#23));
#116=EDGE_LOOP('',(#24,#25,#26,#27));
#117=EDGE_LOOP('',(#28,#29,#30,#31));
#118=EDGE_LOOP('',(#32,#33,#34,#35));
#119=EDGE_LOOP('',(#36,#37,#38,#39));
#120=EDGE_LOOP('',(#40,#41,#42,#43));
#121=EDGE_LOOP('',(#44,#45,#46,#47));
#122=FACE_BOUND('',#114,.T.);
#123=FACE_BOUND('',#115,.T.);
#124=FACE_BOUND('',#116,.T.);
#125=FACE_BOUND('',#117,.T.);
#126=FACE_BOUND('',#118,.T.);
#127=FACE_BOUND('',#119,.T.);
#128=FACE_BOUND('',#120,.T.);
#129=FACE_BOUND('',#121,.T.);
#130=PLANE('',#159);
#131=PLANE('',#160);
#132=PLANE('',#161);
#133=PLANE('',#162);
#134=PLANE('',#163);
#135=PLANE('',#164);
#136=PLANE('',#165);
#137=PLANE('',#166);
#138=ADVANCED_FACE('',(#122),#130,.F.);
#139=ADVANCED_FACE('',(#123),#131,.F.);
#140=ADVANCED_FACE('',(#124),#132,.T.);
#141=ADVANCED_FACE('',(#125),#133,.F.);
#142=ADVANCED_FACE('',(#126),#134,.F.);
#143=ADVANCED_FACE('',(#127),#135,.F.);
#144=ADVANCED_FACE('',(#128),#136,.F.);
#145=ADVANCED_FACE('',(#129),#137,.T.);
#146=CLOSED_SHELL('',(#138,#139,#140,#141,#142,#143,#144,#145));
#147=STYLED_ITEM('',(#148),#155);
#148=PRESENTATION_STYLE_ASSIGNMENT((#149));
#149=SURFACE_STYLE_USAGE(.BOTH.,#150);
#150=SURFACE_SIDE_STYLE('',(#151));
#151=SURFACE_STYLE_FILL_AREA(#152);
#152=FILL_AREA_STYLE('',(#153));
#153=FILL_AREA_STYLE_COLOUR('',#154);
#154=COLOUR_RGB('',0.647058823529412,0.647058823529412,0.647058823529412);
#155=MANIFOLD_SOLID_BREP('Part 5',#146);
#156=SHAPE_DEFINITION_REPRESENTATION(#248,#157);
#157=SHAPE_REPRESENTATION('Part 5',(#158),#243);
#158=AXIS2_PLACEMENT_3D('',#203,#167,#168);
#159=AXIS2_PLACEMENT_3D('',#204,#169,#170);
#160=AXIS2_PLACEMENT_3D('',#217,#177,#178);
#161=AXIS2_PLACEMENT_3D('',#230,#185,#186);
#162=AXIS2_PLACEMENT_3D('',#233,#189,#190);
#163=AXIS2_PLACEMENT_3D('',#235,#192,#193);
#164=AXIS2_PLACEMENT_3D('',#237,#195,#196);
#165=AXIS2_PLACEMENT_3D('',#239,#198,#199);
#166=AXIS2_PLACEMENT_3D('',#241,#201,#202);
#167=DIRECTION('',(0.,0.,1.));
#168=DIRECTION('',(1.,0.,0.));
#169=DIRECTION('',(1.33440267382831E-16,-1.,0.));
#170=DIRECTION('',(1.,1.33440267382831E-16,0.));
#171=DIRECTION('',(0.,0.,-1.));
#172=DIRECTION('',(1.,1.33440267382831E-16,0.));
#173=DIRECTION('',(-0.819152044288992,-1.09307867817116E-16,-0.573576436351046));
#174=DIRECTION('',(0.,0.,-1.));
#175=DIRECTION('',(0.819152044288992,1.09307867817116E-16,-0.573576436351046));
#176=DIRECTION('',(1.,1.33440267382831E-16,0.));
#177=DIRECTION('',(-1.33440267382831E-16,1.,0.));
#178=DIRECTION('',(-1.,-1.33440267382831E-16,0.));
#179=DIRECTION('',(0.,0.,1.));
#180=DIRECTION('',(-1.,-1.33440267382831E-16,0.));
#181=DIRECTION('',(-0.819152044288992,-1.09307867817116E-16,0.573576436351046));
#182=DIRECTION('',(0.,0.,1.));
#183=DIRECTION('',(0.819152044288992,1.09307867817116E-16,0.573576436351046));
#184=DIRECTION('',(-1.,-1.33440267382831E-16,0.));
#185=DIRECTION('',(0.,0.,1.));
#186=DIRECTION('',(1.,0.,0.));
#187=DIRECTION('',(1.33440267382831E-16,-1.,0.));
#188=DIRECTION('',(1.33440267382831E-16,-1.,0.));
#189=DIRECTION('',(0.573576436351046,7.65381930311751E-17,0.819152044288992));
#190=DIRECTION('',(0.819152044288992,0.,-0.573576436351046));
#191=DIRECTION('',(1.33440267382831E-16,-1.,0.));
#192=DIRECTION('',(1.,1.33440267382831E-16,0.));
#193=DIRECTION('',(-1.33440267382831E-16,1.,0.));
#194=DIRECTION('',(1.33440267382831E-16,-1.,0.));
#195=DIRECTION('',(0.573576436351046,7.65381930311751E-17,-0.819152044288992));
#196=DIRECTION('',(-0.819152044288992,0.,-0.573576436351046));
#197=DIRECTION('',(1.33440267382831E-16,-1.,0.));
#198=DIRECTION('',(0.,0.,1.));
#199=DIRECTION('',(1.,0.,0.));
#200=DIRECTION('',(1.33440267382831E-16,-1.,0.));
#201=DIRECTION('',(1.,1.33440267382831E-16,0.));
#202=DIRECTION('',(-1.33440267382831E-16,1.,0.));
#203=CARTESIAN_POINT('',(0.,0.,0.));
#204=CARTESIAN_POINT('',(0.,0.054,0.005));
#205=CARTESIAN_POINT('',(0.0214536155189793,0.054,0.0253799999999994));
#206=CARTESIAN_POINT('',(0.0214536155189793,0.054,0.0348815287270203));
#207=CARTESIAN_POINT('',(0.0214536155189793,0.054,0.00760999999999937));
#208=CARTESIAN_POINT('',(0.0126621952590975,0.054,0.00760999999999938));
#209=CARTESIAN_POINT('',(0.00387077499921562,0.054,0.00760999999999938));
#210=CARTESIAN_POINT('',(0.00785795548054243,0.054,0.010401853829227));
#211=CARTESIAN_POINT('',(0.0118451359618692,0.054,0.0131937076584547));
#212=CARTESIAN_POINT('',(0.0118451359618692,0.054,0.0253799999999993));
#213=CARTESIAN_POINT('',(0.0118451359618692,0.054,0.029297821068565));
#214=CARTESIAN_POINT('',(0.00785795548054243,0.054,0.0320896748977927));
#215=CARTESIAN_POINT('',(0.00387077499921564,0.054,0.0348815287270203));
#216=CARTESIAN_POINT('',(0.0126621952590975,0.054,0.0348815287270203));
#217=CARTESIAN_POINT('',(-0.0256731922405103,0.0515,0.0211957643635098));
#218=CARTESIAN_POINT('',(0.0214536155189793,0.0515,0.0253799999999994));
#219=CARTESIAN_POINT('',(0.0214536155189793,0.0515,0.00760999999999937));
#220=CARTESIAN_POINT('',(0.0214536155189793,0.0515,0.0348815287270203));
#221=CARTESIAN_POINT('',(0.0126621952590975,0.0515,0.0348815287270203));
#222=CARTESIAN_POINT('',(0.00387077499921564,0.0515,0.0348815287270203));
#223=CARTESIAN_POINT('',(0.00785795548054243,0.0515,0.0320896748977927));
#224=CARTESIAN_POINT('',(0.0118451359618692,0.0515,0.029297821068565));
#225=CARTESIAN_POINT('',(0.0118451359618692,0.0515,0.0253799999999993));
#226=CARTESIAN_POINT('',(0.0118451359618692,0.0515,0.0131937076584547));
#227=CARTESIAN_POINT('',(0.00785795548054243,0.0515,0.010401853829227));
#228=CARTESIAN_POINT('',(0.00387077499921562,0.0515,0.00760999999999938));
#229=CARTESIAN_POINT('',(0.0126621952590975,0.0515,0.00760999999999938));
#230=CARTESIAN_POINT('',(0.0126621952590975,0.054002,0.0348815287270203));
#231=CARTESIAN_POINT('',(0.00387077499921564,0.054002,0.0348815287270203));
#232=CARTESIAN_POINT('',(0.0214536155189793,0.054002,0.0348815287270203));
#233=CARTESIAN_POINT('',(0.00785795548054243,0.054002,0.0320896748977927));
#234=CARTESIAN_POINT('',(0.0118451359618692,0.054002,0.029297821068565));
#235=CARTESIAN_POINT('',(0.0118451359618692,0.054002,0.0253799999999993));
#236=CARTESIAN_POINT('',(0.0118451359618692,0.054002,0.0131937076584547));
#237=CARTESIAN_POINT('',(0.00785795548054243,0.054002,0.010401853829227));
#238=CARTESIAN_POINT('',(0.00387077499921562,0.054002,0.00760999999999938));
#239=CARTESIAN_POINT('',(0.0126621952590975,0.054002,0.00760999999999938));
#240=CARTESIAN_POINT('',(0.0214536155189793,0.054002,0.00760999999999937));
#241=CARTESIAN_POINT('',(0.0214536155189793,0.054002,0.0253799999999994));
#242=MECHANICAL_DESIGN_GEOMETRIC_PRESENTATION_REPRESENTATION('',(#147),
#243);
#243=(
GEOMETRIC_REPRESENTATION_CONTEXT(3)
GLOBAL_UNCERTAINTY_ASSIGNED_CONTEXT((#244))
GLOBAL_UNIT_ASSIGNED_CONTEXT((#247,#246,#245))
REPRESENTATION_CONTEXT('Part 5','TOP_LEVEL_ASSEMBLY_PART')
);
#244=UNCERTAINTY_MEASURE_WITH_UNIT(LENGTH_MEASURE(1.E-8),#247,
'DISTANCE_ACCURACY_VALUE','Maximum Tolerance applied to model');
#245=(
NAMED_UNIT(*)
SI_UNIT($,.STERADIAN.)
SOLID_ANGLE_UNIT()
);
#246=(
NAMED_UNIT(*)
PLANE_ANGLE_UNIT()
SI_UNIT($,.RADIAN.)
);
#247=(
LENGTH_UNIT()
NAMED_UNIT(*)
SI_UNIT($,.METRE.)
);
#248=PRODUCT_DEFINITION_SHAPE('','',#249);
#249=PRODUCT_DEFINITION('','',#251,#250);
#250=PRODUCT_DEFINITION_CONTEXT('',#257,'design');
#251=PRODUCT_DEFINITION_FORMATION_WITH_SPECIFIED_SOURCE('','',#253,
 .NOT_KNOWN.);
#252=PRODUCT_RELATED_PRODUCT_CATEGORY('','',(#253));
#253=PRODUCT('Part 5','Part 5','Part 5',(#255));
#254=PRODUCT_CATEGORY('','');
#255=PRODUCT_CONTEXT('',#257,'mechanical');
#256=APPLICATION_PROTOCOL_DEFINITION('international standard',
'ap242_managed_model_based_3d_engineering',2020,#257);
#257=APPLICATION_CONTEXT('managed model based 3d engineering');
ENDSEC;
END-ISO-10303-21;
