ISO-10303-21;
HEADER;
/* Generated by software containing ST-Developer
 * from STEP Tools, Inc. (www.steptools.com) 
 */
/* OPTION: using custom renumber hook */

FILE_DESCRIPTION(
/* description */ ('STEP AP242 Edition 2',
'CAx-IF Rec.Pracs.---Representation and Presentation of Product Manufa
cturing Information (PMI)---4.0---2014-10-13',
'CAx-IF Rec.Pracs.---3D Tessellated Geometry---0.4---2014-09-14','2;1',
'CAx-IF Rec.Pracs.---User Defined Attributes---1.5---2016-08-15'),
/* implementation_level */ '2;1');

FILE_NAME(
/* name */ 'RightPlunger',
/* time_stamp */ '2026-05-25T15:56:45Z',
/* author */ (''),
/* organization */ (''),
/* preprocessor_version */ 'ST-DEVELOPER v20',
/* originating_system */ 'ONSHAPE BY PTC INC, 1.215',
/* authorisation */ '  ');

FILE_SCHEMA (('AP242_MANAGED_MODEL_BASED_3D_ENGINEERING_MIM_LF { 1 0 10303 442 3 1 4 }'));
ENDSEC;

DATA;
#10=SHAPE_REPRESENTATION_RELATIONSHIP('','',#561,#11);
#11=ADVANCED_BREP_SHAPE_REPRESENTATION('',(#559),#931);
#12=B_SPLINE_SURFACE_WITH_KNOTS('',3,1,((#829,#830),(#831,#832),(#833,#834),
(#835,#836)),.SURF_OF_LINEAR_EXTRUSION.,.F.,.F.,.F.,(4,4),(2,2),(0.563632510579489,
0.876380057314759),(0.,1.),.PIECEWISE_BEZIER_KNOTS.);
#13=B_SPLINE_SURFACE_WITH_KNOTS('',3,1,((#857,#858),(#859,#860),(#861,#862),
(#863,#864)),.SURF_OF_LINEAR_EXTRUSION.,.F.,.F.,.F.,(4,4),(2,2),(0.747958473015303,
0.872483060709529),(0.,1.),.PIECEWISE_BEZIER_KNOTS.);
#14=B_SPLINE_SURFACE_WITH_KNOTS('',3,1,((#918,#919),(#920,#921),(#922,#923),
(#924,#925)),.SURF_OF_LINEAR_EXTRUSION.,.F.,.F.,.F.,(4,4),(2,2),(0.563632510579489,
0.872916538410281),(0.,1.),.PIECEWISE_BEZIER_KNOTS.);
#15=CYLINDRICAL_SURFACE('',#572,0.0185000000000008);
#16=CYLINDRICAL_SURFACE('',#578,0.0505992813962705);
#17=CYLINDRICAL_SURFACE('',#591,0.0157000000000008);
#18=CYLINDRICAL_SURFACE('',#593,0.0514568220708596);
#19=CYLINDRICAL_SURFACE('',#597,0.016);
#20=ELLIPSE('',#565,3.67556496025267,0.309209839176068);
#21=ELLIPSE('',#576,3.67556496025267,0.309209839176068);
#22=B_SPLINE_CURVE_WITH_KNOTS('',2,(#745,#746,#747),.UNSPECIFIED.,.F.,.F.,
(3,3),(0.563632510579489,1.),.PIECEWISE_BEZIER_KNOTS.);
#23=B_SPLINE_CURVE_WITH_KNOTS('',3,(#840,#841,#842,#843,#844),
 .UNSPECIFIED.,.F.,.F.,(4,1,4),(0.563632510579489,0.720179674722372,0.876380057314759),
 .UNSPECIFIED.);
#24=B_SPLINE_CURVE_WITH_KNOTS('',3,(#845,#846,#847,#848,#849),
 .UNSPECIFIED.,.F.,.F.,(4,1,4),(0.563632510579489,0.720179674722372,0.876380057314759),
 .UNSPECIFIED.);
#25=B_SPLINE_CURVE_WITH_KNOTS('',2,(#926,#927,#928),.UNSPECIFIED.,.F.,.F.,
(3,3),(0.563632510579489,1.),.PIECEWISE_BEZIER_KNOTS.);
#26=CIRCLE('',#564,0.016);
#27=CIRCLE('',#566,0.0505992813962705);
#28=CIRCLE('',#567,0.0514568220708596);
#29=CIRCLE('',#568,0.0157000000000008);
#30=CIRCLE('',#573,0.0185000000000008);
#31=CIRCLE('',#574,0.0185000000000008);
#32=CIRCLE('',#579,0.0505992813962705);
#33=CIRCLE('',#592,0.0157000000000008);
#34=CIRCLE('',#594,0.0514568220708596);
#35=CIRCLE('',#598,0.016);
#36=ORIENTED_EDGE('',*,*,#192,.T.);
#37=ORIENTED_EDGE('',*,*,#193,.T.);
#38=ORIENTED_EDGE('',*,*,#194,.T.);
#39=ORIENTED_EDGE('',*,*,#195,.F.);
#40=ORIENTED_EDGE('',*,*,#196,.F.);
#41=ORIENTED_EDGE('',*,*,#197,.F.);
#42=ORIENTED_EDGE('',*,*,#198,.F.);
#43=ORIENTED_EDGE('',*,*,#199,.F.);
#44=ORIENTED_EDGE('',*,*,#200,.F.);
#45=ORIENTED_EDGE('',*,*,#201,.T.);
#46=ORIENTED_EDGE('',*,*,#202,.T.);
#47=ORIENTED_EDGE('',*,*,#203,.F.);
#48=ORIENTED_EDGE('',*,*,#204,.F.);
#49=ORIENTED_EDGE('',*,*,#205,.F.);
#50=ORIENTED_EDGE('',*,*,#206,.F.);
#51=ORIENTED_EDGE('',*,*,#207,.F.);
#52=ORIENTED_EDGE('',*,*,#208,.T.);
#53=ORIENTED_EDGE('',*,*,#209,.T.);
#54=ORIENTED_EDGE('',*,*,#210,.F.);
#55=ORIENTED_EDGE('',*,*,#211,.F.);
#56=ORIENTED_EDGE('',*,*,#212,.F.);
#57=ORIENTED_EDGE('',*,*,#213,.F.);
#58=ORIENTED_EDGE('',*,*,#214,.F.);
#59=ORIENTED_EDGE('',*,*,#215,.T.);
#60=ORIENTED_EDGE('',*,*,#216,.T.);
#61=ORIENTED_EDGE('',*,*,#217,.T.);
#62=ORIENTED_EDGE('',*,*,#218,.T.);
#63=ORIENTED_EDGE('',*,*,#219,.T.);
#64=ORIENTED_EDGE('',*,*,#220,.F.);
#65=ORIENTED_EDGE('',*,*,#221,.F.);
#66=ORIENTED_EDGE('',*,*,#222,.T.);
#67=ORIENTED_EDGE('',*,*,#223,.T.);
#68=ORIENTED_EDGE('',*,*,#192,.F.);
#69=ORIENTED_EDGE('',*,*,#224,.T.);
#70=ORIENTED_EDGE('',*,*,#225,.T.);
#71=ORIENTED_EDGE('',*,*,#226,.F.);
#72=ORIENTED_EDGE('',*,*,#227,.F.);
#73=ORIENTED_EDGE('',*,*,#228,.T.);
#74=ORIENTED_EDGE('',*,*,#229,.F.);
#75=ORIENTED_EDGE('',*,*,#230,.T.);
#76=ORIENTED_EDGE('',*,*,#226,.T.);
#77=ORIENTED_EDGE('',*,*,#231,.F.);
#78=ORIENTED_EDGE('',*,*,#232,.F.);
#79=ORIENTED_EDGE('',*,*,#233,.F.);
#80=ORIENTED_EDGE('',*,*,#229,.T.);
#81=ORIENTED_EDGE('',*,*,#234,.T.);
#82=ORIENTED_EDGE('',*,*,#235,.F.);
#83=ORIENTED_EDGE('',*,*,#236,.F.);
#84=ORIENTED_EDGE('',*,*,#232,.T.);
#85=ORIENTED_EDGE('',*,*,#237,.T.);
#86=ORIENTED_EDGE('',*,*,#238,.F.);
#87=ORIENTED_EDGE('',*,*,#195,.T.);
#88=ORIENTED_EDGE('',*,*,#239,.F.);
#89=ORIENTED_EDGE('',*,*,#240,.T.);
#90=ORIENTED_EDGE('',*,*,#235,.T.);
#91=ORIENTED_EDGE('',*,*,#241,.F.);
#92=ORIENTED_EDGE('',*,*,#242,.F.);
#93=ORIENTED_EDGE('',*,*,#196,.T.);
#94=ORIENTED_EDGE('',*,*,#238,.T.);
#95=ORIENTED_EDGE('',*,*,#243,.F.);
#96=ORIENTED_EDGE('',*,*,#244,.F.);
#97=ORIENTED_EDGE('',*,*,#197,.T.);
#98=ORIENTED_EDGE('',*,*,#242,.T.);
#99=ORIENTED_EDGE('',*,*,#245,.F.);
#100=ORIENTED_EDGE('',*,*,#246,.F.);
#101=ORIENTED_EDGE('',*,*,#198,.T.);
#102=ORIENTED_EDGE('',*,*,#244,.T.);
#103=ORIENTED_EDGE('',*,*,#247,.F.);
#104=ORIENTED_EDGE('',*,*,#248,.F.);
#105=ORIENTED_EDGE('',*,*,#199,.T.);
#106=ORIENTED_EDGE('',*,*,#246,.T.);
#107=ORIENTED_EDGE('',*,*,#249,.F.);
#108=ORIENTED_EDGE('',*,*,#250,.T.);
#109=ORIENTED_EDGE('',*,*,#223,.F.);
#110=ORIENTED_EDGE('',*,*,#251,.F.);
#111=ORIENTED_EDGE('',*,*,#200,.T.);
#112=ORIENTED_EDGE('',*,*,#248,.T.);
#113=ORIENTED_EDGE('',*,*,#222,.F.);
#114=ORIENTED_EDGE('',*,*,#201,.F.);
#115=ORIENTED_EDGE('',*,*,#251,.T.);
#116=ORIENTED_EDGE('',*,*,#221,.T.);
#117=ORIENTED_EDGE('',*,*,#252,.F.);
#118=ORIENTED_EDGE('',*,*,#202,.F.);
#119=ORIENTED_EDGE('',*,*,#252,.T.);
#120=ORIENTED_EDGE('',*,*,#220,.T.);
#121=ORIENTED_EDGE('',*,*,#253,.F.);
#122=ORIENTED_EDGE('',*,*,#254,.F.);
#123=ORIENTED_EDGE('',*,*,#203,.T.);
#124=ORIENTED_EDGE('',*,*,#253,.T.);
#125=ORIENTED_EDGE('',*,*,#219,.F.);
#126=ORIENTED_EDGE('',*,*,#255,.F.);
#127=ORIENTED_EDGE('',*,*,#204,.T.);
#128=ORIENTED_EDGE('',*,*,#254,.T.);
#129=ORIENTED_EDGE('',*,*,#218,.F.);
#130=ORIENTED_EDGE('',*,*,#256,.F.);
#131=ORIENTED_EDGE('',*,*,#205,.T.);
#132=ORIENTED_EDGE('',*,*,#255,.T.);
#133=ORIENTED_EDGE('',*,*,#217,.F.);
#134=ORIENTED_EDGE('',*,*,#257,.F.);
#135=ORIENTED_EDGE('',*,*,#206,.T.);
#136=ORIENTED_EDGE('',*,*,#256,.T.);
#137=ORIENTED_EDGE('',*,*,#216,.F.);
#138=ORIENTED_EDGE('',*,*,#258,.F.);
#139=ORIENTED_EDGE('',*,*,#207,.T.);
#140=ORIENTED_EDGE('',*,*,#257,.T.);
#141=ORIENTED_EDGE('',*,*,#215,.F.);
#142=ORIENTED_EDGE('',*,*,#208,.F.);
#143=ORIENTED_EDGE('',*,*,#258,.T.);
#144=ORIENTED_EDGE('',*,*,#214,.T.);
#145=ORIENTED_EDGE('',*,*,#259,.F.);
#146=ORIENTED_EDGE('',*,*,#209,.F.);
#147=ORIENTED_EDGE('',*,*,#259,.T.);
#148=ORIENTED_EDGE('',*,*,#213,.T.);
#149=ORIENTED_EDGE('',*,*,#260,.F.);
#150=ORIENTED_EDGE('',*,*,#261,.T.);
#151=ORIENTED_EDGE('',*,*,#262,.F.);
#152=ORIENTED_EDGE('',*,*,#224,.F.);
#153=ORIENTED_EDGE('',*,*,#211,.T.);
#154=ORIENTED_EDGE('',*,*,#263,.T.);
#155=ORIENTED_EDGE('',*,*,#264,.F.);
#156=ORIENTED_EDGE('',*,*,#263,.F.);
#157=ORIENTED_EDGE('',*,*,#210,.T.);
#158=ORIENTED_EDGE('',*,*,#262,.T.);
#159=ORIENTED_EDGE('',*,*,#265,.F.);
#160=ORIENTED_EDGE('',*,*,#212,.T.);
#161=ORIENTED_EDGE('',*,*,#250,.F.);
#162=ORIENTED_EDGE('',*,*,#266,.F.);
#163=ORIENTED_EDGE('',*,*,#260,.T.);
#164=ORIENTED_EDGE('',*,*,#261,.F.);
#165=ORIENTED_EDGE('',*,*,#266,.T.);
#166=ORIENTED_EDGE('',*,*,#249,.T.);
#167=ORIENTED_EDGE('',*,*,#247,.T.);
#168=ORIENTED_EDGE('',*,*,#245,.T.);
#169=ORIENTED_EDGE('',*,*,#243,.T.);
#170=ORIENTED_EDGE('',*,*,#241,.T.);
#171=ORIENTED_EDGE('',*,*,#237,.F.);
#172=ORIENTED_EDGE('',*,*,#234,.F.);
#173=ORIENTED_EDGE('',*,*,#231,.T.);
#174=ORIENTED_EDGE('',*,*,#225,.F.);
#175=ORIENTED_EDGE('',*,*,#264,.T.);
#176=ORIENTED_EDGE('',*,*,#265,.T.);
#177=ORIENTED_EDGE('',*,*,#193,.F.);
#178=ORIENTED_EDGE('',*,*,#228,.F.);
#179=ORIENTED_EDGE('',*,*,#267,.T.);
#180=ORIENTED_EDGE('',*,*,#268,.T.);
#181=ORIENTED_EDGE('',*,*,#194,.F.);
#182=ORIENTED_EDGE('',*,*,#268,.F.);
#183=ORIENTED_EDGE('',*,*,#269,.T.);
#184=ORIENTED_EDGE('',*,*,#239,.T.);
#185=ORIENTED_EDGE('',*,*,#267,.F.);
#186=ORIENTED_EDGE('',*,*,#227,.T.);
#187=ORIENTED_EDGE('',*,*,#230,.F.);
#188=ORIENTED_EDGE('',*,*,#233,.T.);
#189=ORIENTED_EDGE('',*,*,#236,.T.);
#190=ORIENTED_EDGE('',*,*,#240,.F.);
#191=ORIENTED_EDGE('',*,*,#269,.F.);
#192=EDGE_CURVE('',#270,#271,#322,.T.);
#193=EDGE_CURVE('',#271,#272,#26,.T.);
#194=EDGE_CURVE('',#272,#273,#22,.T.);
#195=EDGE_CURVE('',#274,#273,#323,.T.);
#196=EDGE_CURVE('',#275,#274,#20,.T.);
#197=EDGE_CURVE('',#276,#275,#324,.T.);
#198=EDGE_CURVE('',#277,#276,#27,.F.);
#199=EDGE_CURVE('',#278,#277,#325,.T.);
#200=EDGE_CURVE('',#279,#278,#326,.T.);
#201=EDGE_CURVE('',#279,#280,#327,.T.);
#202=EDGE_CURVE('',#280,#281,#328,.T.);
#203=EDGE_CURVE('',#282,#281,#329,.T.);
#204=EDGE_CURVE('',#283,#282,#330,.T.);
#205=EDGE_CURVE('',#284,#283,#331,.T.);
#206=EDGE_CURVE('',#285,#284,#332,.T.);
#207=EDGE_CURVE('',#286,#285,#333,.T.);
#208=EDGE_CURVE('',#286,#287,#334,.T.);
#209=EDGE_CURVE('',#287,#288,#335,.T.);
#210=EDGE_CURVE('',#289,#288,#28,.F.);
#211=EDGE_CURVE('',#270,#289,#29,.T.);
#212=EDGE_CURVE('',#290,#291,#336,.T.);
#213=EDGE_CURVE('',#292,#290,#337,.T.);
#214=EDGE_CURVE('',#293,#292,#338,.T.);
#215=EDGE_CURVE('',#293,#294,#339,.T.);
#216=EDGE_CURVE('',#294,#295,#340,.T.);
#217=EDGE_CURVE('',#295,#296,#341,.T.);
#218=EDGE_CURVE('',#296,#297,#342,.T.);
#219=EDGE_CURVE('',#297,#298,#343,.T.);
#220=EDGE_CURVE('',#299,#298,#344,.T.);
#221=EDGE_CURVE('',#300,#299,#345,.T.);
#222=EDGE_CURVE('',#300,#301,#346,.T.);
#223=EDGE_CURVE('',#301,#291,#347,.T.);
#224=EDGE_CURVE('',#270,#302,#348,.T.);
#225=EDGE_CURVE('',#302,#303,#349,.T.);
#226=EDGE_CURVE('',#304,#303,#350,.T.);
#227=EDGE_CURVE('',#305,#304,#351,.T.);
#228=EDGE_CURVE('',#305,#271,#352,.T.);
#229=EDGE_CURVE('',#306,#307,#353,.T.);
#230=EDGE_CURVE('',#306,#304,#354,.T.);
#231=EDGE_CURVE('',#307,#303,#355,.T.);
#232=EDGE_CURVE('',#308,#309,#356,.T.);
#233=EDGE_CURVE('',#306,#308,#30,.T.);
#234=EDGE_CURVE('',#307,#309,#31,.T.);
#235=EDGE_CURVE('',#310,#311,#357,.T.);
#236=EDGE_CURVE('',#308,#310,#23,.T.);
#237=EDGE_CURVE('',#309,#311,#24,.T.);
#238=EDGE_CURVE('',#274,#312,#358,.T.);
#239=EDGE_CURVE('',#313,#273,#359,.T.);
#240=EDGE_CURVE('',#313,#310,#360,.T.);
#241=EDGE_CURVE('',#312,#311,#361,.T.);
#242=EDGE_CURVE('',#275,#314,#362,.T.);
#243=EDGE_CURVE('',#314,#312,#21,.T.);
#244=EDGE_CURVE('',#276,#315,#363,.T.);
#245=EDGE_CURVE('',#315,#314,#364,.T.);
#246=EDGE_CURVE('',#277,#316,#365,.T.);
#247=EDGE_CURVE('',#316,#315,#32,.F.);
#248=EDGE_CURVE('',#278,#301,#366,.T.);
#249=EDGE_CURVE('',#317,#316,#367,.T.);
#250=EDGE_CURVE('',#317,#291,#368,.T.);
#251=EDGE_CURVE('',#279,#300,#369,.T.);
#252=EDGE_CURVE('',#280,#299,#370,.T.);
#253=EDGE_CURVE('',#281,#298,#371,.T.);
#254=EDGE_CURVE('',#282,#297,#372,.T.);
#255=EDGE_CURVE('',#283,#296,#373,.T.);
#256=EDGE_CURVE('',#284,#295,#374,.T.);
#257=EDGE_CURVE('',#285,#294,#375,.T.);
#258=EDGE_CURVE('',#286,#293,#376,.T.);
#259=EDGE_CURVE('',#287,#292,#377,.T.);
#260=EDGE_CURVE('',#318,#290,#378,.T.);
#261=EDGE_CURVE('',#318,#319,#379,.T.);
#262=EDGE_CURVE('',#288,#319,#380,.T.);
#263=EDGE_CURVE('',#289,#320,#381,.T.);
#264=EDGE_CURVE('',#302,#320,#33,.T.);
#265=EDGE_CURVE('',#320,#319,#34,.F.);
#266=EDGE_CURVE('',#318,#317,#382,.T.);
#267=EDGE_CURVE('',#305,#321,#35,.T.);
#268=EDGE_CURVE('',#321,#272,#383,.T.);
#269=EDGE_CURVE('',#321,#313,#25,.T.);
#270=VERTEX_POINT('',#741);
#271=VERTEX_POINT('',#742);
#272=VERTEX_POINT('',#744);
#273=VERTEX_POINT('',#748);
#274=VERTEX_POINT('',#750);
#275=VERTEX_POINT('',#752);
#276=VERTEX_POINT('',#754);
#277=VERTEX_POINT('',#756);
#278=VERTEX_POINT('',#758);
#279=VERTEX_POINT('',#760);
#280=VERTEX_POINT('',#762);
#281=VERTEX_POINT('',#764);
#282=VERTEX_POINT('',#766);
#283=VERTEX_POINT('',#768);
#284=VERTEX_POINT('',#770);
#285=VERTEX_POINT('',#772);
#286=VERTEX_POINT('',#774);
#287=VERTEX_POINT('',#776);
#288=VERTEX_POINT('',#778);
#289=VERTEX_POINT('',#780);
#290=VERTEX_POINT('',#784);
#291=VERTEX_POINT('',#785);
#292=VERTEX_POINT('',#787);
#293=VERTEX_POINT('',#789);
#294=VERTEX_POINT('',#791);
#295=VERTEX_POINT('',#793);
#296=VERTEX_POINT('',#795);
#297=VERTEX_POINT('',#797);
#298=VERTEX_POINT('',#799);
#299=VERTEX_POINT('',#801);
#300=VERTEX_POINT('',#803);
#301=VERTEX_POINT('',#805);
#302=VERTEX_POINT('',#809);
#303=VERTEX_POINT('',#811);
#304=VERTEX_POINT('',#813);
#305=VERTEX_POINT('',#815);
#306=VERTEX_POINT('',#819);
#307=VERTEX_POINT('',#820);
#308=VERTEX_POINT('',#825);
#309=VERTEX_POINT('',#826);
#310=VERTEX_POINT('',#838);
#311=VERTEX_POINT('',#839);
#312=VERTEX_POINT('',#852);
#313=VERTEX_POINT('',#854);
#314=VERTEX_POINT('',#866);
#315=VERTEX_POINT('',#870);
#316=VERTEX_POINT('',#874);
#317=VERTEX_POINT('',#879);
#318=VERTEX_POINT('',#901);
#319=VERTEX_POINT('',#903);
#320=VERTEX_POINT('',#907);
#321=VERTEX_POINT('',#916);
#322=LINE('',#740,#384);
#323=LINE('',#749,#385);
#324=LINE('',#753,#386);
#325=LINE('',#757,#387);
#326=LINE('',#759,#388);
#327=LINE('',#761,#389);
#328=LINE('',#763,#390);
#329=LINE('',#765,#391);
#330=LINE('',#767,#392);
#331=LINE('',#769,#393);
#332=LINE('',#771,#394);
#333=LINE('',#773,#395);
#334=LINE('',#775,#396);
#335=LINE('',#777,#397);
#336=LINE('',#783,#398);
#337=LINE('',#786,#399);
#338=LINE('',#788,#400);
#339=LINE('',#790,#401);
#340=LINE('',#792,#402);
#341=LINE('',#794,#403);
#342=LINE('',#796,#404);
#343=LINE('',#798,#405);
#344=LINE('',#800,#406);
#345=LINE('',#802,#407);
#346=LINE('',#804,#408);
#347=LINE('',#806,#409);
#348=LINE('',#808,#410);
#349=LINE('',#810,#411);
#350=LINE('',#812,#412);
#351=LINE('',#814,#413);
#352=LINE('',#816,#414);
#353=LINE('',#818,#415);
#354=LINE('',#821,#416);
#355=LINE('',#822,#417);
#356=LINE('',#824,#418);
#357=LINE('',#837,#419);
#358=LINE('',#851,#420);
#359=LINE('',#853,#421);
#360=LINE('',#855,#422);
#361=LINE('',#856,#423);
#362=LINE('',#865,#424);
#363=LINE('',#869,#425);
#364=LINE('',#871,#426);
#365=LINE('',#873,#427);
#366=LINE('',#877,#428);
#367=LINE('',#878,#429);
#368=LINE('',#880,#430);
#369=LINE('',#882,#431);
#370=LINE('',#884,#432);
#371=LINE('',#886,#433);
#372=LINE('',#888,#434);
#373=LINE('',#890,#435);
#374=LINE('',#892,#436);
#375=LINE('',#894,#437);
#376=LINE('',#896,#438);
#377=LINE('',#898,#439);
#378=LINE('',#900,#440);
#379=LINE('',#902,#441);
#380=LINE('',#904,#442);
#381=LINE('',#906,#443);
#382=LINE('',#912,#444);
#383=LINE('',#917,#445);
#384=VECTOR('',#604,1.);
#385=VECTOR('',#607,1.);
#386=VECTOR('',#610,1.);
#387=VECTOR('',#613,1.);
#388=VECTOR('',#614,1.);
#389=VECTOR('',#615,1.);
#390=VECTOR('',#616,1.);
#391=VECTOR('',#617,1.);
#392=VECTOR('',#618,1.);
#393=VECTOR('',#619,1.);
#394=VECTOR('',#620,1.);
#395=VECTOR('',#621,1.);
#396=VECTOR('',#622,1.);
#397=VECTOR('',#623,1.);
#398=VECTOR('',#630,1.);
#399=VECTOR('',#631,1.);
#400=VECTOR('',#632,1.);
#401=VECTOR('',#633,1.);
#402=VECTOR('',#634,1.);
#403=VECTOR('',#635,1.);
#404=VECTOR('',#636,1.);
#405=VECTOR('',#637,1.);
#406=VECTOR('',#638,1.);
#407=VECTOR('',#639,1.);
#408=VECTOR('',#640,1.);
#409=VECTOR('',#641,1.);
#410=VECTOR('',#644,1.);
#411=VECTOR('',#645,1.);
#412=VECTOR('',#646,1.);
#413=VECTOR('',#647,1.);
#414=VECTOR('',#648,1.);
#415=VECTOR('',#651,1.);
#416=VECTOR('',#652,1.);
#417=VECTOR('',#653,1.);
#418=VECTOR('',#656,1.);
#419=VECTOR('',#661,1.);
#420=VECTOR('',#664,1.);
#421=VECTOR('',#665,1.);
#422=VECTOR('',#666,1.);
#423=VECTOR('',#667,1.);
#424=VECTOR('',#668,1.);
#425=VECTOR('',#673,1.);
#426=VECTOR('',#674,1.);
#427=VECTOR('',#677,1.);
#428=VECTOR('',#682,1.);
#429=VECTOR('',#683,1.);
#430=VECTOR('',#684,1.);
#431=VECTOR('',#687,1.);
#432=VECTOR('',#690,1.);
#433=VECTOR('',#693,1.);
#434=VECTOR('',#696,1.);
#435=VECTOR('',#699,1.);
#436=VECTOR('',#702,1.);
#437=VECTOR('',#705,1.);
#438=VECTOR('',#708,1.);
#439=VECTOR('',#711,1.);
#440=VECTOR('',#714,1.);
#441=VECTOR('',#715,1.);
#442=VECTOR('',#716,1.);
#443=VECTOR('',#719,1.);
#444=VECTOR('',#728,1.);
#445=VECTOR('',#735,1.);
#446=EDGE_LOOP('',(#36,#37,#38,#39,#40,#41,#42,#43,#44,#45,#46,#47,#48,
#49,#50,#51,#52,#53,#54,#55));
#447=EDGE_LOOP('',(#56,#57,#58,#59,#60,#61,#62,#63,#64,#65,#66,#67));
#448=EDGE_LOOP('',(#68,#69,#70,#71,#72,#73));
#449=EDGE_LOOP('',(#74,#75,#76,#77));
#450=EDGE_LOOP('',(#78,#79,#80,#81));
#451=EDGE_LOOP('',(#82,#83,#84,#85));
#452=EDGE_LOOP('',(#86,#87,#88,#89,#90,#91));
#453=EDGE_LOOP('',(#92,#93,#94,#95));
#454=EDGE_LOOP('',(#96,#97,#98,#99));
#455=EDGE_LOOP('',(#100,#101,#102,#103));
#456=EDGE_LOOP('',(#104,#105,#106,#107,#108,#109));
#457=EDGE_LOOP('',(#110,#111,#112,#113));
#458=EDGE_LOOP('',(#114,#115,#116,#117));
#459=EDGE_LOOP('',(#118,#119,#120,#121));
#460=EDGE_LOOP('',(#122,#123,#124,#125));
#461=EDGE_LOOP('',(#126,#127,#128,#129));
#462=EDGE_LOOP('',(#130,#131,#132,#133));
#463=EDGE_LOOP('',(#134,#135,#136,#137));
#464=EDGE_LOOP('',(#138,#139,#140,#141));
#465=EDGE_LOOP('',(#142,#143,#144,#145));
#466=EDGE_LOOP('',(#146,#147,#148,#149,#150,#151));
#467=EDGE_LOOP('',(#152,#153,#154,#155));
#468=EDGE_LOOP('',(#156,#157,#158,#159));
#469=EDGE_LOOP('',(#160,#161,#162,#163));
#470=EDGE_LOOP('',(#164,#165,#166,#167,#168,#169,#170,#171,#172,#173,#174,
#175,#176));
#471=EDGE_LOOP('',(#177,#178,#179,#180));
#472=EDGE_LOOP('',(#181,#182,#183,#184));
#473=EDGE_LOOP('',(#185,#186,#187,#188,#189,#190,#191));
#474=FACE_BOUND('',#446,.T.);
#475=FACE_BOUND('',#447,.T.);
#476=FACE_BOUND('',#448,.T.);
#477=FACE_BOUND('',#449,.T.);
#478=FACE_BOUND('',#450,.T.);
#479=FACE_BOUND('',#451,.T.);
#480=FACE_BOUND('',#452,.T.);
#481=FACE_BOUND('',#453,.T.);
#482=FACE_BOUND('',#454,.T.);
#483=FACE_BOUND('',#455,.T.);
#484=FACE_BOUND('',#456,.T.);
#485=FACE_BOUND('',#457,.T.);
#486=FACE_BOUND('',#458,.T.);
#487=FACE_BOUND('',#459,.T.);
#488=FACE_BOUND('',#460,.T.);
#489=FACE_BOUND('',#461,.T.);
#490=FACE_BOUND('',#462,.T.);
#491=FACE_BOUND('',#463,.T.);
#492=FACE_BOUND('',#464,.T.);
#493=FACE_BOUND('',#465,.T.);
#494=FACE_BOUND('',#466,.T.);
#495=FACE_BOUND('',#467,.T.);
#496=FACE_BOUND('',#468,.T.);
#497=FACE_BOUND('',#469,.T.);
#498=FACE_BOUND('',#470,.T.);
#499=FACE_BOUND('',#471,.T.);
#500=FACE_BOUND('',#472,.T.);
#501=FACE_BOUND('',#473,.T.);
#502=PLANE('',#563);
#503=PLANE('',#569);
#504=PLANE('',#570);
#505=PLANE('',#571);
#506=PLANE('',#575);
#507=PLANE('',#577);
#508=PLANE('',#580);
#509=PLANE('',#581);
#510=PLANE('',#582);
#511=PLANE('',#583);
#512=PLANE('',#584);
#513=PLANE('',#585);
#514=PLANE('',#586);
#515=PLANE('',#587);
#516=PLANE('',#588);
#517=PLANE('',#589);
#518=PLANE('',#590);
#519=PLANE('',#595);
#520=PLANE('',#596);
#521=PLANE('',#599);
#522=ADVANCED_FACE('',(#474),#502,.T.);
#523=ADVANCED_FACE('',(#475),#503,.F.);
#524=ADVANCED_FACE('',(#476),#504,.F.);
#525=ADVANCED_FACE('',(#477),#505,.T.);
#526=ADVANCED_FACE('',(#478),#15,.T.);
#527=ADVANCED_FACE('',(#479),#12,.F.);
#528=ADVANCED_FACE('',(#480),#506,.T.);
#529=ADVANCED_FACE('',(#481),#13,.T.);
#530=ADVANCED_FACE('',(#482),#507,.T.);
#531=ADVANCED_FACE('',(#483),#16,.F.);
#532=ADVANCED_FACE('',(#484),#508,.T.);
#533=ADVANCED_FACE('',(#485),#509,.T.);
#534=ADVANCED_FACE('',(#486),#510,.F.);
#535=ADVANCED_FACE('',(#487),#511,.F.);
#536=ADVANCED_FACE('',(#488),#512,.T.);
#537=ADVANCED_FACE('',(#489),#513,.T.);
#538=ADVANCED_FACE('',(#490),#514,.T.);
#539=ADVANCED_FACE('',(#491),#515,.T.);
#540=ADVANCED_FACE('',(#492),#516,.T.);
#541=ADVANCED_FACE('',(#493),#517,.F.);
#542=ADVANCED_FACE('',(#494),#518,.F.);
#543=ADVANCED_FACE('',(#495),#17,.F.);
#544=ADVANCED_FACE('',(#496),#18,.F.);
#545=ADVANCED_FACE('',(#497),#519,.F.);
#546=ADVANCED_FACE('',(#498),#520,.T.);
#547=ADVANCED_FACE('',(#499),#19,.F.);
#548=ADVANCED_FACE('',(#500),#14,.T.);
#549=ADVANCED_FACE('',(#501),#521,.T.);
#550=CLOSED_SHELL('',(#522,#523,#524,#525,#526,#527,#528,#529,#530,#531,
#532,#533,#534,#535,#536,#537,#538,#539,#540,#541,#542,#543,#544,#545,#546,
#547,#548,#549));
#551=STYLED_ITEM('',(#552),#559);
#552=PRESENTATION_STYLE_ASSIGNMENT((#553));
#553=SURFACE_STYLE_USAGE(.BOTH.,#554);
#554=SURFACE_SIDE_STYLE('',(#555));
#555=SURFACE_STYLE_FILL_AREA(#556);
#556=FILL_AREA_STYLE('',(#557));
#557=FILL_AREA_STYLE_COLOUR('',#558);
#558=COLOUR_RGB('',0.615686274509804,0.811764705882353,0.929411764705882);
#559=MANIFOLD_SOLID_BREP('Part 1',#550);
#560=SHAPE_DEFINITION_REPRESENTATION(#936,#561);
#561=SHAPE_REPRESENTATION('Part 1',(#562),#931);
#562=AXIS2_PLACEMENT_3D('',#738,#600,#601);
#563=AXIS2_PLACEMENT_3D('',#739,#602,#603);
#564=AXIS2_PLACEMENT_3D('',#743,#605,#606);
#565=AXIS2_PLACEMENT_3D('',#751,#608,#609);
#566=AXIS2_PLACEMENT_3D('',#755,#611,#612);
#567=AXIS2_PLACEMENT_3D('',#779,#624,#625);
#568=AXIS2_PLACEMENT_3D('',#781,#626,#627);
#569=AXIS2_PLACEMENT_3D('',#782,#628,#629);
#570=AXIS2_PLACEMENT_3D('',#807,#642,#643);
#571=AXIS2_PLACEMENT_3D('',#817,#649,#650);
#572=AXIS2_PLACEMENT_3D('',#823,#654,#655);
#573=AXIS2_PLACEMENT_3D('',#827,#657,#658);
#574=AXIS2_PLACEMENT_3D('',#828,#659,#660);
#575=AXIS2_PLACEMENT_3D('',#850,#662,#663);
#576=AXIS2_PLACEMENT_3D('',#867,#669,#670);
#577=AXIS2_PLACEMENT_3D('',#868,#671,#672);
#578=AXIS2_PLACEMENT_3D('',#872,#675,#676);
#579=AXIS2_PLACEMENT_3D('',#875,#678,#679);
#580=AXIS2_PLACEMENT_3D('',#876,#680,#681);
#581=AXIS2_PLACEMENT_3D('',#881,#685,#686);
#582=AXIS2_PLACEMENT_3D('',#883,#688,#689);
#583=AXIS2_PLACEMENT_3D('',#885,#691,#692);
#584=AXIS2_PLACEMENT_3D('',#887,#694,#695);
#585=AXIS2_PLACEMENT_3D('',#889,#697,#698);
#586=AXIS2_PLACEMENT_3D('',#891,#700,#701);
#587=AXIS2_PLACEMENT_3D('',#893,#703,#704);
#588=AXIS2_PLACEMENT_3D('',#895,#706,#707);
#589=AXIS2_PLACEMENT_3D('',#897,#709,#710);
#590=AXIS2_PLACEMENT_3D('',#899,#712,#713);
#591=AXIS2_PLACEMENT_3D('',#905,#717,#718);
#592=AXIS2_PLACEMENT_3D('',#908,#720,#721);
#593=AXIS2_PLACEMENT_3D('',#909,#722,#723);
#594=AXIS2_PLACEMENT_3D('',#910,#724,#725);
#595=AXIS2_PLACEMENT_3D('',#911,#726,#727);
#596=AXIS2_PLACEMENT_3D('',#913,#729,#730);
#597=AXIS2_PLACEMENT_3D('',#914,#731,#732);
#598=AXIS2_PLACEMENT_3D('',#915,#733,#734);
#599=AXIS2_PLACEMENT_3D('',#929,#736,#737);
#600=DIRECTION('',(0.,0.,1.));
#601=DIRECTION('',(1.,0.,0.));
#602=DIRECTION('',(0.,-1.,0.));
#603=DIRECTION('',(1.,0.,0.));
#604=DIRECTION('',(1.,0.,0.));
#605=DIRECTION('',(0.,-1.,0.));
#606=DIRECTION('',(0.,0.,-1.));
#607=DIRECTION('',(0.,0.,1.));
#608=DIRECTION('',(0.,-1.,0.));
#609=DIRECTION('',(0.796803551305208,3.69989339916002E-17,0.604238446829899));
#610=DIRECTION('',(-0.966722180947109,5.96383858996618E-35,0.25582850674791));
#611=DIRECTION('',(0.,1.,0.));
#612=DIRECTION('',(0.,0.,1.));
#613=DIRECTION('',(0.,0.,1.));
#614=DIRECTION('',(1.,0.,0.));
#615=DIRECTION('',(0.,0.,-1.));
#616=DIRECTION('',(1.,0.,0.));
#617=DIRECTION('',(0.,0.,1.));
#618=DIRECTION('',(-1.,0.,0.));
#619=DIRECTION('',(0.,0.,-1.));
#620=DIRECTION('',(-1.,0.,-5.42101086242752E-17));
#621=DIRECTION('',(0.,0.,-1.));
#622=DIRECTION('',(-1.,0.,0.));
#623=DIRECTION('',(0.,0.,1.));
#624=DIRECTION('',(0.,1.,0.));
#625=DIRECTION('',(0.,0.,1.));
#626=DIRECTION('',(0.,-1.,0.));
#627=DIRECTION('',(0.,0.,-1.));
#628=DIRECTION('',(0.,-1.,0.));
#629=DIRECTION('',(1.,0.,0.));
#630=DIRECTION('',(-1.,0.,0.));
#631=DIRECTION('',(0.,0.,1.));
#632=DIRECTION('',(-1.,0.,0.));
#633=DIRECTION('',(0.,0.,-1.));
#634=DIRECTION('',(-1.,0.,-5.42101086242752E-17));
#635=DIRECTION('',(0.,0.,-1.));
#636=DIRECTION('',(-1.,0.,0.));
#637=DIRECTION('',(0.,0.,1.));
#638=DIRECTION('',(1.,0.,0.));
#639=DIRECTION('',(0.,0.,-1.));
#640=DIRECTION('',(1.,0.,0.));
#641=DIRECTION('',(0.,0.,1.));
#642=DIRECTION('',(0.,0.,1.));
#643=DIRECTION('',(1.,0.,0.));
#644=DIRECTION('',(0.,1.,0.));
#645=DIRECTION('',(1.,0.,0.));
#646=DIRECTION('',(0.,1.,0.));
#647=DIRECTION('',(1.,0.,0.));
#648=DIRECTION('',(0.,1.,0.));
#649=DIRECTION('',(1.,0.,0.));
#650=DIRECTION('',(0.,0.,-1.));
#651=DIRECTION('',(0.,1.,0.));
#652=DIRECTION('',(0.,0.,-1.));
#653=DIRECTION('',(0.,0.,-1.));
#654=DIRECTION('',(0.,1.,0.));
#655=DIRECTION('',(0.,0.,1.));
#656=DIRECTION('',(0.,1.,0.));
#657=DIRECTION('',(0.,-1.,0.));
#658=DIRECTION('',(0.,0.,-1.));
#659=DIRECTION('',(0.,-1.,0.));
#660=DIRECTION('',(0.,0.,-1.));
#661=DIRECTION('',(0.,1.,0.));
#662=DIRECTION('',(-1.,0.,0.));
#663=DIRECTION('',(0.,0.,1.));
#664=DIRECTION('',(0.,1.,0.));
#665=DIRECTION('',(0.,1.,0.));
#666=DIRECTION('',(0.,0.,1.));
#667=DIRECTION('',(0.,0.,1.));
#668=DIRECTION('',(0.,1.,0.));
#669=DIRECTION('',(0.,-1.,0.));
#670=DIRECTION('',(0.796803551305208,3.69989339916002E-17,0.604238446829899));
#671=DIRECTION('',(-0.25582850674791,4.19747850547994E-26,-0.966722180947109));
#672=DIRECTION('',(-0.966722180947109,5.96383858996618E-35,0.25582850674791));
#673=DIRECTION('',(0.,1.,0.));
#674=DIRECTION('',(-0.966722180947109,0.,0.25582850674791));
#675=DIRECTION('',(0.,1.,0.));
#676=DIRECTION('',(0.274941831058416,0.,0.961460862195776));
#677=DIRECTION('',(0.,1.,0.));
#678=DIRECTION('',(0.,1.,0.));
#679=DIRECTION('',(0.,0.,1.));
#680=DIRECTION('',(-1.,0.,0.));
#681=DIRECTION('',(0.,0.,1.));
#682=DIRECTION('',(0.,1.,0.));
#683=DIRECTION('',(0.,0.,1.));
#684=DIRECTION('',(0.,-1.,0.));
#685=DIRECTION('',(0.,0.,1.));
#686=DIRECTION('',(1.,0.,0.));
#687=DIRECTION('',(0.,1.,0.));
#688=DIRECTION('',(1.,0.,0.));
#689=DIRECTION('',(0.,0.,-1.));
#690=DIRECTION('',(0.,1.,0.));
#691=DIRECTION('',(0.,0.,1.));
#692=DIRECTION('',(1.,0.,0.));
#693=DIRECTION('',(0.,1.,0.));
#694=DIRECTION('',(-1.,0.,0.));
#695=DIRECTION('',(0.,0.,1.));
#696=DIRECTION('',(0.,1.,0.));
#697=DIRECTION('',(0.,0.,-1.));
#698=DIRECTION('',(-1.,0.,0.));
#699=DIRECTION('',(0.,1.,0.));
#700=DIRECTION('',(1.,0.,0.));
#701=DIRECTION('',(0.,0.,-1.));
#702=DIRECTION('',(0.,1.,0.));
#703=DIRECTION('',(5.42101086242752E-17,0.,-1.));
#704=DIRECTION('',(-1.,0.,-5.42101086242752E-17));
#705=DIRECTION('',(0.,1.,0.));
#706=DIRECTION('',(1.,0.,0.));
#707=DIRECTION('',(0.,0.,-1.));
#708=DIRECTION('',(0.,1.,0.));
#709=DIRECTION('',(0.,0.,-1.));
#710=DIRECTION('',(-1.,0.,0.));
#711=DIRECTION('',(0.,1.,0.));
#712=DIRECTION('',(-1.,0.,0.));
#713=DIRECTION('',(0.,0.,1.));
#714=DIRECTION('',(0.,-1.,0.));
#715=DIRECTION('',(0.,0.,1.));
#716=DIRECTION('',(0.,1.,0.));
#717=DIRECTION('',(0.,1.,0.));
#718=DIRECTION('',(0.,0.,1.));
#719=DIRECTION('',(0.,1.,0.));
#720=DIRECTION('',(0.,-1.,0.));
#721=DIRECTION('',(0.,0.,-1.));
#722=DIRECTION('',(0.,1.,0.));
#723=DIRECTION('',(0.499456749969341,0.,0.866338822234156));
#724=DIRECTION('',(0.,1.,0.));
#725=DIRECTION('',(0.,0.,1.));
#726=DIRECTION('',(0.,0.,1.));
#727=DIRECTION('',(1.,0.,0.));
#728=DIRECTION('',(-1.,0.,0.));
#729=DIRECTION('',(0.,1.,0.));
#730=DIRECTION('',(-1.,0.,0.));
#731=DIRECTION('',(0.,1.,0.));
#732=DIRECTION('',(0.,0.,1.));
#733=DIRECTION('',(0.,-1.,0.));
#734=DIRECTION('',(0.,0.,-1.));
#735=DIRECTION('',(0.,1.,0.));
#736=DIRECTION('',(0.,-1.,0.));
#737=DIRECTION('',(1.,0.,0.));
#738=CARTESIAN_POINT('',(0.,0.,0.));
#739=CARTESIAN_POINT('',(-0.2695,-0.00199999999999937,0.0523980460000006));
#740=CARTESIAN_POINT('',(0.00600937076719232,-0.00199999999999937,0.000892922455179449));
#741=CARTESIAN_POINT('',(0.0052142253948616,-0.00199999999999937,0.000892922455179449));
#742=CARTESIAN_POINT('',(0.00561160481322163,-0.00199999999999937,0.000892922455179449));
#743=CARTESIAN_POINT('',(-0.0065529789012969,-0.00199999999999937,-0.00950048425544598));
#744=CARTESIAN_POINT('',(0.00170071216679882,-0.00199999999999937,0.0042063236790237));
#745=CARTESIAN_POINT('',(0.00170071216679882,-0.00199999999999937,0.0042063236790237));
#746=CARTESIAN_POINT('',(-0.009367078495082,-0.00199999999999937,0.0108709041828343));
#747=CARTESIAN_POINT('',(-0.029003615519005,-0.00199999999999937,0.0108709041828343));
#748=CARTESIAN_POINT('',(-0.0182928632772009,-0.00199999999999937,0.0103056469679656));
#749=CARTESIAN_POINT('',(-0.0182928632772009,-0.00199999999999937,0.011563386870254));
#750=CARTESIAN_POINT('',(-0.0182928632772009,-0.00199999999999937,0.0100034331464855));
#751=CARTESIAN_POINT('',(-2.91927383177624,-0.00199999999999951,-2.22397031554655));
#752=CARTESIAN_POINT('',(-0.00925455807169059,-0.00199999999999937,0.00835733308590187));
#753=CARTESIAN_POINT('',(-0.00913253865080708,-0.00199999999999937,0.00832514068593516));
#754=CARTESIAN_POINT('',(-0.00901070280504846,-0.00199999999999937,0.00829283192284409));
#755=CARTESIAN_POINT('',(-0.0220594588281724,-0.00199999999999937,-0.0405950374615424));
#756=CARTESIAN_POINT('',(-0.0073,-0.00199999999999937,0.00780378125253833));
#757=CARTESIAN_POINT('',(-0.0073,-0.00199999999999937,0.00490187310572594));
#758=CARTESIAN_POINT('',(-0.0073,-0.00199999999999937,0.002));
#759=CARTESIAN_POINT('',(-0.0093,-0.00199999999999937,0.002));
#760=CARTESIAN_POINT('',(-0.0113,-0.00199999999999937,0.002));
#761=CARTESIAN_POINT('',(-0.0113,-0.00199999999999937,0.00125));
#762=CARTESIAN_POINT('',(-0.0113,-0.00199999999999937,0.0005));
#763=CARTESIAN_POINT('',(-0.0093,-0.00199999999999937,0.0005));
#764=CARTESIAN_POINT('',(-0.0073,-0.00199999999999937,0.0005));
#765=CARTESIAN_POINT('',(-0.0073,-0.00199999999999937,-0.000225));
#766=CARTESIAN_POINT('',(-0.0073,-0.00199999999999937,-0.00095));
#767=CARTESIAN_POINT('',(-0.0035,-0.00199999999999937,-0.00095));
#768=CARTESIAN_POINT('',(0.0003,-0.00199999999999937,-0.00095));
#769=CARTESIAN_POINT('',(0.0003,-0.00199999999999937,-0.000225));
#770=CARTESIAN_POINT('',(0.0003,-0.00199999999999937,0.0005));
#771=CARTESIAN_POINT('',(0.0013,-0.00199999999999937,0.0005));
#772=CARTESIAN_POINT('',(0.0023,-0.00199999999999937,0.0005));
#773=CARTESIAN_POINT('',(0.0023,-0.00199999999999937,0.00125));
#774=CARTESIAN_POINT('',(0.0023,-0.00199999999999937,0.002));
#775=CARTESIAN_POINT('',(0.0015,-0.00199999999999937,0.002));
#776=CARTESIAN_POINT('',(0.0003,-0.00199999999999937,0.002));
#777=CARTESIAN_POINT('',(0.0003,-0.00199999999999937,0.00333468975449207));
#778=CARTESIAN_POINT('',(0.000300000000000001,-0.00199999999999937,0.00466886706535875));
#779=CARTESIAN_POINT('',(-0.0247731726214166,-0.00199999999999937,-0.0402664932396842));
#780=CARTESIAN_POINT('',(0.00154612892320881,-0.00199999974999937,0.00394961244755124));
#781=CARTESIAN_POINT('',(-0.00655297890129742,-0.00199999999999937,-0.00950048425544649));
#782=CARTESIAN_POINT('',(-0.00609313829984118,0.0025,0.00378556339305108));
#783=CARTESIAN_POINT('',(-0.0035,0.0025,0.00380816783694719));
#784=CARTESIAN_POINT('',(0.0003,0.0025,0.00380816783694719));
#785=CARTESIAN_POINT('',(-0.0073,0.0025,0.00380816783694719));
#786=CARTESIAN_POINT('',(0.0003,0.0025,0.00333468975449207));
#787=CARTESIAN_POINT('',(0.0003,0.0025,0.002));
#788=CARTESIAN_POINT('',(0.0015,0.0025,0.002));
#789=CARTESIAN_POINT('',(0.0023,0.0025,0.002));
#790=CARTESIAN_POINT('',(0.0023,0.0025,0.00125));
#791=CARTESIAN_POINT('',(0.0023,0.0025,0.0005));
#792=CARTESIAN_POINT('',(0.0013,0.0025,0.0005));
#793=CARTESIAN_POINT('',(0.0003,0.0025,0.0005));
#794=CARTESIAN_POINT('',(0.0003,0.0025,-0.000225));
#795=CARTESIAN_POINT('',(0.0003,0.0025,-0.00095));
#796=CARTESIAN_POINT('',(-0.0035,0.0025,-0.00095));
#797=CARTESIAN_POINT('',(-0.0073,0.0025,-0.00095));
#798=CARTESIAN_POINT('',(-0.0073,0.0025,-0.000225));
#799=CARTESIAN_POINT('',(-0.0073,0.0025,0.0005));
#800=CARTESIAN_POINT('',(-0.0093,0.0025,0.0005));
#801=CARTESIAN_POINT('',(-0.0113,0.0025,0.0005));
#802=CARTESIAN_POINT('',(-0.0113,0.0025,0.00125));
#803=CARTESIAN_POINT('',(-0.0113,0.0025,0.002));
#804=CARTESIAN_POINT('',(-0.0093,0.0025,0.002));
#805=CARTESIAN_POINT('',(-0.0073,0.0025,0.002));
#806=CARTESIAN_POINT('',(-0.0073,0.0025,0.00490187310572594));
#807=CARTESIAN_POINT('',(0.00600937076719232,-0.00200199999999937,0.000892922455179449));
#808=CARTESIAN_POINT('',(0.0052142253948616,-0.00200199999999937,0.000892922455179449));
#809=CARTESIAN_POINT('',(0.0052142253948616,0.0065,0.000892922455179449));
#810=CARTESIAN_POINT('',(0.00600937076719232,0.0065,0.000892922455179449));
#811=CARTESIAN_POINT('',(0.00640713672116301,0.0065,0.000892922455179449));
#812=CARTESIAN_POINT('',(0.00640713672116301,-0.00200199999999937,0.000892922455179449));
#813=CARTESIAN_POINT('',(0.00640713672116301,-0.00599999999999937,0.000892922455179449));
#814=CARTESIAN_POINT('',(0.00600937076719232,-0.00599999999999937,0.000892922455179449));
#815=CARTESIAN_POINT('',(0.00561160481322163,-0.00599999999999937,0.000892922455179449));
#816=CARTESIAN_POINT('',(0.00561160481322163,-0.00599999999999937,0.000892922455179449));
#817=CARTESIAN_POINT('',(0.00640713672116301,-0.00200199999999937,0.00229707895015279));
#818=CARTESIAN_POINT('',(0.00640713672116351,-0.00200199999999937,0.00370123544512666));
#819=CARTESIAN_POINT('',(0.00640713672116351,-0.00599999999999937,0.00370123544512666));
#820=CARTESIAN_POINT('',(0.00640713672116351,0.0065,0.00370123544512666));
#821=CARTESIAN_POINT('',(0.00640713672116301,-0.00599999999999937,0.00229707895015279));
#822=CARTESIAN_POINT('',(0.00640713672116301,0.0065,0.00229707895015279));
#823=CARTESIAN_POINT('',(-0.00655297890129692,-0.00200199999999937,-0.00950048425544601));
#824=CARTESIAN_POINT('',(0.00299035139618902,-0.00200199999999937,0.00634801241878442));
#825=CARTESIAN_POINT('',(0.00299035139618902,-0.00599999999999937,0.00634801241878442));
#826=CARTESIAN_POINT('',(0.00299035139618902,0.0065,0.00634801241878442));
#827=CARTESIAN_POINT('',(-0.00655297890129692,-0.00599999999999937,-0.00950048425544601));
#828=CARTESIAN_POINT('',(-0.00655297890129692,0.0065,-0.00950048425544601));
#829=CARTESIAN_POINT('',(0.00299035139618902,-0.00599999999999937,0.00634801241878442));
#830=CARTESIAN_POINT('',(0.00299035139618902,0.0065,0.00634801241878442));
#831=CARTESIAN_POINT('',(-0.00269905611375891,-0.00599999999999937,0.00977394587988849));
#832=CARTESIAN_POINT('',(-0.00269905611375891,0.0065,0.00977394587988849));
#833=CARTESIAN_POINT('',(-0.00981105616328388,-0.00599999999999937,0.011890583906192));
#834=CARTESIAN_POINT('',(-0.00981105616328388,0.0065,0.011890583906192));
#835=CARTESIAN_POINT('',(-0.0182928632757181,-0.00599999999999937,0.0128211267861022));
#836=CARTESIAN_POINT('',(-0.0182928632757181,0.0065,0.0128211267861022));
#837=CARTESIAN_POINT('',(-0.0182928632772009,-0.00200199999999937,0.0128211267734693));
#838=CARTESIAN_POINT('',(-0.0182928632772009,-0.00599999999999937,0.0128211267734693));
#839=CARTESIAN_POINT('',(-0.0182928632772009,0.0065,0.0128211267734693));
#840=CARTESIAN_POINT('',(0.00299035139618902,-0.00599999999999937,0.00634801241878442));
#841=CARTESIAN_POINT('',(0.000142493369377749,-0.00599999999999937,0.00806287852557448));
#842=CARTESIAN_POINT('',(-0.00626729506761598,-0.00599999999999937,0.010832688605626));
#843=CARTESIAN_POINT('',(-0.0140566621292435,-0.00599999999999937,0.0123563712496387));
#844=CARTESIAN_POINT('',(-0.0182928632757181,-0.00599999999999937,0.0128211267861022));
#845=CARTESIAN_POINT('',(0.00299035139618902,0.0065,0.00634801241878442));
#846=CARTESIAN_POINT('',(0.000142493369377749,0.0065,0.00806287852557448));
#847=CARTESIAN_POINT('',(-0.00626729506761598,0.0065,0.010832688605626));
#848=CARTESIAN_POINT('',(-0.0140566621292435,0.0065,0.0123563712496387));
#849=CARTESIAN_POINT('',(-0.0182928632757181,0.0065,0.0128211267861022));
#850=CARTESIAN_POINT('',(-0.0182928632772009,-0.00200199999999937,0.011563386870254));
#851=CARTESIAN_POINT('',(-0.0182928632772009,-0.00200199999999937,0.0100034331464855));
#852=CARTESIAN_POINT('',(-0.0182928632772009,0.0065,0.0100034331464855));
#853=CARTESIAN_POINT('',(-0.0182928632772009,-0.00599999999999937,0.0103056469675728));
#854=CARTESIAN_POINT('',(-0.0182928632772009,-0.00599999999999937,0.0103056469675728));
#855=CARTESIAN_POINT('',(-0.0182928632772009,-0.00599999999999937,0.011563386870254));
#856=CARTESIAN_POINT('',(-0.0182928632772009,0.0065,0.011563386870254));
#857=CARTESIAN_POINT('',(-0.00925455807169059,-0.00199999999999937,0.00835733308590186));
#858=CARTESIAN_POINT('',(-0.00925455807169059,0.0065,0.00835733308590186));
#859=CARTESIAN_POINT('',(-0.0120331264900708,-0.00199999999999937,0.00908556757215279));
#860=CARTESIAN_POINT('',(-0.0120331264900708,0.0065,0.00908556757215279));
#861=CARTESIAN_POINT('',(-0.0150460140288034,-0.00199999999999937,0.00963434885576079));
#862=CARTESIAN_POINT('',(-0.0150460140288034,0.0065,0.00963434885576079));
#863=CARTESIAN_POINT('',(-0.0182928632633626,-0.00199999999999937,0.0100034331464855));
#864=CARTESIAN_POINT('',(-0.0182928632633626,0.0065,0.0100034331464855));
#865=CARTESIAN_POINT('',(-0.00925455807169059,-0.00200199999999937,0.00835733308590187));
#866=CARTESIAN_POINT('',(-0.00925455807169059,0.0065,0.00835733308590187));
#867=CARTESIAN_POINT('',(-2.91927383177624,0.00649999999999986,-2.22397031554655));
#868=CARTESIAN_POINT('',(-0.00913253865080708,-0.00200199999997494,0.00832514068593516));
#869=CARTESIAN_POINT('',(-0.00901071052454025,-0.00200199999999937,0.00829280241365415));
#870=CARTESIAN_POINT('',(-0.00901070285390981,0.00649999975000078,0.00829283193567842));
#871=CARTESIAN_POINT('',(-0.00556064334105178,0.0065,0.00737989223569343));
#872=CARTESIAN_POINT('',(-0.0220594588281724,-0.00200199999999937,-0.0405950374615424));
#873=CARTESIAN_POINT('',(-0.0073,-0.00199999999999937,0.00780378125253833));
#874=CARTESIAN_POINT('',(-0.0073,0.0065,0.00780378125253833));
#875=CARTESIAN_POINT('',(-0.0220594588281724,0.0065,-0.0405950374615424));
#876=CARTESIAN_POINT('',(-0.0073,-0.00200199999999937,0.00490187310572594));
#877=CARTESIAN_POINT('',(-0.0073,-0.00200199999999937,0.002));
#878=CARTESIAN_POINT('',(-0.0073,0.0065,0.00490187310572594));
#879=CARTESIAN_POINT('',(-0.0073,0.0065,0.00380816783694719));
#880=CARTESIAN_POINT('',(-0.0073,0.0065,0.00380816783694719));
#881=CARTESIAN_POINT('',(-0.0093,-0.00200199999999937,0.002));
#882=CARTESIAN_POINT('',(-0.0113,-0.00200199999999937,0.002));
#883=CARTESIAN_POINT('',(-0.0113,-0.00200199999999937,0.00125));
#884=CARTESIAN_POINT('',(-0.0113,-0.00200199999999937,0.0005));
#885=CARTESIAN_POINT('',(-0.0093,-0.00200199999999937,0.0005));
#886=CARTESIAN_POINT('',(-0.0073,-0.00200199999999937,0.0005));
#887=CARTESIAN_POINT('',(-0.0073,-0.00200199999999937,-0.000225));
#888=CARTESIAN_POINT('',(-0.0073,-0.00200199999999937,-0.00095));
#889=CARTESIAN_POINT('',(-0.0035,-0.00200199999999937,-0.00095));
#890=CARTESIAN_POINT('',(0.0003,-0.00200199999999937,-0.00095));
#891=CARTESIAN_POINT('',(0.0003,-0.00200199999999937,-0.000225));
#892=CARTESIAN_POINT('',(0.0003,-0.00200199999999937,0.0005));
#893=CARTESIAN_POINT('',(0.0013,-0.00200199999999937,0.0005));
#894=CARTESIAN_POINT('',(0.0023,-0.00200199999999937,0.0005));
#895=CARTESIAN_POINT('',(0.0023,-0.00200199999999937,0.00125));
#896=CARTESIAN_POINT('',(0.0023,-0.00200199999999937,0.002));
#897=CARTESIAN_POINT('',(0.0015,-0.00200199999999937,0.002));
#898=CARTESIAN_POINT('',(0.0003,-0.00200199999999937,0.002));
#899=CARTESIAN_POINT('',(0.0003,-0.00200199999999937,0.00333468975449207));
#900=CARTESIAN_POINT('',(0.0003,0.0065,0.00380816783694719));
#901=CARTESIAN_POINT('',(0.0003,0.0065,0.00380816783694719));
#902=CARTESIAN_POINT('',(0.0003,0.0065,0.00333468975449207));
#903=CARTESIAN_POINT('',(0.000299796887038171,0.00649999975003831,0.00466898039883767));
#904=CARTESIAN_POINT('',(0.0003,-0.00200199999999937,0.00466937950898414));
#905=CARTESIAN_POINT('',(-0.00655297890129742,-0.00200199999999937,-0.00950048425544649));
#906=CARTESIAN_POINT('',(0.00154595545927201,-0.00200199999999937,0.00394932103025242));
#907=CARTESIAN_POINT('',(0.00154612892320882,0.00649999975,0.00394961244755124));
#908=CARTESIAN_POINT('',(-0.00655297890129742,0.0065,-0.00950048425544649));
#909=CARTESIAN_POINT('',(-0.0247731726214166,-0.00200199999999937,-0.0402664932396842));
#910=CARTESIAN_POINT('',(-0.0247731726214166,0.0065,-0.0402664932396842));
#911=CARTESIAN_POINT('',(-0.0035,0.0065,0.00380816783694719));
#912=CARTESIAN_POINT('',(-0.0035,0.0065,0.00380816783694719));
#913=CARTESIAN_POINT('',(-0.0059428632780187,0.0065,0.00593556339305109));
#914=CARTESIAN_POINT('',(-0.0065529789012969,-0.00599999999999937,-0.00950048425544598));
#915=CARTESIAN_POINT('',(-0.0065529789012969,-0.00599999999999937,-0.00950048425544598));
#916=CARTESIAN_POINT('',(0.00170071216679882,-0.00599999999999937,0.0042063236790237));
#917=CARTESIAN_POINT('',(0.00170071216679882,-0.00599999999999937,0.0042063236790237));
#918=CARTESIAN_POINT('',(0.00170071216679882,-0.00599999999999937,0.0042063236790237));
#919=CARTESIAN_POINT('',(0.00170071216679882,-0.00199999999999937,0.0042063236790237));
#920=CARTESIAN_POINT('',(-0.00352896382585337,-0.00599999999999937,0.00735542522301272));
#921=CARTESIAN_POINT('',(-0.00352896382585337,-0.00199999999999937,0.00735542522301272));
#922=CARTESIAN_POINT('',(-0.0101934889665742,-0.00599999999999937,0.00938853298517063));
#923=CARTESIAN_POINT('',(-0.0101934889665742,-0.00199999999999937,0.00938853298517063));
#924=CARTESIAN_POINT('',(-0.0182928632553635,-0.00599999999999937,0.0103056469654974));
#925=CARTESIAN_POINT('',(-0.0182928632553635,-0.00199999999999937,0.0103056469654974));
#926=CARTESIAN_POINT('',(0.00170071216679882,-0.00599999999999937,0.0042063236790237));
#927=CARTESIAN_POINT('',(-0.009367078495082,-0.00599999999999937,0.0108709041828343));
#928=CARTESIAN_POINT('',(-0.029003615519005,-0.00599999999999937,0.0108709041828343));
#929=CARTESIAN_POINT('',(-0.0112982393989207,-0.00599999999999937,0.00593556339305109));
#930=MECHANICAL_DESIGN_GEOMETRIC_PRESENTATION_REPRESENTATION('',(#551),
#931);
#931=(
GEOMETRIC_REPRESENTATION_CONTEXT(3)
GLOBAL_UNCERTAINTY_ASSIGNED_CONTEXT((#932))
GLOBAL_UNIT_ASSIGNED_CONTEXT((#935,#934,#933))
REPRESENTATION_CONTEXT('Part 1','TOP_LEVEL_ASSEMBLY_PART')
);
#932=UNCERTAINTY_MEASURE_WITH_UNIT(LENGTH_MEASURE(2.E-5),#935,
'DISTANCE_ACCURACY_VALUE','Maximum Tolerance applied to model');
#933=(
NAMED_UNIT(*)
SI_UNIT($,.STERADIAN.)
SOLID_ANGLE_UNIT()
);
#934=(
NAMED_UNIT(*)
PLANE_ANGLE_UNIT()
SI_UNIT($,.RADIAN.)
);
#935=(
LENGTH_UNIT()
NAMED_UNIT(*)
SI_UNIT($,.METRE.)
);
#936=PRODUCT_DEFINITION_SHAPE('','',#937);
#937=PRODUCT_DEFINITION('','',#939,#938);
#938=PRODUCT_DEFINITION_CONTEXT('',#945,'design');
#939=PRODUCT_DEFINITION_FORMATION_WITH_SPECIFIED_SOURCE('','',#941,
 .NOT_KNOWN.);
#940=PRODUCT_RELATED_PRODUCT_CATEGORY('','',(#941));
#941=PRODUCT('Part 1','Part 1','Part 1',(#943));
#942=PRODUCT_CATEGORY('','');
#943=PRODUCT_CONTEXT('',#945,'mechanical');
#944=APPLICATION_PROTOCOL_DEFINITION('international standard',
'ap242_managed_model_based_3d_engineering',2020,#945);
#945=APPLICATION_CONTEXT('managed model based 3d engineering');
ENDSEC;
END-ISO-10303-21;
