ISO-10303-21;
HEADER;
/* Generated by software containing ST-Developer
 * from STEP Tools, Inc. (www.steptools.com) 
 */
/* OPTION: using custom renumber hook */

FILE_DESCRIPTION(
/* description */ ('STEP AP242 Edition 2',
'CAx-IF Rec.Pracs.---Representation and Presentation of Product Manufa
cturing Information (PMI)---4.0---2014-10-13',
'CAx-IF Rec.Pracs.---3D Tessellated Geometry---0.4---2014-09-14','2;1',
'CAx-IF Rec.Pracs.---User Defined Attributes---1.5---2016-08-15'),
/* implementation_level */ '2;1');

FILE_NAME(
/* name */ 'ACap',
/* time_stamp */ '2026-05-25T15:56:05Z',
/* author */ (''),
/* organization */ (''),
/* preprocessor_version */ 'ST-DEVELOPER v20',
/* originating_system */ 'ONSHAPE BY PTC INC, 1.215',
/* authorisation */ '  ');

FILE_SCHEMA (('AP242_MANAGED_MODEL_BASED_3D_ENGINEERING_MIM_LF { 1 0 10303 442 3 1 4 }'));
ENDSEC;

DATA;
#10=SHAPE_REPRESENTATION_RELATIONSHIP('','',#312,#11);
#11=ADVANCED_BREP_SHAPE_REPRESENTATION('',(#310),#498);
#12=LINE('',#422,#45);
#13=LINE('',#425,#46);
#14=LINE('',#427,#47);
#15=LINE('',#429,#48);
#16=LINE('',#431,#49);
#17=LINE('',#433,#50);
#18=LINE('',#435,#51);
#19=LINE('',#437,#52);
#20=LINE('',#442,#53);
#21=LINE('',#444,#54);
#22=LINE('',#446,#55);
#23=LINE('',#448,#56);
#24=LINE('',#450,#57);
#25=LINE('',#452,#58);
#26=LINE('',#454,#59);
#27=LINE('',#456,#60);
#28=LINE('',#458,#61);
#29=LINE('',#460,#62);
#30=LINE('',#462,#63);
#31=LINE('',#464,#64);
#32=LINE('',#466,#65);
#33=LINE('',#468,#66);
#34=LINE('',#470,#67);
#35=LINE('',#472,#68);
#36=LINE('',#475,#69);
#37=LINE('',#477,#70);
#38=LINE('',#479,#71);
#39=LINE('',#481,#72);
#40=LINE('',#483,#73);
#41=LINE('',#485,#74);
#42=LINE('',#487,#75);
#43=LINE('',#488,#76);
#44=LINE('',#490,#77);
#45=VECTOR('',#346,1.);
#46=VECTOR('',#347,1.);
#47=VECTOR('',#348,1.);
#48=VECTOR('',#349,1.);
#49=VECTOR('',#350,1.);
#50=VECTOR('',#351,1.);
#51=VECTOR('',#352,1.);
#52=VECTOR('',#353,1.);
#53=VECTOR('',#360,1.);
#54=VECTOR('',#361,1.);
#55=VECTOR('',#362,1.);
#56=VECTOR('',#365,1.);
#57=VECTOR('',#366,1.);
#58=VECTOR('',#369,1.);
#59=VECTOR('',#370,1.);
#60=VECTOR('',#373,1.);
#61=VECTOR('',#374,1.);
#62=VECTOR('',#377,1.);
#63=VECTOR('',#378,1.);
#64=VECTOR('',#381,1.);
#65=VECTOR('',#382,1.);
#66=VECTOR('',#385,1.);
#67=VECTOR('',#386,1.);
#68=VECTOR('',#389,1.);
#69=VECTOR('',#390,1.);
#70=VECTOR('',#391,1.);
#71=VECTOR('',#392,1.);
#72=VECTOR('',#395,1.);
#73=VECTOR('',#396,1.);
#74=VECTOR('',#397,1.);
#75=VECTOR('',#400,1.);
#76=VECTOR('',#401,1.);
#77=VECTOR('',#404,1.);
#78=PLANE('',#317);
#79=PLANE('',#318);
#80=PLANE('',#320);
#81=PLANE('',#321);
#82=PLANE('',#322);
#83=PLANE('',#323);
#84=PLANE('',#324);
#85=PLANE('',#325);
#86=PLANE('',#326);
#87=PLANE('',#327);
#88=PLANE('',#328);
#89=PLANE('',#329);
#90=PLANE('',#330);
#91=PLANE('',#331);
#92=PLANE('',#332);
#93=PLANE('',#335);
#94=ORIENTED_EDGE('',*,*,#168,.F.);
#95=ORIENTED_EDGE('',*,*,#169,.T.);
#96=ORIENTED_EDGE('',*,*,#170,.F.);
#97=ORIENTED_EDGE('',*,*,#171,.T.);
#98=ORIENTED_EDGE('',*,*,#172,.T.);
#99=ORIENTED_EDGE('',*,*,#173,.T.);
#100=ORIENTED_EDGE('',*,*,#174,.T.);
#101=ORIENTED_EDGE('',*,*,#175,.F.);
#102=ORIENTED_EDGE('',*,*,#176,.T.);
#103=ORIENTED_EDGE('',*,*,#177,.F.);
#104=ORIENTED_EDGE('',*,*,#168,.T.);
#105=ORIENTED_EDGE('',*,*,#169,.F.);
#106=ORIENTED_EDGE('',*,*,#178,.F.);
#107=ORIENTED_EDGE('',*,*,#170,.T.);
#108=ORIENTED_EDGE('',*,*,#179,.F.);
#109=ORIENTED_EDGE('',*,*,#180,.F.);
#110=ORIENTED_EDGE('',*,*,#181,.T.);
#111=ORIENTED_EDGE('',*,*,#177,.T.);
#112=ORIENTED_EDGE('',*,*,#182,.F.);
#113=ORIENTED_EDGE('',*,*,#183,.F.);
#114=ORIENTED_EDGE('',*,*,#179,.T.);
#115=ORIENTED_EDGE('',*,*,#176,.F.);
#116=ORIENTED_EDGE('',*,*,#184,.F.);
#117=ORIENTED_EDGE('',*,*,#185,.T.);
#118=ORIENTED_EDGE('',*,*,#182,.T.);
#119=ORIENTED_EDGE('',*,*,#175,.T.);
#120=ORIENTED_EDGE('',*,*,#186,.F.);
#121=ORIENTED_EDGE('',*,*,#187,.F.);
#122=ORIENTED_EDGE('',*,*,#184,.T.);
#123=ORIENTED_EDGE('',*,*,#174,.F.);
#124=ORIENTED_EDGE('',*,*,#188,.F.);
#125=ORIENTED_EDGE('',*,*,#189,.T.);
#126=ORIENTED_EDGE('',*,*,#186,.T.);
#127=ORIENTED_EDGE('',*,*,#173,.F.);
#128=ORIENTED_EDGE('',*,*,#190,.F.);
#129=ORIENTED_EDGE('',*,*,#191,.T.);
#130=ORIENTED_EDGE('',*,*,#188,.T.);
#131=ORIENTED_EDGE('',*,*,#172,.F.);
#132=ORIENTED_EDGE('',*,*,#192,.F.);
#133=ORIENTED_EDGE('',*,*,#193,.T.);
#134=ORIENTED_EDGE('',*,*,#190,.T.);
#135=ORIENTED_EDGE('',*,*,#194,.T.);
#136=ORIENTED_EDGE('',*,*,#195,.F.);
#137=ORIENTED_EDGE('',*,*,#196,.F.);
#138=ORIENTED_EDGE('',*,*,#197,.T.);
#139=ORIENTED_EDGE('',*,*,#198,.T.);
#140=ORIENTED_EDGE('',*,*,#199,.F.);
#141=ORIENTED_EDGE('',*,*,#200,.F.);
#142=ORIENTED_EDGE('',*,*,#195,.T.);
#143=ORIENTED_EDGE('',*,*,#201,.F.);
#144=ORIENTED_EDGE('',*,*,#197,.F.);
#145=ORIENTED_EDGE('',*,*,#202,.T.);
#146=ORIENTED_EDGE('',*,*,#199,.T.);
#147=ORIENTED_EDGE('',*,*,#171,.F.);
#148=ORIENTED_EDGE('',*,*,#181,.F.);
#149=ORIENTED_EDGE('',*,*,#203,.T.);
#150=ORIENTED_EDGE('',*,*,#192,.T.);
#151=ORIENTED_EDGE('',*,*,#196,.T.);
#152=ORIENTED_EDGE('',*,*,#200,.T.);
#153=ORIENTED_EDGE('',*,*,#202,.F.);
#154=ORIENTED_EDGE('',*,*,#180,.T.);
#155=ORIENTED_EDGE('',*,*,#183,.T.);
#156=ORIENTED_EDGE('',*,*,#185,.F.);
#157=ORIENTED_EDGE('',*,*,#187,.T.);
#158=ORIENTED_EDGE('',*,*,#189,.F.);
#159=ORIENTED_EDGE('',*,*,#191,.F.);
#160=ORIENTED_EDGE('',*,*,#193,.F.);
#161=ORIENTED_EDGE('',*,*,#203,.F.);
#162=ORIENTED_EDGE('',*,*,#194,.F.);
#163=ORIENTED_EDGE('',*,*,#201,.T.);
#164=ORIENTED_EDGE('',*,*,#198,.F.);
#165=ORIENTED_EDGE('',*,*,#204,.F.);
#166=ORIENTED_EDGE('',*,*,#178,.T.);
#167=ORIENTED_EDGE('',*,*,#204,.T.);
#168=EDGE_CURVE('',#205,#205,#231,.T.);
#169=EDGE_CURVE('',#206,#206,#232,.T.);
#170=EDGE_CURVE('',#207,#208,#12,.T.);
#171=EDGE_CURVE('',#207,#209,#13,.T.);
#172=EDGE_CURVE('',#209,#210,#14,.T.);
#173=EDGE_CURVE('',#210,#211,#15,.T.);
#174=EDGE_CURVE('',#211,#212,#16,.T.);
#175=EDGE_CURVE('',#213,#212,#17,.T.);
#176=EDGE_CURVE('',#213,#214,#18,.T.);
#177=EDGE_CURVE('',#208,#214,#19,.T.);
#178=EDGE_CURVE('',#215,#215,#233,.F.);
#179=EDGE_CURVE('',#216,#208,#20,.T.);
#180=EDGE_CURVE('',#217,#216,#21,.T.);
#181=EDGE_CURVE('',#217,#207,#22,.T.);
#182=EDGE_CURVE('',#218,#214,#23,.T.);
#183=EDGE_CURVE('',#216,#218,#24,.T.);
#184=EDGE_CURVE('',#219,#213,#25,.T.);
#185=EDGE_CURVE('',#219,#218,#26,.T.);
#186=EDGE_CURVE('',#220,#212,#27,.T.);
#187=EDGE_CURVE('',#219,#220,#28,.T.);
#188=EDGE_CURVE('',#221,#211,#29,.T.);
#189=EDGE_CURVE('',#221,#220,#30,.T.);
#190=EDGE_CURVE('',#222,#210,#31,.T.);
#191=EDGE_CURVE('',#222,#221,#32,.T.);
#192=EDGE_CURVE('',#223,#209,#33,.T.);
#193=EDGE_CURVE('',#223,#222,#34,.T.);
#194=EDGE_CURVE('',#224,#225,#35,.T.);
#195=EDGE_CURVE('',#226,#225,#36,.T.);
#196=EDGE_CURVE('',#227,#226,#37,.T.);
#197=EDGE_CURVE('',#227,#224,#38,.T.);
#198=EDGE_CURVE('',#225,#228,#39,.T.);
#199=EDGE_CURVE('',#229,#228,#40,.T.);
#200=EDGE_CURVE('',#226,#229,#41,.T.);
#201=EDGE_CURVE('',#224,#228,#42,.T.);
#202=EDGE_CURVE('',#227,#229,#43,.T.);
#203=EDGE_CURVE('',#217,#223,#44,.T.);
#204=EDGE_CURVE('',#230,#230,#234,.F.);
#205=VERTEX_POINT('',#418);
#206=VERTEX_POINT('',#420);
#207=VERTEX_POINT('',#423);
#208=VERTEX_POINT('',#424);
#209=VERTEX_POINT('',#426);
#210=VERTEX_POINT('',#428);
#211=VERTEX_POINT('',#430);
#212=VERTEX_POINT('',#432);
#213=VERTEX_POINT('',#434);
#214=VERTEX_POINT('',#436);
#215=VERTEX_POINT('',#440);
#216=VERTEX_POINT('',#443);
#217=VERTEX_POINT('',#445);
#218=VERTEX_POINT('',#449);
#219=VERTEX_POINT('',#453);
#220=VERTEX_POINT('',#457);
#221=VERTEX_POINT('',#461);
#222=VERTEX_POINT('',#465);
#223=VERTEX_POINT('',#469);
#224=VERTEX_POINT('',#473);
#225=VERTEX_POINT('',#474);
#226=VERTEX_POINT('',#476);
#227=VERTEX_POINT('',#478);
#228=VERTEX_POINT('',#482);
#229=VERTEX_POINT('',#484);
#230=VERTEX_POINT('',#495);
#231=CIRCLE('',#315,0.0033);
#232=CIRCLE('',#316,0.0033);
#233=CIRCLE('',#319,0.001);
#234=CIRCLE('',#334,0.001);
#235=EDGE_LOOP('',(#94));
#236=EDGE_LOOP('',(#95));
#237=EDGE_LOOP('',(#96,#97,#98,#99,#100,#101,#102,#103));
#238=EDGE_LOOP('',(#104));
#239=EDGE_LOOP('',(#105));
#240=EDGE_LOOP('',(#106));
#241=EDGE_LOOP('',(#107,#108,#109,#110));
#242=EDGE_LOOP('',(#111,#112,#113,#114));
#243=EDGE_LOOP('',(#115,#116,#117,#118));
#244=EDGE_LOOP('',(#119,#120,#121,#122));
#245=EDGE_LOOP('',(#123,#124,#125,#126));
#246=EDGE_LOOP('',(#127,#128,#129,#130));
#247=EDGE_LOOP('',(#131,#132,#133,#134));
#248=EDGE_LOOP('',(#135,#136,#137,#138));
#249=EDGE_LOOP('',(#139,#140,#141,#142));
#250=EDGE_LOOP('',(#143,#144,#145,#146));
#251=EDGE_LOOP('',(#147,#148,#149,#150));
#252=EDGE_LOOP('',(#151,#152,#153));
#253=EDGE_LOOP('',(#154,#155,#156,#157,#158,#159,#160,#161));
#254=EDGE_LOOP('',(#162,#163,#164));
#255=EDGE_LOOP('',(#165));
#256=EDGE_LOOP('',(#166));
#257=EDGE_LOOP('',(#167));
#258=FACE_BOUND('',#235,.T.);
#259=FACE_BOUND('',#236,.T.);
#260=FACE_BOUND('',#237,.T.);
#261=FACE_BOUND('',#238,.T.);
#262=FACE_BOUND('',#239,.T.);
#263=FACE_BOUND('',#240,.T.);
#264=FACE_BOUND('',#241,.T.);
#265=FACE_BOUND('',#242,.T.);
#266=FACE_BOUND('',#243,.T.);
#267=FACE_BOUND('',#244,.T.);
#268=FACE_BOUND('',#245,.T.);
#269=FACE_BOUND('',#246,.T.);
#270=FACE_BOUND('',#247,.T.);
#271=FACE_BOUND('',#248,.T.);
#272=FACE_BOUND('',#249,.T.);
#273=FACE_BOUND('',#250,.T.);
#274=FACE_BOUND('',#251,.T.);
#275=FACE_BOUND('',#252,.T.);
#276=FACE_BOUND('',#253,.T.);
#277=FACE_BOUND('',#254,.T.);
#278=FACE_BOUND('',#255,.T.);
#279=FACE_BOUND('',#256,.T.);
#280=FACE_BOUND('',#257,.T.);
#281=CYLINDRICAL_SURFACE('',#314,0.0033);
#282=CYLINDRICAL_SURFACE('',#333,0.001);
#283=ADVANCED_FACE('',(#258,#259),#281,.T.);
#284=ADVANCED_FACE('',(#260,#261),#78,.T.);
#285=ADVANCED_FACE('',(#262,#263),#79,.F.);
#286=ADVANCED_FACE('',(#264),#80,.F.);
#287=ADVANCED_FACE('',(#265),#81,.F.);
#288=ADVANCED_FACE('',(#266),#82,.T.);
#289=ADVANCED_FACE('',(#267),#83,.F.);
#290=ADVANCED_FACE('',(#268),#84,.T.);
#291=ADVANCED_FACE('',(#269),#85,.T.);
#292=ADVANCED_FACE('',(#270),#86,.T.);
#293=ADVANCED_FACE('',(#271),#87,.F.);
#294=ADVANCED_FACE('',(#272),#88,.F.);
#295=ADVANCED_FACE('',(#273),#89,.T.);
#296=ADVANCED_FACE('',(#274),#90,.T.);
#297=ADVANCED_FACE('',(#275,#276),#91,.T.);
#298=ADVANCED_FACE('',(#277),#92,.T.);
#299=ADVANCED_FACE('',(#278,#279),#282,.T.);
#300=ADVANCED_FACE('',(#280),#93,.F.);
#301=CLOSED_SHELL('',(#283,#284,#285,#286,#287,#288,#289,#290,#291,#292,
#293,#294,#295,#296,#297,#298,#299,#300));
#302=STYLED_ITEM('',(#303),#310);
#303=PRESENTATION_STYLE_ASSIGNMENT((#304));
#304=SURFACE_STYLE_USAGE(.BOTH.,#305);
#305=SURFACE_SIDE_STYLE('',(#306));
#306=SURFACE_STYLE_FILL_AREA(#307);
#307=FILL_AREA_STYLE('',(#308));
#308=FILL_AREA_STYLE_COLOUR('',#309);
#309=COLOUR_RGB('',0.615686274509804,0.811764705882353,0.929411764705882);
#310=MANIFOLD_SOLID_BREP('Part 1',#301);
#311=SHAPE_DEFINITION_REPRESENTATION(#503,#312);
#312=SHAPE_REPRESENTATION('Part 1',(#313),#498);
#313=AXIS2_PLACEMENT_3D('',#415,#336,#337);
#314=AXIS2_PLACEMENT_3D('',#416,#338,#339);
#315=AXIS2_PLACEMENT_3D('',#417,#340,#341);
#316=AXIS2_PLACEMENT_3D('',#419,#342,#343);
#317=AXIS2_PLACEMENT_3D('',#421,#344,#345);
#318=AXIS2_PLACEMENT_3D('',#438,#354,#355);
#319=AXIS2_PLACEMENT_3D('',#439,#356,#357);
#320=AXIS2_PLACEMENT_3D('',#441,#358,#359);
#321=AXIS2_PLACEMENT_3D('',#447,#363,#364);
#322=AXIS2_PLACEMENT_3D('',#451,#367,#368);
#323=AXIS2_PLACEMENT_3D('',#455,#371,#372);
#324=AXIS2_PLACEMENT_3D('',#459,#375,#376);
#325=AXIS2_PLACEMENT_3D('',#463,#379,#380);
#326=AXIS2_PLACEMENT_3D('',#467,#383,#384);
#327=AXIS2_PLACEMENT_3D('',#471,#387,#388);
#328=AXIS2_PLACEMENT_3D('',#480,#393,#394);
#329=AXIS2_PLACEMENT_3D('',#486,#398,#399);
#330=AXIS2_PLACEMENT_3D('',#489,#402,#403);
#331=AXIS2_PLACEMENT_3D('',#491,#405,#406);
#332=AXIS2_PLACEMENT_3D('',#492,#407,#408);
#333=AXIS2_PLACEMENT_3D('',#493,#409,#410);
#334=AXIS2_PLACEMENT_3D('',#494,#411,#412);
#335=AXIS2_PLACEMENT_3D('',#496,#413,#414);
#336=DIRECTION('',(0.,0.,1.));
#337=DIRECTION('',(1.,0.,0.));
#338=DIRECTION('',(0.,0.,-1.));
#339=DIRECTION('',(-1.,0.,0.));
#340=DIRECTION('',(0.,0.,1.));
#341=DIRECTION('',(1.,0.,0.));
#342=DIRECTION('',(0.,0.,1.));
#343=DIRECTION('',(1.,0.,0.));
#344=DIRECTION('',(0.,0.,1.));
#345=DIRECTION('',(1.,0.,0.));
#346=DIRECTION('',(-1.,0.,0.));
#347=DIRECTION('',(0.351123441588391,-0.936329177569045,0.));
#348=DIRECTION('',(-1.,0.,0.));
#349=DIRECTION('',(-0.351123441588391,0.936329177569045,0.));
#350=DIRECTION('',(-1.,-1.44560289664734E-16,0.));
#351=DIRECTION('',(0.351123441588391,0.936329177569045,0.));
#352=DIRECTION('',(-1.,0.,0.));
#353=DIRECTION('',(-0.351123441588391,-0.936329177569045,0.));
#354=DIRECTION('',(0.,0.,1.));
#355=DIRECTION('',(1.,0.,0.));
#356=DIRECTION('',(0.,0.,1.));
#357=DIRECTION('',(1.,0.,0.));
#358=DIRECTION('',(0.,1.,0.));
#359=DIRECTION('',(0.,0.,1.));
#360=DIRECTION('',(0.,0.,1.));
#361=DIRECTION('',(-1.,0.,0.));
#362=DIRECTION('',(0.,0.,1.));
#363=DIRECTION('',(-0.936329177569045,0.351123441588391,0.));
#364=DIRECTION('',(-0.351123441588391,-0.936329177569045,0.));
#365=DIRECTION('',(0.,0.,1.));
#366=DIRECTION('',(-0.351123441588391,-0.936329177569045,0.));
#367=DIRECTION('',(0.,1.,0.));
#368=DIRECTION('',(0.,0.,1.));
#369=DIRECTION('',(0.,0.,1.));
#370=DIRECTION('',(-1.,0.,0.));
#371=DIRECTION('',(0.936329177569045,-0.351123441588391,0.));
#372=DIRECTION('',(0.351123441588391,0.936329177569045,0.));
#373=DIRECTION('',(0.,0.,1.));
#374=DIRECTION('',(0.351123441588391,0.936329177569045,0.));
#375=DIRECTION('',(-1.44560289664734E-16,1.,0.));
#376=DIRECTION('',(-1.,-1.44560289664734E-16,0.));
#377=DIRECTION('',(0.,0.,1.));
#378=DIRECTION('',(-1.,-1.44560289664734E-16,0.));
#379=DIRECTION('',(0.936329177569045,0.351123441588391,0.));
#380=DIRECTION('',(-0.351123441588391,0.936329177569045,0.));
#381=DIRECTION('',(0.,0.,1.));
#382=DIRECTION('',(-0.351123441588391,0.936329177569045,0.));
#383=DIRECTION('',(0.,1.,0.));
#384=DIRECTION('',(0.,0.,1.));
#385=DIRECTION('',(0.,0.,1.));
#386=DIRECTION('',(-1.,0.,0.));
#387=DIRECTION('',(-1.03257349760524E-16,1.,0.));
#388=DIRECTION('',(-1.,-1.03257349760524E-16,0.));
#389=DIRECTION('',(-1.,-1.03257349760524E-16,0.));
#390=DIRECTION('',(0.,0.,1.));
#391=DIRECTION('',(-1.,-1.03257349760524E-16,0.));
#392=DIRECTION('',(0.,0.,1.));
#393=DIRECTION('',(0.936329177569045,-0.351123441588391,0.));
#394=DIRECTION('',(0.351123441588391,0.936329177569045,0.));
#395=DIRECTION('',(0.351123441588391,0.936329177569045,0.));
#396=DIRECTION('',(0.,0.,1.));
#397=DIRECTION('',(0.351123441588391,0.936329177569045,0.));
#398=DIRECTION('',(0.936329177569045,0.351123441588391,0.));
#399=DIRECTION('',(-0.351123441588391,0.936329177569045,0.));
#400=DIRECTION('',(-0.351123441588391,0.936329177569045,0.));
#401=DIRECTION('',(-0.351123441588391,0.936329177569045,0.));
#402=DIRECTION('',(-0.936329177569045,-0.351123441588391,0.));
#403=DIRECTION('',(0.351123441588391,-0.936329177569045,0.));
#404=DIRECTION('',(0.351123441588391,-0.936329177569045,0.));
#405=DIRECTION('',(0.,0.,1.));
#406=DIRECTION('',(1.,0.,0.));
#407=DIRECTION('',(0.,0.,1.));
#408=DIRECTION('',(1.,0.,0.));
#409=DIRECTION('',(-3.28081325416165E-15,-1.77635683940027E-15,-1.));
#410=DIRECTION('',(-1.,0.,3.28081325416165E-15));
#411=DIRECTION('',(0.,0.,1.));
#412=DIRECTION('',(1.,0.,0.));
#413=DIRECTION('',(0.,0.,1.));
#414=DIRECTION('',(1.,0.,0.));
#415=CARTESIAN_POINT('',(0.,0.,0.));
#416=CARTESIAN_POINT('',(0.,2.02066721859313E-19,0.0025));
#417=CARTESIAN_POINT('',(0.,2.02066721859313E-19,0.0025));
#418=CARTESIAN_POINT('',(0.0033,2.02066721859313E-19,0.0025));
#419=CARTESIAN_POINT('',(0.,2.02066721859313E-19,0.));
#420=CARTESIAN_POINT('',(0.0033,2.02066721859313E-19,0.));
#421=CARTESIAN_POINT('',(0.,0.,0.0025));
#422=CARTESIAN_POINT('',(-0.00025,0.002,0.0025));
#423=CARTESIAN_POINT('',(0.0005,0.002,0.0025));
#424=CARTESIAN_POINT('',(-0.0005,0.002,0.0025));
#425=CARTESIAN_POINT('',(0.00125,0.,0.0025));
#426=CARTESIAN_POINT('',(0.002,-0.002,0.0025));
#427=CARTESIAN_POINT('',(0.0016,-0.002,0.0025));
#428=CARTESIAN_POINT('',(0.0012,-0.002,0.0025));
#429=CARTESIAN_POINT('',(0.000975,-0.0014,0.0025));
#430=CARTESIAN_POINT('',(0.00075,-0.0008,0.0025));
#431=CARTESIAN_POINT('',(-0.000375,-0.0008,0.0025));
#432=CARTESIAN_POINT('',(-0.00075,-0.0008,0.0025));
#433=CARTESIAN_POINT('',(-0.000975,-0.0014,0.0025));
#434=CARTESIAN_POINT('',(-0.0012,-0.002,0.0025));
#435=CARTESIAN_POINT('',(-0.0016,-0.002,0.0025));
#436=CARTESIAN_POINT('',(-0.002,-0.002,0.0025));
#437=CARTESIAN_POINT('',(-0.00125,0.,0.0025));
#438=CARTESIAN_POINT('',(0.,0.,0.));
#439=CARTESIAN_POINT('',(-2.91082535518077E-21,-6.12323399573676E-20,0.));
#440=CARTESIAN_POINT('',(0.001,-6.12323399573676E-20,0.));
#441=CARTESIAN_POINT('',(-0.00025,0.002,0.00225));
#442=CARTESIAN_POINT('',(-0.0005,0.002,0.00225));
#443=CARTESIAN_POINT('',(-0.0005,0.002,0.00225));
#444=CARTESIAN_POINT('',(-0.00025,0.002,0.00225));
#445=CARTESIAN_POINT('',(0.0005,0.002,0.00225));
#446=CARTESIAN_POINT('',(0.0005,0.002,0.00225));
#447=CARTESIAN_POINT('',(-0.00125,0.,0.00225));
#448=CARTESIAN_POINT('',(-0.002,-0.002,0.00225));
#449=CARTESIAN_POINT('',(-0.002,-0.002,0.00225));
#450=CARTESIAN_POINT('',(-0.00125,0.,0.00225));
#451=CARTESIAN_POINT('',(-0.0016,-0.002,0.00225));
#452=CARTESIAN_POINT('',(-0.0012,-0.002,0.00225));
#453=CARTESIAN_POINT('',(-0.0012,-0.002,0.00225));
#454=CARTESIAN_POINT('',(-0.0016,-0.002,0.00225));
#455=CARTESIAN_POINT('',(-0.000975,-0.0014,0.00225));
#456=CARTESIAN_POINT('',(-0.00075,-0.0008,0.00225));
#457=CARTESIAN_POINT('',(-0.00075,-0.0008,0.00225));
#458=CARTESIAN_POINT('',(-0.000975,-0.0014,0.00225));
#459=CARTESIAN_POINT('',(-0.000375,-0.0008,0.00225));
#460=CARTESIAN_POINT('',(0.00075,-0.0008,0.00225));
#461=CARTESIAN_POINT('',(0.00075,-0.0008,0.00225));
#462=CARTESIAN_POINT('',(-0.000375,-0.0008,0.00225));
#463=CARTESIAN_POINT('',(0.000975,-0.0014,0.00225));
#464=CARTESIAN_POINT('',(0.0012,-0.002,0.00225));
#465=CARTESIAN_POINT('',(0.0012,-0.002,0.00225));
#466=CARTESIAN_POINT('',(0.000975,-0.0014,0.00225));
#467=CARTESIAN_POINT('',(0.0016,-0.002,0.00225));
#468=CARTESIAN_POINT('',(0.002,-0.002,0.00225));
#469=CARTESIAN_POINT('',(0.002,-0.002,0.00225));
#470=CARTESIAN_POINT('',(0.0016,-0.002,0.00225));
#471=CARTESIAN_POINT('',(-0.0002625,-0.0002,0.00225));
#472=CARTESIAN_POINT('',(-0.0002625,-0.0002,0.0025));
#473=CARTESIAN_POINT('',(0.000525,-0.0002,0.0025));
#474=CARTESIAN_POINT('',(-0.000525,-0.0002,0.0025));
#475=CARTESIAN_POINT('',(-0.000525,-0.0002,0.00225));
#476=CARTESIAN_POINT('',(-0.000525,-0.0002,0.00225));
#477=CARTESIAN_POINT('',(-0.0002625,-0.0002,0.00225));
#478=CARTESIAN_POINT('',(0.000525,-0.0002,0.00225));
#479=CARTESIAN_POINT('',(0.000525,-0.0002,0.00225));
#480=CARTESIAN_POINT('',(-0.0002625,0.0005,0.00225));
#481=CARTESIAN_POINT('',(-0.0002625,0.0005,0.0025));
#482=CARTESIAN_POINT('',(5.42101086242752E-20,0.0012,0.0025));
#483=CARTESIAN_POINT('',(0.,0.0012,0.00225));
#484=CARTESIAN_POINT('',(0.,0.0012,0.00225));
#485=CARTESIAN_POINT('',(-0.0002625,0.0005,0.00225));
#486=CARTESIAN_POINT('',(0.0002625,0.0005,0.00225));
#487=CARTESIAN_POINT('',(0.0002625,0.0005,0.0025));
#488=CARTESIAN_POINT('',(0.0002625,0.0005,0.00225));
#489=CARTESIAN_POINT('',(0.00125,0.,0.00225));
#490=CARTESIAN_POINT('',(0.00125,0.,0.00225));
#491=CARTESIAN_POINT('',(0.,0.,0.00225));
#492=CARTESIAN_POINT('',(0.,0.,0.0025));
#493=CARTESIAN_POINT('',(3.65080115316616E-21,-5.76796262785542E-20,2.0000000000072E-6));
#494=CARTESIAN_POINT('',(-1.64069770961635E-17,-8.94301653695872E-18,-0.005));
#495=CARTESIAN_POINT('',(0.000999999999999984,-8.94301653695872E-18,-0.005));
#496=CARTESIAN_POINT('',(-1.64040662708082E-17,-8.88178419700132E-18,-0.005));
#497=MECHANICAL_DESIGN_GEOMETRIC_PRESENTATION_REPRESENTATION('',(#302),
#498);
#498=(
GEOMETRIC_REPRESENTATION_CONTEXT(3)
GLOBAL_UNCERTAINTY_ASSIGNED_CONTEXT((#499))
GLOBAL_UNIT_ASSIGNED_CONTEXT((#502,#501,#500))
REPRESENTATION_CONTEXT('Part 1','TOP_LEVEL_ASSEMBLY_PART')
);
#499=UNCERTAINTY_MEASURE_WITH_UNIT(LENGTH_MEASURE(1.E-8),#502,
'DISTANCE_ACCURACY_VALUE','Maximum Tolerance applied to model');
#500=(
NAMED_UNIT(*)
SI_UNIT($,.STERADIAN.)
SOLID_ANGLE_UNIT()
);
#501=(
NAMED_UNIT(*)
PLANE_ANGLE_UNIT()
SI_UNIT($,.RADIAN.)
);
#502=(
LENGTH_UNIT()
NAMED_UNIT(*)
SI_UNIT($,.METRE.)
);
#503=PRODUCT_DEFINITION_SHAPE('','',#504);
#504=PRODUCT_DEFINITION('','',#506,#505);
#505=PRODUCT_DEFINITION_CONTEXT('',#512,'design');
#506=PRODUCT_DEFINITION_FORMATION_WITH_SPECIFIED_SOURCE('','',#508,
 .NOT_KNOWN.);
#507=PRODUCT_RELATED_PRODUCT_CATEGORY('','',(#508));
#508=PRODUCT('Part 1','Part 1','Part 1',(#510));
#509=PRODUCT_CATEGORY('','');
#510=PRODUCT_CONTEXT('',#512,'mechanical');
#511=APPLICATION_PROTOCOL_DEFINITION('international standard',
'ap242_managed_model_based_3d_engineering',2020,#512);
#512=APPLICATION_CONTEXT('managed model based 3d engineering');
ENDSEC;
END-ISO-10303-21;
