ISO-10303-21;
HEADER;
/* Generated by software containing ST-Developer
 * from STEP Tools, Inc. (www.steptools.com) 
 */
/* OPTION: using custom renumber hook */

FILE_DESCRIPTION(
/* description */ ('STEP AP242 Edition 2',
'CAx-IF Rec.Pracs.---Representation and Presentation of Product Manufa
cturing Information (PMI)---4.0---2014-10-13',
'CAx-IF Rec.Pracs.---3D Tessellated Geometry---0.4---2014-09-14','2;1',
'CAx-IF Rec.Pracs.---User Defined Attributes---1.5---2016-08-15'),
/* implementation_level */ '2;1');

FILE_NAME(
/* name */ 'DPADCap',
/* time_stamp */ '2026-05-25T15:56:00Z',
/* author */ (''),
/* organization */ (''),
/* preprocessor_version */ 'ST-DEVELOPER v20',
/* originating_system */ 'ONSHAPE BY PTC INC, 1.215',
/* authorisation */ '  ');

FILE_SCHEMA (('AP242_MANAGED_MODEL_BASED_3D_ENGINEERING_MIM_LF { 1 0 10303 442 3 1 4 }'));
ENDSEC;

DATA;
#10=SHAPE_REPRESENTATION_RELATIONSHIP('','',#253,#11);
#11=ADVANCED_BREP_SHAPE_REPRESENTATION('',(#251),#425);
#12=CYLINDRICAL_SURFACE('',#268,0.000799999999999947);
#13=CYLINDRICAL_SURFACE('',#269,0.000799999999999991);
#14=CYLINDRICAL_SURFACE('',#271,0.0008);
#15=CYLINDRICAL_SURFACE('',#274,0.000800000000000025);
#16=CYLINDRICAL_SURFACE('',#276,0.000799999999999943);
#17=CYLINDRICAL_SURFACE('',#278,0.001);
#18=CIRCLE('',#256,0.000799999999999947);
#19=CIRCLE('',#257,0.000799999999999943);
#20=CIRCLE('',#258,0.000800000000000025);
#21=CIRCLE('',#259,0.0008);
#22=CIRCLE('',#260,0.000799999999999991);
#23=CIRCLE('',#262,0.000799999999999947);
#24=CIRCLE('',#263,0.000799999999999991);
#25=CIRCLE('',#264,0.0008);
#26=CIRCLE('',#265,0.000800000000000025);
#27=CIRCLE('',#266,0.000799999999999943);
#28=CIRCLE('',#267,0.001);
#29=CIRCLE('',#279,0.001);
#30=ORIENTED_EDGE('',*,*,#94,.T.);
#31=ORIENTED_EDGE('',*,*,#95,.T.);
#32=ORIENTED_EDGE('',*,*,#96,.T.);
#33=ORIENTED_EDGE('',*,*,#97,.T.);
#34=ORIENTED_EDGE('',*,*,#98,.F.);
#35=ORIENTED_EDGE('',*,*,#99,.T.);
#36=ORIENTED_EDGE('',*,*,#100,.F.);
#37=ORIENTED_EDGE('',*,*,#101,.T.);
#38=ORIENTED_EDGE('',*,*,#102,.F.);
#39=ORIENTED_EDGE('',*,*,#103,.T.);
#40=ORIENTED_EDGE('',*,*,#104,.T.);
#41=ORIENTED_EDGE('',*,*,#105,.T.);
#42=ORIENTED_EDGE('',*,*,#106,.T.);
#43=ORIENTED_EDGE('',*,*,#107,.F.);
#44=ORIENTED_EDGE('',*,*,#108,.T.);
#45=ORIENTED_EDGE('',*,*,#109,.F.);
#46=ORIENTED_EDGE('',*,*,#110,.T.);
#47=ORIENTED_EDGE('',*,*,#111,.F.);
#48=ORIENTED_EDGE('',*,*,#112,.T.);
#49=ORIENTED_EDGE('',*,*,#113,.T.);
#50=ORIENTED_EDGE('',*,*,#114,.F.);
#51=ORIENTED_EDGE('',*,*,#95,.F.);
#52=ORIENTED_EDGE('',*,*,#115,.F.);
#53=ORIENTED_EDGE('',*,*,#104,.F.);
#54=ORIENTED_EDGE('',*,*,#116,.T.);
#55=ORIENTED_EDGE('',*,*,#106,.F.);
#56=ORIENTED_EDGE('',*,*,#117,.T.);
#57=ORIENTED_EDGE('',*,*,#103,.F.);
#58=ORIENTED_EDGE('',*,*,#118,.F.);
#59=ORIENTED_EDGE('',*,*,#119,.F.);
#60=ORIENTED_EDGE('',*,*,#107,.T.);
#61=ORIENTED_EDGE('',*,*,#118,.T.);
#62=ORIENTED_EDGE('',*,*,#102,.T.);
#63=ORIENTED_EDGE('',*,*,#108,.F.);
#64=ORIENTED_EDGE('',*,*,#119,.T.);
#65=ORIENTED_EDGE('',*,*,#101,.F.);
#66=ORIENTED_EDGE('',*,*,#120,.F.);
#67=ORIENTED_EDGE('',*,*,#105,.F.);
#68=ORIENTED_EDGE('',*,*,#115,.T.);
#69=ORIENTED_EDGE('',*,*,#94,.F.);
#70=ORIENTED_EDGE('',*,*,#117,.F.);
#71=ORIENTED_EDGE('',*,*,#100,.T.);
#72=ORIENTED_EDGE('',*,*,#121,.F.);
#73=ORIENTED_EDGE('',*,*,#109,.T.);
#74=ORIENTED_EDGE('',*,*,#120,.T.);
#75=ORIENTED_EDGE('',*,*,#99,.F.);
#76=ORIENTED_EDGE('',*,*,#122,.F.);
#77=ORIENTED_EDGE('',*,*,#110,.F.);
#78=ORIENTED_EDGE('',*,*,#121,.T.);
#79=ORIENTED_EDGE('',*,*,#123,.T.);
#80=ORIENTED_EDGE('',*,*,#96,.F.);
#81=ORIENTED_EDGE('',*,*,#116,.F.);
#82=ORIENTED_EDGE('',*,*,#113,.F.);
#83=ORIENTED_EDGE('',*,*,#124,.T.);
#84=ORIENTED_EDGE('',*,*,#97,.F.);
#85=ORIENTED_EDGE('',*,*,#123,.F.);
#86=ORIENTED_EDGE('',*,*,#112,.F.);
#87=ORIENTED_EDGE('',*,*,#111,.T.);
#88=ORIENTED_EDGE('',*,*,#122,.T.);
#89=ORIENTED_EDGE('',*,*,#98,.T.);
#90=ORIENTED_EDGE('',*,*,#124,.F.);
#91=ORIENTED_EDGE('',*,*,#125,.F.);
#92=ORIENTED_EDGE('',*,*,#114,.T.);
#93=ORIENTED_EDGE('',*,*,#125,.T.);
#94=EDGE_CURVE('',#126,#127,#148,.T.);
#95=EDGE_CURVE('',#127,#128,#18,.T.);
#96=EDGE_CURVE('',#128,#129,#149,.T.);
#97=EDGE_CURVE('',#129,#130,#19,.T.);
#98=EDGE_CURVE('',#131,#130,#150,.T.);
#99=EDGE_CURVE('',#131,#132,#20,.T.);
#100=EDGE_CURVE('',#133,#132,#151,.T.);
#101=EDGE_CURVE('',#133,#134,#21,.T.);
#102=EDGE_CURVE('',#135,#134,#152,.T.);
#103=EDGE_CURVE('',#135,#126,#22,.T.);
#104=EDGE_CURVE('',#136,#137,#23,.F.);
#105=EDGE_CURVE('',#137,#138,#153,.T.);
#106=EDGE_CURVE('',#138,#139,#24,.F.);
#107=EDGE_CURVE('',#140,#139,#154,.T.);
#108=EDGE_CURVE('',#140,#141,#25,.F.);
#109=EDGE_CURVE('',#142,#141,#155,.T.);
#110=EDGE_CURVE('',#142,#143,#26,.F.);
#111=EDGE_CURVE('',#144,#143,#156,.T.);
#112=EDGE_CURVE('',#144,#145,#27,.F.);
#113=EDGE_CURVE('',#145,#136,#157,.T.);
#114=EDGE_CURVE('',#146,#146,#28,.F.);
#115=EDGE_CURVE('',#137,#127,#158,.T.);
#116=EDGE_CURVE('',#136,#128,#159,.T.);
#117=EDGE_CURVE('',#138,#126,#160,.T.);
#118=EDGE_CURVE('',#139,#135,#161,.T.);
#119=EDGE_CURVE('',#140,#134,#162,.T.);
#120=EDGE_CURVE('',#141,#133,#163,.T.);
#121=EDGE_CURVE('',#142,#132,#164,.T.);
#122=EDGE_CURVE('',#143,#131,#165,.T.);
#123=EDGE_CURVE('',#145,#129,#166,.T.);
#124=EDGE_CURVE('',#144,#130,#167,.T.);
#125=EDGE_CURVE('',#147,#147,#29,.F.);
#126=VERTEX_POINT('',#358);
#127=VERTEX_POINT('',#359);
#128=VERTEX_POINT('',#361);
#129=VERTEX_POINT('',#363);
#130=VERTEX_POINT('',#365);
#131=VERTEX_POINT('',#367);
#132=VERTEX_POINT('',#369);
#133=VERTEX_POINT('',#371);
#134=VERTEX_POINT('',#373);
#135=VERTEX_POINT('',#375);
#136=VERTEX_POINT('',#379);
#137=VERTEX_POINT('',#380);
#138=VERTEX_POINT('',#382);
#139=VERTEX_POINT('',#384);
#140=VERTEX_POINT('',#386);
#141=VERTEX_POINT('',#388);
#142=VERTEX_POINT('',#390);
#143=VERTEX_POINT('',#392);
#144=VERTEX_POINT('',#394);
#145=VERTEX_POINT('',#396);
#146=VERTEX_POINT('',#399);
#147=VERTEX_POINT('',#422);
#148=LINE('',#357,#168);
#149=LINE('',#362,#169);
#150=LINE('',#366,#170);
#151=LINE('',#370,#171);
#152=LINE('',#374,#172);
#153=LINE('',#381,#173);
#154=LINE('',#385,#174);
#155=LINE('',#389,#175);
#156=LINE('',#393,#176);
#157=LINE('',#397,#177);
#158=LINE('',#401,#178);
#159=LINE('',#402,#179);
#160=LINE('',#404,#180);
#161=LINE('',#405,#181);
#162=LINE('',#407,#182);
#163=LINE('',#409,#183);
#164=LINE('',#412,#184);
#165=LINE('',#414,#185);
#166=LINE('',#416,#186);
#167=LINE('',#418,#187);
#168=VECTOR('',#285,1.);
#169=VECTOR('',#288,1.);
#170=VECTOR('',#291,1.);
#171=VECTOR('',#294,1.);
#172=VECTOR('',#297,1.);
#173=VECTOR('',#304,1.);
#174=VECTOR('',#307,1.);
#175=VECTOR('',#310,1.);
#176=VECTOR('',#313,1.);
#177=VECTOR('',#316,1.);
#178=VECTOR('',#321,1.);
#179=VECTOR('',#322,1.);
#180=VECTOR('',#325,1.);
#181=VECTOR('',#326,1.);
#182=VECTOR('',#329,1.);
#183=VECTOR('',#332,1.);
#184=VECTOR('',#337,1.);
#185=VECTOR('',#340,1.);
#186=VECTOR('',#343,1.);
#187=VECTOR('',#346,1.);
#188=EDGE_LOOP('',(#30,#31,#32,#33,#34,#35,#36,#37,#38,#39));
#189=EDGE_LOOP('',(#40,#41,#42,#43,#44,#45,#46,#47,#48,#49));
#190=EDGE_LOOP('',(#50));
#191=EDGE_LOOP('',(#51,#52,#53,#54));
#192=EDGE_LOOP('',(#55,#56,#57,#58));
#193=EDGE_LOOP('',(#59,#60,#61,#62));
#194=EDGE_LOOP('',(#63,#64,#65,#66));
#195=EDGE_LOOP('',(#67,#68,#69,#70));
#196=EDGE_LOOP('',(#71,#72,#73,#74));
#197=EDGE_LOOP('',(#75,#76,#77,#78));
#198=EDGE_LOOP('',(#79,#80,#81,#82));
#199=EDGE_LOOP('',(#83,#84,#85,#86));
#200=EDGE_LOOP('',(#87,#88,#89,#90));
#201=EDGE_LOOP('',(#91));
#202=EDGE_LOOP('',(#92));
#203=EDGE_LOOP('',(#93));
#204=FACE_BOUND('',#188,.T.);
#205=FACE_BOUND('',#189,.T.);
#206=FACE_BOUND('',#190,.T.);
#207=FACE_BOUND('',#191,.T.);
#208=FACE_BOUND('',#192,.T.);
#209=FACE_BOUND('',#193,.T.);
#210=FACE_BOUND('',#194,.T.);
#211=FACE_BOUND('',#195,.T.);
#212=FACE_BOUND('',#196,.T.);
#213=FACE_BOUND('',#197,.T.);
#214=FACE_BOUND('',#198,.T.);
#215=FACE_BOUND('',#199,.T.);
#216=FACE_BOUND('',#200,.T.);
#217=FACE_BOUND('',#201,.T.);
#218=FACE_BOUND('',#202,.T.);
#219=FACE_BOUND('',#203,.T.);
#220=PLANE('',#255);
#221=PLANE('',#261);
#222=PLANE('',#270);
#223=PLANE('',#272);
#224=PLANE('',#273);
#225=PLANE('',#275);
#226=PLANE('',#277);
#227=PLANE('',#280);
#228=ADVANCED_FACE('',(#204),#220,.T.);
#229=ADVANCED_FACE('',(#205,#206),#221,.F.);
#230=ADVANCED_FACE('',(#207),#12,.T.);
#231=ADVANCED_FACE('',(#208),#13,.T.);
#232=ADVANCED_FACE('',(#209),#222,.F.);
#233=ADVANCED_FACE('',(#210),#14,.T.);
#234=ADVANCED_FACE('',(#211),#223,.T.);
#235=ADVANCED_FACE('',(#212),#224,.F.);
#236=ADVANCED_FACE('',(#213),#15,.T.);
#237=ADVANCED_FACE('',(#214),#225,.T.);
#238=ADVANCED_FACE('',(#215),#16,.T.);
#239=ADVANCED_FACE('',(#216),#226,.F.);
#240=ADVANCED_FACE('',(#217,#218),#17,.T.);
#241=ADVANCED_FACE('',(#219),#227,.F.);
#242=CLOSED_SHELL('',(#228,#229,#230,#231,#232,#233,#234,#235,#236,#237,
#238,#239,#240,#241));
#243=STYLED_ITEM('',(#244),#251);
#244=PRESENTATION_STYLE_ASSIGNMENT((#245));
#245=SURFACE_STYLE_USAGE(.BOTH.,#246);
#246=SURFACE_SIDE_STYLE('',(#247));
#247=SURFACE_STYLE_FILL_AREA(#248);
#248=FILL_AREA_STYLE('',(#249));
#249=FILL_AREA_STYLE_COLOUR('',#250);
#250=COLOUR_RGB('',0.615686274509804,0.811764705882353,0.929411764705882);
#251=MANIFOLD_SOLID_BREP('Part 1',#242);
#252=SHAPE_DEFINITION_REPRESENTATION(#430,#253);
#253=SHAPE_REPRESENTATION('Part 1',(#254),#425);
#254=AXIS2_PLACEMENT_3D('',#355,#281,#282);
#255=AXIS2_PLACEMENT_3D('',#356,#283,#284);
#256=AXIS2_PLACEMENT_3D('',#360,#286,#287);
#257=AXIS2_PLACEMENT_3D('',#364,#289,#290);
#258=AXIS2_PLACEMENT_3D('',#368,#292,#293);
#259=AXIS2_PLACEMENT_3D('',#372,#295,#296);
#260=AXIS2_PLACEMENT_3D('',#376,#298,#299);
#261=AXIS2_PLACEMENT_3D('',#377,#300,#301);
#262=AXIS2_PLACEMENT_3D('',#378,#302,#303);
#263=AXIS2_PLACEMENT_3D('',#383,#305,#306);
#264=AXIS2_PLACEMENT_3D('',#387,#308,#309);
#265=AXIS2_PLACEMENT_3D('',#391,#311,#312);
#266=AXIS2_PLACEMENT_3D('',#395,#314,#315);
#267=AXIS2_PLACEMENT_3D('',#398,#317,#318);
#268=AXIS2_PLACEMENT_3D('',#400,#319,#320);
#269=AXIS2_PLACEMENT_3D('',#403,#323,#324);
#270=AXIS2_PLACEMENT_3D('',#406,#327,#328);
#271=AXIS2_PLACEMENT_3D('',#408,#330,#331);
#272=AXIS2_PLACEMENT_3D('',#410,#333,#334);
#273=AXIS2_PLACEMENT_3D('',#411,#335,#336);
#274=AXIS2_PLACEMENT_3D('',#413,#338,#339);
#275=AXIS2_PLACEMENT_3D('',#415,#341,#342);
#276=AXIS2_PLACEMENT_3D('',#417,#344,#345);
#277=AXIS2_PLACEMENT_3D('',#419,#347,#348);
#278=AXIS2_PLACEMENT_3D('',#420,#349,#350);
#279=AXIS2_PLACEMENT_3D('',#421,#351,#352);
#280=AXIS2_PLACEMENT_3D('',#423,#353,#354);
#281=DIRECTION('',(0.,0.,1.));
#282=DIRECTION('',(1.,0.,0.));
#283=DIRECTION('',(0.,0.,1.));
#284=DIRECTION('',(1.,0.,0.));
#285=DIRECTION('',(1.,-2.49191095679209E-15,0.));
#286=DIRECTION('',(0.,0.,1.));
#287=DIRECTION('',(1.,0.,0.));
#288=DIRECTION('',(0.464230765979191,0.88571428571429,0.));
#289=DIRECTION('',(0.,0.,1.));
#290=DIRECTION('',(1.,0.,0.));
#291=DIRECTION('',(0.464230765979192,-0.885714285714289,0.));
#292=DIRECTION('',(0.,0.,1.));
#293=DIRECTION('',(1.,0.,0.));
#294=DIRECTION('',(1.,-4.9838219135841E-15,0.));
#295=DIRECTION('',(0.,0.,1.));
#296=DIRECTION('',(1.,0.,0.));
#297=DIRECTION('',(6.60847043272196E-15,1.,0.));
#298=DIRECTION('',(0.,0.,1.));
#299=DIRECTION('',(1.,0.,0.));
#300=DIRECTION('',(0.,0.,1.));
#301=DIRECTION('',(1.,0.,0.));
#302=DIRECTION('',(0.,0.,1.));
#303=DIRECTION('',(1.,0.,0.));
#304=DIRECTION('',(-1.,2.49191095679209E-15,0.));
#305=DIRECTION('',(0.,0.,1.));
#306=DIRECTION('',(1.,0.,0.));
#307=DIRECTION('',(-6.60847043272196E-15,-1.,0.));
#308=DIRECTION('',(0.,0.,1.));
#309=DIRECTION('',(1.,0.,0.));
#310=DIRECTION('',(-1.,4.9838219135841E-15,0.));
#311=DIRECTION('',(0.,0.,1.));
#312=DIRECTION('',(1.,0.,0.));
#313=DIRECTION('',(-0.464230765979192,0.885714285714289,0.));
#314=DIRECTION('',(0.,0.,1.));
#315=DIRECTION('',(1.,0.,0.));
#316=DIRECTION('',(-0.464230765979191,-0.885714285714289,0.));
#317=DIRECTION('',(0.,0.,1.));
#318=DIRECTION('',(1.,0.,0.));
#319=DIRECTION('',(0.,0.,1.));
#320=DIRECTION('',(1.,0.,0.));
#321=DIRECTION('',(0.,0.,1.));
#322=DIRECTION('',(0.,0.,1.));
#323=DIRECTION('',(0.,0.,1.));
#324=DIRECTION('',(1.,0.,0.));
#325=DIRECTION('',(0.,0.,1.));
#326=DIRECTION('',(0.,0.,1.));
#327=DIRECTION('',(1.,-6.60847043272196E-15,0.));
#328=DIRECTION('',(6.60847043272196E-15,1.,0.));
#329=DIRECTION('',(0.,0.,1.));
#330=DIRECTION('',(0.,0.,1.));
#331=DIRECTION('',(1.,0.,0.));
#332=DIRECTION('',(0.,0.,1.));
#333=DIRECTION('',(-2.49191095679209E-15,-1.,0.));
#334=DIRECTION('',(1.,-2.49191095679209E-15,0.));
#335=DIRECTION('',(-4.9838219135841E-15,-1.,0.));
#336=DIRECTION('',(1.,-4.9838219135841E-15,0.));
#337=DIRECTION('',(0.,0.,1.));
#338=DIRECTION('',(0.,0.,1.));
#339=DIRECTION('',(1.,0.,0.));
#340=DIRECTION('',(0.,0.,1.));
#341=DIRECTION('',(0.885714285714289,-0.464230765979191,0.));
#342=DIRECTION('',(0.464230765979191,0.885714285714289,0.));
#343=DIRECTION('',(0.,0.,1.));
#344=DIRECTION('',(0.,0.,1.));
#345=DIRECTION('',(1.,0.,0.));
#346=DIRECTION('',(0.,0.,1.));
#347=DIRECTION('',(-0.885714285714289,-0.464230765979192,0.));
#348=DIRECTION('',(0.464230765979192,-0.885714285714289,0.));
#349=DIRECTION('',(-3.28081325416165E-15,-1.77635683940027E-15,-1.));
#350=DIRECTION('',(-1.,0.,3.28081325416165E-15));
#351=DIRECTION('',(0.,0.,1.));
#352=DIRECTION('',(1.,0.,0.));
#353=DIRECTION('',(0.,0.,1.));
#354=DIRECTION('',(1.,0.,0.));
#355=CARTESIAN_POINT('',(0.,0.,0.));
#356=CARTESIAN_POINT('',(0.,0.,0.0025));
#357=CARTESIAN_POINT('',(-0.00130245037404388,-0.0029,0.0025));
#358=CARTESIAN_POINT('',(-0.00399999999999988,-0.00290000000000023,0.0025));
#359=CARTESIAN_POINT('',(0.00139509925191211,-0.0029,0.0025));
#360=CARTESIAN_POINT('',(0.00139509925191211,-0.0021,0.0025));
#361=CARTESIAN_POINT('',(0.0021036706804835,-0.00247138461278332,0.0025));
#362=CARTESIAN_POINT('',(0.00265400876595888,-0.00142138461278334,0.0025));
#363=CARTESIAN_POINT('',(0.00320434685143422,-0.000371384612783328,0.0025));
#364=CARTESIAN_POINT('',(0.00249577542286286,1.4175943405248E-17,0.0025));
#365=CARTESIAN_POINT('',(0.00320434685143423,0.000371384612783368,0.0025));
#366=CARTESIAN_POINT('',(0.00265400876595888,0.00142138461278337,0.0025));
#367=CARTESIAN_POINT('',(0.00210367068048355,0.00247138461278337,0.0025));
#368=CARTESIAN_POINT('',(0.00139509925191211,0.0021,0.0025));
#369=CARTESIAN_POINT('',(0.00139509925191211,0.0029,0.0025));
#370=CARTESIAN_POINT('',(-0.00130245037404392,0.00290000000000003,0.0025));
#371=CARTESIAN_POINT('',(-0.00399999999999995,0.00290000000000005,0.0025));
#372=CARTESIAN_POINT('',(-0.00399999999999995,0.00209999996946271,0.0025));
#373=CARTESIAN_POINT('',(-0.0048,0.00209999996946272,0.0025));
#374=CARTESIAN_POINT('',(-0.00479999999999988,-1.52687511072169E-11,0.0025));
#375=CARTESIAN_POINT('',(-0.00479999999999989,-0.00210000000000022,0.0025));
#376=CARTESIAN_POINT('',(-0.00399999999999988,-0.00210000000000024,0.0025));
#377=CARTESIAN_POINT('',(0.,0.,0.));
#378=CARTESIAN_POINT('',(0.00139509925191211,-0.0021,0.));
#379=CARTESIAN_POINT('',(0.0021036706804835,-0.00247138461278332,0.));
#380=CARTESIAN_POINT('',(0.00139509925191211,-0.00289999999999994,0.));
#381=CARTESIAN_POINT('',(-0.00130245037404388,-0.0029,0.));
#382=CARTESIAN_POINT('',(-0.00399999999999988,-0.00290000000000023,0.));
#383=CARTESIAN_POINT('',(-0.00399999999999988,-0.00210000000000024,0.));
#384=CARTESIAN_POINT('',(-0.00479999999999989,-0.00210000000000022,0.));
#385=CARTESIAN_POINT('',(-0.00479999999999988,-1.52687511072169E-11,0.));
#386=CARTESIAN_POINT('',(-0.0048,0.00209999996946272,0.));
#387=CARTESIAN_POINT('',(-0.00399999999999995,0.00209999996946271,0.));
#388=CARTESIAN_POINT('',(-0.00399999999999995,0.00290000000000005,0.));
#389=CARTESIAN_POINT('',(-0.00130245037404392,0.00290000000000003,0.));
#390=CARTESIAN_POINT('',(0.00139509925191211,0.0029,0.));
#391=CARTESIAN_POINT('',(0.00139509925191211,0.0021,0.));
#392=CARTESIAN_POINT('',(0.00210367068048355,0.00247138461278337,0.));
#393=CARTESIAN_POINT('',(0.00265400876595888,0.00142138461278337,0.));
#394=CARTESIAN_POINT('',(0.00320434685143423,0.000371384612783368,0.));
#395=CARTESIAN_POINT('',(0.00249577542286286,1.4175943405248E-17,0.));
#396=CARTESIAN_POINT('',(0.00320434685143422,-0.000371384612783328,0.));
#397=CARTESIAN_POINT('',(0.00265400876595888,-0.00142138461278334,0.));
#398=CARTESIAN_POINT('',(-2.91082535518077E-21,-6.12323399573676E-20,0.));
#399=CARTESIAN_POINT('',(0.001,-6.12323399573676E-20,0.));
#400=CARTESIAN_POINT('',(0.00139509925191211,-0.0021,-1.99999999999983E-6));
#401=CARTESIAN_POINT('',(0.00139509925191211,-0.0029,-1.99999999999983E-6));
#402=CARTESIAN_POINT('',(0.0021036706804835,-0.00247138461278332,-1.99999999999983E-6));
#403=CARTESIAN_POINT('',(-0.00399999999999988,-0.00210000000000024,-1.99999999999983E-6));
#404=CARTESIAN_POINT('',(-0.00399999999999988,-0.00290000000000023,-1.99999999999983E-6));
#405=CARTESIAN_POINT('',(-0.00479999999999989,-0.00210000000000022,-1.99999999999983E-6));
#406=CARTESIAN_POINT('',(-0.00479999999999988,-1.52687511072169E-11,-1.99999999999983E-6));
#407=CARTESIAN_POINT('',(-0.0048,0.00209999996946272,-1.99999999999983E-6));
#408=CARTESIAN_POINT('',(-0.00399999999999995,0.00209999996946271,-1.99999999999983E-6));
#409=CARTESIAN_POINT('',(-0.00399999999999995,0.00290000000000005,-1.99999999999983E-6));
#410=CARTESIAN_POINT('',(-0.00130245037404388,-0.0029,-1.99999999999983E-6));
#411=CARTESIAN_POINT('',(-0.00130245037404392,0.00290000000000003,-1.99999999999983E-6));
#412=CARTESIAN_POINT('',(0.00139509925191211,0.0029,-1.99999999999983E-6));
#413=CARTESIAN_POINT('',(0.00139509925191211,0.0021,-1.99999999999983E-6));
#414=CARTESIAN_POINT('',(0.00210367068048355,0.00247138461278337,-1.99999999999983E-6));
#415=CARTESIAN_POINT('',(0.00265400876595888,-0.00142138461278334,-1.99999999999983E-6));
#416=CARTESIAN_POINT('',(0.00320434685143422,-0.000371384612783328,-1.99999999999983E-6));
#417=CARTESIAN_POINT('',(0.00249577542286286,1.4175943405248E-17,-1.99999999999983E-6));
#418=CARTESIAN_POINT('',(0.00320434685143423,0.000371384612783368,-1.99999999999983E-6));
#419=CARTESIAN_POINT('',(0.00265400876595888,0.00142138461278337,-1.99999999999983E-6));
#420=CARTESIAN_POINT('',(3.65080115316616E-21,-5.76796262785542E-20,2.0000000000072E-6));
#421=CARTESIAN_POINT('',(-1.64069770961635E-17,-8.94301653695872E-18,-0.005));
#422=CARTESIAN_POINT('',(0.000999999999999984,-8.94301653695872E-18,-0.005));
#423=CARTESIAN_POINT('',(-1.64040662708082E-17,-8.88178419700132E-18,-0.005));
#424=MECHANICAL_DESIGN_GEOMETRIC_PRESENTATION_REPRESENTATION('',(#243),
#425);
#425=(
GEOMETRIC_REPRESENTATION_CONTEXT(3)
GLOBAL_UNCERTAINTY_ASSIGNED_CONTEXT((#426))
GLOBAL_UNIT_ASSIGNED_CONTEXT((#429,#428,#427))
REPRESENTATION_CONTEXT('Part 1','TOP_LEVEL_ASSEMBLY_PART')
);
#426=UNCERTAINTY_MEASURE_WITH_UNIT(LENGTH_MEASURE(1.E-8),#429,
'DISTANCE_ACCURACY_VALUE','Maximum Tolerance applied to model');
#427=(
NAMED_UNIT(*)
SI_UNIT($,.STERADIAN.)
SOLID_ANGLE_UNIT()
);
#428=(
NAMED_UNIT(*)
PLANE_ANGLE_UNIT()
SI_UNIT($,.RADIAN.)
);
#429=(
LENGTH_UNIT()
NAMED_UNIT(*)
SI_UNIT($,.METRE.)
);
#430=PRODUCT_DEFINITION_SHAPE('','',#431);
#431=PRODUCT_DEFINITION('','',#433,#432);
#432=PRODUCT_DEFINITION_CONTEXT('',#439,'design');
#433=PRODUCT_DEFINITION_FORMATION_WITH_SPECIFIED_SOURCE('','',#435,
 .NOT_KNOWN.);
#434=PRODUCT_RELATED_PRODUCT_CATEGORY('','',(#435));
#435=PRODUCT('Part 1','Part 1','Part 1',(#437));
#436=PRODUCT_CATEGORY('','');
#437=PRODUCT_CONTEXT('',#439,'mechanical');
#438=APPLICATION_PROTOCOL_DEFINITION('international standard',
'ap242_managed_model_based_3d_engineering',2020,#439);
#439=APPLICATION_CONTEXT('managed model based 3d engineering');
ENDSEC;
END-ISO-10303-21;
