ISO-10303-21;
HEADER;
/* Generated by software containing ST-Developer
 * from STEP Tools, Inc. (www.steptools.com) 
 */
/* OPTION: using custom renumber hook */

FILE_DESCRIPTION(
/* description */ ('STEP AP242 Edition 2',
'CAx-IF Rec.Pracs.---Representation and Presentation of Product Manufa
cturing Information (PMI)---4.0---2014-10-13',
'CAx-IF Rec.Pracs.---3D Tessellated Geometry---0.4---2014-09-14','2;1',
'CAx-IF Rec.Pracs.---User Defined Attributes---1.5---2016-08-15'),
/* implementation_level */ '2;1');

FILE_NAME(
/* name */ 'FrontButtonShaft',
/* time_stamp */ '2026-05-25T15:55:52Z',
/* author */ (''),
/* organization */ (''),
/* preprocessor_version */ 'ST-DEVELOPER v20',
/* originating_system */ 'ONSHAPE BY PTC INC, 1.215',
/* authorisation */ '  ');

FILE_SCHEMA (('AP242_MANAGED_MODEL_BASED_3D_ENGINEERING_MIM_LF { 1 0 10303 442 3 1 4 }'));
ENDSEC;

DATA;
#10=SHAPE_REPRESENTATION_RELATIONSHIP('','',#305,#11);
#11=ADVANCED_BREP_SHAPE_REPRESENTATION('',(#303),#513);
#12=CIRCLE('',#309,0.0019);
#13=CIRCLE('',#310,0.0019);
#14=CIRCLE('',#313,0.0019);
#15=CIRCLE('',#314,0.0019);
#16=CIRCLE('',#316,0.0019);
#17=CIRCLE('',#317,0.0019);
#18=CIRCLE('',#318,0.0031);
#19=CIRCLE('',#319,0.0031);
#20=CIRCLE('',#321,0.0031);
#21=CIRCLE('',#325,0.0031);
#22=CIRCLE('',#328,0.0019);
#23=CIRCLE('',#329,0.0019);
#24=CIRCLE('',#335,0.0011);
#25=CIRCLE('',#337,0.0011);
#26=CYLINDRICAL_SURFACE('',#308,0.0019);
#27=CYLINDRICAL_SURFACE('',#312,0.0019);
#28=CYLINDRICAL_SURFACE('',#320,0.0031);
#29=CYLINDRICAL_SURFACE('',#326,0.0031);
#30=CYLINDRICAL_SURFACE('',#330,0.0019);
#31=CYLINDRICAL_SURFACE('',#332,0.0019);
#32=CYLINDRICAL_SURFACE('',#336,0.0011);
#33=ORIENTED_EDGE('',*,*,#109,.F.);
#34=ORIENTED_EDGE('',*,*,#110,.T.);
#35=ORIENTED_EDGE('',*,*,#111,.T.);
#36=ORIENTED_EDGE('',*,*,#112,.F.);
#37=ORIENTED_EDGE('',*,*,#113,.F.);
#38=ORIENTED_EDGE('',*,*,#112,.T.);
#39=ORIENTED_EDGE('',*,*,#114,.T.);
#40=ORIENTED_EDGE('',*,*,#115,.F.);
#41=ORIENTED_EDGE('',*,*,#116,.F.);
#42=ORIENTED_EDGE('',*,*,#117,.T.);
#43=ORIENTED_EDGE('',*,*,#115,.T.);
#44=ORIENTED_EDGE('',*,*,#118,.F.);
#45=ORIENTED_EDGE('',*,*,#119,.F.);
#46=ORIENTED_EDGE('',*,*,#116,.T.);
#47=ORIENTED_EDGE('',*,*,#120,.T.);
#48=ORIENTED_EDGE('',*,*,#110,.F.);
#49=ORIENTED_EDGE('',*,*,#121,.T.);
#50=ORIENTED_EDGE('',*,*,#122,.T.);
#51=ORIENTED_EDGE('',*,*,#123,.T.);
#52=ORIENTED_EDGE('',*,*,#124,.F.);
#53=ORIENTED_EDGE('',*,*,#125,.F.);
#54=ORIENTED_EDGE('',*,*,#126,.T.);
#55=ORIENTED_EDGE('',*,*,#127,.F.);
#56=ORIENTED_EDGE('',*,*,#128,.F.);
#57=ORIENTED_EDGE('',*,*,#129,.F.);
#58=ORIENTED_EDGE('',*,*,#127,.T.);
#59=ORIENTED_EDGE('',*,*,#130,.T.);
#60=ORIENTED_EDGE('',*,*,#131,.T.);
#61=ORIENTED_EDGE('',*,*,#132,.F.);
#62=ORIENTED_EDGE('',*,*,#128,.T.);
#63=ORIENTED_EDGE('',*,*,#129,.T.);
#64=ORIENTED_EDGE('',*,*,#133,.T.);
#65=ORIENTED_EDGE('',*,*,#126,.F.);
#66=ORIENTED_EDGE('',*,*,#134,.T.);
#67=ORIENTED_EDGE('',*,*,#135,.F.);
#68=ORIENTED_EDGE('',*,*,#130,.F.);
#69=ORIENTED_EDGE('',*,*,#119,.T.);
#70=ORIENTED_EDGE('',*,*,#109,.T.);
#71=ORIENTED_EDGE('',*,*,#113,.T.);
#72=ORIENTED_EDGE('',*,*,#117,.F.);
#73=ORIENTED_EDGE('',*,*,#133,.F.);
#74=ORIENTED_EDGE('',*,*,#131,.F.);
#75=ORIENTED_EDGE('',*,*,#135,.T.);
#76=ORIENTED_EDGE('',*,*,#136,.F.);
#77=ORIENTED_EDGE('',*,*,#134,.F.);
#78=ORIENTED_EDGE('',*,*,#125,.T.);
#79=ORIENTED_EDGE('',*,*,#132,.T.);
#80=ORIENTED_EDGE('',*,*,#136,.T.);
#81=ORIENTED_EDGE('',*,*,#137,.T.);
#82=ORIENTED_EDGE('',*,*,#138,.T.);
#83=ORIENTED_EDGE('',*,*,#139,.T.);
#84=ORIENTED_EDGE('',*,*,#140,.F.);
#85=ORIENTED_EDGE('',*,*,#123,.F.);
#86=ORIENTED_EDGE('',*,*,#141,.F.);
#87=ORIENTED_EDGE('',*,*,#137,.F.);
#88=ORIENTED_EDGE('',*,*,#142,.T.);
#89=ORIENTED_EDGE('',*,*,#143,.T.);
#90=ORIENTED_EDGE('',*,*,#124,.T.);
#91=ORIENTED_EDGE('',*,*,#142,.F.);
#92=ORIENTED_EDGE('',*,*,#140,.T.);
#93=ORIENTED_EDGE('',*,*,#121,.F.);
#94=ORIENTED_EDGE('',*,*,#143,.F.);
#95=ORIENTED_EDGE('',*,*,#139,.F.);
#96=ORIENTED_EDGE('',*,*,#144,.T.);
#97=ORIENTED_EDGE('',*,*,#122,.F.);
#98=ORIENTED_EDGE('',*,*,#144,.F.);
#99=ORIENTED_EDGE('',*,*,#138,.F.);
#100=ORIENTED_EDGE('',*,*,#141,.T.);
#101=ORIENTED_EDGE('',*,*,#145,.F.);
#102=ORIENTED_EDGE('',*,*,#111,.F.);
#103=ORIENTED_EDGE('',*,*,#120,.F.);
#104=ORIENTED_EDGE('',*,*,#118,.T.);
#105=ORIENTED_EDGE('',*,*,#114,.F.);
#106=ORIENTED_EDGE('',*,*,#146,.F.);
#107=ORIENTED_EDGE('',*,*,#145,.T.);
#108=ORIENTED_EDGE('',*,*,#146,.T.);
#109=EDGE_CURVE('',#147,#148,#173,.T.);
#110=EDGE_CURVE('',#147,#149,#174,.T.);
#111=EDGE_CURVE('',#149,#150,#175,.T.);
#112=EDGE_CURVE('',#148,#150,#176,.T.);
#113=EDGE_CURVE('',#148,#151,#12,.T.);
#114=EDGE_CURVE('',#150,#152,#13,.T.);
#115=EDGE_CURVE('',#151,#152,#177,.T.);
#116=EDGE_CURVE('',#153,#154,#178,.T.);
#117=EDGE_CURVE('',#153,#151,#179,.T.);
#118=EDGE_CURVE('',#154,#152,#180,.T.);
#119=EDGE_CURVE('',#153,#147,#14,.T.);
#120=EDGE_CURVE('',#154,#149,#15,.T.);
#121=EDGE_CURVE('',#155,#156,#16,.T.);
#122=EDGE_CURVE('',#156,#157,#181,.T.);
#123=EDGE_CURVE('',#157,#158,#17,.T.);
#124=EDGE_CURVE('',#155,#158,#182,.T.);
#125=EDGE_CURVE('',#159,#160,#18,.T.);
#126=EDGE_CURVE('',#159,#161,#183,.T.);
#127=EDGE_CURVE('',#162,#161,#19,.T.);
#128=EDGE_CURVE('',#160,#162,#184,.T.);
#129=EDGE_CURVE('',#162,#163,#185,.T.);
#130=EDGE_CURVE('',#161,#164,#186,.T.);
#131=EDGE_CURVE('',#164,#163,#20,.T.);
#132=EDGE_CURVE('',#160,#165,#187,.T.);
#133=EDGE_CURVE('',#163,#165,#188,.T.);
#134=EDGE_CURVE('',#159,#166,#189,.T.);
#135=EDGE_CURVE('',#164,#166,#190,.T.);
#136=EDGE_CURVE('',#165,#166,#21,.T.);
#137=EDGE_CURVE('',#167,#168,#22,.T.);
#138=EDGE_CURVE('',#168,#169,#191,.T.);
#139=EDGE_CURVE('',#169,#170,#23,.T.);
#140=EDGE_CURVE('',#167,#170,#192,.T.);
#141=EDGE_CURVE('',#168,#157,#193,.T.);
#142=EDGE_CURVE('',#167,#158,#194,.T.);
#143=EDGE_CURVE('',#170,#155,#195,.T.);
#144=EDGE_CURVE('',#169,#156,#196,.T.);
#145=EDGE_CURVE('',#171,#171,#24,.T.);
#146=EDGE_CURVE('',#172,#172,#25,.T.);
#147=VERTEX_POINT('',#432);
#148=VERTEX_POINT('',#433);
#149=VERTEX_POINT('',#435);
#150=VERTEX_POINT('',#437);
#151=VERTEX_POINT('',#441);
#152=VERTEX_POINT('',#443);
#153=VERTEX_POINT('',#447);
#154=VERTEX_POINT('',#448);
#155=VERTEX_POINT('',#456);
#156=VERTEX_POINT('',#457);
#157=VERTEX_POINT('',#459);
#158=VERTEX_POINT('',#461);
#159=VERTEX_POINT('',#464);
#160=VERTEX_POINT('',#465);
#161=VERTEX_POINT('',#467);
#162=VERTEX_POINT('',#469);
#163=VERTEX_POINT('',#473);
#164=VERTEX_POINT('',#475);
#165=VERTEX_POINT('',#479);
#166=VERTEX_POINT('',#483);
#167=VERTEX_POINT('',#490);
#168=VERTEX_POINT('',#491);
#169=VERTEX_POINT('',#493);
#170=VERTEX_POINT('',#495);
#171=VERTEX_POINT('',#507);
#172=VERTEX_POINT('',#510);
#173=LINE('',#431,#197);
#174=LINE('',#434,#198);
#175=LINE('',#436,#199);
#176=LINE('',#438,#200);
#177=LINE('',#444,#201);
#178=LINE('',#446,#202);
#179=LINE('',#449,#203);
#180=LINE('',#450,#204);
#181=LINE('',#458,#205);
#182=LINE('',#462,#206);
#183=LINE('',#466,#207);
#184=LINE('',#470,#208);
#185=LINE('',#472,#209);
#186=LINE('',#474,#210);
#187=LINE('',#478,#211);
#188=LINE('',#480,#212);
#189=LINE('',#482,#213);
#190=LINE('',#484,#214);
#191=LINE('',#492,#215);
#192=LINE('',#496,#216);
#193=LINE('',#498,#217);
#194=LINE('',#499,#218);
#195=LINE('',#501,#219);
#196=LINE('',#503,#220);
#197=VECTOR('',#343,1.);
#198=VECTOR('',#344,1.);
#199=VECTOR('',#345,1.);
#200=VECTOR('',#346,1.);
#201=VECTOR('',#353,1.);
#202=VECTOR('',#356,1.);
#203=VECTOR('',#357,1.);
#204=VECTOR('',#358,1.);
#205=VECTOR('',#369,1.);
#206=VECTOR('',#372,1.);
#207=VECTOR('',#375,1.);
#208=VECTOR('',#378,1.);
#209=VECTOR('',#381,1.);
#210=VECTOR('',#382,1.);
#211=VECTOR('',#387,1.);
#212=VECTOR('',#388,1.);
#213=VECTOR('',#391,1.);
#214=VECTOR('',#392,1.);
#215=VECTOR('',#403,1.);
#216=VECTOR('',#406,1.);
#217=VECTOR('',#409,1.);
#218=VECTOR('',#410,1.);
#219=VECTOR('',#413,1.);
#220=VECTOR('',#416,1.);
#221=EDGE_LOOP('',(#33,#34,#35,#36));
#222=EDGE_LOOP('',(#37,#38,#39,#40));
#223=EDGE_LOOP('',(#41,#42,#43,#44));
#224=EDGE_LOOP('',(#45,#46,#47,#48));
#225=EDGE_LOOP('',(#49,#50,#51,#52));
#226=EDGE_LOOP('',(#53,#54,#55,#56));
#227=EDGE_LOOP('',(#57,#58,#59,#60));
#228=EDGE_LOOP('',(#61,#62,#63,#64));
#229=EDGE_LOOP('',(#65,#66,#67,#68));
#230=EDGE_LOOP('',(#69,#70,#71,#72));
#231=EDGE_LOOP('',(#73,#74,#75,#76));
#232=EDGE_LOOP('',(#77,#78,#79,#80));
#233=EDGE_LOOP('',(#81,#82,#83,#84));
#234=EDGE_LOOP('',(#85,#86,#87,#88));
#235=EDGE_LOOP('',(#89,#90,#91,#92));
#236=EDGE_LOOP('',(#93,#94,#95,#96));
#237=EDGE_LOOP('',(#97,#98,#99,#100));
#238=EDGE_LOOP('',(#101));
#239=EDGE_LOOP('',(#102,#103,#104,#105));
#240=EDGE_LOOP('',(#106));
#241=EDGE_LOOP('',(#107));
#242=EDGE_LOOP('',(#108));
#243=FACE_BOUND('',#221,.T.);
#244=FACE_BOUND('',#222,.T.);
#245=FACE_BOUND('',#223,.T.);
#246=FACE_BOUND('',#224,.T.);
#247=FACE_BOUND('',#225,.T.);
#248=FACE_BOUND('',#226,.T.);
#249=FACE_BOUND('',#227,.T.);
#250=FACE_BOUND('',#228,.T.);
#251=FACE_BOUND('',#229,.T.);
#252=FACE_BOUND('',#230,.T.);
#253=FACE_BOUND('',#231,.T.);
#254=FACE_BOUND('',#232,.T.);
#255=FACE_BOUND('',#233,.T.);
#256=FACE_BOUND('',#234,.T.);
#257=FACE_BOUND('',#235,.T.);
#258=FACE_BOUND('',#236,.T.);
#259=FACE_BOUND('',#237,.T.);
#260=FACE_BOUND('',#238,.T.);
#261=FACE_BOUND('',#239,.T.);
#262=FACE_BOUND('',#240,.T.);
#263=FACE_BOUND('',#241,.T.);
#264=FACE_BOUND('',#242,.T.);
#265=PLANE('',#307);
#266=PLANE('',#311);
#267=PLANE('',#315);
#268=PLANE('',#322);
#269=PLANE('',#323);
#270=PLANE('',#324);
#271=PLANE('',#327);
#272=PLANE('',#331);
#273=PLANE('',#333);
#274=PLANE('',#334);
#275=PLANE('',#338);
#276=ADVANCED_FACE('',(#243),#265,.F.);
#277=ADVANCED_FACE('',(#244),#26,.T.);
#278=ADVANCED_FACE('',(#245),#266,.T.);
#279=ADVANCED_FACE('',(#246),#27,.T.);
#280=ADVANCED_FACE('',(#247,#248),#267,.F.);
#281=ADVANCED_FACE('',(#249),#28,.T.);
#282=ADVANCED_FACE('',(#250),#268,.F.);
#283=ADVANCED_FACE('',(#251),#269,.T.);
#284=ADVANCED_FACE('',(#252,#253),#270,.F.);
#285=ADVANCED_FACE('',(#254),#29,.T.);
#286=ADVANCED_FACE('',(#255),#271,.T.);
#287=ADVANCED_FACE('',(#256),#30,.T.);
#288=ADVANCED_FACE('',(#257),#272,.T.);
#289=ADVANCED_FACE('',(#258),#31,.T.);
#290=ADVANCED_FACE('',(#259),#273,.F.);
#291=ADVANCED_FACE('',(#260,#261),#274,.T.);
#292=ADVANCED_FACE('',(#262,#263),#32,.F.);
#293=ADVANCED_FACE('',(#264),#275,.T.);
#294=CLOSED_SHELL('',(#276,#277,#278,#279,#280,#281,#282,#283,#284,#285,
#286,#287,#288,#289,#290,#291,#292,#293));
#295=STYLED_ITEM('',(#296),#303);
#296=PRESENTATION_STYLE_ASSIGNMENT((#297));
#297=SURFACE_STYLE_USAGE(.BOTH.,#298);
#298=SURFACE_SIDE_STYLE('',(#299));
#299=SURFACE_STYLE_FILL_AREA(#300);
#300=FILL_AREA_STYLE('',(#301));
#301=FILL_AREA_STYLE_COLOUR('',#302);
#302=COLOUR_RGB('',0.615686274509804,0.811764705882353,0.929411764705882);
#303=MANIFOLD_SOLID_BREP('Part 1',#294);
#304=SHAPE_DEFINITION_REPRESENTATION(#518,#305);
#305=SHAPE_REPRESENTATION('Part 1',(#306),#513);
#306=AXIS2_PLACEMENT_3D('',#429,#339,#340);
#307=AXIS2_PLACEMENT_3D('',#430,#341,#342);
#308=AXIS2_PLACEMENT_3D('',#439,#347,#348);
#309=AXIS2_PLACEMENT_3D('',#440,#349,#350);
#310=AXIS2_PLACEMENT_3D('',#442,#351,#352);
#311=AXIS2_PLACEMENT_3D('',#445,#354,#355);
#312=AXIS2_PLACEMENT_3D('',#451,#359,#360);
#313=AXIS2_PLACEMENT_3D('',#452,#361,#362);
#314=AXIS2_PLACEMENT_3D('',#453,#363,#364);
#315=AXIS2_PLACEMENT_3D('',#454,#365,#366);
#316=AXIS2_PLACEMENT_3D('',#455,#367,#368);
#317=AXIS2_PLACEMENT_3D('',#460,#370,#371);
#318=AXIS2_PLACEMENT_3D('',#463,#373,#374);
#319=AXIS2_PLACEMENT_3D('',#468,#376,#377);
#320=AXIS2_PLACEMENT_3D('',#471,#379,#380);
#321=AXIS2_PLACEMENT_3D('',#476,#383,#384);
#322=AXIS2_PLACEMENT_3D('',#477,#385,#386);
#323=AXIS2_PLACEMENT_3D('',#481,#389,#390);
#324=AXIS2_PLACEMENT_3D('',#485,#393,#394);
#325=AXIS2_PLACEMENT_3D('',#486,#395,#396);
#326=AXIS2_PLACEMENT_3D('',#487,#397,#398);
#327=AXIS2_PLACEMENT_3D('',#488,#399,#400);
#328=AXIS2_PLACEMENT_3D('',#489,#401,#402);
#329=AXIS2_PLACEMENT_3D('',#494,#404,#405);
#330=AXIS2_PLACEMENT_3D('',#497,#407,#408);
#331=AXIS2_PLACEMENT_3D('',#500,#411,#412);
#332=AXIS2_PLACEMENT_3D('',#502,#414,#415);
#333=AXIS2_PLACEMENT_3D('',#504,#417,#418);
#334=AXIS2_PLACEMENT_3D('',#505,#419,#420);
#335=AXIS2_PLACEMENT_3D('',#506,#421,#422);
#336=AXIS2_PLACEMENT_3D('',#508,#423,#424);
#337=AXIS2_PLACEMENT_3D('',#509,#425,#426);
#338=AXIS2_PLACEMENT_3D('',#511,#427,#428);
#339=DIRECTION('',(0.,0.,1.));
#340=DIRECTION('',(1.,0.,0.));
#341=DIRECTION('',(0.,-1.,0.));
#342=DIRECTION('',(0.,0.,-1.));
#343=DIRECTION('',(1.,0.,-3.28081325416165E-15));
#344=DIRECTION('',(0.,0.,1.));
#345=DIRECTION('',(1.,0.,0.));
#346=DIRECTION('',(0.,0.,1.));
#347=DIRECTION('',(0.,0.,1.));
#348=DIRECTION('',(1.,0.,0.));
#349=DIRECTION('',(-3.28081325416165E-15,-1.77635683940027E-15,-1.));
#350=DIRECTION('',(-1.,0.,3.28081325416165E-15));
#351=DIRECTION('',(0.,0.,-1.));
#352=DIRECTION('',(-1.,0.,0.));
#353=DIRECTION('',(0.,0.,1.));
#354=DIRECTION('',(0.,-1.,0.));
#355=DIRECTION('',(0.,0.,-1.));
#356=DIRECTION('',(0.,0.,1.));
#357=DIRECTION('',(1.,0.,-3.28081325416165E-15));
#358=DIRECTION('',(1.,0.,0.));
#359=DIRECTION('',(0.,0.,1.));
#360=DIRECTION('',(1.,0.,0.));
#361=DIRECTION('',(-3.28081325416165E-15,-1.77635683940027E-15,-1.));
#362=DIRECTION('',(-1.,0.,3.28081325416165E-15));
#363=DIRECTION('',(0.,0.,-1.));
#364=DIRECTION('',(-1.,0.,0.));
#365=DIRECTION('',(3.28081325416165E-15,1.77635683940027E-15,1.));
#366=DIRECTION('',(1.,-5.82789506282509E-30,-3.28081325416165E-15));
#367=DIRECTION('',(3.28081325416165E-15,1.77635683940027E-15,1.));
#368=DIRECTION('',(1.,0.,-3.28081325416165E-15));
#369=DIRECTION('',(-1.,0.,3.28081325416165E-15));
#370=DIRECTION('',(3.28081325416165E-15,1.77635683940027E-15,1.));
#371=DIRECTION('',(1.,0.,-3.28081325416165E-15));
#372=DIRECTION('',(-1.,0.,3.28081325416165E-15));
#373=DIRECTION('',(3.28081325416165E-15,1.77635683940027E-15,1.));
#374=DIRECTION('',(1.,0.,-3.28081325416165E-15));
#375=DIRECTION('',(-1.,-1.87582471472384E-30,3.28081325416165E-15));
#376=DIRECTION('',(3.28081325416165E-15,1.77635683940027E-15,1.));
#377=DIRECTION('',(1.,0.,-3.28081325416165E-15));
#378=DIRECTION('',(-1.,-1.87582471472382E-30,3.28081325416165E-15));
#379=DIRECTION('',(3.28081325416165E-15,1.77635683940027E-15,1.));
#380=DIRECTION('',(1.,0.,-3.28081325416165E-15));
#381=DIRECTION('',(3.28081325416165E-15,1.77635683940027E-15,1.));
#382=DIRECTION('',(3.28081325416165E-15,1.77635683940027E-15,1.));
#383=DIRECTION('',(-3.28081325416165E-15,-1.77635683940027E-15,-1.));
#384=DIRECTION('',(-1.,0.,3.28081325416165E-15));
#385=DIRECTION('',(7.70371977754891E-30,-1.,1.77635683940027E-15));
#386=DIRECTION('',(0.,-1.77635683940027E-15,-1.));
#387=DIRECTION('',(3.28081325416165E-15,1.77635683940027E-15,1.));
#388=DIRECTION('',(1.,1.87582471472382E-30,-3.28081325416165E-15));
#389=DIRECTION('',(7.70371977754892E-30,-1.,1.77635683940027E-15));
#390=DIRECTION('',(0.,-1.77635683940027E-15,-1.));
#391=DIRECTION('',(3.28081325416165E-15,1.77635683940027E-15,1.));
#392=DIRECTION('',(1.,1.87582471472384E-30,-3.28081325416165E-15));
#393=DIRECTION('',(-3.28081325416165E-15,-1.77635683940027E-15,-1.));
#394=DIRECTION('',(1.,-5.82789506282509E-30,-3.28081325416165E-15));
#395=DIRECTION('',(-3.28081325416165E-15,-1.77635683940027E-15,-1.));
#396=DIRECTION('',(-1.,0.,3.28081325416165E-15));
#397=DIRECTION('',(3.28081325416165E-15,1.77635683940027E-15,1.));
#398=DIRECTION('',(1.,0.,-3.28081325416165E-15));
#399=DIRECTION('',(-3.28081325416165E-15,-1.77635683940027E-15,-1.));
#400=DIRECTION('',(1.,-5.82789506282509E-30,-3.28081325416165E-15));
#401=DIRECTION('',(-3.28081325416165E-15,-1.77635683940027E-15,-1.));
#402=DIRECTION('',(-1.,0.,3.28081325416165E-15));
#403=DIRECTION('',(1.,0.,-3.28081325416165E-15));
#404=DIRECTION('',(-3.28081325416165E-15,-1.77635683940027E-15,-1.));
#405=DIRECTION('',(-1.,0.,3.28081325416165E-15));
#406=DIRECTION('',(1.,0.,-3.28081325416165E-15));
#407=DIRECTION('',(0.,0.,1.));
#408=DIRECTION('',(1.,0.,0.));
#409=DIRECTION('',(0.,0.,1.));
#410=DIRECTION('',(0.,0.,1.));
#411=DIRECTION('',(0.,-1.,0.));
#412=DIRECTION('',(0.,0.,-1.));
#413=DIRECTION('',(0.,0.,1.));
#414=DIRECTION('',(0.,0.,1.));
#415=DIRECTION('',(1.,0.,0.));
#416=DIRECTION('',(0.,0.,1.));
#417=DIRECTION('',(0.,-1.,0.));
#418=DIRECTION('',(0.,0.,-1.));
#419=DIRECTION('',(0.,0.,1.));
#420=DIRECTION('',(1.,0.,0.));
#421=DIRECTION('',(0.,0.,1.));
#422=DIRECTION('',(1.,0.,0.));
#423=DIRECTION('',(0.,0.,1.));
#424=DIRECTION('',(1.,0.,0.));
#425=DIRECTION('',(0.,0.,1.));
#426=DIRECTION('',(1.,0.,0.));
#427=DIRECTION('',(0.,0.,1.));
#428=DIRECTION('',(1.,0.,0.));
#429=CARTESIAN_POINT('',(0.,0.,0.));
#430=CARTESIAN_POINT('',(-1.04083408558608E-16,0.00189999999999995,-0.260792071259189));
#431=CARTESIAN_POINT('',(7.25772291363639E-16,0.00189999999999995,-0.00785000000000036));
#432=CARTESIAN_POINT('',(-0.000400000000000108,0.00189999999999995,-0.00785000000000036));
#433=CARTESIAN_POINT('',(0.000399999999999901,0.00189999999999995,-0.00785000000000036));
#434=CARTESIAN_POINT('',(-0.000400000000000108,0.00189999999999995,-0.260792071259189));
#435=CARTESIAN_POINT('',(-0.000400000000000108,0.00189999999999995,0.));
#436=CARTESIAN_POINT('',(-1.04083408558608E-16,0.00189999999999995,0.));
#437=CARTESIAN_POINT('',(0.000399999999999901,0.00189999999999995,0.));
#438=CARTESIAN_POINT('',(0.000399999999999901,0.00189999999999995,-0.260792071259189));
#439=CARTESIAN_POINT('',(0.000399999999999901,-5.20417042793042E-17,-0.260792071259189));
#440=CARTESIAN_POINT('',(0.000399999999999901,-5.20417042793042E-17,-0.00785000000000036));
#441=CARTESIAN_POINT('',(0.000399999999999901,-0.00190000000000006,-0.00785000000000036));
#442=CARTESIAN_POINT('',(0.000399999999999901,-5.20417042793042E-17,0.));
#443=CARTESIAN_POINT('',(0.000399999999999901,-0.00190000000000006,0.));
#444=CARTESIAN_POINT('',(0.000399999999999901,-0.00190000000000006,-0.260792071259189));
#445=CARTESIAN_POINT('',(-1.04083408558608E-16,-0.00190000000000006,-0.260792071259189));
#446=CARTESIAN_POINT('',(-0.000400000000000108,-0.00190000000000006,-0.260792071259189));
#447=CARTESIAN_POINT('',(-0.000400000000000108,-0.00190000000000006,-0.00785000000000036));
#448=CARTESIAN_POINT('',(-0.000400000000000108,-0.00190000000000005,0.));
#449=CARTESIAN_POINT('',(7.25772291363639E-16,-0.00190000000000006,-0.00785000000000036));
#450=CARTESIAN_POINT('',(-1.04083408558608E-16,-0.00190000000000006,0.));
#451=CARTESIAN_POINT('',(-0.000400000000000108,-4.85722573273506E-17,-0.260792071259189));
#452=CARTESIAN_POINT('',(-0.000400000000000108,-4.85722573273506E-17,-0.00785000000000036));
#453=CARTESIAN_POINT('',(-0.000400000000000108,-4.85722573273506E-17,0.));
#454=CARTESIAN_POINT('',(-0.0972672086693115,-0.0276230892185505,-0.01035));
#455=CARTESIAN_POINT('',(0.000399999999999901,-5.20417042793042E-17,-0.0103500000000004));
#456=CARTESIAN_POINT('',(0.000399999999999901,-0.00190000000000006,-0.0103500000000004));
#457=CARTESIAN_POINT('',(0.000399999999999901,0.00189999999999995,-0.0103500000000004));
#458=CARTESIAN_POINT('',(7.17570258228234E-16,0.00189999999999995,-0.0103500000000004));
#459=CARTESIAN_POINT('',(-0.000400000000000108,0.00189999999999995,-0.0103500000000004));
#460=CARTESIAN_POINT('',(-0.000400000000000108,-4.85722573273506E-17,-0.0103500000000004));
#461=CARTESIAN_POINT('',(-0.000400000000000108,-0.00190000000000005,-0.0103500000000004));
#462=CARTESIAN_POINT('',(7.17570258228234E-16,-0.00190000000000006,-0.0103500000000004));
#463=CARTESIAN_POINT('',(0.000399999999999915,-4.86763407359092E-17,-0.0103500000000004));
#464=CARTESIAN_POINT('',(0.000399999999999915,-0.0031,-0.0103500000000003));
#465=CARTESIAN_POINT('',(0.000399999999999915,0.0031,-0.0103500000000004));
#466=CARTESIAN_POINT('',(-9.01677173753083E-17,-0.0031,-0.0103500000000003));
#467=CARTESIAN_POINT('',(-0.000400000000000095,-0.0031,-0.0103500000000004));
#468=CARTESIAN_POINT('',(-0.000400000000000095,-4.52068937839556E-17,-0.0103500000000004));
#469=CARTESIAN_POINT('',(-0.000400000000000095,0.00309999999999995,-0.0103500000000004));
#470=CARTESIAN_POINT('',(-9.03303477011811E-17,0.0031,-0.0103500000000004));
#471=CARTESIAN_POINT('',(-0.000400000000000095,-4.52104464976344E-17,-0.0103520000000004));
#472=CARTESIAN_POINT('',(-0.000400000000000095,0.00309999999999995,-0.0103520000000004));
#473=CARTESIAN_POINT('',(-0.000400000000000087,0.00309999999999995,-0.00785000000000036));
#474=CARTESIAN_POINT('',(-0.000400000000000095,-0.0031,-0.0103520000000003));
#475=CARTESIAN_POINT('',(-0.000400000000000087,-0.0031,-0.00785000000000035));
#476=CARTESIAN_POINT('',(-0.000400000000000087,-4.07660016854549E-17,-0.00785000000000036));
#477=CARTESIAN_POINT('',(-9.03369093276894E-17,0.0031,-0.0103520000000004));
#478=CARTESIAN_POINT('',(0.000399999999999915,0.0031,-0.0103520000000004));
#479=CARTESIAN_POINT('',(0.000399999999999923,0.0031,-0.00785000000000037));
#480=CARTESIAN_POINT('',(-8.2128314565777E-17,0.0031,-0.00785000000000037));
#481=CARTESIAN_POINT('',(-9.01742790018166E-17,-0.0031,-0.0103520000000003));
#482=CARTESIAN_POINT('',(0.000399999999999915,-0.0031,-0.0103520000000004));
#483=CARTESIAN_POINT('',(0.000399999999999922,-0.0031,-0.00785000000000036));
#484=CARTESIAN_POINT('',(-8.19656842399041E-17,-0.0031,-0.00785000000000036));
#485=CARTESIAN_POINT('',(-7.77960883244744E-17,-1.56791246652695E-17,-0.00785000000000036));
#486=CARTESIAN_POINT('',(0.000399999999999922,-4.42354486374086E-17,-0.00785000000000036));
#487=CARTESIAN_POINT('',(0.000399999999999915,-4.8679893449588E-17,-0.0103520000000004));
#488=CARTESIAN_POINT('',(-0.0972672086693115,-0.0276480892185504,-0.01335));
#489=CARTESIAN_POINT('',(-0.000400000000000108,-4.85722573273506E-17,-0.0133500000000004));
#490=CARTESIAN_POINT('',(-0.000400000000000108,-0.00190000000000006,-0.0133500000000004));
#491=CARTESIAN_POINT('',(-0.000400000000000108,0.00189999999999995,-0.0133500000000004));
#492=CARTESIAN_POINT('',(7.07727818465749E-16,0.00189999999999995,-0.0133500000000004));
#493=CARTESIAN_POINT('',(0.000399999999999901,0.00189999999999995,-0.0133500000000004));
#494=CARTESIAN_POINT('',(0.000399999999999901,-5.20417042793042E-17,-0.0133500000000004));
#495=CARTESIAN_POINT('',(0.000399999999999901,-0.00190000000000006,-0.0133500000000004));
#496=CARTESIAN_POINT('',(7.07727818465749E-16,-0.00190000000000006,-0.0133500000000004));
#497=CARTESIAN_POINT('',(-0.000400000000000108,-4.85722573273506E-17,-0.260792071259189));
#498=CARTESIAN_POINT('',(-0.000400000000000108,0.00189999999999995,-0.260792071259189));
#499=CARTESIAN_POINT('',(-0.000400000000000108,-0.00190000000000006,-0.260792071259189));
#500=CARTESIAN_POINT('',(-1.04083408558608E-16,-0.00190000000000006,-0.260792071259189));
#501=CARTESIAN_POINT('',(0.000399999999999901,-0.00190000000000006,-0.260792071259189));
#502=CARTESIAN_POINT('',(0.000399999999999901,-5.20417042793042E-17,-0.260792071259189));
#503=CARTESIAN_POINT('',(0.000399999999999901,0.00189999999999995,-0.260792071259189));
#504=CARTESIAN_POINT('',(-1.04083408558608E-16,0.00189999999999995,-0.260792071259189));
#505=CARTESIAN_POINT('',(0.,0.,0.));
#506=CARTESIAN_POINT('',(0.,6.73555739531044E-20,0.));
#507=CARTESIAN_POINT('',(0.0011,6.73555739531044E-20,0.));
#508=CARTESIAN_POINT('',(0.,6.73555739531044E-20,-0.0052));
#509=CARTESIAN_POINT('',(0.,6.73555739531044E-20,-0.0052));
#510=CARTESIAN_POINT('',(0.0011,6.73555739531044E-20,-0.0052));
#511=CARTESIAN_POINT('',(-1.02348685082632E-16,-5.55111512312578E-17,-0.0052));
#512=MECHANICAL_DESIGN_GEOMETRIC_PRESENTATION_REPRESENTATION('',(#295),
#513);
#513=(
GEOMETRIC_REPRESENTATION_CONTEXT(3)
GLOBAL_UNCERTAINTY_ASSIGNED_CONTEXT((#514))
GLOBAL_UNIT_ASSIGNED_CONTEXT((#517,#516,#515))
REPRESENTATION_CONTEXT('Part 1','TOP_LEVEL_ASSEMBLY_PART')
);
#514=UNCERTAINTY_MEASURE_WITH_UNIT(LENGTH_MEASURE(1.E-8),#517,
'DISTANCE_ACCURACY_VALUE','Maximum Tolerance applied to model');
#515=(
NAMED_UNIT(*)
SI_UNIT($,.STERADIAN.)
SOLID_ANGLE_UNIT()
);
#516=(
NAMED_UNIT(*)
PLANE_ANGLE_UNIT()
SI_UNIT($,.RADIAN.)
);
#517=(
LENGTH_UNIT()
NAMED_UNIT(*)
SI_UNIT($,.METRE.)
);
#518=PRODUCT_DEFINITION_SHAPE('','',#519);
#519=PRODUCT_DEFINITION('','',#521,#520);
#520=PRODUCT_DEFINITION_CONTEXT('',#527,'design');
#521=PRODUCT_DEFINITION_FORMATION_WITH_SPECIFIED_SOURCE('','',#523,
 .NOT_KNOWN.);
#522=PRODUCT_RELATED_PRODUCT_CATEGORY('','',(#523));
#523=PRODUCT('Part 1','Part 1','Part 1',(#525));
#524=PRODUCT_CATEGORY('','');
#525=PRODUCT_CONTEXT('',#527,'mechanical');
#526=APPLICATION_PROTOCOL_DEFINITION('international standard',
'ap242_managed_model_based_3d_engineering',2020,#527);
#527=APPLICATION_CONTEXT('managed model based 3d engineering');
ENDSEC;
END-ISO-10303-21;
