ISO-10303-21;
HEADER;
/* Generated by software containing ST-Developer
 * from STEP Tools, Inc. (www.steptools.com) 
 */
/* OPTION: using custom renumber hook */

FILE_DESCRIPTION(
/* description */ ('STEP AP242 Edition 2',
'CAx-IF Rec.Pracs.---Representation and Presentation of Product Manufa
cturing Information (PMI)---4.0---2014-10-13',
'CAx-IF Rec.Pracs.---3D Tessellated Geometry---0.4---2014-09-14','2;1',
'CAx-IF Rec.Pracs.---User Defined Attributes---1.5---2016-08-15'),
/* implementation_level */ '2;1');

FILE_NAME(
/* name */ 'XCap',
/* time_stamp */ '2026-05-25T15:56:17Z',
/* author */ (''),
/* organization */ (''),
/* preprocessor_version */ 'ST-DEVELOPER v20',
/* originating_system */ 'ONSHAPE BY PTC INC, 1.215',
/* authorisation */ '  ');

FILE_SCHEMA (('AP242_MANAGED_MODEL_BASED_3D_ENGINEERING_MIM_LF { 1 0 10303 442 3 1 4 }'));
ENDSEC;

DATA;
#10=SHAPE_REPRESENTATION_RELATIONSHIP('','',#327,#11);
#11=ADVANCED_BREP_SHAPE_REPRESENTATION('',(#325),#521);
#12=LINE('',#440,#48);
#13=LINE('',#443,#49);
#14=LINE('',#445,#50);
#15=LINE('',#447,#51);
#16=LINE('',#449,#52);
#17=LINE('',#451,#53);
#18=LINE('',#453,#54);
#19=LINE('',#455,#55);
#20=LINE('',#457,#56);
#21=LINE('',#459,#57);
#22=LINE('',#461,#58);
#23=LINE('',#463,#59);
#24=LINE('',#468,#60);
#25=LINE('',#470,#61);
#26=LINE('',#472,#62);
#27=LINE('',#474,#63);
#28=LINE('',#476,#64);
#29=LINE('',#478,#65);
#30=LINE('',#480,#66);
#31=LINE('',#482,#67);
#32=LINE('',#484,#68);
#33=LINE('',#486,#69);
#34=LINE('',#488,#70);
#35=LINE('',#490,#71);
#36=LINE('',#492,#72);
#37=LINE('',#494,#73);
#38=LINE('',#496,#74);
#39=LINE('',#498,#75);
#40=LINE('',#500,#76);
#41=LINE('',#502,#77);
#42=LINE('',#504,#78);
#43=LINE('',#506,#79);
#44=LINE('',#508,#80);
#45=LINE('',#510,#81);
#46=LINE('',#512,#82);
#47=LINE('',#514,#83);
#48=VECTOR('',#361,1.);
#49=VECTOR('',#362,1.);
#50=VECTOR('',#363,1.);
#51=VECTOR('',#364,1.);
#52=VECTOR('',#365,1.);
#53=VECTOR('',#366,1.);
#54=VECTOR('',#367,1.);
#55=VECTOR('',#368,1.);
#56=VECTOR('',#369,1.);
#57=VECTOR('',#370,1.);
#58=VECTOR('',#371,1.);
#59=VECTOR('',#372,1.);
#60=VECTOR('',#379,1.);
#61=VECTOR('',#380,1.);
#62=VECTOR('',#381,1.);
#63=VECTOR('',#384,1.);
#64=VECTOR('',#385,1.);
#65=VECTOR('',#388,1.);
#66=VECTOR('',#389,1.);
#67=VECTOR('',#392,1.);
#68=VECTOR('',#393,1.);
#69=VECTOR('',#396,1.);
#70=VECTOR('',#397,1.);
#71=VECTOR('',#400,1.);
#72=VECTOR('',#401,1.);
#73=VECTOR('',#404,1.);
#74=VECTOR('',#405,1.);
#75=VECTOR('',#408,1.);
#76=VECTOR('',#409,1.);
#77=VECTOR('',#412,1.);
#78=VECTOR('',#413,1.);
#79=VECTOR('',#416,1.);
#80=VECTOR('',#417,1.);
#81=VECTOR('',#420,1.);
#82=VECTOR('',#421,1.);
#83=VECTOR('',#424,1.);
#84=PLANE('',#332);
#85=PLANE('',#333);
#86=PLANE('',#335);
#87=PLANE('',#336);
#88=PLANE('',#337);
#89=PLANE('',#338);
#90=PLANE('',#339);
#91=PLANE('',#340);
#92=PLANE('',#341);
#93=PLANE('',#342);
#94=PLANE('',#343);
#95=PLANE('',#344);
#96=PLANE('',#345);
#97=PLANE('',#346);
#98=PLANE('',#347);
#99=PLANE('',#350);
#100=ORIENTED_EDGE('',*,*,#180,.F.);
#101=ORIENTED_EDGE('',*,*,#181,.T.);
#102=ORIENTED_EDGE('',*,*,#182,.F.);
#103=ORIENTED_EDGE('',*,*,#183,.T.);
#104=ORIENTED_EDGE('',*,*,#184,.T.);
#105=ORIENTED_EDGE('',*,*,#185,.F.);
#106=ORIENTED_EDGE('',*,*,#186,.T.);
#107=ORIENTED_EDGE('',*,*,#187,.T.);
#108=ORIENTED_EDGE('',*,*,#188,.T.);
#109=ORIENTED_EDGE('',*,*,#189,.F.);
#110=ORIENTED_EDGE('',*,*,#190,.F.);
#111=ORIENTED_EDGE('',*,*,#191,.T.);
#112=ORIENTED_EDGE('',*,*,#192,.F.);
#113=ORIENTED_EDGE('',*,*,#193,.F.);
#114=ORIENTED_EDGE('',*,*,#180,.T.);
#115=ORIENTED_EDGE('',*,*,#181,.F.);
#116=ORIENTED_EDGE('',*,*,#194,.F.);
#117=ORIENTED_EDGE('',*,*,#182,.T.);
#118=ORIENTED_EDGE('',*,*,#195,.F.);
#119=ORIENTED_EDGE('',*,*,#196,.F.);
#120=ORIENTED_EDGE('',*,*,#197,.T.);
#121=ORIENTED_EDGE('',*,*,#193,.T.);
#122=ORIENTED_EDGE('',*,*,#198,.F.);
#123=ORIENTED_EDGE('',*,*,#199,.F.);
#124=ORIENTED_EDGE('',*,*,#195,.T.);
#125=ORIENTED_EDGE('',*,*,#192,.T.);
#126=ORIENTED_EDGE('',*,*,#200,.F.);
#127=ORIENTED_EDGE('',*,*,#201,.F.);
#128=ORIENTED_EDGE('',*,*,#198,.T.);
#129=ORIENTED_EDGE('',*,*,#191,.F.);
#130=ORIENTED_EDGE('',*,*,#202,.F.);
#131=ORIENTED_EDGE('',*,*,#203,.T.);
#132=ORIENTED_EDGE('',*,*,#200,.T.);
#133=ORIENTED_EDGE('',*,*,#190,.T.);
#134=ORIENTED_EDGE('',*,*,#204,.F.);
#135=ORIENTED_EDGE('',*,*,#205,.F.);
#136=ORIENTED_EDGE('',*,*,#202,.T.);
#137=ORIENTED_EDGE('',*,*,#189,.T.);
#138=ORIENTED_EDGE('',*,*,#206,.F.);
#139=ORIENTED_EDGE('',*,*,#207,.F.);
#140=ORIENTED_EDGE('',*,*,#204,.T.);
#141=ORIENTED_EDGE('',*,*,#188,.F.);
#142=ORIENTED_EDGE('',*,*,#208,.F.);
#143=ORIENTED_EDGE('',*,*,#209,.T.);
#144=ORIENTED_EDGE('',*,*,#206,.T.);
#145=ORIENTED_EDGE('',*,*,#187,.F.);
#146=ORIENTED_EDGE('',*,*,#210,.F.);
#147=ORIENTED_EDGE('',*,*,#211,.T.);
#148=ORIENTED_EDGE('',*,*,#208,.T.);
#149=ORIENTED_EDGE('',*,*,#186,.F.);
#150=ORIENTED_EDGE('',*,*,#212,.F.);
#151=ORIENTED_EDGE('',*,*,#213,.T.);
#152=ORIENTED_EDGE('',*,*,#210,.T.);
#153=ORIENTED_EDGE('',*,*,#185,.T.);
#154=ORIENTED_EDGE('',*,*,#214,.F.);
#155=ORIENTED_EDGE('',*,*,#215,.F.);
#156=ORIENTED_EDGE('',*,*,#212,.T.);
#157=ORIENTED_EDGE('',*,*,#184,.F.);
#158=ORIENTED_EDGE('',*,*,#216,.F.);
#159=ORIENTED_EDGE('',*,*,#217,.T.);
#160=ORIENTED_EDGE('',*,*,#214,.T.);
#161=ORIENTED_EDGE('',*,*,#183,.F.);
#162=ORIENTED_EDGE('',*,*,#197,.F.);
#163=ORIENTED_EDGE('',*,*,#218,.T.);
#164=ORIENTED_EDGE('',*,*,#216,.T.);
#165=ORIENTED_EDGE('',*,*,#196,.T.);
#166=ORIENTED_EDGE('',*,*,#199,.T.);
#167=ORIENTED_EDGE('',*,*,#201,.T.);
#168=ORIENTED_EDGE('',*,*,#203,.F.);
#169=ORIENTED_EDGE('',*,*,#205,.T.);
#170=ORIENTED_EDGE('',*,*,#207,.T.);
#171=ORIENTED_EDGE('',*,*,#209,.F.);
#172=ORIENTED_EDGE('',*,*,#211,.F.);
#173=ORIENTED_EDGE('',*,*,#213,.F.);
#174=ORIENTED_EDGE('',*,*,#215,.T.);
#175=ORIENTED_EDGE('',*,*,#217,.F.);
#176=ORIENTED_EDGE('',*,*,#218,.F.);
#177=ORIENTED_EDGE('',*,*,#219,.F.);
#178=ORIENTED_EDGE('',*,*,#194,.T.);
#179=ORIENTED_EDGE('',*,*,#219,.T.);
#180=EDGE_CURVE('',#220,#220,#248,.T.);
#181=EDGE_CURVE('',#221,#221,#249,.T.);
#182=EDGE_CURVE('',#222,#223,#12,.T.);
#183=EDGE_CURVE('',#222,#224,#13,.T.);
#184=EDGE_CURVE('',#224,#225,#14,.T.);
#185=EDGE_CURVE('',#226,#225,#15,.T.);
#186=EDGE_CURVE('',#226,#227,#16,.T.);
#187=EDGE_CURVE('',#227,#228,#17,.T.);
#188=EDGE_CURVE('',#228,#229,#18,.T.);
#189=EDGE_CURVE('',#230,#229,#19,.T.);
#190=EDGE_CURVE('',#231,#230,#20,.T.);
#191=EDGE_CURVE('',#231,#232,#21,.T.);
#192=EDGE_CURVE('',#233,#232,#22,.T.);
#193=EDGE_CURVE('',#223,#233,#23,.T.);
#194=EDGE_CURVE('',#234,#234,#250,.F.);
#195=EDGE_CURVE('',#235,#223,#24,.T.);
#196=EDGE_CURVE('',#236,#235,#25,.T.);
#197=EDGE_CURVE('',#236,#222,#26,.T.);
#198=EDGE_CURVE('',#237,#233,#27,.T.);
#199=EDGE_CURVE('',#235,#237,#28,.T.);
#200=EDGE_CURVE('',#238,#232,#29,.T.);
#201=EDGE_CURVE('',#237,#238,#30,.T.);
#202=EDGE_CURVE('',#239,#231,#31,.T.);
#203=EDGE_CURVE('',#239,#238,#32,.T.);
#204=EDGE_CURVE('',#240,#230,#33,.T.);
#205=EDGE_CURVE('',#239,#240,#34,.T.);
#206=EDGE_CURVE('',#241,#229,#35,.T.);
#207=EDGE_CURVE('',#240,#241,#36,.T.);
#208=EDGE_CURVE('',#242,#228,#37,.T.);
#209=EDGE_CURVE('',#242,#241,#38,.T.);
#210=EDGE_CURVE('',#243,#227,#39,.T.);
#211=EDGE_CURVE('',#243,#242,#40,.T.);
#212=EDGE_CURVE('',#244,#226,#41,.T.);
#213=EDGE_CURVE('',#244,#243,#42,.T.);
#214=EDGE_CURVE('',#245,#225,#43,.T.);
#215=EDGE_CURVE('',#244,#245,#44,.T.);
#216=EDGE_CURVE('',#246,#224,#45,.T.);
#217=EDGE_CURVE('',#246,#245,#46,.T.);
#218=EDGE_CURVE('',#236,#246,#47,.T.);
#219=EDGE_CURVE('',#247,#247,#251,.F.);
#220=VERTEX_POINT('',#436);
#221=VERTEX_POINT('',#438);
#222=VERTEX_POINT('',#441);
#223=VERTEX_POINT('',#442);
#224=VERTEX_POINT('',#444);
#225=VERTEX_POINT('',#446);
#226=VERTEX_POINT('',#448);
#227=VERTEX_POINT('',#450);
#228=VERTEX_POINT('',#452);
#229=VERTEX_POINT('',#454);
#230=VERTEX_POINT('',#456);
#231=VERTEX_POINT('',#458);
#232=VERTEX_POINT('',#460);
#233=VERTEX_POINT('',#462);
#234=VERTEX_POINT('',#466);
#235=VERTEX_POINT('',#469);
#236=VERTEX_POINT('',#471);
#237=VERTEX_POINT('',#475);
#238=VERTEX_POINT('',#479);
#239=VERTEX_POINT('',#483);
#240=VERTEX_POINT('',#487);
#241=VERTEX_POINT('',#491);
#242=VERTEX_POINT('',#495);
#243=VERTEX_POINT('',#499);
#244=VERTEX_POINT('',#503);
#245=VERTEX_POINT('',#507);
#246=VERTEX_POINT('',#511);
#247=VERTEX_POINT('',#518);
#248=CIRCLE('',#330,0.0033);
#249=CIRCLE('',#331,0.0033);
#250=CIRCLE('',#334,0.001);
#251=CIRCLE('',#349,0.001);
#252=EDGE_LOOP('',(#100));
#253=EDGE_LOOP('',(#101));
#254=EDGE_LOOP('',(#102,#103,#104,#105,#106,#107,#108,#109,#110,#111,#112,
#113));
#255=EDGE_LOOP('',(#114));
#256=EDGE_LOOP('',(#115));
#257=EDGE_LOOP('',(#116));
#258=EDGE_LOOP('',(#117,#118,#119,#120));
#259=EDGE_LOOP('',(#121,#122,#123,#124));
#260=EDGE_LOOP('',(#125,#126,#127,#128));
#261=EDGE_LOOP('',(#129,#130,#131,#132));
#262=EDGE_LOOP('',(#133,#134,#135,#136));
#263=EDGE_LOOP('',(#137,#138,#139,#140));
#264=EDGE_LOOP('',(#141,#142,#143,#144));
#265=EDGE_LOOP('',(#145,#146,#147,#148));
#266=EDGE_LOOP('',(#149,#150,#151,#152));
#267=EDGE_LOOP('',(#153,#154,#155,#156));
#268=EDGE_LOOP('',(#157,#158,#159,#160));
#269=EDGE_LOOP('',(#161,#162,#163,#164));
#270=EDGE_LOOP('',(#165,#166,#167,#168,#169,#170,#171,#172,#173,#174,#175,
#176));
#271=EDGE_LOOP('',(#177));
#272=EDGE_LOOP('',(#178));
#273=EDGE_LOOP('',(#179));
#274=FACE_BOUND('',#252,.T.);
#275=FACE_BOUND('',#253,.T.);
#276=FACE_BOUND('',#254,.T.);
#277=FACE_BOUND('',#255,.T.);
#278=FACE_BOUND('',#256,.T.);
#279=FACE_BOUND('',#257,.T.);
#280=FACE_BOUND('',#258,.T.);
#281=FACE_BOUND('',#259,.T.);
#282=FACE_BOUND('',#260,.T.);
#283=FACE_BOUND('',#261,.T.);
#284=FACE_BOUND('',#262,.T.);
#285=FACE_BOUND('',#263,.T.);
#286=FACE_BOUND('',#264,.T.);
#287=FACE_BOUND('',#265,.T.);
#288=FACE_BOUND('',#266,.T.);
#289=FACE_BOUND('',#267,.T.);
#290=FACE_BOUND('',#268,.T.);
#291=FACE_BOUND('',#269,.T.);
#292=FACE_BOUND('',#270,.T.);
#293=FACE_BOUND('',#271,.T.);
#294=FACE_BOUND('',#272,.T.);
#295=FACE_BOUND('',#273,.T.);
#296=CYLINDRICAL_SURFACE('',#329,0.0033);
#297=CYLINDRICAL_SURFACE('',#348,0.001);
#298=ADVANCED_FACE('',(#274,#275),#296,.T.);
#299=ADVANCED_FACE('',(#276,#277),#84,.T.);
#300=ADVANCED_FACE('',(#278,#279),#85,.F.);
#301=ADVANCED_FACE('',(#280),#86,.F.);
#302=ADVANCED_FACE('',(#281),#87,.F.);
#303=ADVANCED_FACE('',(#282),#88,.F.);
#304=ADVANCED_FACE('',(#283),#89,.T.);
#305=ADVANCED_FACE('',(#284),#90,.F.);
#306=ADVANCED_FACE('',(#285),#91,.F.);
#307=ADVANCED_FACE('',(#286),#92,.T.);
#308=ADVANCED_FACE('',(#287),#93,.T.);
#309=ADVANCED_FACE('',(#288),#94,.T.);
#310=ADVANCED_FACE('',(#289),#95,.F.);
#311=ADVANCED_FACE('',(#290),#96,.T.);
#312=ADVANCED_FACE('',(#291),#97,.T.);
#313=ADVANCED_FACE('',(#292),#98,.T.);
#314=ADVANCED_FACE('',(#293,#294),#297,.T.);
#315=ADVANCED_FACE('',(#295),#99,.F.);
#316=CLOSED_SHELL('',(#298,#299,#300,#301,#302,#303,#304,#305,#306,#307,
#308,#309,#310,#311,#312,#313,#314,#315));
#317=STYLED_ITEM('',(#318),#325);
#318=PRESENTATION_STYLE_ASSIGNMENT((#319));
#319=SURFACE_STYLE_USAGE(.BOTH.,#320);
#320=SURFACE_SIDE_STYLE('',(#321));
#321=SURFACE_STYLE_FILL_AREA(#322);
#322=FILL_AREA_STYLE('',(#323));
#323=FILL_AREA_STYLE_COLOUR('',#324);
#324=COLOUR_RGB('',0.615686274509804,0.811764705882353,0.929411764705882);
#325=MANIFOLD_SOLID_BREP('Part 1',#316);
#326=SHAPE_DEFINITION_REPRESENTATION(#526,#327);
#327=SHAPE_REPRESENTATION('Part 1',(#328),#521);
#328=AXIS2_PLACEMENT_3D('',#433,#351,#352);
#329=AXIS2_PLACEMENT_3D('',#434,#353,#354);
#330=AXIS2_PLACEMENT_3D('',#435,#355,#356);
#331=AXIS2_PLACEMENT_3D('',#437,#357,#358);
#332=AXIS2_PLACEMENT_3D('',#439,#359,#360);
#333=AXIS2_PLACEMENT_3D('',#464,#373,#374);
#334=AXIS2_PLACEMENT_3D('',#465,#375,#376);
#335=AXIS2_PLACEMENT_3D('',#467,#377,#378);
#336=AXIS2_PLACEMENT_3D('',#473,#382,#383);
#337=AXIS2_PLACEMENT_3D('',#477,#386,#387);
#338=AXIS2_PLACEMENT_3D('',#481,#390,#391);
#339=AXIS2_PLACEMENT_3D('',#485,#394,#395);
#340=AXIS2_PLACEMENT_3D('',#489,#398,#399);
#341=AXIS2_PLACEMENT_3D('',#493,#402,#403);
#342=AXIS2_PLACEMENT_3D('',#497,#406,#407);
#343=AXIS2_PLACEMENT_3D('',#501,#410,#411);
#344=AXIS2_PLACEMENT_3D('',#505,#414,#415);
#345=AXIS2_PLACEMENT_3D('',#509,#418,#419);
#346=AXIS2_PLACEMENT_3D('',#513,#422,#423);
#347=AXIS2_PLACEMENT_3D('',#515,#425,#426);
#348=AXIS2_PLACEMENT_3D('',#516,#427,#428);
#349=AXIS2_PLACEMENT_3D('',#517,#429,#430);
#350=AXIS2_PLACEMENT_3D('',#519,#431,#432);
#351=DIRECTION('',(0.,0.,1.));
#352=DIRECTION('',(1.,0.,0.));
#353=DIRECTION('',(0.,0.,-1.));
#354=DIRECTION('',(-1.,0.,0.));
#355=DIRECTION('',(0.,0.,1.));
#356=DIRECTION('',(1.,0.,0.));
#357=DIRECTION('',(0.,0.,1.));
#358=DIRECTION('',(1.,0.,0.));
#359=DIRECTION('',(0.,0.,1.));
#360=DIRECTION('',(1.,0.,0.));
#361=DIRECTION('',(-1.,-4.33680868994203E-16,0.));
#362=DIRECTION('',(0.6,-0.8,0.));
#363=DIRECTION('',(0.6,0.8,0.));
#364=DIRECTION('',(-1.,-4.33680868994201E-16,0.));
#365=DIRECTION('',(-0.6,-0.8,0.));
#366=DIRECTION('',(0.6,-0.8,0.));
#367=DIRECTION('',(-1.,0.,0.));
#368=DIRECTION('',(0.6,-0.8,0.));
#369=DIRECTION('',(0.6,0.8,0.));
#370=DIRECTION('',(-1.,0.,0.));
#371=DIRECTION('',(-0.6,-0.8,0.));
#372=DIRECTION('',(0.6,-0.8,0.));
#373=DIRECTION('',(0.,0.,1.));
#374=DIRECTION('',(1.,0.,0.));
#375=DIRECTION('',(0.,0.,1.));
#376=DIRECTION('',(1.,0.,0.));
#377=DIRECTION('',(-4.33680868994203E-16,1.,0.));
#378=DIRECTION('',(-1.,-4.33680868994203E-16,0.));
#379=DIRECTION('',(0.,0.,1.));
#380=DIRECTION('',(-1.,-4.33680868994203E-16,0.));
#381=DIRECTION('',(0.,0.,1.));
#382=DIRECTION('',(-0.8,-0.6,0.));
#383=DIRECTION('',(0.6,-0.8,0.));
#384=DIRECTION('',(0.,0.,1.));
#385=DIRECTION('',(0.6,-0.8,0.));
#386=DIRECTION('',(-0.8,0.6,0.));
#387=DIRECTION('',(-0.6,-0.8,0.));
#388=DIRECTION('',(0.,0.,1.));
#389=DIRECTION('',(-0.6,-0.8,0.));
#390=DIRECTION('',(0.,1.,0.));
#391=DIRECTION('',(0.,0.,1.));
#392=DIRECTION('',(0.,0.,1.));
#393=DIRECTION('',(-1.,0.,0.));
#394=DIRECTION('',(0.8,-0.6,0.));
#395=DIRECTION('',(0.6,0.8,0.));
#396=DIRECTION('',(0.,0.,1.));
#397=DIRECTION('',(0.6,0.8,0.));
#398=DIRECTION('',(-0.8,-0.6,0.));
#399=DIRECTION('',(0.6,-0.8,0.));
#400=DIRECTION('',(0.,0.,1.));
#401=DIRECTION('',(0.6,-0.8,0.));
#402=DIRECTION('',(0.,1.,0.));
#403=DIRECTION('',(0.,0.,1.));
#404=DIRECTION('',(0.,0.,1.));
#405=DIRECTION('',(-1.,0.,0.));
#406=DIRECTION('',(-0.8,-0.6,0.));
#407=DIRECTION('',(0.6,-0.8,0.));
#408=DIRECTION('',(0.,0.,1.));
#409=DIRECTION('',(0.6,-0.8,0.));
#410=DIRECTION('',(-0.8,0.6,0.));
#411=DIRECTION('',(-0.6,-0.8,0.));
#412=DIRECTION('',(0.,0.,1.));
#413=DIRECTION('',(-0.6,-0.8,0.));
#414=DIRECTION('',(-4.33680868994201E-16,1.,0.));
#415=DIRECTION('',(-1.,-4.33680868994201E-16,0.));
#416=DIRECTION('',(0.,0.,1.));
#417=DIRECTION('',(-1.,-4.33680868994201E-16,0.));
#418=DIRECTION('',(0.8,-0.6,0.));
#419=DIRECTION('',(0.6,0.8,0.));
#420=DIRECTION('',(0.,0.,1.));
#421=DIRECTION('',(0.6,0.8,0.));
#422=DIRECTION('',(-0.8,-0.6,0.));
#423=DIRECTION('',(0.6,-0.8,0.));
#424=DIRECTION('',(0.6,-0.8,0.));
#425=DIRECTION('',(0.,0.,1.));
#426=DIRECTION('',(1.,0.,0.));
#427=DIRECTION('',(-3.28081325416165E-15,-1.77635683940027E-15,-1.));
#428=DIRECTION('',(-1.,0.,3.28081325416165E-15));
#429=DIRECTION('',(0.,0.,1.));
#430=DIRECTION('',(1.,0.,0.));
#431=DIRECTION('',(0.,0.,1.));
#432=DIRECTION('',(1.,0.,0.));
#433=CARTESIAN_POINT('',(0.,0.,0.));
#434=CARTESIAN_POINT('',(0.,2.02066721859313E-19,0.0025));
#435=CARTESIAN_POINT('',(0.,2.02066721859313E-19,0.0025));
#436=CARTESIAN_POINT('',(0.0033,2.02066721859313E-19,0.0025));
#437=CARTESIAN_POINT('',(0.,2.02066721859313E-19,0.));
#438=CARTESIAN_POINT('',(0.0033,2.02066721859313E-19,0.));
#439=CARTESIAN_POINT('',(0.,0.,0.0025));
#440=CARTESIAN_POINT('',(-0.0015,0.002,0.0025));
#441=CARTESIAN_POINT('',(-0.001,0.002,0.0025));
#442=CARTESIAN_POINT('',(-0.002,0.002,0.0025));
#443=CARTESIAN_POINT('',(-0.0005,0.00133333333333333,0.0025));
#444=CARTESIAN_POINT('',(1.19262238973405E-18,0.000666666666666667,0.0025));
#445=CARTESIAN_POINT('',(0.0005,0.00133333333333333,0.0025));
#446=CARTESIAN_POINT('',(0.001,0.002,0.0025));
#447=CARTESIAN_POINT('',(0.0015,0.002,0.0025));
#448=CARTESIAN_POINT('',(0.002,0.002,0.0025));
#449=CARTESIAN_POINT('',(0.00125,0.001,0.0025));
#450=CARTESIAN_POINT('',(0.0005,0.,0.0025));
#451=CARTESIAN_POINT('',(0.00125,-0.001,0.0025));
#452=CARTESIAN_POINT('',(0.002,-0.002,0.0025));
#453=CARTESIAN_POINT('',(0.0015,-0.002,0.0025));
#454=CARTESIAN_POINT('',(0.001,-0.002,0.0025));
#455=CARTESIAN_POINT('',(0.0005,-0.00133333333333333,0.0025));
#456=CARTESIAN_POINT('',(1.34170018845081E-18,-0.000666666666666667,0.0025));
#457=CARTESIAN_POINT('',(-0.0005,-0.00133333333333333,0.0025));
#458=CARTESIAN_POINT('',(-0.001,-0.002,0.0025));
#459=CARTESIAN_POINT('',(-0.0015,-0.002,0.0025));
#460=CARTESIAN_POINT('',(-0.002,-0.002,0.0025));
#461=CARTESIAN_POINT('',(-0.00125,-0.001,0.0025));
#462=CARTESIAN_POINT('',(-0.0005,7.58941520739853E-19,0.0025));
#463=CARTESIAN_POINT('',(-0.00125,0.001,0.0025));
#464=CARTESIAN_POINT('',(0.,0.,0.));
#465=CARTESIAN_POINT('',(-2.91082535518077E-21,-6.12323399573676E-20,0.));
#466=CARTESIAN_POINT('',(0.001,-6.12323399573676E-20,0.));
#467=CARTESIAN_POINT('',(-0.0015,0.002,0.00225));
#468=CARTESIAN_POINT('',(-0.002,0.002,0.00225));
#469=CARTESIAN_POINT('',(-0.002,0.002,0.00225));
#470=CARTESIAN_POINT('',(-0.0015,0.002,0.00225));
#471=CARTESIAN_POINT('',(-0.001,0.002,0.00225));
#472=CARTESIAN_POINT('',(-0.001,0.002,0.00225));
#473=CARTESIAN_POINT('',(-0.00125,0.001,0.00225));
#474=CARTESIAN_POINT('',(-0.0005,7.58941520739853E-19,0.00225));
#475=CARTESIAN_POINT('',(-0.0005,7.58941520739853E-19,0.00225));
#476=CARTESIAN_POINT('',(-0.00125,0.001,0.00225));
#477=CARTESIAN_POINT('',(-0.00125,-0.001,0.00225));
#478=CARTESIAN_POINT('',(-0.002,-0.002,0.00225));
#479=CARTESIAN_POINT('',(-0.002,-0.002,0.00225));
#480=CARTESIAN_POINT('',(-0.00125,-0.001,0.00225));
#481=CARTESIAN_POINT('',(-0.0015,-0.002,0.00225));
#482=CARTESIAN_POINT('',(-0.001,-0.002,0.00225));
#483=CARTESIAN_POINT('',(-0.001,-0.002,0.00225));
#484=CARTESIAN_POINT('',(-0.0015,-0.002,0.00225));
#485=CARTESIAN_POINT('',(-0.0005,-0.00133333333333333,0.00225));
#486=CARTESIAN_POINT('',(1.34170018845081E-18,-0.000666666666666667,0.00225));
#487=CARTESIAN_POINT('',(1.34170018845081E-18,-0.000666666666666667,0.00225));
#488=CARTESIAN_POINT('',(-0.0005,-0.00133333333333333,0.00225));
#489=CARTESIAN_POINT('',(0.0005,-0.00133333333333333,0.00225));
#490=CARTESIAN_POINT('',(0.001,-0.002,0.00225));
#491=CARTESIAN_POINT('',(0.001,-0.002,0.00225));
#492=CARTESIAN_POINT('',(0.0005,-0.00133333333333333,0.00225));
#493=CARTESIAN_POINT('',(0.0015,-0.002,0.00225));
#494=CARTESIAN_POINT('',(0.002,-0.002,0.00225));
#495=CARTESIAN_POINT('',(0.002,-0.002,0.00225));
#496=CARTESIAN_POINT('',(0.0015,-0.002,0.00225));
#497=CARTESIAN_POINT('',(0.00125,-0.001,0.00225));
#498=CARTESIAN_POINT('',(0.0005,0.,0.00225));
#499=CARTESIAN_POINT('',(0.0005,0.,0.00225));
#500=CARTESIAN_POINT('',(0.00125,-0.001,0.00225));
#501=CARTESIAN_POINT('',(0.00125,0.001,0.00225));
#502=CARTESIAN_POINT('',(0.002,0.002,0.00225));
#503=CARTESIAN_POINT('',(0.002,0.002,0.00225));
#504=CARTESIAN_POINT('',(0.00125,0.001,0.00225));
#505=CARTESIAN_POINT('',(0.0015,0.002,0.00225));
#506=CARTESIAN_POINT('',(0.001,0.002,0.00225));
#507=CARTESIAN_POINT('',(0.001,0.002,0.00225));
#508=CARTESIAN_POINT('',(0.0015,0.002,0.00225));
#509=CARTESIAN_POINT('',(0.0005,0.00133333333333333,0.00225));
#510=CARTESIAN_POINT('',(6.50521303491303E-19,0.000666666666666667,0.00225));
#511=CARTESIAN_POINT('',(6.50521303491303E-19,0.000666666666666667,0.00225));
#512=CARTESIAN_POINT('',(0.0005,0.00133333333333333,0.00225));
#513=CARTESIAN_POINT('',(-0.0005,0.00133333333333333,0.00225));
#514=CARTESIAN_POINT('',(-0.0005,0.00133333333333333,0.00225));
#515=CARTESIAN_POINT('',(0.,0.,0.00225));
#516=CARTESIAN_POINT('',(3.65080115316616E-21,-5.76796262785542E-20,2.0000000000072E-6));
#517=CARTESIAN_POINT('',(-1.64069770961635E-17,-8.94301653695872E-18,-0.005));
#518=CARTESIAN_POINT('',(0.000999999999999984,-8.94301653695872E-18,-0.005));
#519=CARTESIAN_POINT('',(-1.64040662708082E-17,-8.88178419700132E-18,-0.005));
#520=MECHANICAL_DESIGN_GEOMETRIC_PRESENTATION_REPRESENTATION('',(#317),
#521);
#521=(
GEOMETRIC_REPRESENTATION_CONTEXT(3)
GLOBAL_UNCERTAINTY_ASSIGNED_CONTEXT((#522))
GLOBAL_UNIT_ASSIGNED_CONTEXT((#525,#524,#523))
REPRESENTATION_CONTEXT('Part 1','TOP_LEVEL_ASSEMBLY_PART')
);
#522=UNCERTAINTY_MEASURE_WITH_UNIT(LENGTH_MEASURE(1.E-8),#525,
'DISTANCE_ACCURACY_VALUE','Maximum Tolerance applied to model');
#523=(
NAMED_UNIT(*)
SI_UNIT($,.STERADIAN.)
SOLID_ANGLE_UNIT()
);
#524=(
NAMED_UNIT(*)
PLANE_ANGLE_UNIT()
SI_UNIT($,.RADIAN.)
);
#525=(
LENGTH_UNIT()
NAMED_UNIT(*)
SI_UNIT($,.METRE.)
);
#526=PRODUCT_DEFINITION_SHAPE('','',#527);
#527=PRODUCT_DEFINITION('','',#529,#528);
#528=PRODUCT_DEFINITION_CONTEXT('',#535,'design');
#529=PRODUCT_DEFINITION_FORMATION_WITH_SPECIFIED_SOURCE('','',#531,
 .NOT_KNOWN.);
#530=PRODUCT_RELATED_PRODUCT_CATEGORY('','',(#531));
#531=PRODUCT('Part 1','Part 1','Part 1',(#533));
#532=PRODUCT_CATEGORY('','');
#533=PRODUCT_CONTEXT('',#535,'mechanical');
#534=APPLICATION_PROTOCOL_DEFINITION('international standard',
'ap242_managed_model_based_3d_engineering',2020,#535);
#535=APPLICATION_CONTEXT('managed model based 3d engineering');
ENDSEC;
END-ISO-10303-21;
