ISO-10303-21;
HEADER;
/* Generated by software containing ST-Developer
 * from STEP Tools, Inc. (www.steptools.com) 
 */
/* OPTION: using custom renumber hook */

FILE_DESCRIPTION(
/* description */ ('STEP AP242 Edition 2',
'CAx-IF Rec.Pracs.---Representation and Presentation of Product Manufa
cturing Information (PMI)---4.0---2014-10-13',
'CAx-IF Rec.Pracs.---3D Tessellated Geometry---0.4---2014-09-14','2;1',
'CAx-IF Rec.Pracs.---User Defined Attributes---1.5---2016-08-15'),
/* implementation_level */ '2;1');

FILE_NAME(
/* name */ 'YCap',
/* time_stamp */ '2026-05-25T15:56:22Z',
/* author */ (''),
/* organization */ (''),
/* preprocessor_version */ 'ST-DEVELOPER v20',
/* originating_system */ 'ONSHAPE BY PTC INC, 1.215',
/* authorisation */ '  ');

FILE_SCHEMA (('AP242_MANAGED_MODEL_BASED_3D_ENGINEERING_MIM_LF { 1 0 10303 442 3 1 4 }'));
ENDSEC;

DATA;
#10=SHAPE_REPRESENTATION_RELATIONSHIP('','',#264,#11);
#11=ADVANCED_BREP_SHAPE_REPRESENTATION('',(#262),#422);
#12=CYLINDRICAL_SURFACE('',#268,0.0033);
#13=CYLINDRICAL_SURFACE('',#282,0.001);
#14=LINE('',#356,#41);
#15=LINE('',#359,#42);
#16=LINE('',#361,#43);
#17=LINE('',#363,#44);
#18=LINE('',#365,#45);
#19=LINE('',#367,#46);
#20=LINE('',#369,#47);
#21=LINE('',#371,#48);
#22=LINE('',#373,#49);
#23=LINE('',#381,#50);
#24=LINE('',#383,#51);
#25=LINE('',#385,#52);
#26=LINE('',#387,#53);
#27=LINE('',#389,#54);
#28=LINE('',#391,#55);
#29=LINE('',#393,#56);
#30=LINE('',#395,#57);
#31=LINE('',#397,#58);
#32=LINE('',#399,#59);
#33=LINE('',#401,#60);
#34=LINE('',#403,#61);
#35=LINE('',#405,#62);
#36=LINE('',#407,#63);
#37=LINE('',#409,#64);
#38=LINE('',#411,#65);
#39=LINE('',#413,#66);
#40=LINE('',#415,#67);
#41=VECTOR('',#291,1.);
#42=VECTOR('',#292,1.);
#43=VECTOR('',#293,1.);
#44=VECTOR('',#294,1.);
#45=VECTOR('',#295,1.);
#46=VECTOR('',#296,1.);
#47=VECTOR('',#297,1.);
#48=VECTOR('',#298,1.);
#49=VECTOR('',#299,1.);
#50=VECTOR('',#310,1.);
#51=VECTOR('',#311,1.);
#52=VECTOR('',#312,1.);
#53=VECTOR('',#315,1.);
#54=VECTOR('',#316,1.);
#55=VECTOR('',#319,1.);
#56=VECTOR('',#320,1.);
#57=VECTOR('',#323,1.);
#58=VECTOR('',#324,1.);
#59=VECTOR('',#327,1.);
#60=VECTOR('',#328,1.);
#61=VECTOR('',#331,1.);
#62=VECTOR('',#332,1.);
#63=VECTOR('',#335,1.);
#64=VECTOR('',#336,1.);
#65=VECTOR('',#339,1.);
#66=VECTOR('',#340,1.);
#67=VECTOR('',#343,1.);
#68=ORIENTED_EDGE('',*,*,#130,.T.);
#69=ORIENTED_EDGE('',*,*,#131,.F.);
#70=ORIENTED_EDGE('',*,*,#132,.T.);
#71=ORIENTED_EDGE('',*,*,#133,.T.);
#72=ORIENTED_EDGE('',*,*,#134,.T.);
#73=ORIENTED_EDGE('',*,*,#135,.F.);
#74=ORIENTED_EDGE('',*,*,#136,.F.);
#75=ORIENTED_EDGE('',*,*,#137,.F.);
#76=ORIENTED_EDGE('',*,*,#138,.T.);
#77=ORIENTED_EDGE('',*,*,#139,.T.);
#78=ORIENTED_EDGE('',*,*,#130,.F.);
#79=ORIENTED_EDGE('',*,*,#140,.T.);
#80=ORIENTED_EDGE('',*,*,#140,.F.);
#81=ORIENTED_EDGE('',*,*,#141,.F.);
#82=ORIENTED_EDGE('',*,*,#132,.F.);
#83=ORIENTED_EDGE('',*,*,#142,.F.);
#84=ORIENTED_EDGE('',*,*,#143,.T.);
#85=ORIENTED_EDGE('',*,*,#144,.T.);
#86=ORIENTED_EDGE('',*,*,#131,.T.);
#87=ORIENTED_EDGE('',*,*,#145,.F.);
#88=ORIENTED_EDGE('',*,*,#146,.F.);
#89=ORIENTED_EDGE('',*,*,#142,.T.);
#90=ORIENTED_EDGE('',*,*,#139,.F.);
#91=ORIENTED_EDGE('',*,*,#147,.F.);
#92=ORIENTED_EDGE('',*,*,#148,.T.);
#93=ORIENTED_EDGE('',*,*,#145,.T.);
#94=ORIENTED_EDGE('',*,*,#138,.F.);
#95=ORIENTED_EDGE('',*,*,#149,.F.);
#96=ORIENTED_EDGE('',*,*,#150,.T.);
#97=ORIENTED_EDGE('',*,*,#147,.T.);
#98=ORIENTED_EDGE('',*,*,#137,.T.);
#99=ORIENTED_EDGE('',*,*,#151,.F.);
#100=ORIENTED_EDGE('',*,*,#152,.F.);
#101=ORIENTED_EDGE('',*,*,#149,.T.);
#102=ORIENTED_EDGE('',*,*,#136,.T.);
#103=ORIENTED_EDGE('',*,*,#153,.F.);
#104=ORIENTED_EDGE('',*,*,#154,.F.);
#105=ORIENTED_EDGE('',*,*,#151,.T.);
#106=ORIENTED_EDGE('',*,*,#135,.T.);
#107=ORIENTED_EDGE('',*,*,#155,.F.);
#108=ORIENTED_EDGE('',*,*,#156,.F.);
#109=ORIENTED_EDGE('',*,*,#153,.T.);
#110=ORIENTED_EDGE('',*,*,#134,.F.);
#111=ORIENTED_EDGE('',*,*,#157,.F.);
#112=ORIENTED_EDGE('',*,*,#158,.T.);
#113=ORIENTED_EDGE('',*,*,#155,.T.);
#114=ORIENTED_EDGE('',*,*,#133,.F.);
#115=ORIENTED_EDGE('',*,*,#144,.F.);
#116=ORIENTED_EDGE('',*,*,#159,.T.);
#117=ORIENTED_EDGE('',*,*,#157,.T.);
#118=ORIENTED_EDGE('',*,*,#143,.F.);
#119=ORIENTED_EDGE('',*,*,#146,.T.);
#120=ORIENTED_EDGE('',*,*,#148,.F.);
#121=ORIENTED_EDGE('',*,*,#150,.F.);
#122=ORIENTED_EDGE('',*,*,#152,.T.);
#123=ORIENTED_EDGE('',*,*,#154,.T.);
#124=ORIENTED_EDGE('',*,*,#156,.T.);
#125=ORIENTED_EDGE('',*,*,#158,.F.);
#126=ORIENTED_EDGE('',*,*,#159,.F.);
#127=ORIENTED_EDGE('',*,*,#160,.F.);
#128=ORIENTED_EDGE('',*,*,#141,.T.);
#129=ORIENTED_EDGE('',*,*,#160,.T.);
#130=EDGE_CURVE('',#161,#161,#183,.T.);
#131=EDGE_CURVE('',#162,#163,#14,.T.);
#132=EDGE_CURVE('',#162,#164,#15,.T.);
#133=EDGE_CURVE('',#164,#165,#16,.T.);
#134=EDGE_CURVE('',#165,#166,#17,.T.);
#135=EDGE_CURVE('',#167,#166,#18,.T.);
#136=EDGE_CURVE('',#168,#167,#19,.T.);
#137=EDGE_CURVE('',#169,#168,#20,.T.);
#138=EDGE_CURVE('',#169,#170,#21,.T.);
#139=EDGE_CURVE('',#170,#163,#22,.T.);
#140=EDGE_CURVE('',#171,#171,#184,.T.);
#141=EDGE_CURVE('',#172,#172,#185,.F.);
#142=EDGE_CURVE('',#173,#162,#23,.T.);
#143=EDGE_CURVE('',#173,#174,#24,.T.);
#144=EDGE_CURVE('',#174,#164,#25,.T.);
#145=EDGE_CURVE('',#175,#163,#26,.T.);
#146=EDGE_CURVE('',#173,#175,#27,.T.);
#147=EDGE_CURVE('',#176,#170,#28,.T.);
#148=EDGE_CURVE('',#176,#175,#29,.T.);
#149=EDGE_CURVE('',#177,#169,#30,.T.);
#150=EDGE_CURVE('',#177,#176,#31,.T.);
#151=EDGE_CURVE('',#178,#168,#32,.T.);
#152=EDGE_CURVE('',#177,#178,#33,.T.);
#153=EDGE_CURVE('',#179,#167,#34,.T.);
#154=EDGE_CURVE('',#178,#179,#35,.T.);
#155=EDGE_CURVE('',#180,#166,#36,.T.);
#156=EDGE_CURVE('',#179,#180,#37,.T.);
#157=EDGE_CURVE('',#181,#165,#38,.T.);
#158=EDGE_CURVE('',#181,#180,#39,.T.);
#159=EDGE_CURVE('',#174,#181,#40,.T.);
#160=EDGE_CURVE('',#182,#182,#186,.F.);
#161=VERTEX_POINT('',#355);
#162=VERTEX_POINT('',#357);
#163=VERTEX_POINT('',#358);
#164=VERTEX_POINT('',#360);
#165=VERTEX_POINT('',#362);
#166=VERTEX_POINT('',#364);
#167=VERTEX_POINT('',#366);
#168=VERTEX_POINT('',#368);
#169=VERTEX_POINT('',#370);
#170=VERTEX_POINT('',#372);
#171=VERTEX_POINT('',#376);
#172=VERTEX_POINT('',#379);
#173=VERTEX_POINT('',#382);
#174=VERTEX_POINT('',#384);
#175=VERTEX_POINT('',#388);
#176=VERTEX_POINT('',#392);
#177=VERTEX_POINT('',#396);
#178=VERTEX_POINT('',#400);
#179=VERTEX_POINT('',#404);
#180=VERTEX_POINT('',#408);
#181=VERTEX_POINT('',#412);
#182=VERTEX_POINT('',#419);
#183=CIRCLE('',#267,0.0033);
#184=CIRCLE('',#269,0.0033);
#185=CIRCLE('',#271,0.001);
#186=CIRCLE('',#283,0.001);
#187=EDGE_LOOP('',(#68));
#188=EDGE_LOOP('',(#69,#70,#71,#72,#73,#74,#75,#76,#77));
#189=EDGE_LOOP('',(#78));
#190=EDGE_LOOP('',(#79));
#191=EDGE_LOOP('',(#80));
#192=EDGE_LOOP('',(#81));
#193=EDGE_LOOP('',(#82,#83,#84,#85));
#194=EDGE_LOOP('',(#86,#87,#88,#89));
#195=EDGE_LOOP('',(#90,#91,#92,#93));
#196=EDGE_LOOP('',(#94,#95,#96,#97));
#197=EDGE_LOOP('',(#98,#99,#100,#101));
#198=EDGE_LOOP('',(#102,#103,#104,#105));
#199=EDGE_LOOP('',(#106,#107,#108,#109));
#200=EDGE_LOOP('',(#110,#111,#112,#113));
#201=EDGE_LOOP('',(#114,#115,#116,#117));
#202=EDGE_LOOP('',(#118,#119,#120,#121,#122,#123,#124,#125,#126));
#203=EDGE_LOOP('',(#127));
#204=EDGE_LOOP('',(#128));
#205=EDGE_LOOP('',(#129));
#206=FACE_BOUND('',#187,.T.);
#207=FACE_BOUND('',#188,.T.);
#208=FACE_BOUND('',#189,.T.);
#209=FACE_BOUND('',#190,.T.);
#210=FACE_BOUND('',#191,.T.);
#211=FACE_BOUND('',#192,.T.);
#212=FACE_BOUND('',#193,.T.);
#213=FACE_BOUND('',#194,.T.);
#214=FACE_BOUND('',#195,.T.);
#215=FACE_BOUND('',#196,.T.);
#216=FACE_BOUND('',#197,.T.);
#217=FACE_BOUND('',#198,.T.);
#218=FACE_BOUND('',#199,.T.);
#219=FACE_BOUND('',#200,.T.);
#220=FACE_BOUND('',#201,.T.);
#221=FACE_BOUND('',#202,.T.);
#222=FACE_BOUND('',#203,.T.);
#223=FACE_BOUND('',#204,.T.);
#224=FACE_BOUND('',#205,.T.);
#225=PLANE('',#266);
#226=PLANE('',#270);
#227=PLANE('',#272);
#228=PLANE('',#273);
#229=PLANE('',#274);
#230=PLANE('',#275);
#231=PLANE('',#276);
#232=PLANE('',#277);
#233=PLANE('',#278);
#234=PLANE('',#279);
#235=PLANE('',#280);
#236=PLANE('',#281);
#237=PLANE('',#284);
#238=ADVANCED_FACE('',(#206,#207),#225,.T.);
#239=ADVANCED_FACE('',(#208,#209),#12,.T.);
#240=ADVANCED_FACE('',(#210,#211),#226,.F.);
#241=ADVANCED_FACE('',(#212),#227,.T.);
#242=ADVANCED_FACE('',(#213),#228,.F.);
#243=ADVANCED_FACE('',(#214),#229,.T.);
#244=ADVANCED_FACE('',(#215),#230,.T.);
#245=ADVANCED_FACE('',(#216),#231,.F.);
#246=ADVANCED_FACE('',(#217),#232,.F.);
#247=ADVANCED_FACE('',(#218),#233,.F.);
#248=ADVANCED_FACE('',(#219),#234,.T.);
#249=ADVANCED_FACE('',(#220),#235,.T.);
#250=ADVANCED_FACE('',(#221),#236,.T.);
#251=ADVANCED_FACE('',(#222,#223),#13,.T.);
#252=ADVANCED_FACE('',(#224),#237,.F.);
#253=CLOSED_SHELL('',(#238,#239,#240,#241,#242,#243,#244,#245,#246,#247,
#248,#249,#250,#251,#252));
#254=STYLED_ITEM('',(#255),#262);
#255=PRESENTATION_STYLE_ASSIGNMENT((#256));
#256=SURFACE_STYLE_USAGE(.BOTH.,#257);
#257=SURFACE_SIDE_STYLE('',(#258));
#258=SURFACE_STYLE_FILL_AREA(#259);
#259=FILL_AREA_STYLE('',(#260));
#260=FILL_AREA_STYLE_COLOUR('',#261);
#261=COLOUR_RGB('',0.615686274509804,0.811764705882353,0.929411764705882);
#262=MANIFOLD_SOLID_BREP('Part 1',#253);
#263=SHAPE_DEFINITION_REPRESENTATION(#427,#264);
#264=SHAPE_REPRESENTATION('Part 1',(#265),#422);
#265=AXIS2_PLACEMENT_3D('',#352,#285,#286);
#266=AXIS2_PLACEMENT_3D('',#353,#287,#288);
#267=AXIS2_PLACEMENT_3D('',#354,#289,#290);
#268=AXIS2_PLACEMENT_3D('',#374,#300,#301);
#269=AXIS2_PLACEMENT_3D('',#375,#302,#303);
#270=AXIS2_PLACEMENT_3D('',#377,#304,#305);
#271=AXIS2_PLACEMENT_3D('',#378,#306,#307);
#272=AXIS2_PLACEMENT_3D('',#380,#308,#309);
#273=AXIS2_PLACEMENT_3D('',#386,#313,#314);
#274=AXIS2_PLACEMENT_3D('',#390,#317,#318);
#275=AXIS2_PLACEMENT_3D('',#394,#321,#322);
#276=AXIS2_PLACEMENT_3D('',#398,#325,#326);
#277=AXIS2_PLACEMENT_3D('',#402,#329,#330);
#278=AXIS2_PLACEMENT_3D('',#406,#333,#334);
#279=AXIS2_PLACEMENT_3D('',#410,#337,#338);
#280=AXIS2_PLACEMENT_3D('',#414,#341,#342);
#281=AXIS2_PLACEMENT_3D('',#416,#344,#345);
#282=AXIS2_PLACEMENT_3D('',#417,#346,#347);
#283=AXIS2_PLACEMENT_3D('',#418,#348,#349);
#284=AXIS2_PLACEMENT_3D('',#420,#350,#351);
#285=DIRECTION('',(0.,0.,1.));
#286=DIRECTION('',(1.,0.,0.));
#287=DIRECTION('',(0.,0.,1.));
#288=DIRECTION('',(1.,0.,0.));
#289=DIRECTION('',(0.,0.,1.));
#290=DIRECTION('',(1.,0.,0.));
#291=DIRECTION('',(-1.,-4.33680868994201E-16,0.));
#292=DIRECTION('',(-0.6,-0.8,0.));
#293=DIRECTION('',(0.,-1.,0.));
#294=DIRECTION('',(-1.,0.,0.));
#295=DIRECTION('',(0.,-1.,0.));
#296=DIRECTION('',(0.6,-0.8,0.));
#297=DIRECTION('',(-1.,-4.33680868994203E-16,0.));
#298=DIRECTION('',(0.6,-0.8,0.));
#299=DIRECTION('',(0.6,0.8,0.));
#300=DIRECTION('',(0.,0.,-1.));
#301=DIRECTION('',(-1.,0.,0.));
#302=DIRECTION('',(0.,0.,1.));
#303=DIRECTION('',(1.,0.,0.));
#304=DIRECTION('',(0.,0.,1.));
#305=DIRECTION('',(1.,0.,0.));
#306=DIRECTION('',(0.,0.,1.));
#307=DIRECTION('',(1.,0.,0.));
#308=DIRECTION('',(-0.8,0.6,0.));
#309=DIRECTION('',(-0.6,-0.8,0.));
#310=DIRECTION('',(0.,0.,1.));
#311=DIRECTION('',(-0.6,-0.8,0.));
#312=DIRECTION('',(0.,0.,1.));
#313=DIRECTION('',(-4.33680868994201E-16,1.,0.));
#314=DIRECTION('',(-1.,-4.33680868994201E-16,0.));
#315=DIRECTION('',(0.,0.,1.));
#316=DIRECTION('',(-1.,-4.33680868994201E-16,0.));
#317=DIRECTION('',(0.8,-0.6,0.));
#318=DIRECTION('',(0.6,0.8,0.));
#319=DIRECTION('',(0.,0.,1.));
#320=DIRECTION('',(0.6,0.8,0.));
#321=DIRECTION('',(-0.8,-0.6,0.));
#322=DIRECTION('',(0.6,-0.8,0.));
#323=DIRECTION('',(0.,0.,1.));
#324=DIRECTION('',(0.6,-0.8,0.));
#325=DIRECTION('',(-4.33680868994203E-16,1.,0.));
#326=DIRECTION('',(-1.,-4.33680868994203E-16,0.));
#327=DIRECTION('',(0.,0.,1.));
#328=DIRECTION('',(-1.,-4.33680868994203E-16,0.));
#329=DIRECTION('',(-0.8,-0.6,0.));
#330=DIRECTION('',(0.6,-0.8,0.));
#331=DIRECTION('',(0.,0.,1.));
#332=DIRECTION('',(0.6,-0.8,0.));
#333=DIRECTION('',(-1.,0.,0.));
#334=DIRECTION('',(0.,0.,1.));
#335=DIRECTION('',(0.,0.,1.));
#336=DIRECTION('',(0.,-1.,0.));
#337=DIRECTION('',(0.,1.,0.));
#338=DIRECTION('',(0.,0.,1.));
#339=DIRECTION('',(0.,0.,1.));
#340=DIRECTION('',(-1.,0.,0.));
#341=DIRECTION('',(-1.,0.,0.));
#342=DIRECTION('',(0.,0.,1.));
#343=DIRECTION('',(0.,-1.,0.));
#344=DIRECTION('',(0.,0.,1.));
#345=DIRECTION('',(1.,0.,0.));
#346=DIRECTION('',(-3.28081325416165E-15,-1.77635683940027E-15,-1.));
#347=DIRECTION('',(-1.,0.,3.28081325416165E-15));
#348=DIRECTION('',(0.,0.,1.));
#349=DIRECTION('',(1.,0.,0.));
#350=DIRECTION('',(0.,0.,1.));
#351=DIRECTION('',(1.,0.,0.));
#352=CARTESIAN_POINT('',(0.,0.,0.));
#353=CARTESIAN_POINT('',(0.,0.,0.0025));
#354=CARTESIAN_POINT('',(0.,2.02066721859313E-19,0.0025));
#355=CARTESIAN_POINT('',(0.0033,2.02066721859313E-19,0.0025));
#356=CARTESIAN_POINT('',(0.0015,0.002,0.0025));
#357=CARTESIAN_POINT('',(0.002,0.002,0.0025));
#358=CARTESIAN_POINT('',(0.001,0.002,0.0025));
#359=CARTESIAN_POINT('',(0.00125,0.001,0.0025));
#360=CARTESIAN_POINT('',(0.0005,0.,0.0025));
#361=CARTESIAN_POINT('',(0.0005,-0.001,0.0025));
#362=CARTESIAN_POINT('',(0.0005,-0.002,0.0025));
#363=CARTESIAN_POINT('',(6.50521303491303E-19,-0.002,0.0025));
#364=CARTESIAN_POINT('',(-0.0005,-0.002,0.0025));
#365=CARTESIAN_POINT('',(-0.0005,-0.001,0.0025));
#366=CARTESIAN_POINT('',(-0.0005,7.58941520739853E-19,0.0025));
#367=CARTESIAN_POINT('',(-0.00125,0.001,0.0025));
#368=CARTESIAN_POINT('',(-0.002,0.002,0.0025));
#369=CARTESIAN_POINT('',(-0.0015,0.002,0.0025));
#370=CARTESIAN_POINT('',(-0.001,0.002,0.0025));
#371=CARTESIAN_POINT('',(-0.0005,0.00133333333333333,0.0025));
#372=CARTESIAN_POINT('',(6.50521303491303E-19,0.000666666666666667,0.0025));
#373=CARTESIAN_POINT('',(0.0005,0.00133333333333333,0.0025));
#374=CARTESIAN_POINT('',(0.,2.02066721859313E-19,0.0025));
#375=CARTESIAN_POINT('',(0.,2.02066721859313E-19,0.));
#376=CARTESIAN_POINT('',(0.0033,2.02066721859313E-19,0.));
#377=CARTESIAN_POINT('',(0.,0.,0.));
#378=CARTESIAN_POINT('',(-2.91082535518077E-21,-6.12323399573676E-20,0.));
#379=CARTESIAN_POINT('',(0.001,-6.12323399573676E-20,0.));
#380=CARTESIAN_POINT('',(0.00125,0.001,0.00225));
#381=CARTESIAN_POINT('',(0.002,0.002,0.00225));
#382=CARTESIAN_POINT('',(0.002,0.002,0.00225));
#383=CARTESIAN_POINT('',(0.00125,0.001,0.00225));
#384=CARTESIAN_POINT('',(0.0005,0.,0.00225));
#385=CARTESIAN_POINT('',(0.0005,0.,0.00225));
#386=CARTESIAN_POINT('',(0.0015,0.002,0.00225));
#387=CARTESIAN_POINT('',(0.001,0.002,0.00225));
#388=CARTESIAN_POINT('',(0.001,0.002,0.00225));
#389=CARTESIAN_POINT('',(0.0015,0.002,0.00225));
#390=CARTESIAN_POINT('',(0.0005,0.00133333333333333,0.00225));
#391=CARTESIAN_POINT('',(6.50521303491303E-19,0.000666666666666667,0.00225));
#392=CARTESIAN_POINT('',(6.50521303491303E-19,0.000666666666666667,0.00225));
#393=CARTESIAN_POINT('',(0.0005,0.00133333333333333,0.00225));
#394=CARTESIAN_POINT('',(-0.0005,0.00133333333333333,0.00225));
#395=CARTESIAN_POINT('',(-0.001,0.002,0.00225));
#396=CARTESIAN_POINT('',(-0.001,0.002,0.00225));
#397=CARTESIAN_POINT('',(-0.0005,0.00133333333333333,0.00225));
#398=CARTESIAN_POINT('',(-0.0015,0.002,0.00225));
#399=CARTESIAN_POINT('',(-0.002,0.002,0.00225));
#400=CARTESIAN_POINT('',(-0.002,0.002,0.00225));
#401=CARTESIAN_POINT('',(-0.0015,0.002,0.00225));
#402=CARTESIAN_POINT('',(-0.00125,0.001,0.00225));
#403=CARTESIAN_POINT('',(-0.0005,7.58941520739853E-19,0.00225));
#404=CARTESIAN_POINT('',(-0.0005,7.58941520739853E-19,0.00225));
#405=CARTESIAN_POINT('',(-0.00125,0.001,0.00225));
#406=CARTESIAN_POINT('',(-0.0005,-0.001,0.00225));
#407=CARTESIAN_POINT('',(-0.0005,-0.002,0.00225));
#408=CARTESIAN_POINT('',(-0.0005,-0.002,0.00225));
#409=CARTESIAN_POINT('',(-0.0005,-0.001,0.00225));
#410=CARTESIAN_POINT('',(6.50521303491303E-19,-0.002,0.00225));
#411=CARTESIAN_POINT('',(0.0005,-0.002,0.00225));
#412=CARTESIAN_POINT('',(0.0005,-0.002,0.00225));
#413=CARTESIAN_POINT('',(6.50521303491303E-19,-0.002,0.00225));
#414=CARTESIAN_POINT('',(0.0005,-0.001,0.00225));
#415=CARTESIAN_POINT('',(0.0005,-0.001,0.00225));
#416=CARTESIAN_POINT('',(0.,0.,0.00225));
#417=CARTESIAN_POINT('',(3.65080115316616E-21,-5.76796262785542E-20,2.0000000000072E-6));
#418=CARTESIAN_POINT('',(-1.64069770961635E-17,-8.94301653695872E-18,-0.005));
#419=CARTESIAN_POINT('',(0.000999999999999984,-8.94301653695872E-18,-0.005));
#420=CARTESIAN_POINT('',(-1.64040662708082E-17,-8.88178419700132E-18,-0.005));
#421=MECHANICAL_DESIGN_GEOMETRIC_PRESENTATION_REPRESENTATION('',(#254),
#422);
#422=(
GEOMETRIC_REPRESENTATION_CONTEXT(3)
GLOBAL_UNCERTAINTY_ASSIGNED_CONTEXT((#423))
GLOBAL_UNIT_ASSIGNED_CONTEXT((#426,#425,#424))
REPRESENTATION_CONTEXT('Part 1','TOP_LEVEL_ASSEMBLY_PART')
);
#423=UNCERTAINTY_MEASURE_WITH_UNIT(LENGTH_MEASURE(1.E-8),#426,
'DISTANCE_ACCURACY_VALUE','Maximum Tolerance applied to model');
#424=(
NAMED_UNIT(*)
SI_UNIT($,.STERADIAN.)
SOLID_ANGLE_UNIT()
);
#425=(
NAMED_UNIT(*)
PLANE_ANGLE_UNIT()
SI_UNIT($,.RADIAN.)
);
#426=(
LENGTH_UNIT()
NAMED_UNIT(*)
SI_UNIT($,.METRE.)
);
#427=PRODUCT_DEFINITION_SHAPE('','',#428);
#428=PRODUCT_DEFINITION('','',#430,#429);
#429=PRODUCT_DEFINITION_CONTEXT('',#436,'design');
#430=PRODUCT_DEFINITION_FORMATION_WITH_SPECIFIED_SOURCE('','',#432,
 .NOT_KNOWN.);
#431=PRODUCT_RELATED_PRODUCT_CATEGORY('','',(#432));
#432=PRODUCT('Part 1','Part 1','Part 1',(#434));
#433=PRODUCT_CATEGORY('','');
#434=PRODUCT_CONTEXT('',#436,'mechanical');
#435=APPLICATION_PROTOCOL_DEFINITION('international standard',
'ap242_managed_model_based_3d_engineering',2020,#436);
#436=APPLICATION_CONTEXT('managed model based 3d engineering');
ENDSEC;
END-ISO-10303-21;
