ISO-10303-21;
HEADER;
/* Generated by software containing ST-Developer
 * from STEP Tools, Inc. (www.steptools.com) 
 */
/* OPTION: using custom renumber hook */

FILE_DESCRIPTION(
/* description */ ('STEP AP242 Edition 2',
'CAx-IF Rec.Pracs.---Representation and Presentation of Product Manufa
cturing Information (PMI)---4.0---2014-10-13',
'CAx-IF Rec.Pracs.---3D Tessellated Geometry---0.4---2014-09-14','2;1',
'CAx-IF Rec.Pracs.---User Defined Attributes---1.5---2016-08-15'),
/* implementation_level */ '2;1');

FILE_NAME(
/* name */ 'BCap',
/* time_stamp */ '2026-05-25T15:56:09Z',
/* author */ (''),
/* organization */ (''),
/* preprocessor_version */ 'ST-DEVELOPER v20',
/* originating_system */ 'ONSHAPE BY PTC INC, 1.215',
/* authorisation */ '  ');

FILE_SCHEMA (('AP242_MANAGED_MODEL_BASED_3D_ENGINEERING_MIM_LF { 1 0 10303 442 3 1 4 }'));
ENDSEC;

DATA;
#10=SHAPE_REPRESENTATION_RELATIONSHIP('','',#582,#11);
#11=ADVANCED_BREP_SHAPE_REPRESENTATION('',(#580),#1028);
#12=B_SPLINE_SURFACE_WITH_KNOTS('',3,1,((#769,#770),(#771,#772),(#773,#774),
(#775,#776)),.SURF_OF_LINEAR_EXTRUSION.,.F.,.F.,.F.,(4,4),(2,2),(0.,1.),
(0.,1.),.PIECEWISE_BEZIER_KNOTS.);
#13=B_SPLINE_SURFACE_WITH_KNOTS('',3,1,((#786,#787),(#788,#789),(#790,#791),
(#792,#793)),.SURF_OF_LINEAR_EXTRUSION.,.F.,.F.,.F.,(4,4),(2,2),(0.,1.),
(0.,1.),.PIECEWISE_BEZIER_KNOTS.);
#14=B_SPLINE_SURFACE_WITH_KNOTS('',3,1,((#803,#804),(#805,#806),(#807,#808),
(#809,#810)),.SURF_OF_LINEAR_EXTRUSION.,.F.,.F.,.F.,(4,4),(2,2),(0.,1.),
(0.,1.),.PIECEWISE_BEZIER_KNOTS.);
#15=B_SPLINE_SURFACE_WITH_KNOTS('',3,1,((#841,#842),(#843,#844),(#845,#846),
(#847,#848)),.SURF_OF_LINEAR_EXTRUSION.,.F.,.F.,.F.,(4,4),(2,2),(0.,1.),
(0.,1.),.PIECEWISE_BEZIER_KNOTS.);
#16=B_SPLINE_SURFACE_WITH_KNOTS('',3,1,((#858,#859),(#860,#861),(#862,#863),
(#864,#865)),.SURF_OF_LINEAR_EXTRUSION.,.F.,.F.,.F.,(4,4),(2,2),(0.,1.),
(0.,1.),.PIECEWISE_BEZIER_KNOTS.);
#17=B_SPLINE_SURFACE_WITH_KNOTS('',3,1,((#875,#876),(#877,#878),(#879,#880),
(#881,#882)),.SURF_OF_LINEAR_EXTRUSION.,.F.,.F.,.F.,(4,4),(2,2),(0.,1.),
(0.,1.),.PIECEWISE_BEZIER_KNOTS.);
#18=B_SPLINE_SURFACE_WITH_KNOTS('',3,1,((#892,#893),(#894,#895),(#896,#897),
(#898,#899)),.SURF_OF_LINEAR_EXTRUSION.,.F.,.F.,.F.,(4,4),(2,2),(0.,1.),
(0.,1.),.PIECEWISE_BEZIER_KNOTS.);
#19=B_SPLINE_SURFACE_WITH_KNOTS('',3,1,((#919,#920),(#921,#922),(#923,#924),
(#925,#926)),.SURF_OF_LINEAR_EXTRUSION.,.F.,.F.,.F.,(4,4),(2,2),(0.,1.),
(0.,1.),.PIECEWISE_BEZIER_KNOTS.);
#20=B_SPLINE_SURFACE_WITH_KNOTS('',3,1,((#932,#933),(#934,#935),(#936,#937),
(#938,#939)),.SURF_OF_LINEAR_EXTRUSION.,.F.,.F.,.F.,(4,4),(2,2),(0.,1.),
(0.,1.),.PIECEWISE_BEZIER_KNOTS.);
#21=B_SPLINE_SURFACE_WITH_KNOTS('',3,1,((#945,#946),(#947,#948),(#949,#950),
(#951,#952)),.SURF_OF_LINEAR_EXTRUSION.,.F.,.F.,.F.,(4,4),(2,2),(0.,1.),
(0.,1.),.PIECEWISE_BEZIER_KNOTS.);
#22=B_SPLINE_SURFACE_WITH_KNOTS('',3,1,((#958,#959),(#960,#961),(#962,#963),
(#964,#965)),.SURF_OF_LINEAR_EXTRUSION.,.F.,.F.,.F.,(4,4),(2,2),(0.,1.),
(0.,1.),.PIECEWISE_BEZIER_KNOTS.);
#23=B_SPLINE_SURFACE_WITH_KNOTS('',3,1,((#979,#980),(#981,#982),(#983,#984),
(#985,#986)),.SURF_OF_LINEAR_EXTRUSION.,.F.,.F.,.F.,(4,4),(2,2),(0.,1.),
(0.,1.),.PIECEWISE_BEZIER_KNOTS.);
#24=B_SPLINE_SURFACE_WITH_KNOTS('',3,1,((#992,#993),(#994,#995),(#996,#997),
(#998,#999)),.SURF_OF_LINEAR_EXTRUSION.,.F.,.F.,.F.,(4,4),(2,2),(0.,1.),
(0.,1.),.PIECEWISE_BEZIER_KNOTS.);
#25=B_SPLINE_SURFACE_WITH_KNOTS('',3,1,((#1006,#1007),(#1008,#1009),(#1010,
#1011),(#1012,#1013)),.SURF_OF_LINEAR_EXTRUSION.,.F.,.F.,.F.,(4,4),(2,2),
(0.,1.),(0.,1.),.PIECEWISE_BEZIER_KNOTS.);
#26=CYLINDRICAL_SURFACE('',#587,0.0033);
#27=CYLINDRICAL_SURFACE('',#600,0.000663807671052117);
#28=CYLINDRICAL_SURFACE('',#606,0.001);
#29=B_SPLINE_CURVE_WITH_KNOTS('',2,(#713,#714,#715),.UNSPECIFIED.,.F.,.F.,
(3,3),(0.,1.),.PIECEWISE_BEZIER_KNOTS.);
#30=B_SPLINE_CURVE_WITH_KNOTS('',2,(#717,#718,#719),.UNSPECIFIED.,.F.,.F.,
(3,3),(0.,1.),.PIECEWISE_BEZIER_KNOTS.);
#31=B_SPLINE_CURVE_WITH_KNOTS('',2,(#721,#722,#723),.UNSPECIFIED.,.F.,.F.,
(3,3),(0.,1.),.PIECEWISE_BEZIER_KNOTS.);
#32=B_SPLINE_CURVE_WITH_KNOTS('',2,(#729,#730,#731),.UNSPECIFIED.,.F.,.F.,
(3,3),(0.,1.),.PIECEWISE_BEZIER_KNOTS.);
#33=B_SPLINE_CURVE_WITH_KNOTS('',2,(#733,#734,#735),.UNSPECIFIED.,.F.,.F.,
(3,3),(0.,1.),.PIECEWISE_BEZIER_KNOTS.);
#34=B_SPLINE_CURVE_WITH_KNOTS('',2,(#737,#738,#739),.UNSPECIFIED.,.F.,.F.,
(3,3),(0.,1.),.PIECEWISE_BEZIER_KNOTS.);
#35=B_SPLINE_CURVE_WITH_KNOTS('',2,(#741,#742,#743),.UNSPECIFIED.,.F.,.F.,
(3,3),(0.,1.),.PIECEWISE_BEZIER_KNOTS.);
#36=B_SPLINE_CURVE_WITH_KNOTS('',2,(#777,#778,#779),.UNSPECIFIED.,.F.,.F.,
(3,3),(0.,1.),.PIECEWISE_BEZIER_KNOTS.);
#37=B_SPLINE_CURVE_WITH_KNOTS('',2,(#783,#784,#785),.UNSPECIFIED.,.F.,.F.,
(3,3),(0.,1.),.PIECEWISE_BEZIER_KNOTS.);
#38=B_SPLINE_CURVE_WITH_KNOTS('',2,(#794,#795,#796),.UNSPECIFIED.,.F.,.F.,
(3,3),(0.,1.),.PIECEWISE_BEZIER_KNOTS.);
#39=B_SPLINE_CURVE_WITH_KNOTS('',2,(#800,#801,#802),.UNSPECIFIED.,.F.,.F.,
(3,3),(0.,1.),.PIECEWISE_BEZIER_KNOTS.);
#40=B_SPLINE_CURVE_WITH_KNOTS('',2,(#811,#812,#813),.UNSPECIFIED.,.F.,.F.,
(3,3),(0.,1.),.PIECEWISE_BEZIER_KNOTS.);
#41=B_SPLINE_CURVE_WITH_KNOTS('',2,(#817,#818,#819),.UNSPECIFIED.,.F.,.F.,
(3,3),(0.,1.),.PIECEWISE_BEZIER_KNOTS.);
#42=B_SPLINE_CURVE_WITH_KNOTS('',2,(#849,#850,#851),.UNSPECIFIED.,.F.,.F.,
(3,3),(0.,1.),.PIECEWISE_BEZIER_KNOTS.);
#43=B_SPLINE_CURVE_WITH_KNOTS('',2,(#855,#856,#857),.UNSPECIFIED.,.F.,.F.,
(3,3),(0.,1.),.PIECEWISE_BEZIER_KNOTS.);
#44=B_SPLINE_CURVE_WITH_KNOTS('',2,(#866,#867,#868),.UNSPECIFIED.,.F.,.F.,
(3,3),(0.,1.),.PIECEWISE_BEZIER_KNOTS.);
#45=B_SPLINE_CURVE_WITH_KNOTS('',2,(#872,#873,#874),.UNSPECIFIED.,.F.,.F.,
(3,3),(0.,1.),.PIECEWISE_BEZIER_KNOTS.);
#46=B_SPLINE_CURVE_WITH_KNOTS('',2,(#883,#884,#885),.UNSPECIFIED.,.F.,.F.,
(3,3),(0.,1.),.PIECEWISE_BEZIER_KNOTS.);
#47=B_SPLINE_CURVE_WITH_KNOTS('',2,(#889,#890,#891),.UNSPECIFIED.,.F.,.F.,
(3,3),(0.,1.),.PIECEWISE_BEZIER_KNOTS.);
#48=B_SPLINE_CURVE_WITH_KNOTS('',2,(#902,#903,#904),.UNSPECIFIED.,.F.,.F.,
(3,3),(0.,1.),.PIECEWISE_BEZIER_KNOTS.);
#49=B_SPLINE_CURVE_WITH_KNOTS('',2,(#929,#930,#931),.UNSPECIFIED.,.F.,.F.,
(3,3),(0.,1.),.PIECEWISE_BEZIER_KNOTS.);
#50=B_SPLINE_CURVE_WITH_KNOTS('',2,(#942,#943,#944),.UNSPECIFIED.,.F.,.F.,
(3,3),(0.,1.),.PIECEWISE_BEZIER_KNOTS.);
#51=B_SPLINE_CURVE_WITH_KNOTS('',2,(#955,#956,#957),.UNSPECIFIED.,.F.,.F.,
(3,3),(0.,1.),.PIECEWISE_BEZIER_KNOTS.);
#52=B_SPLINE_CURVE_WITH_KNOTS('',2,(#968,#969,#970),.UNSPECIFIED.,.F.,.F.,
(3,3),(0.,1.),.PIECEWISE_BEZIER_KNOTS.);
#53=B_SPLINE_CURVE_WITH_KNOTS('',2,(#989,#990,#991),.UNSPECIFIED.,.F.,.F.,
(3,3),(0.,1.),.PIECEWISE_BEZIER_KNOTS.);
#54=B_SPLINE_CURVE_WITH_KNOTS('',2,(#1000,#1001,#1002),.UNSPECIFIED.,.F.,
 .F.,(3,3),(0.,1.),.PIECEWISE_BEZIER_KNOTS.);
#55=B_SPLINE_CURVE_WITH_KNOTS('',2,(#1003,#1004,#1005),.UNSPECIFIED.,.F.,
 .F.,(3,3),(0.,1.),.PIECEWISE_BEZIER_KNOTS.);
#56=B_SPLINE_CURVE_WITH_KNOTS('',2,(#1014,#1015,#1016),.UNSPECIFIED.,.F.,
 .F.,(3,3),(0.,1.),.PIECEWISE_BEZIER_KNOTS.);
#57=LINE('',#710,#102);
#58=LINE('',#727,#103);
#59=LINE('',#745,#104);
#60=LINE('',#747,#105);
#61=LINE('',#755,#106);
#62=LINE('',#758,#107);
#63=LINE('',#760,#108);
#64=LINE('',#762,#109);
#65=LINE('',#764,#110);
#66=LINE('',#766,#111);
#67=LINE('',#768,#112);
#68=LINE('',#781,#113);
#69=LINE('',#798,#114);
#70=LINE('',#815,#115);
#71=LINE('',#821,#116);
#72=LINE('',#824,#117);
#73=LINE('',#826,#118);
#74=LINE('',#828,#119);
#75=LINE('',#830,#120);
#76=LINE('',#832,#121);
#77=LINE('',#834,#122);
#78=LINE('',#836,#123);
#79=LINE('',#838,#124);
#80=LINE('',#840,#125);
#81=LINE('',#853,#126);
#82=LINE('',#870,#127);
#83=LINE('',#887,#128);
#84=LINE('',#900,#129);
#85=LINE('',#906,#130);
#86=LINE('',#908,#131);
#87=LINE('',#910,#132);
#88=LINE('',#912,#133);
#89=LINE('',#914,#134);
#90=LINE('',#916,#135);
#91=LINE('',#918,#136);
#92=LINE('',#927,#137);
#93=LINE('',#940,#138);
#94=LINE('',#953,#139);
#95=LINE('',#966,#140);
#96=LINE('',#972,#141);
#97=LINE('',#974,#142);
#98=LINE('',#976,#143);
#99=LINE('',#987,#144);
#100=LINE('',#1018,#145);
#101=LINE('',#1019,#146);
#102=VECTOR('',#615,1.);
#103=VECTOR('',#618,1.);
#104=VECTOR('',#619,1.);
#105=VECTOR('',#620,1.);
#106=VECTOR('',#631,1.);
#107=VECTOR('',#632,1.);
#108=VECTOR('',#633,1.);
#109=VECTOR('',#634,1.);
#110=VECTOR('',#637,1.);
#111=VECTOR('',#638,1.);
#112=VECTOR('',#639,1.);
#113=VECTOR('',#640,1.);
#114=VECTOR('',#641,1.);
#115=VECTOR('',#642,1.);
#116=VECTOR('',#645,1.);
#117=VECTOR('',#646,1.);
#118=VECTOR('',#647,1.);
#119=VECTOR('',#648,1.);
#120=VECTOR('',#651,1.);
#121=VECTOR('',#652,1.);
#122=VECTOR('',#653,1.);
#123=VECTOR('',#656,1.);
#124=VECTOR('',#657,1.);
#125=VECTOR('',#658,1.);
#126=VECTOR('',#659,1.);
#127=VECTOR('',#660,1.);
#128=VECTOR('',#661,1.);
#129=VECTOR('',#662,1.);
#130=VECTOR('',#663,1.);
#131=VECTOR('',#666,1.);
#132=VECTOR('',#667,1.);
#133=VECTOR('',#670,1.);
#134=VECTOR('',#671,1.);
#135=VECTOR('',#674,1.);
#136=VECTOR('',#675,1.);
#137=VECTOR('',#676,1.);
#138=VECTOR('',#677,1.);
#139=VECTOR('',#678,1.);
#140=VECTOR('',#679,1.);
#141=VECTOR('',#682,1.);
#142=VECTOR('',#683,1.);
#143=VECTOR('',#686,1.);
#144=VECTOR('',#689,1.);
#145=VECTOR('',#692,1.);
#146=VECTOR('',#693,1.);
#147=ORIENTED_EDGE('',*,*,#305,.T.);
#148=ORIENTED_EDGE('',*,*,#306,.T.);
#149=ORIENTED_EDGE('',*,*,#307,.T.);
#150=ORIENTED_EDGE('',*,*,#308,.T.);
#151=ORIENTED_EDGE('',*,*,#309,.T.);
#152=ORIENTED_EDGE('',*,*,#310,.T.);
#153=ORIENTED_EDGE('',*,*,#311,.T.);
#154=ORIENTED_EDGE('',*,*,#312,.T.);
#155=ORIENTED_EDGE('',*,*,#313,.T.);
#156=ORIENTED_EDGE('',*,*,#314,.T.);
#157=ORIENTED_EDGE('',*,*,#315,.T.);
#158=ORIENTED_EDGE('',*,*,#316,.T.);
#159=ORIENTED_EDGE('',*,*,#317,.T.);
#160=ORIENTED_EDGE('',*,*,#305,.F.);
#161=ORIENTED_EDGE('',*,*,#318,.T.);
#162=ORIENTED_EDGE('',*,*,#318,.F.);
#163=ORIENTED_EDGE('',*,*,#319,.F.);
#164=ORIENTED_EDGE('',*,*,#320,.F.);
#165=ORIENTED_EDGE('',*,*,#321,.F.);
#166=ORIENTED_EDGE('',*,*,#322,.T.);
#167=ORIENTED_EDGE('',*,*,#323,.T.);
#168=ORIENTED_EDGE('',*,*,#324,.F.);
#169=ORIENTED_EDGE('',*,*,#325,.F.);
#170=ORIENTED_EDGE('',*,*,#326,.T.);
#171=ORIENTED_EDGE('',*,*,#321,.T.);
#172=ORIENTED_EDGE('',*,*,#327,.F.);
#173=ORIENTED_EDGE('',*,*,#328,.F.);
#174=ORIENTED_EDGE('',*,*,#329,.T.);
#175=ORIENTED_EDGE('',*,*,#325,.T.);
#176=ORIENTED_EDGE('',*,*,#330,.F.);
#177=ORIENTED_EDGE('',*,*,#331,.F.);
#178=ORIENTED_EDGE('',*,*,#332,.T.);
#179=ORIENTED_EDGE('',*,*,#328,.T.);
#180=ORIENTED_EDGE('',*,*,#333,.F.);
#181=ORIENTED_EDGE('',*,*,#334,.F.);
#182=ORIENTED_EDGE('',*,*,#335,.T.);
#183=ORIENTED_EDGE('',*,*,#331,.T.);
#184=ORIENTED_EDGE('',*,*,#336,.F.);
#185=ORIENTED_EDGE('',*,*,#337,.F.);
#186=ORIENTED_EDGE('',*,*,#338,.T.);
#187=ORIENTED_EDGE('',*,*,#339,.T.);
#188=ORIENTED_EDGE('',*,*,#340,.F.);
#189=ORIENTED_EDGE('',*,*,#341,.F.);
#190=ORIENTED_EDGE('',*,*,#342,.T.);
#191=ORIENTED_EDGE('',*,*,#337,.T.);
#192=ORIENTED_EDGE('',*,*,#343,.F.);
#193=ORIENTED_EDGE('',*,*,#344,.F.);
#194=ORIENTED_EDGE('',*,*,#345,.T.);
#195=ORIENTED_EDGE('',*,*,#341,.T.);
#196=ORIENTED_EDGE('',*,*,#346,.F.);
#197=ORIENTED_EDGE('',*,*,#347,.F.);
#198=ORIENTED_EDGE('',*,*,#348,.T.);
#199=ORIENTED_EDGE('',*,*,#344,.T.);
#200=ORIENTED_EDGE('',*,*,#349,.F.);
#201=ORIENTED_EDGE('',*,*,#350,.F.);
#202=ORIENTED_EDGE('',*,*,#351,.T.);
#203=ORIENTED_EDGE('',*,*,#347,.T.);
#204=ORIENTED_EDGE('',*,*,#352,.F.);
#205=ORIENTED_EDGE('',*,*,#353,.F.);
#206=ORIENTED_EDGE('',*,*,#354,.T.);
#207=ORIENTED_EDGE('',*,*,#350,.T.);
#208=ORIENTED_EDGE('',*,*,#307,.F.);
#209=ORIENTED_EDGE('',*,*,#355,.F.);
#210=ORIENTED_EDGE('',*,*,#356,.T.);
#211=ORIENTED_EDGE('',*,*,#357,.T.);
#212=ORIENTED_EDGE('',*,*,#306,.F.);
#213=ORIENTED_EDGE('',*,*,#358,.F.);
#214=ORIENTED_EDGE('',*,*,#359,.T.);
#215=ORIENTED_EDGE('',*,*,#355,.T.);
#216=ORIENTED_EDGE('',*,*,#317,.F.);
#217=ORIENTED_EDGE('',*,*,#360,.F.);
#218=ORIENTED_EDGE('',*,*,#361,.T.);
#219=ORIENTED_EDGE('',*,*,#358,.T.);
#220=ORIENTED_EDGE('',*,*,#316,.F.);
#221=ORIENTED_EDGE('',*,*,#362,.F.);
#222=ORIENTED_EDGE('',*,*,#363,.T.);
#223=ORIENTED_EDGE('',*,*,#360,.T.);
#224=ORIENTED_EDGE('',*,*,#315,.F.);
#225=ORIENTED_EDGE('',*,*,#364,.F.);
#226=ORIENTED_EDGE('',*,*,#365,.T.);
#227=ORIENTED_EDGE('',*,*,#362,.T.);
#228=ORIENTED_EDGE('',*,*,#314,.F.);
#229=ORIENTED_EDGE('',*,*,#366,.F.);
#230=ORIENTED_EDGE('',*,*,#367,.T.);
#231=ORIENTED_EDGE('',*,*,#364,.T.);
#232=ORIENTED_EDGE('',*,*,#313,.F.);
#233=ORIENTED_EDGE('',*,*,#368,.F.);
#234=ORIENTED_EDGE('',*,*,#369,.T.);
#235=ORIENTED_EDGE('',*,*,#366,.T.);
#236=ORIENTED_EDGE('',*,*,#312,.F.);
#237=ORIENTED_EDGE('',*,*,#370,.F.);
#238=ORIENTED_EDGE('',*,*,#371,.T.);
#239=ORIENTED_EDGE('',*,*,#368,.T.);
#240=ORIENTED_EDGE('',*,*,#311,.F.);
#241=ORIENTED_EDGE('',*,*,#372,.F.);
#242=ORIENTED_EDGE('',*,*,#373,.T.);
#243=ORIENTED_EDGE('',*,*,#370,.T.);
#244=ORIENTED_EDGE('',*,*,#310,.F.);
#245=ORIENTED_EDGE('',*,*,#374,.F.);
#246=ORIENTED_EDGE('',*,*,#375,.T.);
#247=ORIENTED_EDGE('',*,*,#372,.T.);
#248=ORIENTED_EDGE('',*,*,#309,.F.);
#249=ORIENTED_EDGE('',*,*,#376,.F.);
#250=ORIENTED_EDGE('',*,*,#377,.T.);
#251=ORIENTED_EDGE('',*,*,#374,.T.);
#252=ORIENTED_EDGE('',*,*,#378,.F.);
#253=ORIENTED_EDGE('',*,*,#339,.F.);
#254=ORIENTED_EDGE('',*,*,#379,.T.);
#255=ORIENTED_EDGE('',*,*,#353,.T.);
#256=ORIENTED_EDGE('',*,*,#308,.F.);
#257=ORIENTED_EDGE('',*,*,#357,.F.);
#258=ORIENTED_EDGE('',*,*,#380,.T.);
#259=ORIENTED_EDGE('',*,*,#376,.T.);
#260=ORIENTED_EDGE('',*,*,#381,.F.);
#261=ORIENTED_EDGE('',*,*,#323,.F.);
#262=ORIENTED_EDGE('',*,*,#382,.T.);
#263=ORIENTED_EDGE('',*,*,#334,.T.);
#264=ORIENTED_EDGE('',*,*,#356,.F.);
#265=ORIENTED_EDGE('',*,*,#359,.F.);
#266=ORIENTED_EDGE('',*,*,#361,.F.);
#267=ORIENTED_EDGE('',*,*,#363,.F.);
#268=ORIENTED_EDGE('',*,*,#365,.F.);
#269=ORIENTED_EDGE('',*,*,#367,.F.);
#270=ORIENTED_EDGE('',*,*,#369,.F.);
#271=ORIENTED_EDGE('',*,*,#371,.F.);
#272=ORIENTED_EDGE('',*,*,#373,.F.);
#273=ORIENTED_EDGE('',*,*,#375,.F.);
#274=ORIENTED_EDGE('',*,*,#377,.F.);
#275=ORIENTED_EDGE('',*,*,#380,.F.);
#276=ORIENTED_EDGE('',*,*,#338,.F.);
#277=ORIENTED_EDGE('',*,*,#342,.F.);
#278=ORIENTED_EDGE('',*,*,#345,.F.);
#279=ORIENTED_EDGE('',*,*,#348,.F.);
#280=ORIENTED_EDGE('',*,*,#351,.F.);
#281=ORIENTED_EDGE('',*,*,#354,.F.);
#282=ORIENTED_EDGE('',*,*,#379,.F.);
#283=ORIENTED_EDGE('',*,*,#322,.F.);
#284=ORIENTED_EDGE('',*,*,#326,.F.);
#285=ORIENTED_EDGE('',*,*,#329,.F.);
#286=ORIENTED_EDGE('',*,*,#332,.F.);
#287=ORIENTED_EDGE('',*,*,#335,.F.);
#288=ORIENTED_EDGE('',*,*,#382,.F.);
#289=ORIENTED_EDGE('',*,*,#340,.T.);
#290=ORIENTED_EDGE('',*,*,#336,.T.);
#291=ORIENTED_EDGE('',*,*,#378,.T.);
#292=ORIENTED_EDGE('',*,*,#352,.T.);
#293=ORIENTED_EDGE('',*,*,#349,.T.);
#294=ORIENTED_EDGE('',*,*,#346,.T.);
#295=ORIENTED_EDGE('',*,*,#343,.T.);
#296=ORIENTED_EDGE('',*,*,#324,.T.);
#297=ORIENTED_EDGE('',*,*,#320,.T.);
#298=ORIENTED_EDGE('',*,*,#381,.T.);
#299=ORIENTED_EDGE('',*,*,#333,.T.);
#300=ORIENTED_EDGE('',*,*,#330,.T.);
#301=ORIENTED_EDGE('',*,*,#327,.T.);
#302=ORIENTED_EDGE('',*,*,#383,.F.);
#303=ORIENTED_EDGE('',*,*,#319,.T.);
#304=ORIENTED_EDGE('',*,*,#383,.T.);
#305=EDGE_CURVE('',#384,#384,#438,.T.);
#306=EDGE_CURVE('',#385,#386,#57,.T.);
#307=EDGE_CURVE('',#386,#387,#29,.T.);
#308=EDGE_CURVE('',#387,#388,#30,.T.);
#309=EDGE_CURVE('',#388,#389,#31,.T.);
#310=EDGE_CURVE('',#389,#390,#439,.F.);
#311=EDGE_CURVE('',#390,#391,#58,.T.);
#312=EDGE_CURVE('',#391,#392,#32,.T.);
#313=EDGE_CURVE('',#392,#393,#33,.T.);
#314=EDGE_CURVE('',#393,#394,#34,.T.);
#315=EDGE_CURVE('',#394,#395,#35,.T.);
#316=EDGE_CURVE('',#395,#396,#59,.T.);
#317=EDGE_CURVE('',#396,#385,#60,.T.);
#318=EDGE_CURVE('',#397,#397,#440,.T.);
#319=EDGE_CURVE('',#398,#398,#441,.F.);
#320=EDGE_CURVE('',#399,#400,#61,.T.);
#321=EDGE_CURVE('',#401,#399,#62,.T.);
#322=EDGE_CURVE('',#401,#402,#63,.T.);
#323=EDGE_CURVE('',#402,#400,#64,.T.);
#324=EDGE_CURVE('',#403,#399,#65,.T.);
#325=EDGE_CURVE('',#404,#403,#66,.T.);
#326=EDGE_CURVE('',#404,#401,#67,.T.);
#327=EDGE_CURVE('',#405,#403,#36,.T.);
#328=EDGE_CURVE('',#406,#405,#68,.T.);
#329=EDGE_CURVE('',#406,#404,#37,.T.);
#330=EDGE_CURVE('',#407,#405,#38,.T.);
#331=EDGE_CURVE('',#408,#407,#69,.T.);
#332=EDGE_CURVE('',#408,#406,#39,.T.);
#333=EDGE_CURVE('',#409,#407,#40,.T.);
#334=EDGE_CURVE('',#410,#409,#70,.T.);
#335=EDGE_CURVE('',#410,#408,#41,.T.);
#336=EDGE_CURVE('',#411,#412,#71,.T.);
#337=EDGE_CURVE('',#413,#411,#72,.T.);
#338=EDGE_CURVE('',#413,#414,#73,.T.);
#339=EDGE_CURVE('',#414,#412,#74,.T.);
#340=EDGE_CURVE('',#415,#411,#75,.T.);
#341=EDGE_CURVE('',#416,#415,#76,.T.);
#342=EDGE_CURVE('',#416,#413,#77,.T.);
#343=EDGE_CURVE('',#417,#415,#78,.T.);
#344=EDGE_CURVE('',#418,#417,#79,.T.);
#345=EDGE_CURVE('',#418,#416,#80,.T.);
#346=EDGE_CURVE('',#419,#417,#42,.T.);
#347=EDGE_CURVE('',#420,#419,#81,.T.);
#348=EDGE_CURVE('',#420,#418,#43,.T.);
#349=EDGE_CURVE('',#421,#419,#44,.T.);
#350=EDGE_CURVE('',#422,#421,#82,.T.);
#351=EDGE_CURVE('',#422,#420,#45,.T.);
#352=EDGE_CURVE('',#423,#421,#46,.T.);
#353=EDGE_CURVE('',#424,#423,#83,.T.);
#354=EDGE_CURVE('',#424,#422,#47,.T.);
#355=EDGE_CURVE('',#425,#386,#84,.T.);
#356=EDGE_CURVE('',#425,#426,#48,.T.);
#357=EDGE_CURVE('',#426,#387,#85,.T.);
#358=EDGE_CURVE('',#427,#385,#86,.T.);
#359=EDGE_CURVE('',#427,#425,#87,.T.);
#360=EDGE_CURVE('',#428,#396,#88,.T.);
#361=EDGE_CURVE('',#428,#427,#89,.T.);
#362=EDGE_CURVE('',#429,#395,#90,.T.);
#363=EDGE_CURVE('',#429,#428,#91,.T.);
#364=EDGE_CURVE('',#430,#394,#92,.T.);
#365=EDGE_CURVE('',#430,#429,#49,.T.);
#366=EDGE_CURVE('',#431,#393,#93,.T.);
#367=EDGE_CURVE('',#431,#430,#50,.T.);
#368=EDGE_CURVE('',#432,#392,#94,.T.);
#369=EDGE_CURVE('',#432,#431,#51,.T.);
#370=EDGE_CURVE('',#433,#391,#95,.T.);
#371=EDGE_CURVE('',#433,#432,#52,.T.);
#372=EDGE_CURVE('',#434,#390,#96,.T.);
#373=EDGE_CURVE('',#434,#433,#97,.T.);
#374=EDGE_CURVE('',#435,#389,#98,.T.);
#375=EDGE_CURVE('',#435,#434,#442,.F.);
#376=EDGE_CURVE('',#436,#388,#99,.T.);
#377=EDGE_CURVE('',#436,#435,#53,.T.);
#378=EDGE_CURVE('',#412,#423,#54,.T.);
#379=EDGE_CURVE('',#414,#424,#55,.T.);
#380=EDGE_CURVE('',#426,#436,#56,.T.);
#381=EDGE_CURVE('',#400,#409,#100,.T.);
#382=EDGE_CURVE('',#402,#410,#101,.T.);
#383=EDGE_CURVE('',#437,#437,#443,.F.);
#384=VERTEX_POINT('',#709);
#385=VERTEX_POINT('',#711);
#386=VERTEX_POINT('',#712);
#387=VERTEX_POINT('',#716);
#388=VERTEX_POINT('',#720);
#389=VERTEX_POINT('',#724);
#390=VERTEX_POINT('',#726);
#391=VERTEX_POINT('',#728);
#392=VERTEX_POINT('',#732);
#393=VERTEX_POINT('',#736);
#394=VERTEX_POINT('',#740);
#395=VERTEX_POINT('',#744);
#396=VERTEX_POINT('',#746);
#397=VERTEX_POINT('',#750);
#398=VERTEX_POINT('',#753);
#399=VERTEX_POINT('',#756);
#400=VERTEX_POINT('',#757);
#401=VERTEX_POINT('',#759);
#402=VERTEX_POINT('',#761);
#403=VERTEX_POINT('',#765);
#404=VERTEX_POINT('',#767);
#405=VERTEX_POINT('',#780);
#406=VERTEX_POINT('',#782);
#407=VERTEX_POINT('',#797);
#408=VERTEX_POINT('',#799);
#409=VERTEX_POINT('',#814);
#410=VERTEX_POINT('',#816);
#411=VERTEX_POINT('',#822);
#412=VERTEX_POINT('',#823);
#413=VERTEX_POINT('',#825);
#414=VERTEX_POINT('',#827);
#415=VERTEX_POINT('',#831);
#416=VERTEX_POINT('',#833);
#417=VERTEX_POINT('',#837);
#418=VERTEX_POINT('',#839);
#419=VERTEX_POINT('',#852);
#420=VERTEX_POINT('',#854);
#421=VERTEX_POINT('',#869);
#422=VERTEX_POINT('',#871);
#423=VERTEX_POINT('',#886);
#424=VERTEX_POINT('',#888);
#425=VERTEX_POINT('',#901);
#426=VERTEX_POINT('',#905);
#427=VERTEX_POINT('',#909);
#428=VERTEX_POINT('',#913);
#429=VERTEX_POINT('',#917);
#430=VERTEX_POINT('',#928);
#431=VERTEX_POINT('',#941);
#432=VERTEX_POINT('',#954);
#433=VERTEX_POINT('',#967);
#434=VERTEX_POINT('',#973);
#435=VERTEX_POINT('',#977);
#436=VERTEX_POINT('',#988);
#437=VERTEX_POINT('',#1025);
#438=CIRCLE('',#585,0.0033);
#439=CIRCLE('',#586,0.000663807671052117);
#440=CIRCLE('',#588,0.0033);
#441=CIRCLE('',#590,0.001);
#442=CIRCLE('',#601,0.000663807671052117);
#443=CIRCLE('',#607,0.001);
#444=EDGE_LOOP('',(#147));
#445=EDGE_LOOP('',(#148,#149,#150,#151,#152,#153,#154,#155,#156,#157,#158,
#159));
#446=EDGE_LOOP('',(#160));
#447=EDGE_LOOP('',(#161));
#448=EDGE_LOOP('',(#162));
#449=EDGE_LOOP('',(#163));
#450=EDGE_LOOP('',(#164,#165,#166,#167));
#451=EDGE_LOOP('',(#168,#169,#170,#171));
#452=EDGE_LOOP('',(#172,#173,#174,#175));
#453=EDGE_LOOP('',(#176,#177,#178,#179));
#454=EDGE_LOOP('',(#180,#181,#182,#183));
#455=EDGE_LOOP('',(#184,#185,#186,#187));
#456=EDGE_LOOP('',(#188,#189,#190,#191));
#457=EDGE_LOOP('',(#192,#193,#194,#195));
#458=EDGE_LOOP('',(#196,#197,#198,#199));
#459=EDGE_LOOP('',(#200,#201,#202,#203));
#460=EDGE_LOOP('',(#204,#205,#206,#207));
#461=EDGE_LOOP('',(#208,#209,#210,#211));
#462=EDGE_LOOP('',(#212,#213,#214,#215));
#463=EDGE_LOOP('',(#216,#217,#218,#219));
#464=EDGE_LOOP('',(#220,#221,#222,#223));
#465=EDGE_LOOP('',(#224,#225,#226,#227));
#466=EDGE_LOOP('',(#228,#229,#230,#231));
#467=EDGE_LOOP('',(#232,#233,#234,#235));
#468=EDGE_LOOP('',(#236,#237,#238,#239));
#469=EDGE_LOOP('',(#240,#241,#242,#243));
#470=EDGE_LOOP('',(#244,#245,#246,#247));
#471=EDGE_LOOP('',(#248,#249,#250,#251));
#472=EDGE_LOOP('',(#252,#253,#254,#255));
#473=EDGE_LOOP('',(#256,#257,#258,#259));
#474=EDGE_LOOP('',(#260,#261,#262,#263));
#475=EDGE_LOOP('',(#264,#265,#266,#267,#268,#269,#270,#271,#272,#273,#274,
#275));
#476=EDGE_LOOP('',(#276,#277,#278,#279,#280,#281,#282));
#477=EDGE_LOOP('',(#283,#284,#285,#286,#287,#288));
#478=EDGE_LOOP('',(#289,#290,#291,#292,#293,#294,#295));
#479=EDGE_LOOP('',(#296,#297,#298,#299,#300,#301));
#480=EDGE_LOOP('',(#302));
#481=EDGE_LOOP('',(#303));
#482=EDGE_LOOP('',(#304));
#483=FACE_BOUND('',#444,.T.);
#484=FACE_BOUND('',#445,.T.);
#485=FACE_BOUND('',#446,.T.);
#486=FACE_BOUND('',#447,.T.);
#487=FACE_BOUND('',#448,.T.);
#488=FACE_BOUND('',#449,.T.);
#489=FACE_BOUND('',#450,.T.);
#490=FACE_BOUND('',#451,.T.);
#491=FACE_BOUND('',#452,.T.);
#492=FACE_BOUND('',#453,.T.);
#493=FACE_BOUND('',#454,.T.);
#494=FACE_BOUND('',#455,.T.);
#495=FACE_BOUND('',#456,.T.);
#496=FACE_BOUND('',#457,.T.);
#497=FACE_BOUND('',#458,.T.);
#498=FACE_BOUND('',#459,.T.);
#499=FACE_BOUND('',#460,.T.);
#500=FACE_BOUND('',#461,.T.);
#501=FACE_BOUND('',#462,.T.);
#502=FACE_BOUND('',#463,.T.);
#503=FACE_BOUND('',#464,.T.);
#504=FACE_BOUND('',#465,.T.);
#505=FACE_BOUND('',#466,.T.);
#506=FACE_BOUND('',#467,.T.);
#507=FACE_BOUND('',#468,.T.);
#508=FACE_BOUND('',#469,.T.);
#509=FACE_BOUND('',#470,.T.);
#510=FACE_BOUND('',#471,.T.);
#511=FACE_BOUND('',#472,.T.);
#512=FACE_BOUND('',#473,.T.);
#513=FACE_BOUND('',#474,.T.);
#514=FACE_BOUND('',#475,.T.);
#515=FACE_BOUND('',#476,.T.);
#516=FACE_BOUND('',#477,.T.);
#517=FACE_BOUND('',#478,.T.);
#518=FACE_BOUND('',#479,.T.);
#519=FACE_BOUND('',#480,.T.);
#520=FACE_BOUND('',#481,.T.);
#521=FACE_BOUND('',#482,.T.);
#522=PLANE('',#584);
#523=PLANE('',#589);
#524=PLANE('',#591);
#525=PLANE('',#592);
#526=PLANE('',#593);
#527=PLANE('',#594);
#528=PLANE('',#595);
#529=PLANE('',#596);
#530=PLANE('',#597);
#531=PLANE('',#598);
#532=PLANE('',#599);
#533=PLANE('',#602);
#534=PLANE('',#603);
#535=PLANE('',#604);
#536=PLANE('',#605);
#537=PLANE('',#608);
#538=ADVANCED_FACE('',(#483,#484),#522,.T.);
#539=ADVANCED_FACE('',(#485,#486),#26,.T.);
#540=ADVANCED_FACE('',(#487,#488),#523,.F.);
#541=ADVANCED_FACE('',(#489),#524,.T.);
#542=ADVANCED_FACE('',(#490),#525,.T.);
#543=ADVANCED_FACE('',(#491),#12,.T.);
#544=ADVANCED_FACE('',(#492),#13,.T.);
#545=ADVANCED_FACE('',(#493),#14,.T.);
#546=ADVANCED_FACE('',(#494),#526,.T.);
#547=ADVANCED_FACE('',(#495),#527,.T.);
#548=ADVANCED_FACE('',(#496),#528,.T.);
#549=ADVANCED_FACE('',(#497),#15,.T.);
#550=ADVANCED_FACE('',(#498),#16,.T.);
#551=ADVANCED_FACE('',(#499),#17,.T.);
#552=ADVANCED_FACE('',(#500),#18,.T.);
#553=ADVANCED_FACE('',(#501),#529,.T.);
#554=ADVANCED_FACE('',(#502),#530,.T.);
#555=ADVANCED_FACE('',(#503),#531,.T.);
#556=ADVANCED_FACE('',(#504),#19,.T.);
#557=ADVANCED_FACE('',(#505),#20,.T.);
#558=ADVANCED_FACE('',(#506),#21,.T.);
#559=ADVANCED_FACE('',(#507),#22,.T.);
#560=ADVANCED_FACE('',(#508),#532,.T.);
#561=ADVANCED_FACE('',(#509),#27,.F.);
#562=ADVANCED_FACE('',(#510),#23,.T.);
#563=ADVANCED_FACE('',(#511),#24,.T.);
#564=ADVANCED_FACE('',(#512),#25,.T.);
#565=ADVANCED_FACE('',(#513),#533,.T.);
#566=ADVANCED_FACE('',(#514,#515,#516),#534,.T.);
#567=ADVANCED_FACE('',(#517),#535,.T.);
#568=ADVANCED_FACE('',(#518),#536,.T.);
#569=ADVANCED_FACE('',(#519,#520),#28,.T.);
#570=ADVANCED_FACE('',(#521),#537,.F.);
#571=CLOSED_SHELL('',(#538,#539,#540,#541,#542,#543,#544,#545,#546,#547,
#548,#549,#550,#551,#552,#553,#554,#555,#556,#557,#558,#559,#560,#561,#562,
#563,#564,#565,#566,#567,#568,#569,#570));
#572=STYLED_ITEM('',(#573),#580);
#573=PRESENTATION_STYLE_ASSIGNMENT((#574));
#574=SURFACE_STYLE_USAGE(.BOTH.,#575);
#575=SURFACE_SIDE_STYLE('',(#576));
#576=SURFACE_STYLE_FILL_AREA(#577);
#577=FILL_AREA_STYLE('',(#578));
#578=FILL_AREA_STYLE_COLOUR('',#579);
#579=COLOUR_RGB('',0.615686274509804,0.811764705882353,0.929411764705882);
#580=MANIFOLD_SOLID_BREP('Part 1',#571);
#581=SHAPE_DEFINITION_REPRESENTATION(#1033,#582);
#582=SHAPE_REPRESENTATION('Part 1',(#583),#1028);
#583=AXIS2_PLACEMENT_3D('',#706,#609,#610);
#584=AXIS2_PLACEMENT_3D('',#707,#611,#612);
#585=AXIS2_PLACEMENT_3D('',#708,#613,#614);
#586=AXIS2_PLACEMENT_3D('',#725,#616,#617);
#587=AXIS2_PLACEMENT_3D('',#748,#621,#622);
#588=AXIS2_PLACEMENT_3D('',#749,#623,#624);
#589=AXIS2_PLACEMENT_3D('',#751,#625,#626);
#590=AXIS2_PLACEMENT_3D('',#752,#627,#628);
#591=AXIS2_PLACEMENT_3D('',#754,#629,#630);
#592=AXIS2_PLACEMENT_3D('',#763,#635,#636);
#593=AXIS2_PLACEMENT_3D('',#820,#643,#644);
#594=AXIS2_PLACEMENT_3D('',#829,#649,#650);
#595=AXIS2_PLACEMENT_3D('',#835,#654,#655);
#596=AXIS2_PLACEMENT_3D('',#907,#664,#665);
#597=AXIS2_PLACEMENT_3D('',#911,#668,#669);
#598=AXIS2_PLACEMENT_3D('',#915,#672,#673);
#599=AXIS2_PLACEMENT_3D('',#971,#680,#681);
#600=AXIS2_PLACEMENT_3D('',#975,#684,#685);
#601=AXIS2_PLACEMENT_3D('',#978,#687,#688);
#602=AXIS2_PLACEMENT_3D('',#1017,#690,#691);
#603=AXIS2_PLACEMENT_3D('',#1020,#694,#695);
#604=AXIS2_PLACEMENT_3D('',#1021,#696,#697);
#605=AXIS2_PLACEMENT_3D('',#1022,#698,#699);
#606=AXIS2_PLACEMENT_3D('',#1023,#700,#701);
#607=AXIS2_PLACEMENT_3D('',#1024,#702,#703);
#608=AXIS2_PLACEMENT_3D('',#1026,#704,#705);
#609=DIRECTION('',(0.,0.,1.));
#610=DIRECTION('',(1.,0.,0.));
#611=DIRECTION('',(0.,0.,1.));
#612=DIRECTION('',(1.,0.,0.));
#613=DIRECTION('',(0.,0.,1.));
#614=DIRECTION('',(1.,0.,0.));
#615=DIRECTION('',(1.,0.,0.));
#616=DIRECTION('',(0.,0.,1.));
#617=DIRECTION('',(1.,0.,0.));
#618=DIRECTION('',(0.,-1.,0.));
#619=DIRECTION('',(-1.,0.,0.));
#620=DIRECTION('',(0.,1.,0.));
#621=DIRECTION('',(0.,0.,-1.));
#622=DIRECTION('',(-1.,0.,0.));
#623=DIRECTION('',(0.,0.,1.));
#624=DIRECTION('',(1.,0.,0.));
#625=DIRECTION('',(0.,0.,1.));
#626=DIRECTION('',(1.,0.,0.));
#627=DIRECTION('',(0.,0.,1.));
#628=DIRECTION('',(1.,0.,0.));
#629=DIRECTION('',(-1.,0.,0.));
#630=DIRECTION('',(0.,0.,1.));
#631=DIRECTION('',(0.,-1.,0.));
#632=DIRECTION('',(0.,0.,1.));
#633=DIRECTION('',(0.,-1.,0.));
#634=DIRECTION('',(0.,0.,1.));
#635=DIRECTION('',(0.,1.,0.));
#636=DIRECTION('',(0.,0.,1.));
#637=DIRECTION('',(-1.,0.,0.));
#638=DIRECTION('',(0.,0.,1.));
#639=DIRECTION('',(-1.,0.,0.));
#640=DIRECTION('',(0.,0.,1.));
#641=DIRECTION('',(0.,0.,1.));
#642=DIRECTION('',(0.,0.,1.));
#643=DIRECTION('',(0.,-1.,0.));
#644=DIRECTION('',(0.,0.,-1.));
#645=DIRECTION('',(1.,0.,0.));
#646=DIRECTION('',(0.,0.,1.));
#647=DIRECTION('',(1.,0.,0.));
#648=DIRECTION('',(0.,0.,1.));
#649=DIRECTION('',(-1.,0.,0.));
#650=DIRECTION('',(0.,0.,1.));
#651=DIRECTION('',(0.,-1.,0.));
#652=DIRECTION('',(0.,0.,1.));
#653=DIRECTION('',(0.,-1.,0.));
#654=DIRECTION('',(0.,1.,0.));
#655=DIRECTION('',(0.,0.,1.));
#656=DIRECTION('',(-1.,0.,0.));
#657=DIRECTION('',(0.,0.,1.));
#658=DIRECTION('',(-1.,0.,0.));
#659=DIRECTION('',(0.,0.,1.));
#660=DIRECTION('',(0.,0.,1.));
#661=DIRECTION('',(0.,0.,1.));
#662=DIRECTION('',(0.,0.,1.));
#663=DIRECTION('',(0.,0.,1.));
#664=DIRECTION('',(0.,-1.,0.));
#665=DIRECTION('',(0.,0.,-1.));
#666=DIRECTION('',(0.,0.,1.));
#667=DIRECTION('',(1.,0.,0.));
#668=DIRECTION('',(1.,0.,0.));
#669=DIRECTION('',(0.,0.,-1.));
#670=DIRECTION('',(0.,0.,1.));
#671=DIRECTION('',(0.,1.,0.));
#672=DIRECTION('',(0.,1.,0.));
#673=DIRECTION('',(0.,0.,1.));
#674=DIRECTION('',(0.,0.,1.));
#675=DIRECTION('',(-1.,0.,0.));
#676=DIRECTION('',(0.,0.,1.));
#677=DIRECTION('',(0.,0.,1.));
#678=DIRECTION('',(0.,0.,1.));
#679=DIRECTION('',(0.,0.,1.));
#680=DIRECTION('',(-1.,0.,0.));
#681=DIRECTION('',(0.,0.,1.));
#682=DIRECTION('',(0.,0.,1.));
#683=DIRECTION('',(0.,-1.,0.));
#684=DIRECTION('',(0.,0.,1.));
#685=DIRECTION('',(0.524983817418771,-0.851112208494517,0.));
#686=DIRECTION('',(0.,0.,1.));
#687=DIRECTION('',(0.,0.,1.));
#688=DIRECTION('',(1.,0.,0.));
#689=DIRECTION('',(0.,0.,1.));
#690=DIRECTION('',(0.,-1.,0.));
#691=DIRECTION('',(0.,0.,-1.));
#692=DIRECTION('',(1.,0.,0.));
#693=DIRECTION('',(1.,0.,0.));
#694=DIRECTION('',(0.,0.,1.));
#695=DIRECTION('',(1.,0.,0.));
#696=DIRECTION('',(0.,0.,1.));
#697=DIRECTION('',(1.,0.,0.));
#698=DIRECTION('',(0.,0.,1.));
#699=DIRECTION('',(1.,0.,0.));
#700=DIRECTION('',(-3.28081325416165E-15,-1.77635683940027E-15,-1.));
#701=DIRECTION('',(-1.,0.,3.28081325416165E-15));
#702=DIRECTION('',(0.,0.,1.));
#703=DIRECTION('',(1.,0.,0.));
#704=DIRECTION('',(0.,0.,1.));
#705=DIRECTION('',(1.,0.,0.));
#706=CARTESIAN_POINT('',(0.,0.,0.));
#707=CARTESIAN_POINT('',(0.,0.,0.0025));
#708=CARTESIAN_POINT('',(0.,2.02066721859313E-19,0.0025));
#709=CARTESIAN_POINT('',(0.0033,2.02066721859313E-19,0.0025));
#710=CARTESIAN_POINT('',(-0.000883680555555556,0.00196614583333333,0.0025));
#711=CARTESIAN_POINT('',(-0.00150086805555555,0.00196614583333333,0.0025));
#712=CARTESIAN_POINT('',(-0.000266493055555556,0.00196614583333333,0.0025));
#713=CARTESIAN_POINT('',(-0.000266493055555556,0.00196614583333333,0.0025));
#714=CARTESIAN_POINT('',(0.000577256944444444,0.00196614583333333,0.0025));
#715=CARTESIAN_POINT('',(0.000958333333333333,0.00172612847222222,0.0025));
#716=CARTESIAN_POINT('',(0.000958333333333333,0.00172612847222222,0.0025));
#717=CARTESIAN_POINT('',(0.000958333333333333,0.00172612847222222,0.0025));
#718=CARTESIAN_POINT('',(0.00133940972222222,0.00148611111111111,0.0025));
#719=CARTESIAN_POINT('',(0.00133940972222222,0.000962673611111111,0.0025));
#720=CARTESIAN_POINT('',(0.00133940972222222,0.000962673611111111,0.0025));
#721=CARTESIAN_POINT('',(0.00133940972222222,0.000962673611111111,0.0025));
#722=CARTESIAN_POINT('',(0.00133940972222222,0.000606770833333333,0.0025));
#723=CARTESIAN_POINT('',(0.00117274305555555,0.00037890625,0.0025));
#724=CARTESIAN_POINT('',(0.00117274305555555,0.00037890625,0.0025));
#725=CARTESIAN_POINT('',(0.000629911444777049,0.000761668780220009,0.0025));
#726=CARTESIAN_POINT('',(0.000729166666666666,0.000105323577544406,0.0025));
#727=CARTESIAN_POINT('',(0.000729166666666666,9.15798611111111E-5,0.0025));
#728=CARTESIAN_POINT('',(0.000729166666666666,7.8125E-5,0.0025));
#729=CARTESIAN_POINT('',(0.000729166666666666,7.8125E-5,0.0025));
#730=CARTESIAN_POINT('',(0.00110590277777778,-6.0763888888888E-6,0.0025));
#731=CARTESIAN_POINT('',(0.00127300347222222,-0.000236545138888889,0.0025));
#732=CARTESIAN_POINT('',(0.00127300347222222,-0.000236545138888889,0.0025));
#733=CARTESIAN_POINT('',(0.00127300347222222,-0.000236545138888889,0.0025));
#734=CARTESIAN_POINT('',(0.00144010416666667,-0.000467013888888889,0.0025));
#735=CARTESIAN_POINT('',(0.00144010416666667,-0.000849826388888889,0.0025));
#736=CARTESIAN_POINT('',(0.00144010416666667,-0.000849826388888889,0.0025));
#737=CARTESIAN_POINT('',(0.00144010416666667,-0.000849826388888889,0.0025));
#738=CARTESIAN_POINT('',(0.00144010416666667,-0.00139236111111111,0.0025));
#739=CARTESIAN_POINT('',(0.00104774305555555,-0.00169618055555555,0.0025));
#740=CARTESIAN_POINT('',(0.00104774305555555,-0.00169618055555555,0.0025));
#741=CARTESIAN_POINT('',(0.00104774305555555,-0.00169618055555555,0.0025));
#742=CARTESIAN_POINT('',(0.000655381944444444,-0.002,0.0025));
#743=CARTESIAN_POINT('',(-1.73611111111116E-5,-0.002,0.0025));
#744=CARTESIAN_POINT('',(-1.73611111111116E-5,-0.002,0.0025));
#745=CARTESIAN_POINT('',(-0.000759114583333334,-0.002,0.0025));
#746=CARTESIAN_POINT('',(-0.00150086805555555,-0.002,0.0025));
#747=CARTESIAN_POINT('',(-0.00150086805555555,-1.69270833333332E-5,0.0025));
#748=CARTESIAN_POINT('',(0.,2.02066721859313E-19,0.0025));
#749=CARTESIAN_POINT('',(0.,2.02066721859313E-19,0.));
#750=CARTESIAN_POINT('',(0.0033,2.02066721859313E-19,0.));
#751=CARTESIAN_POINT('',(0.,0.,0.));
#752=CARTESIAN_POINT('',(-2.91082535518077E-21,-6.12323399573676E-20,0.));
#753=CARTESIAN_POINT('',(0.001,-6.12323399573676E-20,0.));
#754=CARTESIAN_POINT('',(-0.000659722222222223,-0.000788628472222222,0.00225));
#755=CARTESIAN_POINT('',(-0.000659722222222223,-0.000788628472222222,0.0025));
#756=CARTESIAN_POINT('',(-0.000659722222222223,-0.000271701388888889,0.0025));
#757=CARTESIAN_POINT('',(-0.000659722222222223,-0.00130555555555555,0.0025));
#758=CARTESIAN_POINT('',(-0.000659722222222223,-0.000271701388888889,0.00225));
#759=CARTESIAN_POINT('',(-0.000659722222222223,-0.000271701388888889,0.00225));
#760=CARTESIAN_POINT('',(-0.000659722222222223,-0.000788628472222222,0.00225));
#761=CARTESIAN_POINT('',(-0.000659722222222223,-0.00130555555555555,0.00225));
#762=CARTESIAN_POINT('',(-0.000659722222222223,-0.00130555555555555,0.00225));
#763=CARTESIAN_POINT('',(-0.000399305555555556,-0.000271701388888889,0.00225));
#764=CARTESIAN_POINT('',(-0.000399305555555556,-0.000271701388888889,0.0025));
#765=CARTESIAN_POINT('',(-0.000138888888888889,-0.000271701388888889,0.0025));
#766=CARTESIAN_POINT('',(-0.000138888888888889,-0.000271701388888889,0.00225));
#767=CARTESIAN_POINT('',(-0.000138888888888889,-0.000271701388888889,0.00225));
#768=CARTESIAN_POINT('',(-0.000399305555555556,-0.000271701388888889,0.00225));
#769=CARTESIAN_POINT('',(0.000565972222222222,-0.000765625,0.00225));
#770=CARTESIAN_POINT('',(0.000565972222222222,-0.000765625,0.0025));
#771=CARTESIAN_POINT('',(0.000565972222222222,-0.000436342592592593,0.00225));
#772=CARTESIAN_POINT('',(0.000565972222222222,-0.000436342592592593,0.0025));
#773=CARTESIAN_POINT('',(0.000331018518518518,-0.000271701388888889,0.00225));
#774=CARTESIAN_POINT('',(0.000331018518518518,-0.000271701388888889,0.0025));
#775=CARTESIAN_POINT('',(-0.000138888888888889,-0.000271701388888889,0.00225));
#776=CARTESIAN_POINT('',(-0.000138888888888889,-0.000271701388888889,0.0025));
#777=CARTESIAN_POINT('',(0.000565972222222222,-0.000765625,0.0025));
#778=CARTESIAN_POINT('',(0.000565972222222222,-0.000271701388888889,0.0025));
#779=CARTESIAN_POINT('',(-0.000138888888888889,-0.000271701388888889,0.0025));
#780=CARTESIAN_POINT('',(0.000565972222222222,-0.000765625,0.0025));
#781=CARTESIAN_POINT('',(0.000565972222222222,-0.000765625,0.00225));
#782=CARTESIAN_POINT('',(0.000565972222222222,-0.000765625,0.00225));
#783=CARTESIAN_POINT('',(0.000565972222222222,-0.000765625,0.00225));
#784=CARTESIAN_POINT('',(0.000565972222222222,-0.000271701388888889,0.00225));
#785=CARTESIAN_POINT('',(-0.000138888888888889,-0.000271701388888889,0.00225));
#786=CARTESIAN_POINT('',(0.000400607638888888,-0.00117274305555555,0.00225));
#787=CARTESIAN_POINT('',(0.000400607638888888,-0.00117274305555555,0.0025));
#788=CARTESIAN_POINT('',(0.000510850694444444,-0.00108420138888889,0.00225));
#789=CARTESIAN_POINT('',(0.000510850694444444,-0.00108420138888889,0.0025));
#790=CARTESIAN_POINT('',(0.000565972222222222,-0.00094849537037037,0.00225));
#791=CARTESIAN_POINT('',(0.000565972222222222,-0.00094849537037037,0.0025));
#792=CARTESIAN_POINT('',(0.000565972222222222,-0.000765625,0.00225));
#793=CARTESIAN_POINT('',(0.000565972222222222,-0.000765625,0.0025));
#794=CARTESIAN_POINT('',(0.000400607638888888,-0.00117274305555555,0.0025));
#795=CARTESIAN_POINT('',(0.000565972222222222,-0.00103993055555555,0.0025));
#796=CARTESIAN_POINT('',(0.000565972222222222,-0.000765625,0.0025));
#797=CARTESIAN_POINT('',(0.000400607638888888,-0.00117274305555555,0.0025));
#798=CARTESIAN_POINT('',(0.000400607638888888,-0.00117274305555555,0.00225));
#799=CARTESIAN_POINT('',(0.000400607638888888,-0.00117274305555555,0.00225));
#800=CARTESIAN_POINT('',(0.000400607638888888,-0.00117274305555555,0.00225));
#801=CARTESIAN_POINT('',(0.000565972222222222,-0.00103993055555555,0.00225));
#802=CARTESIAN_POINT('',(0.000565972222222222,-0.000765625,0.00225));
#803=CARTESIAN_POINT('',(-0.000111979166666667,-0.00130555555555555,0.00225));
#804=CARTESIAN_POINT('',(-0.000111979166666667,-0.00130555555555555,0.0025));
#805=CARTESIAN_POINT('',(0.000119502314814814,-0.00130555555555555,0.00225));
#806=CARTESIAN_POINT('',(0.000119502314814814,-0.00130555555555555,0.0025));
#807=CARTESIAN_POINT('',(0.000290364583333333,-0.00126128472222222,0.00225));
#808=CARTESIAN_POINT('',(0.000290364583333333,-0.00126128472222222,0.0025));
#809=CARTESIAN_POINT('',(0.000400607638888888,-0.00117274305555555,0.00225));
#810=CARTESIAN_POINT('',(0.000400607638888888,-0.00117274305555555,0.0025));
#811=CARTESIAN_POINT('',(-0.000111979166666667,-0.00130555555555555,0.0025));
#812=CARTESIAN_POINT('',(0.000235243055555555,-0.00130555555555555,0.0025));
#813=CARTESIAN_POINT('',(0.000400607638888888,-0.00117274305555555,0.0025));
#814=CARTESIAN_POINT('',(-0.000111979166666667,-0.00130555555555555,0.0025));
#815=CARTESIAN_POINT('',(-0.000111979166666667,-0.00130555555555555,0.00225));
#816=CARTESIAN_POINT('',(-0.000111979166666667,-0.00130555555555555,0.00225));
#817=CARTESIAN_POINT('',(-0.000111979166666667,-0.00130555555555555,0.00225));
#818=CARTESIAN_POINT('',(0.000235243055555555,-0.00130555555555555,0.00225));
#819=CARTESIAN_POINT('',(0.000400607638888888,-0.00117274305555555,0.00225));
#820=CARTESIAN_POINT('',(-0.000415798611111111,0.000394965277777777,0.00225));
#821=CARTESIAN_POINT('',(-0.000415798611111111,0.000394965277777777,0.0025));
#822=CARTESIAN_POINT('',(-0.000659722222222223,0.000394965277777777,0.0025));
#823=CARTESIAN_POINT('',(-0.000171875,0.000394965277777777,0.0025));
#824=CARTESIAN_POINT('',(-0.000659722222222223,0.000394965277777777,0.00225));
#825=CARTESIAN_POINT('',(-0.000659722222222223,0.000394965277777777,0.00225));
#826=CARTESIAN_POINT('',(-0.000415798611111111,0.000394965277777777,0.00225));
#827=CARTESIAN_POINT('',(-0.000171875,0.000394965277777777,0.00225));
#828=CARTESIAN_POINT('',(-0.000171875,0.000394965277777777,0.00225));
#829=CARTESIAN_POINT('',(-0.000659722222222223,0.0008359375,0.00225));
#830=CARTESIAN_POINT('',(-0.000659722222222223,0.0008359375,0.0025));
#831=CARTESIAN_POINT('',(-0.000659722222222223,0.00127690972222222,0.0025));
#832=CARTESIAN_POINT('',(-0.000659722222222223,0.00127690972222222,0.00225));
#833=CARTESIAN_POINT('',(-0.000659722222222223,0.00127690972222222,0.00225));
#834=CARTESIAN_POINT('',(-0.000659722222222223,0.0008359375,0.00225));
#835=CARTESIAN_POINT('',(-0.000438802083333334,0.00127690972222222,0.00225));
#836=CARTESIAN_POINT('',(-0.000438802083333334,0.00127690972222222,0.0025));
#837=CARTESIAN_POINT('',(-0.000217881944444445,0.00127690972222222,0.0025));
#838=CARTESIAN_POINT('',(-0.000217881944444445,0.00127690972222222,0.00225));
#839=CARTESIAN_POINT('',(-0.000217881944444445,0.00127690972222222,0.00225));
#840=CARTESIAN_POINT('',(-0.000438802083333334,0.00127690972222222,0.00225));
#841=CARTESIAN_POINT('',(0.000309895833333333,0.00117795138888889,0.00225));
#842=CARTESIAN_POINT('',(0.000309895833333333,0.00117795138888889,0.0025));
#843=CARTESIAN_POINT('',(0.000198784722222222,0.00124392361111111,0.00225));
#844=CARTESIAN_POINT('',(0.000198784722222222,0.00124392361111111,0.0025));
#845=CARTESIAN_POINT('',(2.28587962962957E-5,0.00127690972222222,0.00225));
#846=CARTESIAN_POINT('',(2.28587962962957E-5,0.00127690972222222,0.0025));
#847=CARTESIAN_POINT('',(-0.000217881944444445,0.00127690972222222,0.00225));
#848=CARTESIAN_POINT('',(-0.000217881944444445,0.00127690972222222,0.0025));
#849=CARTESIAN_POINT('',(0.000309895833333333,0.00117795138888889,0.0025));
#850=CARTESIAN_POINT('',(0.000143229166666666,0.00127690972222222,0.0025));
#851=CARTESIAN_POINT('',(-0.000217881944444445,0.00127690972222222,0.0025));
#852=CARTESIAN_POINT('',(0.000309895833333333,0.00117795138888889,0.0025));
#853=CARTESIAN_POINT('',(0.000309895833333333,0.00117795138888889,0.00225));
#854=CARTESIAN_POINT('',(0.000309895833333333,0.00117795138888889,0.00225));
#855=CARTESIAN_POINT('',(0.000309895833333333,0.00117795138888889,0.00225));
#856=CARTESIAN_POINT('',(0.000143229166666666,0.00127690972222222,0.00225));
#857=CARTESIAN_POINT('',(-0.000217881944444445,0.00127690972222222,0.00225));
#858=CARTESIAN_POINT('',(0.0004765625,0.000850694444444444,0.00225));
#859=CARTESIAN_POINT('',(0.0004765625,0.000850694444444444,0.0025));
#860=CARTESIAN_POINT('',(0.0004765625,0.00100289351851852,0.00225));
#861=CARTESIAN_POINT('',(0.0004765625,0.00100289351851852,0.0025));
#862=CARTESIAN_POINT('',(0.000421006944444444,0.00111197916666667,0.00225));
#863=CARTESIAN_POINT('',(0.000421006944444444,0.00111197916666667,0.0025));
#864=CARTESIAN_POINT('',(0.000309895833333333,0.00117795138888889,0.00225));
#865=CARTESIAN_POINT('',(0.000309895833333333,0.00117795138888889,0.0025));
#866=CARTESIAN_POINT('',(0.0004765625,0.000850694444444444,0.0025));
#867=CARTESIAN_POINT('',(0.0004765625,0.00107899305555555,0.0025));
#868=CARTESIAN_POINT('',(0.000309895833333333,0.00117795138888889,0.0025));
#869=CARTESIAN_POINT('',(0.0004765625,0.000850694444444444,0.0025));
#870=CARTESIAN_POINT('',(0.0004765625,0.000850694444444444,0.00225));
#871=CARTESIAN_POINT('',(0.0004765625,0.000850694444444444,0.00225));
#872=CARTESIAN_POINT('',(0.0004765625,0.000850694444444444,0.00225));
#873=CARTESIAN_POINT('',(0.0004765625,0.00107899305555555,0.00225));
#874=CARTESIAN_POINT('',(0.000309895833333333,0.00117795138888889,0.00225));
#875=CARTESIAN_POINT('',(0.000323350694444444,0.000500868055555556,0.00225));
#876=CARTESIAN_POINT('',(0.000323350694444444,0.000500868055555556,0.0025));
#877=CARTESIAN_POINT('',(0.000425491898148148,0.000571469907407407,0.00225));
#878=CARTESIAN_POINT('',(0.000425491898148148,0.000571469907407407,0.0025));
#879=CARTESIAN_POINT('',(0.0004765625,0.000688078703703703,0.00225));
#880=CARTESIAN_POINT('',(0.0004765625,0.000688078703703703,0.0025));
#881=CARTESIAN_POINT('',(0.0004765625,0.000850694444444444,0.00225));
#882=CARTESIAN_POINT('',(0.0004765625,0.000850694444444444,0.0025));
#883=CARTESIAN_POINT('',(0.000323350694444444,0.000500868055555556,0.0025));
#884=CARTESIAN_POINT('',(0.0004765625,0.000606770833333333,0.0025));
#885=CARTESIAN_POINT('',(0.0004765625,0.000850694444444444,0.0025));
#886=CARTESIAN_POINT('',(0.000323350694444444,0.000500868055555556,0.0025));
#887=CARTESIAN_POINT('',(0.000323350694444444,0.000500868055555556,0.00225));
#888=CARTESIAN_POINT('',(0.000323350694444444,0.000500868055555556,0.00225));
#889=CARTESIAN_POINT('',(0.000323350694444444,0.000500868055555556,0.00225));
#890=CARTESIAN_POINT('',(0.0004765625,0.000606770833333333,0.00225));
#891=CARTESIAN_POINT('',(0.0004765625,0.000850694444444444,0.00225));
#892=CARTESIAN_POINT('',(-0.000266493055555556,0.00196614583333333,0.00225));
#893=CARTESIAN_POINT('',(-0.000266493055555556,0.00196614583333333,0.0025));
#894=CARTESIAN_POINT('',(0.000296006944444444,0.00196614583333333,0.00225));
#895=CARTESIAN_POINT('',(0.000296006944444444,0.00196614583333333,0.0025));
#896=CARTESIAN_POINT('',(0.000704282407407407,0.0018861400462963,0.00225));
#897=CARTESIAN_POINT('',(0.000704282407407407,0.0018861400462963,0.0025));
#898=CARTESIAN_POINT('',(0.000958333333333333,0.00172612847222222,0.00225));
#899=CARTESIAN_POINT('',(0.000958333333333333,0.00172612847222222,0.0025));
#900=CARTESIAN_POINT('',(-0.000266493055555556,0.00196614583333333,0.00225));
#901=CARTESIAN_POINT('',(-0.000266493055555556,0.00196614583333333,0.00225));
#902=CARTESIAN_POINT('',(-0.000266493055555556,0.00196614583333333,0.00225));
#903=CARTESIAN_POINT('',(0.000577256944444444,0.00196614583333333,0.00225));
#904=CARTESIAN_POINT('',(0.000958333333333333,0.00172612847222222,0.00225));
#905=CARTESIAN_POINT('',(0.000958333333333333,0.00172612847222222,0.00225));
#906=CARTESIAN_POINT('',(0.000958333333333333,0.00172612847222222,0.00225));
#907=CARTESIAN_POINT('',(-0.000883680555555556,0.00196614583333333,0.00225));
#908=CARTESIAN_POINT('',(-0.00150086805555555,0.00196614583333333,0.00225));
#909=CARTESIAN_POINT('',(-0.00150086805555555,0.00196614583333333,0.00225));
#910=CARTESIAN_POINT('',(-0.000883680555555556,0.00196614583333333,0.00225));
#911=CARTESIAN_POINT('',(-0.00150086805555555,-1.69270833333332E-5,0.00225));
#912=CARTESIAN_POINT('',(-0.00150086805555555,-0.002,0.00225));
#913=CARTESIAN_POINT('',(-0.00150086805555555,-0.002,0.00225));
#914=CARTESIAN_POINT('',(-0.00150086805555555,-1.69270833333332E-5,0.00225));
#915=CARTESIAN_POINT('',(-0.000759114583333334,-0.002,0.00225));
#916=CARTESIAN_POINT('',(-1.73611111111116E-5,-0.002,0.00225));
#917=CARTESIAN_POINT('',(-1.73611111111116E-5,-0.002,0.00225));
#918=CARTESIAN_POINT('',(-0.000759114583333334,-0.002,0.00225));
#919=CARTESIAN_POINT('',(0.00104774305555555,-0.00169618055555555,0.00225));
#920=CARTESIAN_POINT('',(0.00104774305555555,-0.00169618055555555,0.0025));
#921=CARTESIAN_POINT('',(0.000786168981481481,-0.00189872685185185,0.00225));
#922=CARTESIAN_POINT('',(0.000786168981481481,-0.00189872685185185,0.0025));
#923=CARTESIAN_POINT('',(0.000431134259259259,-0.002,0.00225));
#924=CARTESIAN_POINT('',(0.000431134259259259,-0.002,0.0025));
#925=CARTESIAN_POINT('',(-1.73611111111116E-5,-0.002,0.00225));
#926=CARTESIAN_POINT('',(-1.73611111111116E-5,-0.002,0.0025));
#927=CARTESIAN_POINT('',(0.00104774305555555,-0.00169618055555555,0.00225));
#928=CARTESIAN_POINT('',(0.00104774305555555,-0.00169618055555555,0.00225));
#929=CARTESIAN_POINT('',(0.00104774305555555,-0.00169618055555555,0.00225));
#930=CARTESIAN_POINT('',(0.000655381944444444,-0.002,0.00225));
#931=CARTESIAN_POINT('',(-1.73611111111116E-5,-0.002,0.00225));
#932=CARTESIAN_POINT('',(0.00144010416666667,-0.000849826388888889,0.00225));
#933=CARTESIAN_POINT('',(0.00144010416666667,-0.000849826388888889,0.0025));
#934=CARTESIAN_POINT('',(0.00144010416666667,-0.0012115162037037,0.00225));
#935=CARTESIAN_POINT('',(0.00144010416666667,-0.0012115162037037,0.0025));
#936=CARTESIAN_POINT('',(0.00130931712962963,-0.00149363425925926,0.00225));
#937=CARTESIAN_POINT('',(0.00130931712962963,-0.00149363425925926,0.0025));
#938=CARTESIAN_POINT('',(0.00104774305555555,-0.00169618055555555,0.00225));
#939=CARTESIAN_POINT('',(0.00104774305555555,-0.00169618055555555,0.0025));
#940=CARTESIAN_POINT('',(0.00144010416666667,-0.000849826388888889,0.00225));
#941=CARTESIAN_POINT('',(0.00144010416666667,-0.000849826388888889,0.00225));
#942=CARTESIAN_POINT('',(0.00144010416666667,-0.000849826388888889,0.00225));
#943=CARTESIAN_POINT('',(0.00144010416666667,-0.00139236111111111,0.00225));
#944=CARTESIAN_POINT('',(0.00104774305555555,-0.00169618055555555,0.00225));
#945=CARTESIAN_POINT('',(0.00127300347222222,-0.000236545138888889,0.00225));
#946=CARTESIAN_POINT('',(0.00127300347222222,-0.000236545138888889,0.0025));
#947=CARTESIAN_POINT('',(0.00138440393518518,-0.000390190972222222,0.00225));
#948=CARTESIAN_POINT('',(0.00138440393518518,-0.000390190972222222,0.0025));
#949=CARTESIAN_POINT('',(0.00144010416666667,-0.000594618055555556,0.00225));
#950=CARTESIAN_POINT('',(0.00144010416666667,-0.000594618055555556,0.0025));
#951=CARTESIAN_POINT('',(0.00144010416666667,-0.000849826388888889,0.00225));
#952=CARTESIAN_POINT('',(0.00144010416666667,-0.000849826388888889,0.0025));
#953=CARTESIAN_POINT('',(0.00127300347222222,-0.000236545138888889,0.00225));
#954=CARTESIAN_POINT('',(0.00127300347222222,-0.000236545138888889,0.00225));
#955=CARTESIAN_POINT('',(0.00127300347222222,-0.000236545138888889,0.00225));
#956=CARTESIAN_POINT('',(0.00144010416666667,-0.000467013888888889,0.00225));
#957=CARTESIAN_POINT('',(0.00144010416666667,-0.000849826388888889,0.00225));
#958=CARTESIAN_POINT('',(0.000729166666666666,7.8125E-5,0.00225));
#959=CARTESIAN_POINT('',(0.000729166666666666,7.8125E-5,0.0025));
#960=CARTESIAN_POINT('',(0.000980324074074073,2.19907407407408E-5,0.00225));
#961=CARTESIAN_POINT('',(0.000980324074074073,2.19907407407408E-5,0.0025));
#962=CARTESIAN_POINT('',(0.00116160300925926,-8.28993055555555E-5,0.00225));
#963=CARTESIAN_POINT('',(0.00116160300925926,-8.28993055555555E-5,0.0025));
#964=CARTESIAN_POINT('',(0.00127300347222222,-0.000236545138888889,0.00225));
#965=CARTESIAN_POINT('',(0.00127300347222222,-0.000236545138888889,0.0025));
#966=CARTESIAN_POINT('',(0.000729166666666666,7.8125E-5,0.00225));
#967=CARTESIAN_POINT('',(0.000729166666666666,7.8125E-5,0.00225));
#968=CARTESIAN_POINT('',(0.000729166666666666,7.8125E-5,0.00225));
#969=CARTESIAN_POINT('',(0.00110590277777778,-6.0763888888888E-6,0.00225));
#970=CARTESIAN_POINT('',(0.00127300347222222,-0.000236545138888889,0.00225));
#971=CARTESIAN_POINT('',(0.000729166666666666,9.15798611111111E-5,0.00225));
#972=CARTESIAN_POINT('',(0.000729166666666666,0.000105323577544406,0.00225));
#973=CARTESIAN_POINT('',(0.000729166666666666,0.000105323577544406,0.00225));
#974=CARTESIAN_POINT('',(0.000729166666666666,9.15798611111111E-5,0.00225));
#975=CARTESIAN_POINT('',(0.000629911444777049,0.000761668780220009,0.00225));
#976=CARTESIAN_POINT('',(0.00117274305555555,0.00037890625,0.00225));
#977=CARTESIAN_POINT('',(0.00117274305555555,0.00037890625,0.00225));
#978=CARTESIAN_POINT('',(0.000629911444777049,0.000761668780220009,0.00225));
#979=CARTESIAN_POINT('',(0.00133940972222222,0.000962673611111111,0.00225));
#980=CARTESIAN_POINT('',(0.00133940972222222,0.000962673611111111,0.0025));
#981=CARTESIAN_POINT('',(0.00133940972222222,0.000725405092592592,0.00225));
#982=CARTESIAN_POINT('',(0.00133940972222222,0.000725405092592592,0.0025));
#983=CARTESIAN_POINT('',(0.00128385416666667,0.000530815972222222,0.00225));
#984=CARTESIAN_POINT('',(0.00128385416666667,0.000530815972222222,0.0025));
#985=CARTESIAN_POINT('',(0.00117274305555555,0.00037890625,0.00225));
#986=CARTESIAN_POINT('',(0.00117274305555555,0.00037890625,0.0025));
#987=CARTESIAN_POINT('',(0.00133940972222222,0.000962673611111111,0.00225));
#988=CARTESIAN_POINT('',(0.00133940972222222,0.000962673611111111,0.00225));
#989=CARTESIAN_POINT('',(0.00133940972222222,0.000962673611111111,0.00225));
#990=CARTESIAN_POINT('',(0.00133940972222222,0.000606770833333333,0.00225));
#991=CARTESIAN_POINT('',(0.00117274305555555,0.00037890625,0.00225));
#992=CARTESIAN_POINT('',(-0.000171875,0.000394965277777777,0.00225));
#993=CARTESIAN_POINT('',(-0.000171875,0.000394965277777777,0.0025));
#994=CARTESIAN_POINT('',(5.6134259259259E-5,0.000394965277777777,0.00225));
#995=CARTESIAN_POINT('',(5.6134259259259E-5,0.000394965277777777,0.0025));
#996=CARTESIAN_POINT('',(0.00022120949074074,0.000430266203703704,0.00225));
#997=CARTESIAN_POINT('',(0.00022120949074074,0.000430266203703704,0.0025));
#998=CARTESIAN_POINT('',(0.000323350694444444,0.000500868055555556,0.00225));
#999=CARTESIAN_POINT('',(0.000323350694444444,0.000500868055555556,0.0025));
#1000=CARTESIAN_POINT('',(-0.000171875,0.000394965277777777,0.0025));
#1001=CARTESIAN_POINT('',(0.000170138888888889,0.000394965277777777,0.0025));
#1002=CARTESIAN_POINT('',(0.000323350694444444,0.000500868055555556,0.0025));
#1003=CARTESIAN_POINT('',(-0.000171875,0.000394965277777777,0.00225));
#1004=CARTESIAN_POINT('',(0.000170138888888889,0.000394965277777777,0.00225));
#1005=CARTESIAN_POINT('',(0.000323350694444444,0.000500868055555556,0.00225));
#1006=CARTESIAN_POINT('',(0.000958333333333333,0.00172612847222222,0.00225));
#1007=CARTESIAN_POINT('',(0.000958333333333333,0.00172612847222222,0.0025));
#1008=CARTESIAN_POINT('',(0.00121238425925926,0.00156611689814815,0.00225));
#1009=CARTESIAN_POINT('',(0.00121238425925926,0.00156611689814815,0.0025));
#1010=CARTESIAN_POINT('',(0.00133940972222222,0.00131163194444444,0.00225));
#1011=CARTESIAN_POINT('',(0.00133940972222222,0.00131163194444444,0.0025));
#1012=CARTESIAN_POINT('',(0.00133940972222222,0.000962673611111111,0.00225));
#1013=CARTESIAN_POINT('',(0.00133940972222222,0.000962673611111111,0.0025));
#1014=CARTESIAN_POINT('',(0.000958333333333333,0.00172612847222222,0.00225));
#1015=CARTESIAN_POINT('',(0.00133940972222222,0.00148611111111111,0.00225));
#1016=CARTESIAN_POINT('',(0.00133940972222222,0.000962673611111111,0.00225));
#1017=CARTESIAN_POINT('',(-0.000385850694444445,-0.00130555555555555,0.00225));
#1018=CARTESIAN_POINT('',(-0.000385850694444445,-0.00130555555555555,0.0025));
#1019=CARTESIAN_POINT('',(-0.000385850694444445,-0.00130555555555555,0.00225));
#1020=CARTESIAN_POINT('',(0.,0.,0.00225));
#1021=CARTESIAN_POINT('',(0.,0.,0.0025));
#1022=CARTESIAN_POINT('',(0.,0.,0.0025));
#1023=CARTESIAN_POINT('',(3.65080115316616E-21,-5.76796262785542E-20,2.0000000000072E-6));
#1024=CARTESIAN_POINT('',(-1.64069770961635E-17,-8.94301653695872E-18,-0.005));
#1025=CARTESIAN_POINT('',(0.000999999999999984,-8.94301653695872E-18,-0.005));
#1026=CARTESIAN_POINT('',(-1.64040662708082E-17,-8.88178419700132E-18,-0.005));
#1027=MECHANICAL_DESIGN_GEOMETRIC_PRESENTATION_REPRESENTATION('',(#572),
#1028);
#1028=(
GEOMETRIC_REPRESENTATION_CONTEXT(3)
GLOBAL_UNCERTAINTY_ASSIGNED_CONTEXT((#1029))
GLOBAL_UNIT_ASSIGNED_CONTEXT((#1032,#1031,#1030))
REPRESENTATION_CONTEXT('Part 1','TOP_LEVEL_ASSEMBLY_PART')
);
#1029=UNCERTAINTY_MEASURE_WITH_UNIT(LENGTH_MEASURE(2.E-5),#1032,
'DISTANCE_ACCURACY_VALUE','Maximum Tolerance applied to model');
#1030=(
NAMED_UNIT(*)
SI_UNIT($,.STERADIAN.)
SOLID_ANGLE_UNIT()
);
#1031=(
NAMED_UNIT(*)
PLANE_ANGLE_UNIT()
SI_UNIT($,.RADIAN.)
);
#1032=(
LENGTH_UNIT()
NAMED_UNIT(*)
SI_UNIT($,.METRE.)
);
#1033=PRODUCT_DEFINITION_SHAPE('','',#1034);
#1034=PRODUCT_DEFINITION('','',#1036,#1035);
#1035=PRODUCT_DEFINITION_CONTEXT('',#1042,'design');
#1036=PRODUCT_DEFINITION_FORMATION_WITH_SPECIFIED_SOURCE('','',#1038,
 .NOT_KNOWN.);
#1037=PRODUCT_RELATED_PRODUCT_CATEGORY('','',(#1038));
#1038=PRODUCT('Part 1','Part 1','Part 1',(#1040));
#1039=PRODUCT_CATEGORY('','');
#1040=PRODUCT_CONTEXT('',#1042,'mechanical');
#1041=APPLICATION_PROTOCOL_DEFINITION('international standard',
'ap242_managed_model_based_3d_engineering',2020,#1042);
#1042=APPLICATION_CONTEXT('managed model based 3d engineering');
ENDSEC;
END-ISO-10303-21;
