ISO-10303-21;
HEADER;
/* Generated by software containing ST-Developer
 * from STEP Tools, Inc. (www.steptools.com) 
 */
/* OPTION: using custom renumber hook */

FILE_DESCRIPTION(
/* description */ ('STEP AP242 Edition 2',
'CAx-IF Rec.Pracs.---Representation and Presentation of Product Manufa
cturing Information (PMI)---4.0---2014-10-13',
'CAx-IF Rec.Pracs.---3D Tessellated Geometry---0.4---2014-09-14','2;1',
'CAx-IF Rec.Pracs.---User Defined Attributes---1.5---2016-08-15'),
/* implementation_level */ '2;1');

FILE_NAME(
/* name */ 'LeftPlunger',
/* time_stamp */ '2026-05-25T15:56:40Z',
/* author */ (''),
/* organization */ (''),
/* preprocessor_version */ 'ST-DEVELOPER v20',
/* originating_system */ 'ONSHAPE BY PTC INC, 1.215',
/* authorisation */ '  ');

FILE_SCHEMA (('AP242_MANAGED_MODEL_BASED_3D_ENGINEERING_MIM_LF { 1 0 10303 442 3 1 4 }'));
ENDSEC;

DATA;
#10=SHAPE_REPRESENTATION_RELATIONSHIP('','',#561,#11);
#11=ADVANCED_BREP_SHAPE_REPRESENTATION('',(#559),#941);
#12=B_SPLINE_SURFACE_WITH_KNOTS('',3,1,((#823,#824),(#825,#826),(#827,#828),
(#829,#830)),.SURF_OF_LINEAR_EXTRUSION.,.F.,.F.,.F.,(4,4),(2,2),(0.687252453246018,
1.),(0.,1.),.PIECEWISE_BEZIER_KNOTS.);
#13=B_SPLINE_SURFACE_WITH_KNOTS('',3,1,((#851,#852),(#853,#854),(#855,#856),
(#857,#858)),.SURF_OF_LINEAR_EXTRUSION.,.F.,.F.,.F.,(4,4),(2,2),(0.00291595477129149,
0.126694751173715),(0.,1.),.PIECEWISE_BEZIER_KNOTS.);
#14=B_SPLINE_SURFACE_WITH_KNOTS('',3,1,((#902,#903),(#904,#905),(#906,#907),
(#908,#909)),.SURF_OF_LINEAR_EXTRUSION.,.F.,.F.,.F.,(4,4),(2,2),(0.563632510579489,
0.608636267482368),(0.,1.),.PIECEWISE_BEZIER_KNOTS.);
#15=B_SPLINE_SURFACE_WITH_KNOTS('',3,1,((#928,#929),(#930,#931),(#932,#933),
(#934,#935)),.SURF_OF_LINEAR_EXTRUSION.,.F.,.F.,.F.,(4,4),(2,2),(0.563632510579489,
0.872916537752712),(0.,1.),.PIECEWISE_BEZIER_KNOTS.);
#16=CYLINDRICAL_SURFACE('',#569,0.0185000000000029);
#17=CYLINDRICAL_SURFACE('',#575,0.052032429380427);
#18=CYLINDRICAL_SURFACE('',#588,0.0156999999999972);
#19=CYLINDRICAL_SURFACE('',#592,0.016);
#20=LINE('',#732,#82);
#21=LINE('',#744,#83);
#22=LINE('',#746,#84);
#23=LINE('',#748,#85);
#24=LINE('',#750,#86);
#25=LINE('',#752,#87);
#26=LINE('',#754,#88);
#27=LINE('',#756,#89);
#28=LINE('',#758,#90);
#29=LINE('',#760,#91);
#30=LINE('',#762,#92);
#31=LINE('',#764,#93);
#32=LINE('',#768,#94);
#33=LINE('',#775,#95);
#34=LINE('',#777,#96);
#35=LINE('',#780,#97);
#36=LINE('',#782,#98);
#37=LINE('',#784,#99);
#38=LINE('',#786,#100);
#39=LINE('',#788,#101);
#40=LINE('',#790,#102);
#41=LINE('',#792,#103);
#42=LINE('',#794,#104);
#43=LINE('',#796,#105);
#44=LINE('',#798,#106);
#45=LINE('',#800,#107);
#46=LINE('',#802,#108);
#47=LINE('',#805,#109);
#48=LINE('',#807,#110);
#49=LINE('',#809,#111);
#50=LINE('',#811,#112);
#51=LINE('',#817,#113);
#52=LINE('',#819,#114);
#53=LINE('',#820,#115);
#54=LINE('',#822,#116);
#55=LINE('',#831,#117);
#56=LINE('',#845,#118);
#57=LINE('',#847,#119);
#58=LINE('',#848,#120);
#59=LINE('',#850,#121);
#60=LINE('',#859,#122);
#61=LINE('',#866,#123);
#62=LINE('',#868,#124);
#63=LINE('',#870,#125);
#64=LINE('',#874,#126);
#65=LINE('',#876,#127);
#66=LINE('',#877,#128);
#67=LINE('',#879,#129);
#68=LINE('',#881,#130);
#69=LINE('',#883,#131);
#70=LINE('',#885,#132);
#71=LINE('',#887,#133);
#72=LINE('',#889,#134);
#73=LINE('',#891,#135);
#74=LINE('',#893,#136);
#75=LINE('',#895,#137);
#76=LINE('',#897,#138);
#77=LINE('',#899,#139);
#78=LINE('',#901,#140);
#79=LINE('',#910,#141);
#80=LINE('',#922,#142);
#81=LINE('',#925,#143);
#82=VECTOR('',#601,1.);
#83=VECTOR('',#604,1.);
#84=VECTOR('',#605,1.);
#85=VECTOR('',#606,1.);
#86=VECTOR('',#607,1.);
#87=VECTOR('',#608,1.);
#88=VECTOR('',#609,1.);
#89=VECTOR('',#610,1.);
#90=VECTOR('',#611,1.);
#91=VECTOR('',#612,1.);
#92=VECTOR('',#613,1.);
#93=VECTOR('',#614,1.);
#94=VECTOR('',#617,1.);
#95=VECTOR('',#618,1.);
#96=VECTOR('',#621,1.);
#97=VECTOR('',#622,1.);
#98=VECTOR('',#623,1.);
#99=VECTOR('',#624,1.);
#100=VECTOR('',#625,1.);
#101=VECTOR('',#626,1.);
#102=VECTOR('',#627,1.);
#103=VECTOR('',#628,1.);
#104=VECTOR('',#629,1.);
#105=VECTOR('',#630,1.);
#106=VECTOR('',#631,1.);
#107=VECTOR('',#632,1.);
#108=VECTOR('',#635,1.);
#109=VECTOR('',#636,1.);
#110=VECTOR('',#637,1.);
#111=VECTOR('',#638,1.);
#112=VECTOR('',#641,1.);
#113=VECTOR('',#648,1.);
#114=VECTOR('',#649,1.);
#115=VECTOR('',#650,1.);
#116=VECTOR('',#651,1.);
#117=VECTOR('',#652,1.);
#118=VECTOR('',#655,1.);
#119=VECTOR('',#656,1.);
#120=VECTOR('',#657,1.);
#121=VECTOR('',#658,1.);
#122=VECTOR('',#659,1.);
#123=VECTOR('',#662,1.);
#124=VECTOR('',#663,1.);
#125=VECTOR('',#666,1.);
#126=VECTOR('',#671,1.);
#127=VECTOR('',#672,1.);
#128=VECTOR('',#673,1.);
#129=VECTOR('',#676,1.);
#130=VECTOR('',#679,1.);
#131=VECTOR('',#682,1.);
#132=VECTOR('',#685,1.);
#133=VECTOR('',#688,1.);
#134=VECTOR('',#691,1.);
#135=VECTOR('',#694,1.);
#136=VECTOR('',#697,1.);
#137=VECTOR('',#700,1.);
#138=VECTOR('',#703,1.);
#139=VECTOR('',#704,1.);
#140=VECTOR('',#705,1.);
#141=VECTOR('',#706,1.);
#142=VECTOR('',#713,1.);
#143=VECTOR('',#718,1.);
#144=CIRCLE('',#564,0.016);
#145=CIRCLE('',#565,0.0156999999999972);
#146=CIRCLE('',#566,0.0521333041308872);
#147=CIRCLE('',#570,0.0185000000000029);
#148=CIRCLE('',#571,0.0185000000000029);
#149=CIRCLE('',#576,0.0521333041308872);
#150=CIRCLE('',#589,0.0156999999999972);
#151=CIRCLE('',#593,0.016);
#152=ORIENTED_EDGE('',*,*,#308,.F.);
#153=ORIENTED_EDGE('',*,*,#309,.T.);
#154=ORIENTED_EDGE('',*,*,#310,.F.);
#155=ORIENTED_EDGE('',*,*,#311,.F.);
#156=ORIENTED_EDGE('',*,*,#312,.T.);
#157=ORIENTED_EDGE('',*,*,#313,.F.);
#158=ORIENTED_EDGE('',*,*,#314,.T.);
#159=ORIENTED_EDGE('',*,*,#315,.T.);
#160=ORIENTED_EDGE('',*,*,#316,.T.);
#161=ORIENTED_EDGE('',*,*,#317,.T.);
#162=ORIENTED_EDGE('',*,*,#318,.T.);
#163=ORIENTED_EDGE('',*,*,#319,.T.);
#164=ORIENTED_EDGE('',*,*,#320,.F.);
#165=ORIENTED_EDGE('',*,*,#321,.F.);
#166=ORIENTED_EDGE('',*,*,#322,.T.);
#167=ORIENTED_EDGE('',*,*,#323,.T.);
#168=ORIENTED_EDGE('',*,*,#324,.T.);
#169=ORIENTED_EDGE('',*,*,#325,.F.);
#170=ORIENTED_EDGE('',*,*,#326,.F.);
#171=ORIENTED_EDGE('',*,*,#327,.T.);
#172=ORIENTED_EDGE('',*,*,#328,.F.);
#173=ORIENTED_EDGE('',*,*,#329,.T.);
#174=ORIENTED_EDGE('',*,*,#330,.T.);
#175=ORIENTED_EDGE('',*,*,#331,.T.);
#176=ORIENTED_EDGE('',*,*,#332,.F.);
#177=ORIENTED_EDGE('',*,*,#333,.F.);
#178=ORIENTED_EDGE('',*,*,#334,.T.);
#179=ORIENTED_EDGE('',*,*,#335,.T.);
#180=ORIENTED_EDGE('',*,*,#336,.T.);
#181=ORIENTED_EDGE('',*,*,#337,.T.);
#182=ORIENTED_EDGE('',*,*,#338,.T.);
#183=ORIENTED_EDGE('',*,*,#339,.T.);
#184=ORIENTED_EDGE('',*,*,#340,.F.);
#185=ORIENTED_EDGE('',*,*,#341,.F.);
#186=ORIENTED_EDGE('',*,*,#342,.T.);
#187=ORIENTED_EDGE('',*,*,#343,.T.);
#188=ORIENTED_EDGE('',*,*,#344,.F.);
#189=ORIENTED_EDGE('',*,*,#345,.T.);
#190=ORIENTED_EDGE('',*,*,#340,.T.);
#191=ORIENTED_EDGE('',*,*,#346,.F.);
#192=ORIENTED_EDGE('',*,*,#342,.F.);
#193=ORIENTED_EDGE('',*,*,#347,.F.);
#194=ORIENTED_EDGE('',*,*,#348,.T.);
#195=ORIENTED_EDGE('',*,*,#310,.T.);
#196=ORIENTED_EDGE('',*,*,#349,.F.);
#197=ORIENTED_EDGE('',*,*,#350,.T.);
#198=ORIENTED_EDGE('',*,*,#351,.F.);
#199=ORIENTED_EDGE('',*,*,#352,.T.);
#200=ORIENTED_EDGE('',*,*,#344,.T.);
#201=ORIENTED_EDGE('',*,*,#353,.F.);
#202=ORIENTED_EDGE('',*,*,#354,.F.);
#203=ORIENTED_EDGE('',*,*,#355,.T.);
#204=ORIENTED_EDGE('',*,*,#351,.T.);
#205=ORIENTED_EDGE('',*,*,#356,.F.);
#206=ORIENTED_EDGE('',*,*,#357,.T.);
#207=ORIENTED_EDGE('',*,*,#327,.F.);
#208=ORIENTED_EDGE('',*,*,#358,.F.);
#209=ORIENTED_EDGE('',*,*,#359,.F.);
#210=ORIENTED_EDGE('',*,*,#354,.T.);
#211=ORIENTED_EDGE('',*,*,#326,.T.);
#212=ORIENTED_EDGE('',*,*,#360,.F.);
#213=ORIENTED_EDGE('',*,*,#361,.F.);
#214=ORIENTED_EDGE('',*,*,#358,.T.);
#215=ORIENTED_EDGE('',*,*,#325,.T.);
#216=ORIENTED_EDGE('',*,*,#362,.F.);
#217=ORIENTED_EDGE('',*,*,#363,.T.);
#218=ORIENTED_EDGE('',*,*,#360,.T.);
#219=ORIENTED_EDGE('',*,*,#324,.F.);
#220=ORIENTED_EDGE('',*,*,#330,.F.);
#221=ORIENTED_EDGE('',*,*,#364,.F.);
#222=ORIENTED_EDGE('',*,*,#365,.T.);
#223=ORIENTED_EDGE('',*,*,#362,.T.);
#224=ORIENTED_EDGE('',*,*,#323,.F.);
#225=ORIENTED_EDGE('',*,*,#366,.F.);
#226=ORIENTED_EDGE('',*,*,#331,.F.);
#227=ORIENTED_EDGE('',*,*,#366,.T.);
#228=ORIENTED_EDGE('',*,*,#322,.F.);
#229=ORIENTED_EDGE('',*,*,#367,.F.);
#230=ORIENTED_EDGE('',*,*,#368,.F.);
#231=ORIENTED_EDGE('',*,*,#332,.T.);
#232=ORIENTED_EDGE('',*,*,#367,.T.);
#233=ORIENTED_EDGE('',*,*,#321,.T.);
#234=ORIENTED_EDGE('',*,*,#369,.F.);
#235=ORIENTED_EDGE('',*,*,#333,.T.);
#236=ORIENTED_EDGE('',*,*,#368,.T.);
#237=ORIENTED_EDGE('',*,*,#320,.T.);
#238=ORIENTED_EDGE('',*,*,#334,.F.);
#239=ORIENTED_EDGE('',*,*,#369,.T.);
#240=ORIENTED_EDGE('',*,*,#319,.F.);
#241=ORIENTED_EDGE('',*,*,#370,.F.);
#242=ORIENTED_EDGE('',*,*,#335,.F.);
#243=ORIENTED_EDGE('',*,*,#370,.T.);
#244=ORIENTED_EDGE('',*,*,#318,.F.);
#245=ORIENTED_EDGE('',*,*,#371,.F.);
#246=ORIENTED_EDGE('',*,*,#336,.F.);
#247=ORIENTED_EDGE('',*,*,#371,.T.);
#248=ORIENTED_EDGE('',*,*,#317,.F.);
#249=ORIENTED_EDGE('',*,*,#372,.F.);
#250=ORIENTED_EDGE('',*,*,#337,.F.);
#251=ORIENTED_EDGE('',*,*,#372,.T.);
#252=ORIENTED_EDGE('',*,*,#316,.F.);
#253=ORIENTED_EDGE('',*,*,#373,.F.);
#254=ORIENTED_EDGE('',*,*,#338,.F.);
#255=ORIENTED_EDGE('',*,*,#373,.T.);
#256=ORIENTED_EDGE('',*,*,#315,.F.);
#257=ORIENTED_EDGE('',*,*,#374,.F.);
#258=ORIENTED_EDGE('',*,*,#339,.F.);
#259=ORIENTED_EDGE('',*,*,#374,.T.);
#260=ORIENTED_EDGE('',*,*,#314,.F.);
#261=ORIENTED_EDGE('',*,*,#375,.F.);
#262=ORIENTED_EDGE('',*,*,#376,.F.);
#263=ORIENTED_EDGE('',*,*,#377,.F.);
#264=ORIENTED_EDGE('',*,*,#378,.T.);
#265=ORIENTED_EDGE('',*,*,#328,.T.);
#266=ORIENTED_EDGE('',*,*,#375,.T.);
#267=ORIENTED_EDGE('',*,*,#313,.T.);
#268=ORIENTED_EDGE('',*,*,#379,.F.);
#269=ORIENTED_EDGE('',*,*,#380,.T.);
#270=ORIENTED_EDGE('',*,*,#376,.T.);
#271=ORIENTED_EDGE('',*,*,#312,.F.);
#272=ORIENTED_EDGE('',*,*,#348,.F.);
#273=ORIENTED_EDGE('',*,*,#381,.F.);
#274=ORIENTED_EDGE('',*,*,#379,.T.);
#275=ORIENTED_EDGE('',*,*,#311,.T.);
#276=ORIENTED_EDGE('',*,*,#329,.F.);
#277=ORIENTED_EDGE('',*,*,#378,.F.);
#278=ORIENTED_EDGE('',*,*,#382,.T.);
#279=ORIENTED_EDGE('',*,*,#364,.T.);
#280=ORIENTED_EDGE('',*,*,#377,.T.);
#281=ORIENTED_EDGE('',*,*,#380,.F.);
#282=ORIENTED_EDGE('',*,*,#381,.T.);
#283=ORIENTED_EDGE('',*,*,#347,.T.);
#284=ORIENTED_EDGE('',*,*,#341,.T.);
#285=ORIENTED_EDGE('',*,*,#345,.F.);
#286=ORIENTED_EDGE('',*,*,#352,.F.);
#287=ORIENTED_EDGE('',*,*,#355,.F.);
#288=ORIENTED_EDGE('',*,*,#359,.T.);
#289=ORIENTED_EDGE('',*,*,#361,.T.);
#290=ORIENTED_EDGE('',*,*,#363,.F.);
#291=ORIENTED_EDGE('',*,*,#365,.F.);
#292=ORIENTED_EDGE('',*,*,#382,.F.);
#293=ORIENTED_EDGE('',*,*,#309,.F.);
#294=ORIENTED_EDGE('',*,*,#383,.F.);
#295=ORIENTED_EDGE('',*,*,#384,.T.);
#296=ORIENTED_EDGE('',*,*,#349,.T.);
#297=ORIENTED_EDGE('',*,*,#308,.T.);
#298=ORIENTED_EDGE('',*,*,#357,.F.);
#299=ORIENTED_EDGE('',*,*,#385,.F.);
#300=ORIENTED_EDGE('',*,*,#383,.T.);
#301=ORIENTED_EDGE('',*,*,#384,.F.);
#302=ORIENTED_EDGE('',*,*,#385,.T.);
#303=ORIENTED_EDGE('',*,*,#356,.T.);
#304=ORIENTED_EDGE('',*,*,#353,.T.);
#305=ORIENTED_EDGE('',*,*,#346,.T.);
#306=ORIENTED_EDGE('',*,*,#343,.F.);
#307=ORIENTED_EDGE('',*,*,#350,.F.);
#308=EDGE_CURVE('',#386,#387,#438,.T.);
#309=EDGE_CURVE('',#386,#388,#144,.T.);
#310=EDGE_CURVE('',#389,#388,#20,.T.);
#311=EDGE_CURVE('',#390,#389,#145,.T.);
#312=EDGE_CURVE('',#390,#391,#439,.T.);
#313=EDGE_CURVE('',#392,#391,#21,.T.);
#314=EDGE_CURVE('',#392,#393,#22,.T.);
#315=EDGE_CURVE('',#393,#394,#23,.T.);
#316=EDGE_CURVE('',#394,#395,#24,.T.);
#317=EDGE_CURVE('',#395,#396,#25,.T.);
#318=EDGE_CURVE('',#396,#397,#26,.T.);
#319=EDGE_CURVE('',#397,#398,#27,.T.);
#320=EDGE_CURVE('',#399,#398,#28,.T.);
#321=EDGE_CURVE('',#400,#399,#29,.T.);
#322=EDGE_CURVE('',#400,#401,#30,.T.);
#323=EDGE_CURVE('',#401,#402,#31,.T.);
#324=EDGE_CURVE('',#402,#403,#146,.T.);
#325=EDGE_CURVE('',#404,#403,#32,.T.);
#326=EDGE_CURVE('',#405,#404,#440,.T.);
#327=EDGE_CURVE('',#405,#387,#33,.T.);
#328=EDGE_CURVE('',#406,#407,#34,.T.);
#329=EDGE_CURVE('',#406,#408,#35,.T.);
#330=EDGE_CURVE('',#408,#409,#36,.T.);
#331=EDGE_CURVE('',#409,#410,#37,.T.);
#332=EDGE_CURVE('',#411,#410,#38,.T.);
#333=EDGE_CURVE('',#412,#411,#39,.T.);
#334=EDGE_CURVE('',#412,#413,#40,.T.);
#335=EDGE_CURVE('',#413,#414,#41,.T.);
#336=EDGE_CURVE('',#414,#415,#42,.T.);
#337=EDGE_CURVE('',#415,#416,#43,.T.);
#338=EDGE_CURVE('',#416,#417,#44,.T.);
#339=EDGE_CURVE('',#417,#407,#45,.T.);
#340=EDGE_CURVE('',#418,#419,#46,.T.);
#341=EDGE_CURVE('',#420,#418,#47,.T.);
#342=EDGE_CURVE('',#420,#421,#48,.T.);
#343=EDGE_CURVE('',#421,#419,#49,.T.);
#344=EDGE_CURVE('',#422,#423,#50,.T.);
#345=EDGE_CURVE('',#422,#418,#147,.T.);
#346=EDGE_CURVE('',#423,#419,#148,.T.);
#347=EDGE_CURVE('',#424,#420,#51,.T.);
#348=EDGE_CURVE('',#424,#389,#52,.T.);
#349=EDGE_CURVE('',#425,#388,#53,.T.);
#350=EDGE_CURVE('',#425,#421,#54,.T.);
#351=EDGE_CURVE('',#426,#427,#55,.T.);
#352=EDGE_CURVE('',#426,#422,#441,.T.);
#353=EDGE_CURVE('',#427,#423,#442,.T.);
#354=EDGE_CURVE('',#428,#405,#56,.T.);
#355=EDGE_CURVE('',#428,#426,#57,.T.);
#356=EDGE_CURVE('',#429,#427,#58,.T.);
#357=EDGE_CURVE('',#429,#387,#59,.T.);
#358=EDGE_CURVE('',#430,#404,#60,.T.);
#359=EDGE_CURVE('',#428,#430,#443,.T.);
#360=EDGE_CURVE('',#431,#403,#61,.T.);
#361=EDGE_CURVE('',#430,#431,#62,.T.);
#362=EDGE_CURVE('',#432,#402,#63,.T.);
#363=EDGE_CURVE('',#432,#431,#149,.T.);
#364=EDGE_CURVE('',#433,#408,#64,.T.);
#365=EDGE_CURVE('',#433,#432,#65,.T.);
#366=EDGE_CURVE('',#409,#401,#66,.T.);
#367=EDGE_CURVE('',#410,#400,#67,.T.);
#368=EDGE_CURVE('',#411,#399,#68,.T.);
#369=EDGE_CURVE('',#412,#398,#69,.T.);
#370=EDGE_CURVE('',#413,#397,#70,.T.);
#371=EDGE_CURVE('',#414,#396,#71,.T.);
#372=EDGE_CURVE('',#415,#395,#72,.T.);
#373=EDGE_CURVE('',#416,#394,#73,.T.);
#374=EDGE_CURVE('',#417,#393,#74,.T.);
#375=EDGE_CURVE('',#407,#392,#75,.T.);
#376=EDGE_CURVE('',#434,#391,#76,.T.);
#377=EDGE_CURVE('',#435,#434,#77,.T.);
#378=EDGE_CURVE('',#435,#406,#78,.T.);
#379=EDGE_CURVE('',#436,#390,#79,.T.);
#380=EDGE_CURVE('',#436,#434,#444,.T.);
#381=EDGE_CURVE('',#436,#424,#150,.T.);
#382=EDGE_CURVE('',#435,#433,#80,.T.);
#383=EDGE_CURVE('',#437,#386,#81,.T.);
#384=EDGE_CURVE('',#437,#425,#151,.T.);
#385=EDGE_CURVE('',#437,#429,#445,.T.);
#386=VERTEX_POINT('',#728);
#387=VERTEX_POINT('',#729);
#388=VERTEX_POINT('',#731);
#389=VERTEX_POINT('',#733);
#390=VERTEX_POINT('',#735);
#391=VERTEX_POINT('',#743);
#392=VERTEX_POINT('',#745);
#393=VERTEX_POINT('',#747);
#394=VERTEX_POINT('',#749);
#395=VERTEX_POINT('',#751);
#396=VERTEX_POINT('',#753);
#397=VERTEX_POINT('',#755);
#398=VERTEX_POINT('',#757);
#399=VERTEX_POINT('',#759);
#400=VERTEX_POINT('',#761);
#401=VERTEX_POINT('',#763);
#402=VERTEX_POINT('',#765);
#403=VERTEX_POINT('',#767);
#404=VERTEX_POINT('',#769);
#405=VERTEX_POINT('',#774);
#406=VERTEX_POINT('',#778);
#407=VERTEX_POINT('',#779);
#408=VERTEX_POINT('',#781);
#409=VERTEX_POINT('',#783);
#410=VERTEX_POINT('',#785);
#411=VERTEX_POINT('',#787);
#412=VERTEX_POINT('',#789);
#413=VERTEX_POINT('',#791);
#414=VERTEX_POINT('',#793);
#415=VERTEX_POINT('',#795);
#416=VERTEX_POINT('',#797);
#417=VERTEX_POINT('',#799);
#418=VERTEX_POINT('',#803);
#419=VERTEX_POINT('',#804);
#420=VERTEX_POINT('',#806);
#421=VERTEX_POINT('',#808);
#422=VERTEX_POINT('',#812);
#423=VERTEX_POINT('',#813);
#424=VERTEX_POINT('',#818);
#425=VERTEX_POINT('',#821);
#426=VERTEX_POINT('',#832);
#427=VERTEX_POINT('',#833);
#428=VERTEX_POINT('',#846);
#429=VERTEX_POINT('',#849);
#430=VERTEX_POINT('',#860);
#431=VERTEX_POINT('',#867);
#432=VERTEX_POINT('',#871);
#433=VERTEX_POINT('',#875);
#434=VERTEX_POINT('',#898);
#435=VERTEX_POINT('',#900);
#436=VERTEX_POINT('',#911);
#437=VERTEX_POINT('',#926);
#438=B_SPLINE_CURVE_WITH_KNOTS('',2,(#725,#726,#727),.UNSPECIFIED.,.F.,
 .F.,(3,3),(0.563632510579489,0.876726838734261),
 .PIECEWISE_BEZIER_KNOTS.);
#439=B_SPLINE_CURVE_WITH_KNOTS('',3,(#736,#737,#738,#739,#740,#741,#742),
 .UNSPECIFIED.,.F.,.F.,(4,3,4),(0.563632510579489,0.599290143123007,0.608636267482368),
 .PIECEWISE_BEZIER_KNOTS.);
#440=B_SPLINE_CURVE_WITH_KNOTS('',3,(#770,#771,#772,#773),.UNSPECIFIED.,
 .F.,.F.,(4,4),(0.00291595477129149,0.126694751173715),
 .PIECEWISE_BEZIER_KNOTS.);
#441=B_SPLINE_CURVE_WITH_KNOTS('',3,(#834,#835,#836,#837,#838),
 .UNSPECIFIED.,.F.,.F.,(4,1,4),(0.687252453246018,0.84345283592256,1.),
 .UNSPECIFIED.);
#442=B_SPLINE_CURVE_WITH_KNOTS('',3,(#839,#840,#841,#842,#843),
 .UNSPECIFIED.,.F.,.F.,(4,1,4),(0.687252453246018,0.84345283592256,1.),
 .UNSPECIFIED.);
#443=B_SPLINE_CURVE_WITH_KNOTS('',3,(#861,#862,#863,#864),.UNSPECIFIED.,
 .F.,.F.,(4,4),(0.00291595477129149,0.126694751173715),
 .PIECEWISE_BEZIER_KNOTS.);
#444=B_SPLINE_CURVE_WITH_KNOTS('',3,(#912,#913,#914,#915,#916,#917,#918),
 .UNSPECIFIED.,.F.,.F.,(4,3,4),(0.563632510579489,0.599290143123007,0.608636267482368),
 .PIECEWISE_BEZIER_KNOTS.);
#445=B_SPLINE_CURVE_WITH_KNOTS('',2,(#936,#937,#938),.UNSPECIFIED.,.F.,
 .F.,(3,3),(0.563632510579489,0.876726838734261),
 .PIECEWISE_BEZIER_KNOTS.);
#446=EDGE_LOOP('',(#152,#153,#154,#155,#156,#157,#158,#159,#160,#161,#162,
#163,#164,#165,#166,#167,#168,#169,#170,#171));
#447=EDGE_LOOP('',(#172,#173,#174,#175,#176,#177,#178,#179,#180,#181,#182,
#183));
#448=EDGE_LOOP('',(#184,#185,#186,#187));
#449=EDGE_LOOP('',(#188,#189,#190,#191));
#450=EDGE_LOOP('',(#192,#193,#194,#195,#196,#197));
#451=EDGE_LOOP('',(#198,#199,#200,#201));
#452=EDGE_LOOP('',(#202,#203,#204,#205,#206,#207));
#453=EDGE_LOOP('',(#208,#209,#210,#211));
#454=EDGE_LOOP('',(#212,#213,#214,#215));
#455=EDGE_LOOP('',(#216,#217,#218,#219));
#456=EDGE_LOOP('',(#220,#221,#222,#223,#224,#225));
#457=EDGE_LOOP('',(#226,#227,#228,#229));
#458=EDGE_LOOP('',(#230,#231,#232,#233));
#459=EDGE_LOOP('',(#234,#235,#236,#237));
#460=EDGE_LOOP('',(#238,#239,#240,#241));
#461=EDGE_LOOP('',(#242,#243,#244,#245));
#462=EDGE_LOOP('',(#246,#247,#248,#249));
#463=EDGE_LOOP('',(#250,#251,#252,#253));
#464=EDGE_LOOP('',(#254,#255,#256,#257));
#465=EDGE_LOOP('',(#258,#259,#260,#261));
#466=EDGE_LOOP('',(#262,#263,#264,#265,#266,#267));
#467=EDGE_LOOP('',(#268,#269,#270,#271));
#468=EDGE_LOOP('',(#272,#273,#274,#275));
#469=EDGE_LOOP('',(#276,#277,#278,#279));
#470=EDGE_LOOP('',(#280,#281,#282,#283,#284,#285,#286,#287,#288,#289,#290,
#291,#292));
#471=EDGE_LOOP('',(#293,#294,#295,#296));
#472=EDGE_LOOP('',(#297,#298,#299,#300));
#473=EDGE_LOOP('',(#301,#302,#303,#304,#305,#306,#307));
#474=FACE_BOUND('',#446,.T.);
#475=FACE_BOUND('',#447,.T.);
#476=FACE_BOUND('',#448,.T.);
#477=FACE_BOUND('',#449,.T.);
#478=FACE_BOUND('',#450,.T.);
#479=FACE_BOUND('',#451,.T.);
#480=FACE_BOUND('',#452,.T.);
#481=FACE_BOUND('',#453,.T.);
#482=FACE_BOUND('',#454,.T.);
#483=FACE_BOUND('',#455,.T.);
#484=FACE_BOUND('',#456,.T.);
#485=FACE_BOUND('',#457,.T.);
#486=FACE_BOUND('',#458,.T.);
#487=FACE_BOUND('',#459,.T.);
#488=FACE_BOUND('',#460,.T.);
#489=FACE_BOUND('',#461,.T.);
#490=FACE_BOUND('',#462,.T.);
#491=FACE_BOUND('',#463,.T.);
#492=FACE_BOUND('',#464,.T.);
#493=FACE_BOUND('',#465,.T.);
#494=FACE_BOUND('',#466,.T.);
#495=FACE_BOUND('',#467,.T.);
#496=FACE_BOUND('',#468,.T.);
#497=FACE_BOUND('',#469,.T.);
#498=FACE_BOUND('',#470,.T.);
#499=FACE_BOUND('',#471,.T.);
#500=FACE_BOUND('',#472,.T.);
#501=FACE_BOUND('',#473,.T.);
#502=PLANE('',#563);
#503=PLANE('',#567);
#504=PLANE('',#568);
#505=PLANE('',#572);
#506=PLANE('',#573);
#507=PLANE('',#574);
#508=PLANE('',#577);
#509=PLANE('',#578);
#510=PLANE('',#579);
#511=PLANE('',#580);
#512=PLANE('',#581);
#513=PLANE('',#582);
#514=PLANE('',#583);
#515=PLANE('',#584);
#516=PLANE('',#585);
#517=PLANE('',#586);
#518=PLANE('',#587);
#519=PLANE('',#590);
#520=PLANE('',#591);
#521=PLANE('',#594);
#522=ADVANCED_FACE('',(#474),#502,.T.);
#523=ADVANCED_FACE('',(#475),#503,.F.);
#524=ADVANCED_FACE('',(#476),#504,.F.);
#525=ADVANCED_FACE('',(#477),#16,.T.);
#526=ADVANCED_FACE('',(#478),#505,.F.);
#527=ADVANCED_FACE('',(#479),#12,.T.);
#528=ADVANCED_FACE('',(#480),#506,.T.);
#529=ADVANCED_FACE('',(#481),#13,.F.);
#530=ADVANCED_FACE('',(#482),#507,.F.);
#531=ADVANCED_FACE('',(#483),#17,.F.);
#532=ADVANCED_FACE('',(#484),#508,.T.);
#533=ADVANCED_FACE('',(#485),#509,.T.);
#534=ADVANCED_FACE('',(#486),#510,.F.);
#535=ADVANCED_FACE('',(#487),#511,.F.);
#536=ADVANCED_FACE('',(#488),#512,.T.);
#537=ADVANCED_FACE('',(#489),#513,.T.);
#538=ADVANCED_FACE('',(#490),#514,.T.);
#539=ADVANCED_FACE('',(#491),#515,.T.);
#540=ADVANCED_FACE('',(#492),#516,.T.);
#541=ADVANCED_FACE('',(#493),#517,.T.);
#542=ADVANCED_FACE('',(#494),#518,.F.);
#543=ADVANCED_FACE('',(#495),#14,.T.);
#544=ADVANCED_FACE('',(#496),#18,.F.);
#545=ADVANCED_FACE('',(#497),#519,.T.);
#546=ADVANCED_FACE('',(#498),#520,.F.);
#547=ADVANCED_FACE('',(#499),#19,.F.);
#548=ADVANCED_FACE('',(#500),#15,.F.);
#549=ADVANCED_FACE('',(#501),#521,.T.);
#550=CLOSED_SHELL('',(#522,#523,#524,#525,#526,#527,#528,#529,#530,#531,
#532,#533,#534,#535,#536,#537,#538,#539,#540,#541,#542,#543,#544,#545,#546,
#547,#548,#549));
#551=STYLED_ITEM('',(#552),#559);
#552=PRESENTATION_STYLE_ASSIGNMENT((#553));
#553=SURFACE_STYLE_USAGE(.BOTH.,#554);
#554=SURFACE_SIDE_STYLE('',(#555));
#555=SURFACE_STYLE_FILL_AREA(#556);
#556=FILL_AREA_STYLE('',(#557));
#557=FILL_AREA_STYLE_COLOUR('',#558);
#558=COLOUR_RGB('',0.615686274509804,0.811764705882353,0.929411764705882);
#559=MANIFOLD_SOLID_BREP('Part 1',#550);
#560=SHAPE_DEFINITION_REPRESENTATION(#946,#561);
#561=SHAPE_REPRESENTATION('Part 1',(#562),#941);
#562=AXIS2_PLACEMENT_3D('',#723,#595,#596);
#563=AXIS2_PLACEMENT_3D('',#724,#597,#598);
#564=AXIS2_PLACEMENT_3D('',#730,#599,#600);
#565=AXIS2_PLACEMENT_3D('',#734,#602,#603);
#566=AXIS2_PLACEMENT_3D('',#766,#615,#616);
#567=AXIS2_PLACEMENT_3D('',#776,#619,#620);
#568=AXIS2_PLACEMENT_3D('',#801,#633,#634);
#569=AXIS2_PLACEMENT_3D('',#810,#639,#640);
#570=AXIS2_PLACEMENT_3D('',#814,#642,#643);
#571=AXIS2_PLACEMENT_3D('',#815,#644,#645);
#572=AXIS2_PLACEMENT_3D('',#816,#646,#647);
#573=AXIS2_PLACEMENT_3D('',#844,#653,#654);
#574=AXIS2_PLACEMENT_3D('',#865,#660,#661);
#575=AXIS2_PLACEMENT_3D('',#869,#664,#665);
#576=AXIS2_PLACEMENT_3D('',#872,#667,#668);
#577=AXIS2_PLACEMENT_3D('',#873,#669,#670);
#578=AXIS2_PLACEMENT_3D('',#878,#674,#675);
#579=AXIS2_PLACEMENT_3D('',#880,#677,#678);
#580=AXIS2_PLACEMENT_3D('',#882,#680,#681);
#581=AXIS2_PLACEMENT_3D('',#884,#683,#684);
#582=AXIS2_PLACEMENT_3D('',#886,#686,#687);
#583=AXIS2_PLACEMENT_3D('',#888,#689,#690);
#584=AXIS2_PLACEMENT_3D('',#890,#692,#693);
#585=AXIS2_PLACEMENT_3D('',#892,#695,#696);
#586=AXIS2_PLACEMENT_3D('',#894,#698,#699);
#587=AXIS2_PLACEMENT_3D('',#896,#701,#702);
#588=AXIS2_PLACEMENT_3D('',#919,#707,#708);
#589=AXIS2_PLACEMENT_3D('',#920,#709,#710);
#590=AXIS2_PLACEMENT_3D('',#921,#711,#712);
#591=AXIS2_PLACEMENT_3D('',#923,#714,#715);
#592=AXIS2_PLACEMENT_3D('',#924,#716,#717);
#593=AXIS2_PLACEMENT_3D('',#927,#719,#720);
#594=AXIS2_PLACEMENT_3D('',#939,#721,#722);
#595=DIRECTION('',(0.,0.,1.));
#596=DIRECTION('',(1.,0.,0.));
#597=DIRECTION('',(0.,-1.,0.));
#598=DIRECTION('',(1.,0.,0.));
#599=DIRECTION('',(0.,-1.,0.));
#600=DIRECTION('',(0.,0.,-1.));
#601=DIRECTION('',(-1.,0.,-1.36419014472312E-16));
#602=DIRECTION('',(0.,-1.,0.));
#603=DIRECTION('',(0.,0.,-1.));
#604=DIRECTION('',(0.,0.,1.));
#605=DIRECTION('',(-1.,0.,0.));
#606=DIRECTION('',(0.,0.,-1.));
#607=DIRECTION('',(1.,0.,0.));
#608=DIRECTION('',(0.,0.,-1.));
#609=DIRECTION('',(1.,0.,0.));
#610=DIRECTION('',(0.,0.,1.));
#611=DIRECTION('',(-1.,0.,0.));
#612=DIRECTION('',(0.,0.,-1.));
#613=DIRECTION('',(-1.,0.,0.));
#614=DIRECTION('',(0.,0.,1.));
#615=DIRECTION('',(-1.21240918297291E-15,1.,4.43911556752086E-15));
#616=DIRECTION('',(-0.269773152160902,-4.60023634703224E-15,0.96292390476775));
#617=DIRECTION('',(-0.966973537069699,-1.50875076597068E-35,-0.254876791032284));
#618=DIRECTION('',(0.,0.,1.));
#619=DIRECTION('',(0.,-1.,0.));
#620=DIRECTION('',(1.,0.,0.));
#621=DIRECTION('',(0.,0.,-1.));
#622=DIRECTION('',(1.,0.,0.));
#623=DIRECTION('',(0.,0.,-1.));
#624=DIRECTION('',(1.,0.,0.));
#625=DIRECTION('',(0.,0.,1.));
#626=DIRECTION('',(1.,0.,0.));
#627=DIRECTION('',(0.,0.,-1.));
#628=DIRECTION('',(-1.,0.,0.));
#629=DIRECTION('',(0.,0.,1.));
#630=DIRECTION('',(-1.,0.,0.));
#631=DIRECTION('',(0.,0.,1.));
#632=DIRECTION('',(1.,0.,0.));
#633=DIRECTION('',(1.,0.,0.));
#634=DIRECTION('',(0.,0.,-1.));
#635=DIRECTION('',(0.,-1.,0.));
#636=DIRECTION('',(0.,0.,1.));
#637=DIRECTION('',(0.,-1.,0.));
#638=DIRECTION('',(0.,0.,1.));
#639=DIRECTION('',(0.,-1.,0.));
#640=DIRECTION('',(0.,0.,-1.));
#641=DIRECTION('',(0.,-1.,0.));
#642=DIRECTION('',(0.,-1.,0.));
#643=DIRECTION('',(0.,0.,-1.));
#644=DIRECTION('',(0.,-1.,0.));
#645=DIRECTION('',(0.,0.,-1.));
#646=DIRECTION('',(-1.36419014472312E-16,0.,1.));
#647=DIRECTION('',(1.,0.,1.36419014472312E-16));
#648=DIRECTION('',(-1.,0.,-1.36419014472312E-16));
#649=DIRECTION('',(0.,-1.,0.));
#650=DIRECTION('',(0.,1.,0.));
#651=DIRECTION('',(-1.,0.,-1.36419014472312E-16));
#652=DIRECTION('',(0.,-1.,0.));
#653=DIRECTION('',(1.,0.,0.));
#654=DIRECTION('',(0.,0.,-1.));
#655=DIRECTION('',(0.,-1.,0.));
#656=DIRECTION('',(0.,0.,1.));
#657=DIRECTION('',(0.,0.,1.));
#658=DIRECTION('',(0.,1.,0.));
#659=DIRECTION('',(0.,-1.,0.));
#660=DIRECTION('',(-0.254876791032284,-1.07293841864403E-26,0.9669735370697));
#661=DIRECTION('',(-0.966973537069699,-1.50875076597068E-35,-0.254876791032284));
#662=DIRECTION('',(0.,-1.,0.));
#663=DIRECTION('',(-0.966973537069699,0.,-0.254876791032284));
#664=DIRECTION('',(0.,-1.,0.));
#665=DIRECTION('',(-0.263486854851679,0.,0.964662986394922));
#666=DIRECTION('',(0.,-1.,0.));
#667=DIRECTION('',(-6.28150173268829E-14,1.,2.29990934748709E-13));
#668=DIRECTION('',(-0.269773152160902,-2.38413695670785E-13,0.96292390476775));
#669=DIRECTION('',(1.,0.,0.));
#670=DIRECTION('',(0.,0.,-1.));
#671=DIRECTION('',(0.,-1.,0.));
#672=DIRECTION('',(0.,0.,1.));
#673=DIRECTION('',(0.,-1.,0.));
#674=DIRECTION('',(0.,0.,1.));
#675=DIRECTION('',(1.,0.,0.));
#676=DIRECTION('',(0.,-1.,0.));
#677=DIRECTION('',(-1.,0.,0.));
#678=DIRECTION('',(0.,0.,1.));
#679=DIRECTION('',(0.,-1.,0.));
#680=DIRECTION('',(0.,0.,1.));
#681=DIRECTION('',(1.,0.,0.));
#682=DIRECTION('',(0.,-1.,0.));
#683=DIRECTION('',(1.,0.,0.));
#684=DIRECTION('',(0.,0.,-1.));
#685=DIRECTION('',(0.,-1.,0.));
#686=DIRECTION('',(0.,0.,-1.));
#687=DIRECTION('',(-1.,0.,0.));
#688=DIRECTION('',(0.,-1.,0.));
#689=DIRECTION('',(-1.,0.,0.));
#690=DIRECTION('',(0.,0.,1.));
#691=DIRECTION('',(0.,-1.,0.));
#692=DIRECTION('',(0.,0.,-1.));
#693=DIRECTION('',(-1.,0.,0.));
#694=DIRECTION('',(0.,-1.,0.));
#695=DIRECTION('',(-1.,0.,0.));
#696=DIRECTION('',(0.,0.,1.));
#697=DIRECTION('',(0.,-1.,0.));
#698=DIRECTION('',(0.,0.,1.));
#699=DIRECTION('',(1.,0.,0.));
#700=DIRECTION('',(0.,-1.,0.));
#701=DIRECTION('',(1.,0.,0.));
#702=DIRECTION('',(0.,0.,-1.));
#703=DIRECTION('',(0.,-1.,0.));
#704=DIRECTION('',(0.,0.,1.));
#705=DIRECTION('',(0.,-1.,0.));
#706=DIRECTION('',(0.,-1.,0.));
#707=DIRECTION('',(0.,-1.,0.));
#708=DIRECTION('',(0.,0.,-1.));
#709=DIRECTION('',(0.,-1.,0.));
#710=DIRECTION('',(0.,0.,-1.));
#711=DIRECTION('',(0.,0.,-1.));
#712=DIRECTION('',(-1.,0.,0.));
#713=DIRECTION('',(1.,0.,0.));
#714=DIRECTION('',(0.,-1.,0.));
#715=DIRECTION('',(1.,0.,0.));
#716=DIRECTION('',(0.,1.,0.));
#717=DIRECTION('',(0.,0.,1.));
#718=DIRECTION('',(0.,1.,0.));
#719=DIRECTION('',(0.,-1.,0.));
#720=DIRECTION('',(0.,0.,-1.));
#721=DIRECTION('',(0.,-1.,0.));
#722=DIRECTION('',(1.,0.,0.));
#723=CARTESIAN_POINT('',(0.,0.,0.));
#724=CARTESIAN_POINT('',(0.0049891322409002,-0.0015,0.00303519691042733));
#725=CARTESIAN_POINT('',(-0.0028044432047356,-0.0015,0.00317277767903814));
#726=CARTESIAN_POINT('',(0.00513671319543767,-0.0015,0.00795462418654263));
#727=CARTESIAN_POINT('',(0.0174891322201319,-0.0015,0.00930548865275304));
#728=CARTESIAN_POINT('',(-0.00280444320473561,-0.0015,0.00317277767903816));
#729=CARTESIAN_POINT('',(0.0171891322393045,-0.0015,0.00927210096705773));
#730=CARTESIAN_POINT('',(0.00544924786336007,-0.0015,-0.0105340302554314));
#731=CARTESIAN_POINT('',(-0.00671533585115843,-0.0015,-0.000140623544806066));
#732=CARTESIAN_POINT('',(-0.00651664614197834,-0.0015,-0.000140623544806066));
#733=CARTESIAN_POINT('',(-0.00631795643279826,-0.0015,-0.000140623544806066));
#734=CARTESIAN_POINT('',(0.00544924786335836,-0.0015,-0.0105340302554291));
#735=CARTESIAN_POINT('',(-0.00264968649720879,-0.0015,0.00291577503026686));
#736=CARTESIAN_POINT('',(-0.00264968649720879,-0.0015,0.00291577503026686));
#737=CARTESIAN_POINT('',(-0.00205223568341732,-0.0015,0.00327553599496366));
#738=CARTESIAN_POINT('',(-0.00143563372857483,-0.0015,0.00362073791143663));
#739=CARTESIAN_POINT('',(-0.000799895116741966,-0.0015,0.00395134417054134));
#740=CARTESIAN_POINT('',(-0.000633263411202181,-0.0015,0.00403799847121048));
#741=CARTESIAN_POINT('',(-0.000466631705662397,-0.0015,0.00412465277187962));
#742=CARTESIAN_POINT('',(-0.000300000000122612,-0.0015,0.00421130707254875));
#743=CARTESIAN_POINT('',(-0.000300000000122611,-0.0015,0.00421130707254875));
#744=CARTESIAN_POINT('',(-0.000300000000122611,-0.0015,0.00310565353627439));
#745=CARTESIAN_POINT('',(-0.000300000000122611,-0.0015,0.002));
#746=CARTESIAN_POINT('',(-0.0014,-0.0015,0.002));
#747=CARTESIAN_POINT('',(-0.0023,-0.0015,0.002));
#748=CARTESIAN_POINT('',(-0.0023,-0.0015,0.00125));
#749=CARTESIAN_POINT('',(-0.0023,-0.0015,0.000500000000000009));
#750=CARTESIAN_POINT('',(-0.00140000000006131,-0.0015,0.000500000000000009));
#751=CARTESIAN_POINT('',(-0.000300000000122611,-0.0015,0.000500000000000009));
#752=CARTESIAN_POINT('',(-0.000300000000122611,-0.0015,-0.000325655968248367));
#753=CARTESIAN_POINT('',(-0.000300000000122611,-0.0015,-0.00145031193649674));
#754=CARTESIAN_POINT('',(0.0034999999999387,-0.0015,-0.00145031193649674));
#755=CARTESIAN_POINT('',(0.0073,-0.0015,-0.00145031193649674));
#756=CARTESIAN_POINT('',(0.0073,-0.0015,-0.000475155968248367));
#757=CARTESIAN_POINT('',(0.0073,-0.0015,0.000500000000000009));
#758=CARTESIAN_POINT('',(0.0074,-0.0015,0.000500000000000009));
#759=CARTESIAN_POINT('',(0.0113,-0.0015,0.000500000000000009));
#760=CARTESIAN_POINT('',(0.0113,-0.0015,0.00125));
#761=CARTESIAN_POINT('',(0.0113,-0.0015,0.002));
#762=CARTESIAN_POINT('',(0.0094,-0.0015,0.002));
#763=CARTESIAN_POINT('',(0.0073,-0.0015,0.002));
#764=CARTESIAN_POINT('',(0.0073,-0.0015,0.00454657487487001));
#765=CARTESIAN_POINT('',(0.0073,-0.0015,0.00709314974974001));
#766=CARTESIAN_POINT('',(0.0213641657879524,-0.00149999999999976,-0.0431072550324186));
#767=CARTESIAN_POINT('',(0.00795782652800463,-0.00149999994999002,0.00727286313625715));
#768=CARTESIAN_POINT('',(0.00807921265109669,-0.0015,0.00730490759047892));
#769=CARTESIAN_POINT('',(0.00820077667979502,-0.0015,0.00733685249596409));
#770=CARTESIAN_POINT('',(0.0171891322331931,-0.0015,0.00896989073119743));
#771=CARTESIAN_POINT('',(0.013961727664308,-0.0015,0.00860301800555093));
#772=CARTESIAN_POINT('',(0.0109654921758617,-0.0015,0.0080585923987263));
#773=CARTESIAN_POINT('',(0.00820077667979497,-0.0015,0.00733685249596408));
#774=CARTESIAN_POINT('',(0.0171891322393045,-0.0015,0.00896989073119743));
#775=CARTESIAN_POINT('',(0.0171891322393045,-0.0015,0.00912099584912758));
#776=CARTESIAN_POINT('',(0.112899884481068,0.0025,-0.0461430818611392));
#777=CARTESIAN_POINT('',(-0.000300000000122611,0.0025,0.00310565353627439));
#778=CARTESIAN_POINT('',(-0.000300000000122611,0.0025,0.00337466148567221));
#779=CARTESIAN_POINT('',(-0.000300000000122611,0.0025,0.002));
#780=CARTESIAN_POINT('',(0.0033999999999387,0.0025,0.00337466148567221));
#781=CARTESIAN_POINT('',(0.0073,0.0025,0.00337466148567221));
#782=CARTESIAN_POINT('',(0.0073,0.0025,0.00454657487487001));
#783=CARTESIAN_POINT('',(0.0073,0.0025,0.002));
#784=CARTESIAN_POINT('',(0.0094,0.0025,0.002));
#785=CARTESIAN_POINT('',(0.0113,0.0025,0.002));
#786=CARTESIAN_POINT('',(0.0113,0.0025,0.00125));
#787=CARTESIAN_POINT('',(0.0113,0.0025,0.000500000000000009));
#788=CARTESIAN_POINT('',(0.0074,0.0025,0.000500000000000009));
#789=CARTESIAN_POINT('',(0.0073,0.0025,0.000500000000000009));
#790=CARTESIAN_POINT('',(0.0073,0.0025,-0.000475155968248367));
#791=CARTESIAN_POINT('',(0.0073,0.0025,-0.00145031193649674));
#792=CARTESIAN_POINT('',(0.0034999999999387,0.0025,-0.00145031193649674));
#793=CARTESIAN_POINT('',(-0.000300000000122611,0.0025,-0.00145031193649674));
#794=CARTESIAN_POINT('',(-0.000300000000122611,0.0025,-0.000325655968248367));
#795=CARTESIAN_POINT('',(-0.000300000000122611,0.0025,0.000500000000000009));
#796=CARTESIAN_POINT('',(-0.00140000000006131,0.0025,0.000500000000000009));
#797=CARTESIAN_POINT('',(-0.0023,0.0025,0.000500000000000009));
#798=CARTESIAN_POINT('',(-0.0023,0.0025,0.00125));
#799=CARTESIAN_POINT('',(-0.0023,0.0025,0.002));
#800=CARTESIAN_POINT('',(-0.0014,0.0025,0.002));
#801=CARTESIAN_POINT('',(-0.00751086775909981,0.002502,0.00126353295017134));
#802=CARTESIAN_POINT('',(-0.00751086775909981,0.002502,0.00266768944514875));
#803=CARTESIAN_POINT('',(-0.00751086775909981,0.0065,0.00266768944514875));
#804=CARTESIAN_POINT('',(-0.00751086775909981,-0.0055,0.00266768944514875));
#805=CARTESIAN_POINT('',(-0.00751086775909981,0.0065,0.00126353295017134));
#806=CARTESIAN_POINT('',(-0.00751086775909981,0.0065,-0.000140623544806067));
#807=CARTESIAN_POINT('',(-0.00751086775909981,0.002502,-0.000140623544806067));
#808=CARTESIAN_POINT('',(-0.00751086775909981,-0.0055,-0.000140623544806067));
#809=CARTESIAN_POINT('',(-0.00751086775909981,-0.0055,0.00126353295017134));
#810=CARTESIAN_POINT('',(0.00544924786335838,0.002502,-0.0105340302554291));
#811=CARTESIAN_POINT('',(-0.00409408243413128,0.002502,0.00531446641880237));
#812=CARTESIAN_POINT('',(-0.00409408243413128,0.0065,0.00531446641880237));
#813=CARTESIAN_POINT('',(-0.00409408243413128,-0.0055,0.00531446641880237));
#814=CARTESIAN_POINT('',(0.00544924786335838,0.0065,-0.0105340302554291));
#815=CARTESIAN_POINT('',(0.00544924786335838,-0.0055,-0.0105340302554291));
#816=CARTESIAN_POINT('',(-0.00651664614197834,0.002502,-0.000140623544806066));
#817=CARTESIAN_POINT('',(-0.00651664614197834,0.0065,-0.000140623544806066));
#818=CARTESIAN_POINT('',(-0.00631795643279826,0.0065,-0.000140623544806066));
#819=CARTESIAN_POINT('',(-0.00631795643279826,0.002502,-0.000140623544806066));
#820=CARTESIAN_POINT('',(-0.00671533585115843,-0.0055,-0.000140623544806066));
#821=CARTESIAN_POINT('',(-0.00671533585115843,-0.0055,-0.000140623544806066));
#822=CARTESIAN_POINT('',(-0.00651664614197834,-0.0055,-0.000140623544806066));
#823=CARTESIAN_POINT('',(0.0171891322393037,0.0065,0.0117875807862836));
#824=CARTESIAN_POINT('',(0.0171891322393037,-0.0055,0.0117875807862836));
#825=CARTESIAN_POINT('',(0.0087073251261975,0.0065,0.0108570379064572));
#826=CARTESIAN_POINT('',(0.0087073251261975,-0.0055,0.0108570379064572));
#827=CARTESIAN_POINT('',(0.00159532507616251,0.0065,0.0087403998801079));
#828=CARTESIAN_POINT('',(0.00159532507616251,-0.0055,0.0087403998801079));
#829=CARTESIAN_POINT('',(-0.0040940824341258,0.0065,0.00531446641879887));
#830=CARTESIAN_POINT('',(-0.0040940824341258,-0.0055,0.00531446641879887));
#831=CARTESIAN_POINT('',(0.0171891322393045,0.002502,0.0117875807734882));
#832=CARTESIAN_POINT('',(0.0171891322393045,0.0065,0.0117875807734882));
#833=CARTESIAN_POINT('',(0.0171891322393045,-0.0055,0.0117875807734882));
#834=CARTESIAN_POINT('',(0.0171891322393037,0.0065,0.0117875807862836));
#835=CARTESIAN_POINT('',(0.0129529310904647,0.0065,0.0113228252496394));
#836=CARTESIAN_POINT('',(0.00516356402857478,0.0065,0.00979914260536454));
#837=CARTESIAN_POINT('',(-0.00124622440850506,0.0065,0.00702933252487204));
#838=CARTESIAN_POINT('',(-0.0040940824341258,0.0065,0.00531446641879887));
#839=CARTESIAN_POINT('',(0.0171891322393037,-0.0055,0.0117875807862836));
#840=CARTESIAN_POINT('',(0.0129529310904647,-0.0055,0.0113228252496394));
#841=CARTESIAN_POINT('',(0.00516356402857478,-0.0055,0.00979914260536454));
#842=CARTESIAN_POINT('',(-0.00124622440850506,-0.0055,0.00702933252487204));
#843=CARTESIAN_POINT('',(-0.0040940824341258,-0.0055,0.00531446641879887));
#844=CARTESIAN_POINT('',(0.0171891322393045,0.002502,0.00912099584912758));
#845=CARTESIAN_POINT('',(0.0171891322393045,0.002502,0.00896989073119743));
#846=CARTESIAN_POINT('',(0.0171891322393045,0.0065,0.00896989073119743));
#847=CARTESIAN_POINT('',(0.0171891322393045,0.0065,0.00912099584912758));
#848=CARTESIAN_POINT('',(0.0171891322393045,-0.0055,0.00912099584912758));
#849=CARTESIAN_POINT('',(0.0171891322393045,-0.0055,0.00927210096705773));
#850=CARTESIAN_POINT('',(0.0171891322393045,-0.0055,0.00927210096705773));
#851=CARTESIAN_POINT('',(0.0171891322331931,0.0065,0.00896989073119743));
#852=CARTESIAN_POINT('',(0.0171891322331931,-0.0015,0.00896989073119743));
#853=CARTESIAN_POINT('',(0.013961727664308,0.0065,0.00860301800555093));
#854=CARTESIAN_POINT('',(0.013961727664308,-0.0015,0.00860301800555093));
#855=CARTESIAN_POINT('',(0.0109654921758617,0.0065,0.0080585923987263));
#856=CARTESIAN_POINT('',(0.0109654921758617,-0.0015,0.0080585923987263));
#857=CARTESIAN_POINT('',(0.00820077667979497,0.0065,0.00733685249596408));
#858=CARTESIAN_POINT('',(0.00820077667979497,-0.0015,0.00733685249596408));
#859=CARTESIAN_POINT('',(0.00820077667979502,0.002502,0.00733685249596409));
#860=CARTESIAN_POINT('',(0.00820077667979502,0.0065,0.00733685249596409));
#861=CARTESIAN_POINT('',(0.0171891322331931,0.0065,0.00896989073119743));
#862=CARTESIAN_POINT('',(0.013961727664308,0.0065,0.00860301800555093));
#863=CARTESIAN_POINT('',(0.0109654921758617,0.0065,0.0080585923987263));
#864=CARTESIAN_POINT('',(0.00820077667979497,0.0065,0.00733685249596408));
#865=CARTESIAN_POINT('',(0.00807921265109669,0.00250199999899451,0.00730490759047892));
#866=CARTESIAN_POINT('',(0.00795783811685526,0.002502,0.00727281819081878));
#867=CARTESIAN_POINT('',(0.00795782652800463,0.00649999994999002,0.00727286313625715));
#868=CARTESIAN_POINT('',(0.00452311093478031,0.0065,0.00636758329018239));
#869=CARTESIAN_POINT('',(0.0213376637005927,0.002502,-0.0430099233975876));
#870=CARTESIAN_POINT('',(0.0073,0.002502,0.00709314974974001));
#871=CARTESIAN_POINT('',(0.0073,0.0065,0.00709314974974001));
#872=CARTESIAN_POINT('',(0.0213641657879524,0.00650000000001243,-0.0431072550324186));
#873=CARTESIAN_POINT('',(0.0073,0.002502,0.00454657487487001));
#874=CARTESIAN_POINT('',(0.0073,0.0065,0.00337466148567221));
#875=CARTESIAN_POINT('',(0.0073,0.0065,0.00337466148567221));
#876=CARTESIAN_POINT('',(0.0073,0.0065,0.00454657487487001));
#877=CARTESIAN_POINT('',(0.0073,0.002502,0.002));
#878=CARTESIAN_POINT('',(0.0094,0.002502,0.002));
#879=CARTESIAN_POINT('',(0.0113,0.002502,0.002));
#880=CARTESIAN_POINT('',(0.0113,0.002502,0.00125));
#881=CARTESIAN_POINT('',(0.0113,0.002502,0.000500000000000009));
#882=CARTESIAN_POINT('',(0.0074,0.002502,0.000500000000000009));
#883=CARTESIAN_POINT('',(0.0073,0.002502,0.000500000000000009));
#884=CARTESIAN_POINT('',(0.0073,0.002502,-0.000475155968248367));
#885=CARTESIAN_POINT('',(0.0073,0.002502,-0.00145031193649674));
#886=CARTESIAN_POINT('',(0.0034999999999387,0.002502,-0.00145031193649674));
#887=CARTESIAN_POINT('',(-0.000300000000122611,0.002502,-0.00145031193649674));
#888=CARTESIAN_POINT('',(-0.000300000000122611,0.002502,-0.000325655968248367));
#889=CARTESIAN_POINT('',(-0.000300000000122611,0.002502,0.000500000000000009));
#890=CARTESIAN_POINT('',(-0.00140000000006131,0.002502,0.000500000000000009));
#891=CARTESIAN_POINT('',(-0.0023,0.002502,0.000500000000000009));
#892=CARTESIAN_POINT('',(-0.0023,0.002502,0.00125));
#893=CARTESIAN_POINT('',(-0.0023,0.002502,0.002));
#894=CARTESIAN_POINT('',(-0.0014,0.002502,0.002));
#895=CARTESIAN_POINT('',(-0.000300000000122611,0.002502,0.002));
#896=CARTESIAN_POINT('',(-0.000300000000122611,0.002502,0.00310565353627439));
#897=CARTESIAN_POINT('',(-0.000300000000122611,0.002502,0.00421130707254875));
#898=CARTESIAN_POINT('',(-0.000300000000122611,0.0065,0.00421130707254875));
#899=CARTESIAN_POINT('',(-0.000300000000122611,0.0065,0.00310565353627439));
#900=CARTESIAN_POINT('',(-0.000300000000122611,0.0065,0.00337466148567221));
#901=CARTESIAN_POINT('',(-0.000300000000122611,0.0065,0.00337466148567221));
#902=CARTESIAN_POINT('',(-0.00264968649720879,0.0065,0.00291577503026686));
#903=CARTESIAN_POINT('',(-0.00264968649720879,-0.0015,0.00291577503026686));
#904=CARTESIAN_POINT('',(-0.00189563948770854,0.0065,0.0033698319556278));
#905=CARTESIAN_POINT('',(-0.00189563948770854,-0.0015,0.0033698319556278));
#906=CARTESIAN_POINT('',(-0.00110237031749522,0.0065,0.00379404651277493));
#907=CARTESIAN_POINT('',(-0.00110237031749522,-0.0015,0.00379404651277493));
#908=CARTESIAN_POINT('',(-0.000300000000122612,0.0065,0.00421130707254875));
#909=CARTESIAN_POINT('',(-0.000300000000122612,-0.0015,0.00421130707254875));
#910=CARTESIAN_POINT('',(-0.00264968649720879,0.002502,0.00291577503026686));
#911=CARTESIAN_POINT('',(-0.00264968649720879,0.0065,0.00291577503026686));
#912=CARTESIAN_POINT('',(-0.00264968649720879,0.0065,0.00291577503026686));
#913=CARTESIAN_POINT('',(-0.00205223568341732,0.0065,0.00327553599496366));
#914=CARTESIAN_POINT('',(-0.00143563372857483,0.0065,0.00362073791143663));
#915=CARTESIAN_POINT('',(-0.000799895116741966,0.0065,0.00395134417054134));
#916=CARTESIAN_POINT('',(-0.000633263411202181,0.0065,0.00403799847121048));
#917=CARTESIAN_POINT('',(-0.000466631705662397,0.0065,0.00412465277187962));
#918=CARTESIAN_POINT('',(-0.000300000000122612,0.0065,0.00421130707254875));
#919=CARTESIAN_POINT('',(0.00544924786335836,0.002502,-0.0105340302554291));
#920=CARTESIAN_POINT('',(0.00544924786335836,0.0065,-0.0105340302554291));
#921=CARTESIAN_POINT('',(0.0033999999999387,0.0065,0.00337466148567221));
#922=CARTESIAN_POINT('',(0.0033999999999387,0.0065,0.00337466148567221));
#923=CARTESIAN_POINT('',(0.00483913224010235,0.0065,0.00516863442489346));
#924=CARTESIAN_POINT('',(0.00544924786336007,-0.0055,-0.0105340302554314));
#925=CARTESIAN_POINT('',(-0.00280444320473561,-0.0055,0.00317277767903816));
#926=CARTESIAN_POINT('',(-0.00280444320473561,-0.0055,0.00317277767903816));
#927=CARTESIAN_POINT('',(0.00544924786336007,-0.0055,-0.0105340302554314));
#928=CARTESIAN_POINT('',(-0.0028044432047356,-0.0055,0.00317277767903814));
#929=CARTESIAN_POINT('',(-0.0028044432047356,-0.0015,0.00317277767903814));
#930=CARTESIAN_POINT('',(0.00242523277679776,-0.0055,0.00632187921633185));
#931=CARTESIAN_POINT('',(0.00242523277679776,-0.0015,0.00632187921633185));
#932=CARTESIAN_POINT('',(0.00908975790029847,-0.0055,0.00835498697653989));
#933=CARTESIAN_POINT('',(0.00908975790029847,-0.0015,0.00835498697653989));
#934=CARTESIAN_POINT('',(0.0171891321657664,-0.0055,0.00927210095966223));
#935=CARTESIAN_POINT('',(0.0171891321657664,-0.0015,0.00927210095966223));
#936=CARTESIAN_POINT('',(-0.0028044432047356,-0.0055,0.00317277767903814));
#937=CARTESIAN_POINT('',(0.00513671319543767,-0.0055,0.00795462418654263));
#938=CARTESIAN_POINT('',(0.0174891322201319,-0.0055,0.00930548865275304));
#939=CARTESIAN_POINT('',(0.00498913223051605,-0.0055,0.00516863442489346));
#940=MECHANICAL_DESIGN_GEOMETRIC_PRESENTATION_REPRESENTATION('',(#551),
#941);
#941=(
GEOMETRIC_REPRESENTATION_CONTEXT(3)
GLOBAL_UNCERTAINTY_ASSIGNED_CONTEXT((#942))
GLOBAL_UNIT_ASSIGNED_CONTEXT((#945,#944,#943))
REPRESENTATION_CONTEXT('Part 1','TOP_LEVEL_ASSEMBLY_PART')
);
#942=UNCERTAINTY_MEASURE_WITH_UNIT(LENGTH_MEASURE(2.E-5),#945,
'DISTANCE_ACCURACY_VALUE','Maximum Tolerance applied to model');
#943=(
NAMED_UNIT(*)
SI_UNIT($,.STERADIAN.)
SOLID_ANGLE_UNIT()
);
#944=(
NAMED_UNIT(*)
PLANE_ANGLE_UNIT()
SI_UNIT($,.RADIAN.)
);
#945=(
LENGTH_UNIT()
NAMED_UNIT(*)
SI_UNIT($,.METRE.)
);
#946=PRODUCT_DEFINITION_SHAPE('','',#947);
#947=PRODUCT_DEFINITION('','',#949,#948);
#948=PRODUCT_DEFINITION_CONTEXT('',#955,'design');
#949=PRODUCT_DEFINITION_FORMATION_WITH_SPECIFIED_SOURCE('','',#951,
 .NOT_KNOWN.);
#950=PRODUCT_RELATED_PRODUCT_CATEGORY('','',(#951));
#951=PRODUCT('Part 1','Part 1','Part 1',(#953));
#952=PRODUCT_CATEGORY('','');
#953=PRODUCT_CONTEXT('',#955,'mechanical');
#954=APPLICATION_PROTOCOL_DEFINITION('international standard',
'ap242_managed_model_based_3d_engineering',2020,#955);
#955=APPLICATION_CONTEXT('managed model based 3d engineering');
ENDSEC;
END-ISO-10303-21;
