ISO-10303-21;
HEADER;
/* Generated by software containing ST-Developer
 * from STEP Tools, Inc. (www.steptools.com) 
 */
/* OPTION: using custom renumber hook */

FILE_DESCRIPTION(
/* description */ ('STEP AP242 Edition 2',
'CAx-IF Rec.Pracs.---Representation and Presentation of Product Manufa
cturing Information (PMI)---4.0---2014-10-13',
'CAx-IF Rec.Pracs.---3D Tessellated Geometry---0.4---2014-09-14','2;1',
'CAx-IF Rec.Pracs.---User Defined Attributes---1.5---2016-08-15'),
/* implementation_level */ '2;1');

FILE_NAME(
/* name */ 'SidePlunger',
/* time_stamp */ '2026-05-25T15:56:50Z',
/* author */ (''),
/* organization */ (''),
/* preprocessor_version */ 'ST-DEVELOPER v20',
/* originating_system */ 'ONSHAPE BY PTC INC, 1.215',
/* authorisation */ '  ');

FILE_SCHEMA (('AP242_MANAGED_MODEL_BASED_3D_ENGINEERING_MIM_LF { 1 0 10303 442 3 1 4 }'));
ENDSEC;

DATA;
#10=SHAPE_REPRESENTATION_RELATIONSHIP('','',#407,#11);
#11=ADVANCED_BREP_SHAPE_REPRESENTATION('',(#405),#665);
#12=B_SPLINE_SURFACE_WITH_KNOTS('',3,1,((#579,#580),(#581,#582),(#583,#584),
(#585,#586)),.SURF_OF_LINEAR_EXTRUSION.,.F.,.F.,.F.,(4,4),(2,2),(0.,1.),
(0.,1.),.PIECEWISE_BEZIER_KNOTS.);
#13=B_SPLINE_SURFACE_WITH_KNOTS('',3,1,((#592,#593),(#594,#595),(#596,#597),
(#598,#599)),.SURF_OF_LINEAR_EXTRUSION.,.F.,.F.,.F.,(4,4),(2,2),(0.,1.),
(0.,1.),.PIECEWISE_BEZIER_KNOTS.);
#14=B_SPLINE_SURFACE_WITH_KNOTS('',3,1,((#605,#606),(#607,#608),(#609,#610),
(#611,#612)),.SURF_OF_LINEAR_EXTRUSION.,.F.,.F.,.F.,(4,4),(2,2),(0.,1.),
(0.,1.),.PIECEWISE_BEZIER_KNOTS.);
#15=B_SPLINE_SURFACE_WITH_KNOTS('',3,1,((#616,#617),(#618,#619),(#620,#621),
(#622,#623)),.SURF_OF_LINEAR_EXTRUSION.,.F.,.F.,.F.,(4,4),(2,2),(0.,1.),
(0.,1.),.PIECEWISE_BEZIER_KNOTS.);
#16=B_SPLINE_CURVE_WITH_KNOTS('',2,(#547,#548,#549),.UNSPECIFIED.,.F.,.F.,
(3,3),(0.,1.),.PIECEWISE_BEZIER_KNOTS.);
#17=B_SPLINE_CURVE_WITH_KNOTS('',2,(#552,#553,#554),.UNSPECIFIED.,.F.,.F.,
(3,3),(0.,1.),.PIECEWISE_BEZIER_KNOTS.);
#18=B_SPLINE_CURVE_WITH_KNOTS('',2,(#558,#559,#560),.UNSPECIFIED.,.F.,.F.,
(3,3),(0.,1.),.PIECEWISE_BEZIER_KNOTS.);
#19=B_SPLINE_CURVE_WITH_KNOTS('',2,(#562,#563,#564),.UNSPECIFIED.,.F.,.F.,
(3,3),(0.,1.),.PIECEWISE_BEZIER_KNOTS.);
#20=B_SPLINE_CURVE_WITH_KNOTS('',2,(#587,#588,#589),.UNSPECIFIED.,.F.,.F.,
(3,3),(0.,1.),.PIECEWISE_BEZIER_KNOTS.);
#21=B_SPLINE_CURVE_WITH_KNOTS('',2,(#602,#603,#604),.UNSPECIFIED.,.F.,.F.,
(3,3),(0.,1.),.PIECEWISE_BEZIER_KNOTS.);
#22=B_SPLINE_CURVE_WITH_KNOTS('',2,(#613,#614,#615),.UNSPECIFIED.,.F.,.F.,
(3,3),(0.,1.),.PIECEWISE_BEZIER_KNOTS.);
#23=B_SPLINE_CURVE_WITH_KNOTS('',2,(#624,#625,#626),.UNSPECIFIED.,.F.,.F.,
(3,3),(0.,1.),.PIECEWISE_BEZIER_KNOTS.);
#24=ORIENTED_EDGE('',*,*,#132,.T.);
#25=ORIENTED_EDGE('',*,*,#133,.T.);
#26=ORIENTED_EDGE('',*,*,#134,.F.);
#27=ORIENTED_EDGE('',*,*,#135,.F.);
#28=ORIENTED_EDGE('',*,*,#136,.F.);
#29=ORIENTED_EDGE('',*,*,#137,.F.);
#30=ORIENTED_EDGE('',*,*,#138,.T.);
#31=ORIENTED_EDGE('',*,*,#139,.T.);
#32=ORIENTED_EDGE('',*,*,#137,.T.);
#33=ORIENTED_EDGE('',*,*,#140,.T.);
#34=ORIENTED_EDGE('',*,*,#132,.F.);
#35=ORIENTED_EDGE('',*,*,#141,.F.);
#36=ORIENTED_EDGE('',*,*,#142,.F.);
#37=ORIENTED_EDGE('',*,*,#143,.T.);
#38=ORIENTED_EDGE('',*,*,#144,.T.);
#39=ORIENTED_EDGE('',*,*,#145,.T.);
#40=ORIENTED_EDGE('',*,*,#146,.F.);
#41=ORIENTED_EDGE('',*,*,#147,.F.);
#42=ORIENTED_EDGE('',*,*,#148,.T.);
#43=ORIENTED_EDGE('',*,*,#149,.T.);
#44=ORIENTED_EDGE('',*,*,#150,.T.);
#45=ORIENTED_EDGE('',*,*,#151,.T.);
#46=ORIENTED_EDGE('',*,*,#152,.F.);
#47=ORIENTED_EDGE('',*,*,#153,.F.);
#48=ORIENTED_EDGE('',*,*,#154,.F.);
#49=ORIENTED_EDGE('',*,*,#155,.T.);
#50=ORIENTED_EDGE('',*,*,#156,.F.);
#51=ORIENTED_EDGE('',*,*,#157,.F.);
#52=ORIENTED_EDGE('',*,*,#158,.T.);
#53=ORIENTED_EDGE('',*,*,#155,.F.);
#54=ORIENTED_EDGE('',*,*,#159,.F.);
#55=ORIENTED_EDGE('',*,*,#160,.T.);
#56=ORIENTED_EDGE('',*,*,#161,.T.);
#57=ORIENTED_EDGE('',*,*,#152,.T.);
#58=ORIENTED_EDGE('',*,*,#161,.F.);
#59=ORIENTED_EDGE('',*,*,#162,.T.);
#60=ORIENTED_EDGE('',*,*,#163,.T.);
#61=ORIENTED_EDGE('',*,*,#153,.T.);
#62=ORIENTED_EDGE('',*,*,#164,.T.);
#63=ORIENTED_EDGE('',*,*,#150,.F.);
#64=ORIENTED_EDGE('',*,*,#158,.F.);
#65=ORIENTED_EDGE('',*,*,#165,.F.);
#66=ORIENTED_EDGE('',*,*,#159,.T.);
#67=ORIENTED_EDGE('',*,*,#151,.F.);
#68=ORIENTED_EDGE('',*,*,#164,.F.);
#69=ORIENTED_EDGE('',*,*,#166,.F.);
#70=ORIENTED_EDGE('',*,*,#163,.F.);
#71=ORIENTED_EDGE('',*,*,#167,.T.);
#72=ORIENTED_EDGE('',*,*,#156,.T.);
#73=ORIENTED_EDGE('',*,*,#154,.T.);
#74=ORIENTED_EDGE('',*,*,#145,.F.);
#75=ORIENTED_EDGE('',*,*,#168,.T.);
#76=ORIENTED_EDGE('',*,*,#169,.T.);
#77=ORIENTED_EDGE('',*,*,#170,.F.);
#78=ORIENTED_EDGE('',*,*,#167,.F.);
#79=ORIENTED_EDGE('',*,*,#162,.F.);
#80=ORIENTED_EDGE('',*,*,#160,.F.);
#81=ORIENTED_EDGE('',*,*,#166,.T.);
#82=ORIENTED_EDGE('',*,*,#165,.T.);
#83=ORIENTED_EDGE('',*,*,#157,.T.);
#84=ORIENTED_EDGE('',*,*,#143,.F.);
#85=ORIENTED_EDGE('',*,*,#171,.T.);
#86=ORIENTED_EDGE('',*,*,#172,.T.);
#87=ORIENTED_EDGE('',*,*,#173,.F.);
#88=ORIENTED_EDGE('',*,*,#171,.F.);
#89=ORIENTED_EDGE('',*,*,#142,.T.);
#90=ORIENTED_EDGE('',*,*,#174,.T.);
#91=ORIENTED_EDGE('',*,*,#175,.F.);
#92=ORIENTED_EDGE('',*,*,#174,.F.);
#93=ORIENTED_EDGE('',*,*,#141,.T.);
#94=ORIENTED_EDGE('',*,*,#135,.T.);
#95=ORIENTED_EDGE('',*,*,#176,.F.);
#96=ORIENTED_EDGE('',*,*,#149,.F.);
#97=ORIENTED_EDGE('',*,*,#177,.T.);
#98=ORIENTED_EDGE('',*,*,#178,.T.);
#99=ORIENTED_EDGE('',*,*,#138,.F.);
#100=ORIENTED_EDGE('',*,*,#148,.F.);
#101=ORIENTED_EDGE('',*,*,#179,.T.);
#102=ORIENTED_EDGE('',*,*,#180,.T.);
#103=ORIENTED_EDGE('',*,*,#177,.F.);
#104=ORIENTED_EDGE('',*,*,#179,.F.);
#105=ORIENTED_EDGE('',*,*,#147,.T.);
#106=ORIENTED_EDGE('',*,*,#181,.T.);
#107=ORIENTED_EDGE('',*,*,#182,.F.);
#108=ORIENTED_EDGE('',*,*,#183,.F.);
#109=ORIENTED_EDGE('',*,*,#139,.F.);
#110=ORIENTED_EDGE('',*,*,#178,.F.);
#111=ORIENTED_EDGE('',*,*,#180,.F.);
#112=ORIENTED_EDGE('',*,*,#182,.T.);
#113=ORIENTED_EDGE('',*,*,#184,.T.);
#114=ORIENTED_EDGE('',*,*,#169,.F.);
#115=ORIENTED_EDGE('',*,*,#185,.F.);
#116=ORIENTED_EDGE('',*,*,#172,.F.);
#117=ORIENTED_EDGE('',*,*,#175,.T.);
#118=ORIENTED_EDGE('',*,*,#176,.T.);
#119=ORIENTED_EDGE('',*,*,#134,.T.);
#120=ORIENTED_EDGE('',*,*,#170,.T.);
#121=ORIENTED_EDGE('',*,*,#184,.F.);
#122=ORIENTED_EDGE('',*,*,#181,.F.);
#123=ORIENTED_EDGE('',*,*,#146,.T.);
#124=ORIENTED_EDGE('',*,*,#185,.T.);
#125=ORIENTED_EDGE('',*,*,#168,.F.);
#126=ORIENTED_EDGE('',*,*,#144,.F.);
#127=ORIENTED_EDGE('',*,*,#173,.T.);
#128=ORIENTED_EDGE('',*,*,#140,.F.);
#129=ORIENTED_EDGE('',*,*,#136,.T.);
#130=ORIENTED_EDGE('',*,*,#183,.T.);
#131=ORIENTED_EDGE('',*,*,#133,.F.);
#132=EDGE_CURVE('',#186,#187,#222,.T.);
#133=EDGE_CURVE('',#187,#188,#223,.T.);
#134=EDGE_CURVE('',#189,#188,#224,.T.);
#135=EDGE_CURVE('',#186,#189,#225,.T.);
#136=EDGE_CURVE('',#190,#191,#226,.T.);
#137=EDGE_CURVE('',#192,#190,#227,.T.);
#138=EDGE_CURVE('',#192,#193,#228,.T.);
#139=EDGE_CURVE('',#193,#191,#229,.T.);
#140=EDGE_CURVE('',#190,#187,#230,.T.);
#141=EDGE_CURVE('',#194,#186,#231,.T.);
#142=EDGE_CURVE('',#195,#194,#232,.T.);
#143=EDGE_CURVE('',#195,#196,#233,.T.);
#144=EDGE_CURVE('',#196,#197,#234,.T.);
#145=EDGE_CURVE('',#197,#198,#235,.T.);
#146=EDGE_CURVE('',#199,#198,#236,.T.);
#147=EDGE_CURVE('',#200,#199,#237,.T.);
#148=EDGE_CURVE('',#200,#201,#238,.T.);
#149=EDGE_CURVE('',#201,#192,#239,.T.);
#150=EDGE_CURVE('',#202,#203,#16,.T.);
#151=EDGE_CURVE('',#203,#204,#17,.T.);
#152=EDGE_CURVE('',#205,#204,#240,.T.);
#153=EDGE_CURVE('',#206,#205,#18,.T.);
#154=EDGE_CURVE('',#207,#206,#19,.T.);
#155=EDGE_CURVE('',#207,#202,#241,.T.);
#156=EDGE_CURVE('',#208,#207,#242,.T.);
#157=EDGE_CURVE('',#209,#208,#243,.T.);
#158=EDGE_CURVE('',#209,#202,#244,.T.);
#159=EDGE_CURVE('',#210,#204,#245,.T.);
#160=EDGE_CURVE('',#210,#211,#246,.T.);
#161=EDGE_CURVE('',#211,#205,#247,.T.);
#162=EDGE_CURVE('',#211,#212,#20,.F.);
#163=EDGE_CURVE('',#212,#206,#248,.T.);
#164=EDGE_CURVE('',#213,#203,#249,.T.);
#165=EDGE_CURVE('',#213,#209,#21,.F.);
#166=EDGE_CURVE('',#210,#213,#22,.F.);
#167=EDGE_CURVE('',#212,#208,#23,.F.);
#168=EDGE_CURVE('',#197,#214,#250,.T.);
#169=EDGE_CURVE('',#214,#215,#251,.T.);
#170=EDGE_CURVE('',#198,#215,#252,.T.);
#171=EDGE_CURVE('',#195,#216,#253,.T.);
#172=EDGE_CURVE('',#216,#217,#254,.T.);
#173=EDGE_CURVE('',#196,#217,#255,.T.);
#174=EDGE_CURVE('',#194,#218,#256,.T.);
#175=EDGE_CURVE('',#216,#218,#257,.T.);
#176=EDGE_CURVE('',#218,#189,#258,.T.);
#177=EDGE_CURVE('',#201,#219,#259,.T.);
#178=EDGE_CURVE('',#219,#193,#260,.T.);
#179=EDGE_CURVE('',#200,#220,#261,.T.);
#180=EDGE_CURVE('',#220,#219,#262,.T.);
#181=EDGE_CURVE('',#199,#221,#263,.T.);
#182=EDGE_CURVE('',#220,#221,#264,.T.);
#183=EDGE_CURVE('',#191,#188,#265,.T.);
#184=EDGE_CURVE('',#221,#215,#266,.T.);
#185=EDGE_CURVE('',#217,#214,#267,.T.);
#186=VERTEX_POINT('',#511);
#187=VERTEX_POINT('',#512);
#188=VERTEX_POINT('',#514);
#189=VERTEX_POINT('',#516);
#190=VERTEX_POINT('',#520);
#191=VERTEX_POINT('',#521);
#192=VERTEX_POINT('',#523);
#193=VERTEX_POINT('',#525);
#194=VERTEX_POINT('',#530);
#195=VERTEX_POINT('',#532);
#196=VERTEX_POINT('',#534);
#197=VERTEX_POINT('',#536);
#198=VERTEX_POINT('',#538);
#199=VERTEX_POINT('',#540);
#200=VERTEX_POINT('',#542);
#201=VERTEX_POINT('',#544);
#202=VERTEX_POINT('',#550);
#203=VERTEX_POINT('',#551);
#204=VERTEX_POINT('',#555);
#205=VERTEX_POINT('',#557);
#206=VERTEX_POINT('',#561);
#207=VERTEX_POINT('',#565);
#208=VERTEX_POINT('',#569);
#209=VERTEX_POINT('',#571);
#210=VERTEX_POINT('',#575);
#211=VERTEX_POINT('',#577);
#212=VERTEX_POINT('',#590);
#213=VERTEX_POINT('',#601);
#214=VERTEX_POINT('',#629);
#215=VERTEX_POINT('',#631);
#216=VERTEX_POINT('',#635);
#217=VERTEX_POINT('',#637);
#218=VERTEX_POINT('',#641);
#219=VERTEX_POINT('',#647);
#220=VERTEX_POINT('',#651);
#221=VERTEX_POINT('',#655);
#222=LINE('',#510,#268);
#223=LINE('',#513,#269);
#224=LINE('',#515,#270);
#225=LINE('',#517,#271);
#226=LINE('',#519,#272);
#227=LINE('',#522,#273);
#228=LINE('',#524,#274);
#229=LINE('',#526,#275);
#230=LINE('',#528,#276);
#231=LINE('',#529,#277);
#232=LINE('',#531,#278);
#233=LINE('',#533,#279);
#234=LINE('',#535,#280);
#235=LINE('',#537,#281);
#236=LINE('',#539,#282);
#237=LINE('',#541,#283);
#238=LINE('',#543,#284);
#239=LINE('',#545,#285);
#240=LINE('',#556,#286);
#241=LINE('',#566,#287);
#242=LINE('',#568,#288);
#243=LINE('',#570,#289);
#244=LINE('',#572,#290);
#245=LINE('',#574,#291);
#246=LINE('',#576,#292);
#247=LINE('',#578,#293);
#248=LINE('',#591,#294);
#249=LINE('',#600,#295);
#250=LINE('',#628,#296);
#251=LINE('',#630,#297);
#252=LINE('',#632,#298);
#253=LINE('',#634,#299);
#254=LINE('',#636,#300);
#255=LINE('',#638,#301);
#256=LINE('',#640,#302);
#257=LINE('',#642,#303);
#258=LINE('',#644,#304);
#259=LINE('',#646,#305);
#260=LINE('',#648,#306);
#261=LINE('',#650,#307);
#262=LINE('',#652,#308);
#263=LINE('',#654,#309);
#264=LINE('',#656,#310);
#265=LINE('',#658,#311);
#266=LINE('',#659,#312);
#267=LINE('',#660,#313);
#268=VECTOR('',#430,1.);
#269=VECTOR('',#431,1.);
#270=VECTOR('',#432,1.);
#271=VECTOR('',#433,1.);
#272=VECTOR('',#436,1.);
#273=VECTOR('',#437,1.);
#274=VECTOR('',#438,1.);
#275=VECTOR('',#439,1.);
#276=VECTOR('',#442,1.);
#277=VECTOR('',#443,1.);
#278=VECTOR('',#444,1.);
#279=VECTOR('',#445,1.);
#280=VECTOR('',#446,1.);
#281=VECTOR('',#447,1.);
#282=VECTOR('',#448,1.);
#283=VECTOR('',#449,1.);
#284=VECTOR('',#450,1.);
#285=VECTOR('',#451,1.);
#286=VECTOR('',#454,1.);
#287=VECTOR('',#455,1.);
#288=VECTOR('',#458,1.);
#289=VECTOR('',#459,1.);
#290=VECTOR('',#460,1.);
#291=VECTOR('',#463,1.);
#292=VECTOR('',#464,1.);
#293=VECTOR('',#465,1.);
#294=VECTOR('',#466,1.);
#295=VECTOR('',#467,1.);
#296=VECTOR('',#470,1.);
#297=VECTOR('',#471,1.);
#298=VECTOR('',#472,1.);
#299=VECTOR('',#475,1.);
#300=VECTOR('',#476,1.);
#301=VECTOR('',#477,1.);
#302=VECTOR('',#480,1.);
#303=VECTOR('',#481,1.);
#304=VECTOR('',#484,1.);
#305=VECTOR('',#487,1.);
#306=VECTOR('',#488,1.);
#307=VECTOR('',#491,1.);
#308=VECTOR('',#492,1.);
#309=VECTOR('',#495,1.);
#310=VECTOR('',#496,1.);
#311=VECTOR('',#499,1.);
#312=VECTOR('',#500,1.);
#313=VECTOR('',#501,1.);
#314=EDGE_LOOP('',(#24,#25,#26,#27));
#315=EDGE_LOOP('',(#28,#29,#30,#31));
#316=EDGE_LOOP('',(#32,#33,#34,#35,#36,#37,#38,#39,#40,#41,#42,#43));
#317=EDGE_LOOP('',(#44,#45,#46,#47,#48,#49));
#318=EDGE_LOOP('',(#50,#51,#52,#53));
#319=EDGE_LOOP('',(#54,#55,#56,#57));
#320=EDGE_LOOP('',(#58,#59,#60,#61));
#321=EDGE_LOOP('',(#62,#63,#64,#65));
#322=EDGE_LOOP('',(#66,#67,#68,#69));
#323=EDGE_LOOP('',(#70,#71,#72,#73));
#324=EDGE_LOOP('',(#74,#75,#76,#77));
#325=EDGE_LOOP('',(#78,#79,#80,#81,#82,#83));
#326=EDGE_LOOP('',(#84,#85,#86,#87));
#327=EDGE_LOOP('',(#88,#89,#90,#91));
#328=EDGE_LOOP('',(#92,#93,#94,#95));
#329=EDGE_LOOP('',(#96,#97,#98,#99));
#330=EDGE_LOOP('',(#100,#101,#102,#103));
#331=EDGE_LOOP('',(#104,#105,#106,#107));
#332=EDGE_LOOP('',(#108,#109,#110,#111,#112,#113,#114,#115,#116,#117,#118,
#119));
#333=EDGE_LOOP('',(#120,#121,#122,#123));
#334=EDGE_LOOP('',(#124,#125,#126,#127));
#335=EDGE_LOOP('',(#128,#129,#130,#131));
#336=FACE_BOUND('',#314,.T.);
#337=FACE_BOUND('',#315,.T.);
#338=FACE_BOUND('',#316,.T.);
#339=FACE_BOUND('',#317,.T.);
#340=FACE_BOUND('',#318,.T.);
#341=FACE_BOUND('',#319,.T.);
#342=FACE_BOUND('',#320,.T.);
#343=FACE_BOUND('',#321,.T.);
#344=FACE_BOUND('',#322,.T.);
#345=FACE_BOUND('',#323,.T.);
#346=FACE_BOUND('',#324,.T.);
#347=FACE_BOUND('',#325,.T.);
#348=FACE_BOUND('',#326,.T.);
#349=FACE_BOUND('',#327,.T.);
#350=FACE_BOUND('',#328,.T.);
#351=FACE_BOUND('',#329,.T.);
#352=FACE_BOUND('',#330,.T.);
#353=FACE_BOUND('',#331,.T.);
#354=FACE_BOUND('',#332,.T.);
#355=FACE_BOUND('',#333,.T.);
#356=FACE_BOUND('',#334,.T.);
#357=FACE_BOUND('',#335,.T.);
#358=PLANE('',#409);
#359=PLANE('',#410);
#360=PLANE('',#411);
#361=PLANE('',#412);
#362=PLANE('',#413);
#363=PLANE('',#414);
#364=PLANE('',#415);
#365=PLANE('',#416);
#366=PLANE('',#417);
#367=PLANE('',#418);
#368=PLANE('',#419);
#369=PLANE('',#420);
#370=PLANE('',#421);
#371=PLANE('',#422);
#372=PLANE('',#423);
#373=PLANE('',#424);
#374=PLANE('',#425);
#375=ADVANCED_FACE('',(#336),#358,.T.);
#376=ADVANCED_FACE('',(#337),#359,.F.);
#377=ADVANCED_FACE('',(#338),#360,.T.);
#378=ADVANCED_FACE('',(#339),#361,.T.);
#379=ADVANCED_FACE('',(#340),#362,.T.);
#380=ADVANCED_FACE('',(#341),#363,.F.);
#381=ADVANCED_FACE('',(#342),#12,.F.);
#382=ADVANCED_FACE('',(#343),#13,.T.);
#383=ADVANCED_FACE('',(#344),#14,.T.);
#384=ADVANCED_FACE('',(#345),#15,.F.);
#385=ADVANCED_FACE('',(#346,#347),#364,.T.);
#386=ADVANCED_FACE('',(#348),#365,.F.);
#387=ADVANCED_FACE('',(#349),#366,.T.);
#388=ADVANCED_FACE('',(#350),#367,.T.);
#389=ADVANCED_FACE('',(#351),#368,.F.);
#390=ADVANCED_FACE('',(#352),#369,.F.);
#391=ADVANCED_FACE('',(#353),#370,.T.);
#392=ADVANCED_FACE('',(#354),#371,.T.);
#393=ADVANCED_FACE('',(#355),#372,.T.);
#394=ADVANCED_FACE('',(#356),#373,.F.);
#395=ADVANCED_FACE('',(#357),#374,.F.);
#396=CLOSED_SHELL('',(#375,#376,#377,#378,#379,#380,#381,#382,#383,#384,
#385,#386,#387,#388,#389,#390,#391,#392,#393,#394,#395));
#397=STYLED_ITEM('',(#398),#405);
#398=PRESENTATION_STYLE_ASSIGNMENT((#399));
#399=SURFACE_STYLE_USAGE(.BOTH.,#400);
#400=SURFACE_SIDE_STYLE('',(#401));
#401=SURFACE_STYLE_FILL_AREA(#402);
#402=FILL_AREA_STYLE('',(#403));
#403=FILL_AREA_STYLE_COLOUR('',#404);
#404=COLOUR_RGB('',0.615686274509804,0.811764705882353,0.929411764705882);
#405=MANIFOLD_SOLID_BREP('Part 1',#396);
#406=SHAPE_DEFINITION_REPRESENTATION(#670,#407);
#407=SHAPE_REPRESENTATION('Part 1',(#408),#665);
#408=AXIS2_PLACEMENT_3D('',#508,#426,#427);
#409=AXIS2_PLACEMENT_3D('',#509,#428,#429);
#410=AXIS2_PLACEMENT_3D('',#518,#434,#435);
#411=AXIS2_PLACEMENT_3D('',#527,#440,#441);
#412=AXIS2_PLACEMENT_3D('',#546,#452,#453);
#413=AXIS2_PLACEMENT_3D('',#567,#456,#457);
#414=AXIS2_PLACEMENT_3D('',#573,#461,#462);
#415=AXIS2_PLACEMENT_3D('',#627,#468,#469);
#416=AXIS2_PLACEMENT_3D('',#633,#473,#474);
#417=AXIS2_PLACEMENT_3D('',#639,#478,#479);
#418=AXIS2_PLACEMENT_3D('',#643,#482,#483);
#419=AXIS2_PLACEMENT_3D('',#645,#485,#486);
#420=AXIS2_PLACEMENT_3D('',#649,#489,#490);
#421=AXIS2_PLACEMENT_3D('',#653,#493,#494);
#422=AXIS2_PLACEMENT_3D('',#657,#497,#498);
#423=AXIS2_PLACEMENT_3D('',#661,#502,#503);
#424=AXIS2_PLACEMENT_3D('',#662,#504,#505);
#425=AXIS2_PLACEMENT_3D('',#663,#506,#507);
#426=DIRECTION('',(0.,0.,1.));
#427=DIRECTION('',(1.,0.,0.));
#428=DIRECTION('',(1.,2.27833994307419E-16,0.));
#429=DIRECTION('',(-2.27833994307419E-16,1.,0.));
#430=DIRECTION('',(2.27833994307419E-16,-1.,0.));
#431=DIRECTION('',(0.,0.,-1.));
#432=DIRECTION('',(2.27833994307419E-16,-1.,0.));
#433=DIRECTION('',(0.,0.,-1.));
#434=DIRECTION('',(1.,0.,0.));
#435=DIRECTION('',(0.,0.,-1.));
#436=DIRECTION('',(0.,0.,-1.));
#437=DIRECTION('',(0.,-1.,0.));
#438=DIRECTION('',(0.,0.,-1.));
#439=DIRECTION('',(0.,-1.,0.));
#440=DIRECTION('',(0.,0.,1.));
#441=DIRECTION('',(1.,0.,0.));
#442=DIRECTION('',(1.,0.,0.));
#443=DIRECTION('',(-1.,0.,0.));
#444=DIRECTION('',(0.,-1.,0.));
#445=DIRECTION('',(-1.,-2.16840434497101E-16,0.));
#446=DIRECTION('',(0.,1.,0.));
#447=DIRECTION('',(-1.,-4.13029399042097E-16,0.));
#448=DIRECTION('',(0.,1.,0.));
#449=DIRECTION('',(1.,0.,0.));
#450=DIRECTION('',(0.,-1.,0.));
#451=DIRECTION('',(1.,0.,0.));
#452=DIRECTION('',(0.,1.,0.));
#453=DIRECTION('',(0.,0.,1.));
#454=DIRECTION('',(1.,0.,0.));
#455=DIRECTION('',(1.,0.,0.));
#456=DIRECTION('',(0.,0.,1.));
#457=DIRECTION('',(1.,0.,0.));
#458=DIRECTION('',(0.,1.,0.));
#459=DIRECTION('',(-1.,-4.13029399042097E-16,0.));
#460=DIRECTION('',(0.,1.,0.));
#461=DIRECTION('',(0.,0.,1.));
#462=DIRECTION('',(1.,0.,0.));
#463=DIRECTION('',(0.,1.,0.));
#464=DIRECTION('',(-1.,-5.17827903276659E-16,0.));
#465=DIRECTION('',(0.,1.,0.));
#466=DIRECTION('',(0.,1.,0.));
#467=DIRECTION('',(0.,1.,0.));
#468=DIRECTION('',(0.,-1.,0.));
#469=DIRECTION('',(0.,0.,-1.));
#470=DIRECTION('',(0.,0.,-1.));
#471=DIRECTION('',(-1.,-5.17827903276659E-16,0.));
#472=DIRECTION('',(0.,0.,-1.));
#473=DIRECTION('',(2.16840434497101E-16,-1.,0.));
#474=DIRECTION('',(1.,2.16840434497101E-16,0.));
#475=DIRECTION('',(0.,0.,-1.));
#476=DIRECTION('',(-1.,-2.16840434497101E-16,0.));
#477=DIRECTION('',(0.,0.,-1.));
#478=DIRECTION('',(1.,0.,0.));
#479=DIRECTION('',(0.,0.,-1.));
#480=DIRECTION('',(0.,0.,-1.));
#481=DIRECTION('',(0.,-1.,0.));
#482=DIRECTION('',(0.,-1.,0.));
#483=DIRECTION('',(0.,0.,-1.));
#484=DIRECTION('',(-1.,0.,0.));
#485=DIRECTION('',(0.,1.,0.));
#486=DIRECTION('',(0.,0.,1.));
#487=DIRECTION('',(0.,0.,-1.));
#488=DIRECTION('',(1.,0.,0.));
#489=DIRECTION('',(1.,0.,0.));
#490=DIRECTION('',(0.,0.,-1.));
#491=DIRECTION('',(0.,0.,-1.));
#492=DIRECTION('',(0.,-1.,0.));
#493=DIRECTION('',(0.,1.,0.));
#494=DIRECTION('',(0.,0.,1.));
#495=DIRECTION('',(0.,0.,-1.));
#496=DIRECTION('',(1.,0.,0.));
#497=DIRECTION('',(0.,0.,-1.));
#498=DIRECTION('',(1.,0.,0.));
#499=DIRECTION('',(1.,0.,0.));
#500=DIRECTION('',(0.,1.,0.));
#501=DIRECTION('',(0.,1.,0.));
#502=DIRECTION('',(-1.,0.,0.));
#503=DIRECTION('',(0.,0.,1.));
#504=DIRECTION('',(-1.,0.,0.));
#505=DIRECTION('',(0.,0.,1.));
#506=DIRECTION('',(0.,1.,0.));
#507=DIRECTION('',(0.,0.,1.));
#508=CARTESIAN_POINT('',(0.,0.,0.));
#509=CARTESIAN_POINT('',(0.0038,-0.001288505,0.0048));
#510=CARTESIAN_POINT('',(0.0038,-0.001288505,0.0036));
#511=CARTESIAN_POINT('',(0.0038,0.00061499,0.0036));
#512=CARTESIAN_POINT('',(0.0038,-0.002992,0.0036));
#513=CARTESIAN_POINT('',(0.0038,-0.002992,0.0048));
#514=CARTESIAN_POINT('',(0.0038,-0.002992,0.0016));
#515=CARTESIAN_POINT('',(0.0038,-0.001288505,0.0016));
#516=CARTESIAN_POINT('',(0.0038,0.00061499,0.0016));
#517=CARTESIAN_POINT('',(0.0038,0.00061499,0.0048));
#518=CARTESIAN_POINT('',(-0.0038,-0.001288505,0.0048));
#519=CARTESIAN_POINT('',(-0.0038,-0.002992,0.0048));
#520=CARTESIAN_POINT('',(-0.0038,-0.002992,0.0036));
#521=CARTESIAN_POINT('',(-0.0038,-0.002992,0.0016));
#522=CARTESIAN_POINT('',(-0.0038,-0.001288505,0.0036));
#523=CARTESIAN_POINT('',(-0.0038,0.00061499,0.0036));
#524=CARTESIAN_POINT('',(-0.0038,0.00061499,0.0048));
#525=CARTESIAN_POINT('',(-0.0038,0.00061499,0.0016));
#526=CARTESIAN_POINT('',(-0.0038,-0.001288505,0.0016));
#527=CARTESIAN_POINT('',(-1.7347234759768E-18,0.00075,0.0036));
#528=CARTESIAN_POINT('',(-0.0019,-0.002992,0.0036));
#529=CARTESIAN_POINT('',(0.0039,0.00061499,0.0036));
#530=CARTESIAN_POINT('',(0.0058,0.00061499,0.0036));
#531=CARTESIAN_POINT('',(0.0058,0.00106499,0.0036));
#532=CARTESIAN_POINT('',(0.0058,0.00161499,0.0036));
#533=CARTESIAN_POINT('',(0.0048,0.00161499,0.0036));
#534=CARTESIAN_POINT('',(0.0038,0.00161499,0.0036));
#535=CARTESIAN_POINT('',(0.0038,0.002078495,0.0036));
#536=CARTESIAN_POINT('',(0.0038,0.00206499,0.0036));
#537=CARTESIAN_POINT('',(8.6653567919032E-19,0.00206499,0.0036));
#538=CARTESIAN_POINT('',(-0.0038,0.00206499,0.0036));
#539=CARTESIAN_POINT('',(-0.0038,0.002767,0.0036));
#540=CARTESIAN_POINT('',(-0.0038,0.00161499,0.0036));
#541=CARTESIAN_POINT('',(-0.0048,0.00161499,0.0036));
#542=CARTESIAN_POINT('',(-0.0058,0.00161499,0.0036));
#543=CARTESIAN_POINT('',(-0.0058,0.00156499,0.0036));
#544=CARTESIAN_POINT('',(-0.0058,0.00061499,0.0036));
#545=CARTESIAN_POINT('',(-0.0049,0.00061499,0.0036));
#546=CARTESIAN_POINT('',(8.67361737988404E-19,0.004692,0.0048));
#547=CARTESIAN_POINT('',(0.00335,0.004692,0.0048));
#548=CARTESIAN_POINT('',(0.00485,0.004692,0.0048));
#549=CARTESIAN_POINT('',(0.00485,0.004692,0.0024));
#550=CARTESIAN_POINT('',(0.00335,0.004692,0.0048));
#551=CARTESIAN_POINT('',(0.00485,0.004692,0.0024));
#552=CARTESIAN_POINT('',(0.00485,0.004692,0.0024));
#553=CARTESIAN_POINT('',(0.00485,0.004692,0.));
#554=CARTESIAN_POINT('',(0.00335,0.004692,-2.60208521396521E-18));
#555=CARTESIAN_POINT('',(0.00335,0.004692,0.));
#556=CARTESIAN_POINT('',(8.67361737988404E-19,0.004692,0.));
#557=CARTESIAN_POINT('',(-0.00335,0.004692,0.));
#558=CARTESIAN_POINT('',(-0.00485,0.004692,0.0024));
#559=CARTESIAN_POINT('',(-0.00485,0.004692,0.));
#560=CARTESIAN_POINT('',(-0.00335,0.004692,-8.67361737988404E-19));
#561=CARTESIAN_POINT('',(-0.00485,0.004692,0.0024));
#562=CARTESIAN_POINT('',(-0.00335,0.004692,0.0048));
#563=CARTESIAN_POINT('',(-0.00485,0.004692,0.0048));
#564=CARTESIAN_POINT('',(-0.00485,0.004692,0.0024));
#565=CARTESIAN_POINT('',(-0.00335,0.004692,0.0048));
#566=CARTESIAN_POINT('',(8.67361737988404E-19,0.004692,0.0048));
#567=CARTESIAN_POINT('',(0.,0.00075,0.0048));
#568=CARTESIAN_POINT('',(-0.00335,0.00299,0.0048));
#569=CARTESIAN_POINT('',(-0.00335,0.00206499,0.0048));
#570=CARTESIAN_POINT('',(8.6653567919032E-19,0.00206499,0.0048));
#571=CARTESIAN_POINT('',(0.00335,0.00206499,0.0048));
#572=CARTESIAN_POINT('',(0.00335,0.00299,0.0048));
#573=CARTESIAN_POINT('',(0.,0.00075,0.));
#574=CARTESIAN_POINT('',(0.00335,0.00299,0.));
#575=CARTESIAN_POINT('',(0.00335,0.00206499,0.));
#576=CARTESIAN_POINT('',(-8.67361737988404E-19,0.00206499,0.));
#577=CARTESIAN_POINT('',(-0.00335,0.00206499,0.));
#578=CARTESIAN_POINT('',(-0.00335,0.00299,0.));
#579=CARTESIAN_POINT('',(-0.00485,0.00206499,0.0024));
#580=CARTESIAN_POINT('',(-0.00485,0.004692,0.0024));
#581=CARTESIAN_POINT('',(-0.00485,0.00206499,0.0008));
#582=CARTESIAN_POINT('',(-0.00485,0.004692,0.0008));
#583=CARTESIAN_POINT('',(-0.00435,0.00206499,-2.89120579329468E-19));
#584=CARTESIAN_POINT('',(-0.00435,0.004692,-2.89120579329468E-19));
#585=CARTESIAN_POINT('',(-0.00335,0.00206499,-8.67361737988404E-19));
#586=CARTESIAN_POINT('',(-0.00335,0.004692,-8.67361737988404E-19));
#587=CARTESIAN_POINT('',(-0.00485,0.00206499,0.0024));
#588=CARTESIAN_POINT('',(-0.00485,0.00206499,0.));
#589=CARTESIAN_POINT('',(-0.00335,0.00206499,-8.67361737988404E-19));
#590=CARTESIAN_POINT('',(-0.00485,0.00206499,0.0024));
#591=CARTESIAN_POINT('',(-0.00485,0.00299,0.0024));
#592=CARTESIAN_POINT('',(0.00335,0.00206499,0.0048));
#593=CARTESIAN_POINT('',(0.00335,0.004692,0.0048));
#594=CARTESIAN_POINT('',(0.00435,0.00206499,0.0048));
#595=CARTESIAN_POINT('',(0.00435,0.004692,0.0048));
#596=CARTESIAN_POINT('',(0.00485,0.00206499,0.004));
#597=CARTESIAN_POINT('',(0.00485,0.004692,0.004));
#598=CARTESIAN_POINT('',(0.00485,0.00206499,0.0024));
#599=CARTESIAN_POINT('',(0.00485,0.004692,0.0024));
#600=CARTESIAN_POINT('',(0.00485,0.00299,0.0024));
#601=CARTESIAN_POINT('',(0.00485,0.00206499,0.0024));
#602=CARTESIAN_POINT('',(0.00335,0.00206499,0.0048));
#603=CARTESIAN_POINT('',(0.00485,0.00206499,0.0048));
#604=CARTESIAN_POINT('',(0.00485,0.00206499,0.0024));
#605=CARTESIAN_POINT('',(0.00485,0.00206499,0.0024));
#606=CARTESIAN_POINT('',(0.00485,0.004692,0.0024));
#607=CARTESIAN_POINT('',(0.00485,0.00206499,0.0008));
#608=CARTESIAN_POINT('',(0.00485,0.004692,0.0008));
#609=CARTESIAN_POINT('',(0.00435,0.00206499,-8.67361737988403E-19));
#610=CARTESIAN_POINT('',(0.00435,0.004692,-8.67361737988403E-19));
#611=CARTESIAN_POINT('',(0.00335,0.00206499,-2.60208521396521E-18));
#612=CARTESIAN_POINT('',(0.00335,0.004692,-2.60208521396521E-18));
#613=CARTESIAN_POINT('',(0.00485,0.00206499,0.0024));
#614=CARTESIAN_POINT('',(0.00485,0.00206499,0.));
#615=CARTESIAN_POINT('',(0.00335,0.00206499,-2.60208521396521E-18));
#616=CARTESIAN_POINT('',(-0.00335,0.00206499,0.0048));
#617=CARTESIAN_POINT('',(-0.00335,0.004692,0.0048));
#618=CARTESIAN_POINT('',(-0.00435,0.00206499,0.0048));
#619=CARTESIAN_POINT('',(-0.00435,0.004692,0.0048));
#620=CARTESIAN_POINT('',(-0.00485,0.00206499,0.004));
#621=CARTESIAN_POINT('',(-0.00485,0.004692,0.004));
#622=CARTESIAN_POINT('',(-0.00485,0.00206499,0.0024));
#623=CARTESIAN_POINT('',(-0.00485,0.004692,0.0024));
#624=CARTESIAN_POINT('',(-0.00335,0.00206499,0.0048));
#625=CARTESIAN_POINT('',(-0.00485,0.00206499,0.0048));
#626=CARTESIAN_POINT('',(-0.00485,0.00206499,0.0024));
#627=CARTESIAN_POINT('',(-0.004325,0.00206499,0.0048));
#628=CARTESIAN_POINT('',(0.0038,0.00206499,0.0048));
#629=CARTESIAN_POINT('',(0.0038,0.00206499,0.0016));
#630=CARTESIAN_POINT('',(-8.67361737988404E-19,0.00206499,0.0016));
#631=CARTESIAN_POINT('',(-0.0038,0.00206499,0.0016));
#632=CARTESIAN_POINT('',(-0.0038,0.00206499,0.0048));
#633=CARTESIAN_POINT('',(0.0048,0.00161499,0.0048));
#634=CARTESIAN_POINT('',(0.0058,0.00161499,0.0048));
#635=CARTESIAN_POINT('',(0.0058,0.00161499,0.0016));
#636=CARTESIAN_POINT('',(0.0048,0.00161499,0.0016));
#637=CARTESIAN_POINT('',(0.0038,0.00161499,0.0016));
#638=CARTESIAN_POINT('',(0.0038,0.00161499,0.0048));
#639=CARTESIAN_POINT('',(0.0058,0.00106499,0.0048));
#640=CARTESIAN_POINT('',(0.0058,0.00061499,0.0048));
#641=CARTESIAN_POINT('',(0.0058,0.00061499,0.0016));
#642=CARTESIAN_POINT('',(0.0058,0.00106499,0.0016));
#643=CARTESIAN_POINT('',(0.0039,0.00061499,0.0048));
#644=CARTESIAN_POINT('',(0.0039,0.00061499,0.0016));
#645=CARTESIAN_POINT('',(-0.0049,0.00061499,0.0048));
#646=CARTESIAN_POINT('',(-0.0058,0.00061499,0.0048));
#647=CARTESIAN_POINT('',(-0.0058,0.00061499,0.0016));
#648=CARTESIAN_POINT('',(-0.0049,0.00061499,0.0016));
#649=CARTESIAN_POINT('',(-0.0058,0.00156499,0.0048));
#650=CARTESIAN_POINT('',(-0.0058,0.00161499,0.0048));
#651=CARTESIAN_POINT('',(-0.0058,0.00161499,0.0016));
#652=CARTESIAN_POINT('',(-0.0058,0.00156499,0.0016));
#653=CARTESIAN_POINT('',(-0.0048,0.00161499,0.0048));
#654=CARTESIAN_POINT('',(-0.0038,0.00161499,0.0048));
#655=CARTESIAN_POINT('',(-0.0038,0.00161499,0.0016));
#656=CARTESIAN_POINT('',(-0.0048,0.00161499,0.0016));
#657=CARTESIAN_POINT('',(-1.7347234759768E-18,0.00075,0.0016));
#658=CARTESIAN_POINT('',(-0.0019,-0.002992,0.0016));
#659=CARTESIAN_POINT('',(-0.0038,0.002767,0.0016));
#660=CARTESIAN_POINT('',(0.0038,0.002078495,0.0016));
#661=CARTESIAN_POINT('',(-0.0038,0.002767,0.0048));
#662=CARTESIAN_POINT('',(0.0038,0.002078495,0.0048));
#663=CARTESIAN_POINT('',(-0.0019,-0.002992,0.0048));
#664=MECHANICAL_DESIGN_GEOMETRIC_PRESENTATION_REPRESENTATION('',(#397),
#665);
#665=(
GEOMETRIC_REPRESENTATION_CONTEXT(3)
GLOBAL_UNCERTAINTY_ASSIGNED_CONTEXT((#666))
GLOBAL_UNIT_ASSIGNED_CONTEXT((#669,#668,#667))
REPRESENTATION_CONTEXT('Part 1','TOP_LEVEL_ASSEMBLY_PART')
);
#666=UNCERTAINTY_MEASURE_WITH_UNIT(LENGTH_MEASURE(2.E-5),#669,
'DISTANCE_ACCURACY_VALUE','Maximum Tolerance applied to model');
#667=(
NAMED_UNIT(*)
SI_UNIT($,.STERADIAN.)
SOLID_ANGLE_UNIT()
);
#668=(
NAMED_UNIT(*)
PLANE_ANGLE_UNIT()
SI_UNIT($,.RADIAN.)
);
#669=(
LENGTH_UNIT()
NAMED_UNIT(*)
SI_UNIT($,.METRE.)
);
#670=PRODUCT_DEFINITION_SHAPE('','',#671);
#671=PRODUCT_DEFINITION('','',#673,#672);
#672=PRODUCT_DEFINITION_CONTEXT('',#679,'design');
#673=PRODUCT_DEFINITION_FORMATION_WITH_SPECIFIED_SOURCE('','',#675,
 .NOT_KNOWN.);
#674=PRODUCT_RELATED_PRODUCT_CATEGORY('','',(#675));
#675=PRODUCT('Part 1','Part 1','Part 1',(#677));
#676=PRODUCT_CATEGORY('','');
#677=PRODUCT_CONTEXT('',#679,'mechanical');
#678=APPLICATION_PROTOCOL_DEFINITION('international standard',
'ap242_managed_model_based_3d_engineering',2020,#679);
#679=APPLICATION_CONTEXT('managed model based 3d engineering');
ENDSEC;
END-ISO-10303-21;
